<svg xmlns="http://www.w3.org/2000/svg" xmlns:xlink="http://www.w3.org/1999/xlink" width="89" height="128" viewBox="0 0 89 128">
  <defs>
    <clipPath id="clip-path">
      <rect id="Rectangle_2397" data-name="Rectangle 2397" width="89" height="128" transform="translate(-4715 -14309)" fill="#fff"/>
    </clipPath>
    <clipPath id="clip-path-2">
      <rect id="Rectangle_1935" data-name="Rectangle 1935" width="88.489" height="119.23" fill="none"/>
    </clipPath>
  </defs>
  <g id="Mask_Group_34" data-name="Mask Group 34" transform="translate(4715 14309)" clip-path="url(#clip-path)">
    <g id="Group_378" data-name="Group 378" transform="translate(-4715 -14305)">
      <g id="Group_236" data-name="Group 236" clip-path="url(#clip-path-2)">
        <path id="Path_23481" data-name="Path 23481" d="M82.295,42.64C77.7,18.011,68.022,3.39,44.783,3.5c-20.311.1-32.519,14.1-37.023,38.745C.9,79.8,10.664,87.523,18.311,91.207a171.878,171.878,0,0,1,53.208,0c7.648-3.684,17.931-10.214,10.776-48.567" transform="translate(-3.801 -2.447)" fill="#ef5350"/>
        <path id="Path_23482" data-name="Path 23482" d="M41.114,0C33.1.031,24.948,1.672,18.506,6.685,13.063,10.92,9.6,17.025,7.312,23.43,4.783,30.5,3.538,37.961,2.334,45.345.877,54.271-1.208,63.282.887,72.289,2.592,79.62,7.115,86.311,13.979,89.667c1.211.592,2.278-1.221,1.061-1.815A22.838,22.838,0,0,1,3.559,74.08c-2.766-8.664-.942-17.426.471-26.142a160.5,160.5,0,0,1,4.3-20.881c1.877-6.2,4.658-12.329,9.374-16.9C23.966,4.082,32.626,2.135,41.114,2.1a1.052,1.052,0,0,0,0-2.1" transform="translate(0 0)" fill="#221e1f"/>
        <path id="Path_23483" data-name="Path 23483" d="M69.869,111.171l-.951,15.038c-4.612,9.1-5.83,12.34-15.538,14.609.319,1.769-.129,2.737,1.683,5.326,2.609,3.727,8.549,5.328,12.643,6.138a20.868,20.868,0,0,1,12,6.7c5.512,6.442,7.228,16.934-2.046,20.737A91.855,91.855,0,0,1,44.628,186.2a91.852,91.852,0,0,1-33.037-6.482c-9.274-3.8-7.558-14.3-2.047-20.737a20.869,20.869,0,0,1,12-6.7c4.095-.81,10.034-2.411,12.643-6.138,1.812-2.588,1.364-3.557,1.683-5.326-9.708-2.269-11.145-5.18-15.757-14.28a85.784,85.784,0,0,1-.212-19.256c4.664.085,6.57-1.067,9.772-3.6,1.291-1.02,2.292.108,3.28-1.069a11.782,11.782,0,0,0,7.775-.994,11.491,11.491,0,0,0,1.658.744c6.279,2.242,6.31-.729,12.261-6.031L59.12,102.5c5.751,4.732,6.115,4.073,9.861,4.758Z" transform="translate(-3.514 -67.403)" fill="#fff"/>
        <path id="Path_23484" data-name="Path 23484" d="M79.271,284.749a20.864,20.864,0,0,0-12-6.7,42.559,42.559,0,0,1-4.822-1.221c-3.281,3.611-10.345,3.585-18.532,3.585-8.086,0-15.075.088-18.408-3.451a43.951,43.951,0,0,1-4.4,1.087,20.865,20.865,0,0,0-12,6.7c-5.512,6.442-7.228,16.934,2.046,20.737a91.852,91.852,0,0,0,33.037,6.483,91.856,91.856,0,0,0,33.038-6.483c9.273-3.8,7.558-14.3,2.046-20.737" transform="translate(-3.206 -193.684)" fill="#ef5350"/>
        <path id="Path_23485" data-name="Path 23485" d="M119.228,87.853c4.524-2.167,6.867-6.665,7.337-11.511.131-1.346-1.973-1.337-2.1,0-.4,4.143-2.461,7.859-6.3,9.7-1.22.584-.154,2.4,1.061,1.815" transform="translate(-82.3 -52.709)" fill="#221e1f"/>
        <path id="Path_23486" data-name="Path 23486" d="M145.611,87.853c4.524-2.167,6.867-6.665,7.337-11.511.13-1.346-1.973-1.337-2.1,0-.4,4.143-2.46,7.859-6.3,9.7-1.22.584-.154,2.4,1.061,1.815" transform="translate(-100.759 -52.709)" fill="#221e1f"/>
        <path id="Path_23487" data-name="Path 23487" d="M34.988,76.344c-.423,4.131-3.542,7.65-6.631,10.166-3.127,2.547-7.119,4.768-11.216,5.03a1.075,1.075,0,0,0-1.014.772,48.047,48.047,0,0,0-.8,10.751c.186,6.223,1.526,12.921,5.811,17.685,3.066,3.409,7.216,4.83,11.563,5.877l-.734-1.293a15.432,15.432,0,0,1-.554,3.3,8.778,8.778,0,0,1-3.146,3.815,23.515,23.515,0,0,1-8.466,3.313,29.415,29.415,0,0,0-9.056,3.205,20.527,20.527,0,0,0-6.536,6.325c-2.665,4.068-4.213,9.546-2.259,14.22,2.424,5.8,9.646,7.432,15.1,8.977a89.8,89.8,0,0,0,44.036,1.339,88.626,88.626,0,0,0,10.942-3.137c2.725-.982,5.55-1.985,7.561-4.174,3.47-3.778,3.333-9.257,1.482-13.762a21.342,21.342,0,0,0-15.06-12.493c-3.36-.8-6.752-1.408-9.785-3.164a9.86,9.86,0,0,1-3.73-3.59c-.78-1.353-.76-2.683-1-4.175l-.734,1.293c4.023-.957,7.874-2.135,10.931-5.046a20.089,20.089,0,0,0,4.962-8.108c1.869-5.437,2.055-11.452,1.5-17.13-.132-1.346-.29-2.7-.554-4.029a1.069,1.069,0,0,0-1.014-.772,14.715,14.715,0,0,1-12.346-8.691c-.509-1.233-2.544-.693-2.027.559A16.9,16.9,0,0,0,66.585,93.642l-1.014-.772a44.972,44.972,0,0,1,.729,9.474c-.1,5.691-1.129,11.989-4.9,16.48-2.926,3.482-6.9,4.75-11.195,5.772a1.078,1.078,0,0,0-.734,1.293,20.409,20.409,0,0,0,.438,2.969,10.083,10.083,0,0,0,2.234,3.708,16.733,16.733,0,0,0,6.881,4.068c2.693.946,5.526,1.286,8.234,2.153a19.321,19.321,0,0,1,8.339,5.2c3.251,3.515,5.706,8.965,4.312,13.79a8.777,8.777,0,0,1-4.538,5.3A51.148,51.148,0,0,1,65.353,166.6a87.468,87.468,0,0,1-42.16,1.255,89.431,89.431,0,0,1-10.485-2.94c-2.709-.946-5.665-1.868-7.575-4.143-3.235-3.854-1.994-9.51.312-13.487a18.454,18.454,0,0,1,7.162-6.966c3.113-1.7,6.5-2.12,9.855-3.062a20.425,20.425,0,0,0,8.163-4.013,10.493,10.493,0,0,0,2.665-3.7,14.863,14.863,0,0,0,.7-3.65,1.075,1.075,0,0,0-.734-1.293c-3.746-.9-7.374-2-10.142-4.813a18.545,18.545,0,0,1-4.358-7.8,40.964,40.964,0,0,1-1.074-15.765c.114-1.121.25-2.247.471-3.353l-1.014.772c4.695-.3,9.121-2.72,12.7-5.645S36.6,81.079,37.09,76.344c.138-1.345-1.965-1.335-2.1,0" transform="translate(-0.749 -52.712)" fill="#221e1f"/>
        <path id="Path_23488" data-name="Path 23488" d="M134.526,2.1c7.785.027,15.973,1.375,22.271,6.28,5.069,3.948,8.188,9.7,10.159,15.715,2.175,6.637,3.189,13.6,4.206,20.485,1.256,8.506,3.466,17.208,1.846,25.807-1.387,7.366-5.546,14.107-12.408,17.462-1.215.594-.151,2.408,1.061,1.815a24.911,24.911,0,0,0,12.391-14.855c2.98-9.122.993-18.317-.378-27.513-1.99-13.339-3.3-29.467-13.921-39.16C152.9,1.885,143.544.032,134.526,0a1.052,1.052,0,0,0,0,2.1" transform="translate(-93.412 0)" fill="#221e1f"/>
        <path id="Path_23489" data-name="Path 23489" d="M46.863,253.04a23.817,23.817,0,0,1-6.143-6.805A1.052,1.052,0,0,0,38.9,247.3a25.209,25.209,0,0,0,6.471,7.231c1.055.821,2.554-.657,1.487-1.487" transform="translate(-27.118 -171.922)" fill="#221e1f"/>
        <path id="Path_23490" data-name="Path 23490" d="M109.844,189.482c.13,3.972,4.743,5.439,8.057,5.536,3.541.1,7.938-1.385,8.057-5.536a1.052,1.052,0,0,0-2.1,0c-.082,2.878-3.689,3.5-5.955,3.433-2.026-.059-5.868-.8-5.955-3.433-.044-1.349-2.147-1.355-2.1,0" transform="translate(-76.853 -131.863)" fill="#221e1f"/>
        <path id="Path_23491" data-name="Path 23491" d="M168.9,154.229a5.165,5.165,0,0,0-8.066,0c-1.015,1.25.76,3.045,1.784,1.784,1.365-1.682,3.123-1.695,4.5,0,1.024,1.261,2.8-.534,1.784-1.784" transform="translate(-112.315 -106.552)" fill="#221e1f"/>
        <path id="Path_23492" data-name="Path 23492" d="M92.311,154.229a5.165,5.165,0,0,0-8.066,0c-1.015,1.25.76,3.045,1.784,1.784,1.366-1.682,3.123-1.695,4.5,0,1.024,1.261,2.8-.534,1.784-1.784" transform="translate(-58.731 -106.552)" fill="#221e1f"/>
        <path id="Path_23493" data-name="Path 23493" d="M184.877,264.8c1.109-.723,2.743-.181,3.65,1.21l1.868,2.609a9.641,9.641,0,0,1,.839-.865l-.907-9.041c-.173-1.652.754-3.1,2.071-3.24s2.524,1.09,2.7,2.741l.731,7.2a10.062,10.062,0,0,1,1.353-.192l3.214-7.848c.623-1.54,2.123-2.385,3.35-1.888s1.717,2.147,1.094,3.687l-2.817,6.9a10.157,10.157,0,0,1,1.239.657l4.037-5.171c1.017-1.313,2.689-1.722,3.736-.911s1.071,2.532.055,3.845l-4.451,5.716c.083.143.162.288.238.435l4.949-3.444c1.276-1.062,3-1.1,3.845-.081s.5,2.7-.778,3.766l-7.039,5.823a9.7,9.7,0,0,1-.583,2.091,10.007,10.007,0,0,1-19.208-4.37l-3.548-5.8c-.907-1.391-.743-3.105.365-3.828" transform="translate(-128.685 -178.656)" fill="#fff"/>
        <path id="Path_23494" data-name="Path 23494" d="M183.038,263.281c1.672-.883,3.3,2.349,4.079,3.442a1.065,1.065,0,0,0,1.651.213c.663-.742,1.166-1.109,1.1-2.1-.066-.954-.192-1.908-.287-2.86-.187-1.861-.47-3.74-.563-5.608a2.5,2.5,0,0,1,.368-1.766c.919-1.175,2-.012,2.255,1.028a14.513,14.513,0,0,1,.216,1.94q.275,2.709.55,5.418A1.072,1.072,0,0,0,193.736,264a7.259,7.259,0,0,1,1.073-.154,1.119,1.119,0,0,0,1.014-.772l1.775-4.334c.508-1.239,1.1-3.961,2.452-4.6,1.7-.805,1.725,1.472,1.335,2.495-.284.742-.6,1.473-.9,2.209l-1.846,4.524a1.048,1.048,0,0,0,.483,1.187c.428.2.832.416,1.239.657a1.059,1.059,0,0,0,1.274-.165l2.651-3.4c.651-.835,3.38-4.6,4.1-1.968.366,1.332-1.558,3.114-2.277,4.037l-2.585,3.319a1.1,1.1,0,0,0-.164,1.274l.238.435a1.058,1.058,0,0,0,1.438.377l3.3-2.3c.927-.645,4.117-3.257,4.376-.825.131,1.232-1.764,2.4-2.591,3.082l-4.012,3.319a12.924,12.924,0,0,0-1.218,1.008c-.691.737-.655,1.886-1.062,2.81A8.818,8.818,0,0,1,198,281.147a9.119,9.119,0,0,1-7.953-1.717c-2.333-1.883-3.094-4.355-3.315-7.214-.108-1.4-1.429-2.855-2.145-4.026-.775-1.267-2.957-3.792-1.339-5.073,1.061-.839-.436-2.318-1.486-1.487-2.043,1.617-1.16,4.071-.033,5.915l1.589,2.6a10.816,10.816,0,0,1,1.385,2.264,8.22,8.22,0,0,0,.5,3.6,11.111,11.111,0,0,0,10.741,7.533,10.848,10.848,0,0,0,10.16-7.4c.167-.493.113-1,.271-1.233a3.724,3.724,0,0,1,.7-.581l5-4.135c1.433-1.185,2.938-2.446,2.705-4.536-.364-3.263-4.025-3.084-6.084-1.625-1.565,1.109-3.149,2.192-4.723,3.287l1.438.377-.238-.435-.164,1.274,3.5-4.5c1.347-1.73,2.965-3.961,1.316-6.092-3.369-4.354-7.95,3.405-9.684,5.627l1.274-.165c-.408-.241-.812-.454-1.24-.657l.483,1.187L203.081,258a6.46,6.46,0,0,0,.693-2.92,3.289,3.289,0,0,0-2.916-3.2c-2.825-.211-3.785,2.627-4.649,4.736l-2.414,5.893,1.014-.772c-.549.053-1.09.127-1.632.229l1.331,1.014-.643-6.335a5.981,5.981,0,0,0-1.021-3.3,3.194,3.194,0,0,0-4.171-.927c-2.342,1.4-1.724,4.271-1.5,6.513l.641,6.385.308-.743c-.295.279-.569.562-.839.865l1.651.213c-1.616-2.256-3.634-5.949-6.956-4.2-1.2.632-.136,2.447,1.061,1.815" transform="translate(-126.316 -176.228)" fill="#221e1f"/>
        <path id="Path_23495" data-name="Path 23495" d="M205.467,299.543l1.2,1.678s8.126,1.643,6.267,6.237" transform="translate(-143.757 -209.579)" fill="#fff"/>
        <path id="Path_23496" data-name="Path 23496" d="M201.993,297.765c.5.7,1.016,1.8,1.829,2.161.476.214,1.085.273,1.583.439,1.986.659,4.875,1.963,3.949,4.505-.463,1.273,1.567,1.822,2.027.559,1.077-2.958-1.088-5.2-3.615-6.377a9.608,9.608,0,0,0-3.027-1.07c-.029,0-.3-.1-.317-.074.329-.391.719.935.366.168a9.439,9.439,0,0,0-.982-1.371c-.781-1.091-2.6-.042-1.815,1.061" transform="translate(-141.191 -207.27)" fill="#221e1f"/>
      </g>
    </g>
  </g>
</svg>
