<svg xmlns="http://www.w3.org/2000/svg" xmlns:xlink="http://www.w3.org/1999/xlink" width="89" height="128" viewBox="0 0 89 128">
  <defs>
    <clipPath id="clip-path">
      <rect id="Rectangle_2393" data-name="Rectangle 2393" width="89" height="128" transform="translate(-5441 -14252)" fill="#fff"/>
    </clipPath>
  </defs>
  <g id="Mask_Group_30" data-name="Mask Group 30" transform="translate(5441 14252)" clip-path="url(#clip-path)">
    <g id="Group_374" data-name="Group 374" transform="translate(-5435 -14248)">
      <path id="Path_23362" data-name="Path 23362" d="M1189.1,559.994c-1.363-2.155-5.836-7.656-6.477-10.238a24.44,24.44,0,0,1-.712-5.912l-6.8,3.334-2.522-8c-4.747,4.286-19.608,7.429-19.608,7.429-18.722,3.416-26.548,15.8-24.025,32.627.379,2.529.359,5.036,1.03,7.4-.182.036-.364.077-.545.129a7.46,7.46,0,0,0,4.1,14.322,6.648,6.648,0,0,0,.752-.266c4.388,8.657,8.65,11.275,17.886,13.433-.3,1.683.122,2.6-1.6,5.067-2.482,3.545-8.133,5.069-12.029,5.839a19.855,19.855,0,0,0-11.421,6.378c-5.244,6.129-6.876,16.111,1.947,19.73a83.177,83.177,0,0,0,62.864,0c8.824-3.619,7.191-13.6,1.947-19.73a19.854,19.854,0,0,0-11.421-6.378c-3.9-.77-9.547-2.294-12.029-5.839-1.724-2.463-1.3-3.384-1.6-5.067,9.236-2.159,13.5-4.776,17.886-13.433a6.7,6.7,0,0,0,.752.266,7.46,7.46,0,0,0,4.1-14.322c-.181-.052-.363-.093-.545-.129.671-2.364,2.458-6.272,2.458-8.829,0-4.114.135-7.389-1.432-11.2-1.349-3.282-1.088-3.664-2.951-6.609" transform="translate(-1121.816 -538.192)" fill="#fff"/>
      <path id="Path_23363" data-name="Path 23363" d="M1209.614,705.05a2.579,2.579,0,1,1-2.522-3.12,2.869,2.869,0,0,1,2.522,3.12" transform="translate(-1180.206 -654.439)" fill="#221e1f"/>
      <path id="Path_23364" data-name="Path 23364" d="M1292.2,705.05a2.579,2.579,0,1,1-2.522-3.12,2.869,2.869,0,0,1,2.522,3.12" transform="translate(-1239.194 -654.439)" fill="#221e1f"/>
      <path id="Path_23365" data-name="Path 23365" d="M1193.88,843.551a19.853,19.853,0,0,0-11.421-6.377,40.311,40.311,0,0,1-4.587-1.162c-3.122,3.436-9.842,3.411-17.632,3.411-7.693,0-14.343.084-17.514-3.282a41.66,41.66,0,0,1-4.182,1.033,19.851,19.851,0,0,0-11.421,6.377c-5.244,6.129-6.877,16.111,1.947,19.73a83.178,83.178,0,0,0,62.864,0c8.823-3.619,7.191-13.6,1.947-19.73" transform="translate(-1121.816 -750.207)" fill="#ef5350"/>
      <path id="Path_23366" data-name="Path 23366" d="M1227.861,751.46c.124,3.779,4.512,5.175,7.666,5.267,3.369.1,7.552-1.318,7.666-5.267a1,1,0,0,0-2,0c-.078,2.738-3.51,3.33-5.665,3.267-1.928-.056-5.583-.76-5.665-3.267-.042-1.284-2.043-1.29-2,0" transform="translate(-1196.841 -689.127)" fill="#221e1f"/>
      <path id="Path_23367" data-name="Path 23367" d="M1198.187,894.918a12.862,12.862,0,0,0-.161-2.245,44.52,44.52,0,0,1-6.866,3.231c-9.833,3.675-20.64,4.8-31.072,4.823a100.4,100.4,0,0,1-25.825-3.157,50.938,50.938,0,0,1-11.334-4.408,12.3,12.3,0,0,0-.076,2.24,60.213,60.213,0,0,0,15.04,5.1,106.09,106.09,0,0,0,22.2,2.222,104.028,104.028,0,0,0,25.454-2.989,53.855,53.855,0,0,0,12.645-4.821" transform="translate(-1121.824 -790.677)" fill="#fff"/>
      <path id="Path_23368" data-name="Path 23368" d="M1179.4,854.4a80.253,80.253,0,0,0,22.88-3.182,38.054,38.054,0,0,0,6.48-2.557,19.251,19.251,0,0,0-2.032-1.236c-1.286.584-2.551,1.04-3.538,1.389-7.24,2.559-15.1,3.393-22.731,3.57a83.671,83.671,0,0,1-24.025-2.647,38.447,38.447,0,0,1-5.978-2.137,19.045,19.045,0,0,0-2.078,1.326,41.961,41.961,0,0,0,7.524,2.74,84.361,84.361,0,0,0,23.5,2.735" transform="translate(-1140.072 -758.357)" fill="#fff"/>
      <path id="Path_23369" data-name="Path 23369" d="M1162.366,884.679a96.856,96.856,0,0,0,25.1-3.08,45.232,45.232,0,0,0,11.932-4.918,18.26,18.26,0,0,0-.825-1.809,43.86,43.86,0,0,1-9.911,4.3,89.771,89.771,0,0,1-26.3,3.51,93.227,93.227,0,0,1-25.44-3.254,42.957,42.957,0,0,1-10.113-4.179,17.972,17.972,0,0,0-.791,1.848,48.02,48.02,0,0,0,11.244,4.506,94.664,94.664,0,0,0,25.1,3.08" transform="translate(-1124.102 -777.963)" fill="#fff"/>
      <path id="Path_23370" data-name="Path 23370" d="M1168.71,868.415a89.433,89.433,0,0,0,24.688-3.173,38.526,38.526,0,0,0,9.724-4.107c-.2-.257-.4-.511-.61-.757-.239-.28-.488-.546-.741-.807q-.149.092-.3.182c-4.507,2.687-9.782,4.072-14.891,5.071a94.484,94.484,0,0,1-17.87,1.592,85.8,85.8,0,0,1-24.993-3.355,38.464,38.464,0,0,1-7.573-3.117c-.131.143-.264.286-.391.435-.3.345-.578.7-.85,1.074a38.842,38.842,0,0,0,5.666,2.643c8.856,3.371,18.735,4.3,28.14,4.32" transform="translate(-1130.446 -767.034)" fill="#fff"/>
      <path id="Path_23371" data-name="Path 23371" d="M1203.11,561.953c-1.363-2.155-5.836-7.657-6.477-10.239a24.455,24.455,0,0,1-.712-5.912l-6.8,3.334-2.522-8c-4.747,4.286-19.608,7.429-19.608,7.429-18.722,3.416-26.548,15.8-24.025,32.627.088.588.643,8.807,2.048,6.5.667-6.445.857-8.255,3.075-13.868,1.3-3.9,7.276-4.268,7.276-4.268l3.4-2.132s-2.319-1.707,0-4.382l4.807,3.37s1.934-5.284,7.152-5.844a9.869,9.869,0,0,0,4.485,3.776s7.425-6.305,12.2-1.879l-5.044,4.544s7.294-1.878,11.009,5.1c3.784,7.105.572,9.6,8.579,14.2l3.3,1.585c.773-2.382,2.242-5.81,2.242-8.129,0-4.114.135-7.39-1.432-11.2-1.349-3.281-1.088-3.663-2.951-6.608" transform="translate(-1135.878 -539.591)" fill="#ef5350"/>
      <path id="Path_23372" data-name="Path 23372" d="M1198.2,707.17c0,1.841.625,5.788-1.94,6.126a39.683,39.683,0,0,1-5.035,0,40.141,40.141,0,0,1-5.03,0c-2.565-.333-1.946-4.283-1.946-6.126a1,1,0,0,0-2,0c0,1.895-.306,4.141.594,5.88,1.012,1.954,2.7,2.247,4.661,2.247h6.673c1.745,0,3.449.179,4.748-1.26,1.665-1.846,1.274-4.573,1.274-6.866a1,1,0,0,0-2,0" transform="translate(-1164.227 -657.492)" fill="#221e1f"/>
      <path id="Path_23373" data-name="Path 23373" d="M1280.01,707.17c0,1.841.625,5.788-1.94,6.126a39.683,39.683,0,0,1-5.035,0,40.139,40.139,0,0,1-5.029,0c-2.565-.333-1.946-4.283-1.946-6.126a1,1,0,0,0-2,0c0,1.895-.306,4.141.594,5.88,1.012,1.955,2.7,2.247,4.661,2.247h6.673c1.745,0,3.449.179,4.748-1.26,1.665-1.846,1.274-4.573,1.274-6.866a1,1,0,0,0-2,0" transform="translate(-1222.661 -657.492)" fill="#221e1f"/>
      <path id="Path_23374" data-name="Path 23374" d="M1240.014,714.716c1.717-2.051,4.36-1.219,6.214.156,1.035.768,2.033-.968,1.01-1.727-2.539-1.883-6.361-2.564-8.639.156-.821.981.587,2.4,1.414,1.414" transform="translate(-1204.334 -661.268)" fill="#221e1f"/>
      <path id="Path_23375" data-name="Path 23375" d="M1187.449,557.029c-1.4-2.175-3.038-4.189-4.454-6.355a16.046,16.046,0,0,1-1.79-3.213,18.815,18.815,0,0,1-.809-6.078,1.013,1.013,0,0,0-1.505-.864l-6.8,3.334,1.469.6-2.522-8a1.013,1.013,0,0,0-1.672-.442c-3.534,3.1-8.86,4.447-13.282,5.694-3.406.96-6.912,1.53-10.307,2.507-9.868,2.839-17.972,9.677-20.133,20.016a33.28,33.28,0,0,0-.617,8.464c.087,1.737.351,3.44.554,5.164a47.4,47.4,0,0,0,.924,6.584l.7-1.23a8.418,8.418,0,1,0,4.836,16.115l-1.129-.46a25.942,25.942,0,0,0,7.36,9.422c3.257,2.4,7.239,3.553,11.124,4.471l-.7-1.23a14.678,14.678,0,0,1-.527,3.14,8.352,8.352,0,0,1-2.994,3.63,22.373,22.373,0,0,1-8.054,3.152,27.977,27.977,0,0,0-8.615,3.05,19.531,19.531,0,0,0-6.219,6.018c-2.536,3.87-4.008,9.082-2.149,13.53,2.307,5.518,9.177,7.071,14.366,8.54a85.427,85.427,0,0,0,41.9,1.274,84.366,84.366,0,0,0,10.41-2.984c2.593-.934,5.281-1.889,7.194-3.971,3.3-3.594,3.171-8.808,1.41-13.093a20.306,20.306,0,0,0-14.328-11.887c-3.2-.757-6.424-1.339-9.309-3.01a9.383,9.383,0,0,1-3.548-3.415,10.563,10.563,0,0,1-.95-3.973l-.7,1.23c3.885-.918,7.867-2.073,11.124-4.471a25.945,25.945,0,0,0,7.36-9.422l-1.13.46a8.418,8.418,0,1,0,4.837-16.115l.7,1.23c.675-2.284,1.665-4.472,2.19-6.8a27.954,27.954,0,0,0-1.675-15.06,30.033,30.033,0,0,0-2.54-5.548c-.68-1.09-2.411-.087-1.727,1.01a27.357,27.357,0,0,1,2.339,5.07,24.652,24.652,0,0,1,1.845,7.43,23.38,23.38,0,0,1-.317,7.167c-.55,2.109-1.427,4.113-2.043,6.2a1.011,1.011,0,0,0,.7,1.23,6.419,6.419,0,1,1-3.774,12.257,1,1,0,0,0-1.129.459c-1.716,3.352-3.774,6.661-6.891,8.884-3.076,2.194-6.767,3.231-10.4,4.09a1.026,1.026,0,0,0-.7,1.23,19.381,19.381,0,0,0,.417,2.825,9.591,9.591,0,0,0,2.125,3.528,15.92,15.92,0,0,0,6.547,3.87c2.562.9,5.258,1.224,7.834,2.048a18.383,18.383,0,0,1,7.934,4.948c3.093,3.344,5.428,8.53,4.1,13.12a8.35,8.35,0,0,1-4.318,5.045,48.666,48.666,0,0,1-9.529,3.348,83.218,83.218,0,0,1-40.112,1.194,85.089,85.089,0,0,1-9.975-2.8c-2.577-.9-5.39-1.777-7.207-3.942-3.078-3.667-1.9-9.048.3-12.832a17.56,17.56,0,0,1,6.814-6.628c2.962-1.614,6.182-2.017,9.376-2.914a19.429,19.429,0,0,0,7.766-3.818,9.974,9.974,0,0,0,2.536-3.522,14.15,14.15,0,0,0,.667-3.473,1.022,1.022,0,0,0-.7-1.23c-3.63-.858-7.322-1.9-10.4-4.09-3.117-2.223-5.175-5.532-6.891-8.884a1,1,0,0,0-1.129-.459,6.419,6.419,0,1,1-3.773-12.257,1.014,1.014,0,0,0,.7-1.23,43,43,0,0,1-.853-6.052c-.172-1.48-.408-2.948-.511-4.436a32.278,32.278,0,0,1,.318-7.693,23.194,23.194,0,0,1,6.109-12.356,29.241,29.241,0,0,1,13.583-7.445c3.211-.857,6.48-1.428,9.683-2.336,4.738-1.343,10.235-2.848,14.017-6.166l-1.672-.441,2.522,8a1.016,1.016,0,0,0,1.469.6l6.8-3.333-1.5-.864a17.728,17.728,0,0,0,2.479,9.691c1.507,2.4,3.315,4.586,4.847,6.965.694,1.079,2.427.077,1.727-1.01" transform="translate(-1119.306 -535.731)" fill="#221e1f"/>
      <path id="Path_23376" data-name="Path 23376" d="M1255.052,612.055c2.709-2.281,7.584-4.681,10.784-1.879v-1.414l-5.044,4.544a1.008,1.008,0,0,0,.973,1.672,9.079,9.079,0,0,1,4.239.071c3.361.826,5.357,3.5,6.588,6.588.876,2.2,1.1,4.6,2.034,6.774,1.14,2.654,3.537,4.351,5.957,5.766a1,1,0,0,0,1.01-1.727c-2.57-1.5-4.749-3.17-5.579-6.123-.808-2.87-1.4-5.692-2.965-8.29a10.9,10.9,0,0,0-11.814-4.988l.973,1.672,5.044-4.544a1.007,1.007,0,0,0,0-1.414c-4.126-3.612-9.922-1.227-13.612,1.879-.986.83.435,2.239,1.414,1.414" transform="translate(-1215.015 -586.596)" fill="#221e1f"/>
      <path id="Path_23377" data-name="Path 23377" d="M1214.6,612.72a8.364,8.364,0,0,1,6.188-5.11c1.258-.166,1.274-2.169,0-2a10.154,10.154,0,0,0-8.117,6.578c-.452,1.207,1.481,1.728,1.929.532" transform="translate(-1185.946 -585.635)" fill="#221e1f"/>
      <path id="Path_23378" data-name="Path 23378" d="M1194.84,618.7c.385.292.008,0-.072-.1a2.047,2.047,0,0,1-.347-.521,2.2,2.2,0,0,1,.621-2.193c.811-.987-.6-2.41-1.414-1.414a4.323,4.323,0,0,0-1.154,4.092,3.841,3.841,0,0,0,1.356,1.86c1.026.777,2.024-.959,1.01-1.727" transform="translate(-1171.449 -591.73)" fill="#221e1f"/>
      <path id="Path_23379" data-name="Path 23379" d="M1166.745,637.08c-3.321.223-7,1.681-8.241,5-.45,1.208,1.483,1.73,1.929.532.888-2.386,3.974-3.377,6.312-3.534,1.278-.086,1.287-2.086,0-2" transform="translate(-1147.256 -608.118)" fill="#221e1f"/>
      <path id="Path_23380" data-name="Path 23380" d="M1170.318,829.13c0,4.348-1.8,5.061-5.32,5.061s-6.092-1.209-6.092-3.872,2.855-6.251,6.378-6.251,5.034.239,5.034,5.061" transform="translate(-1147.59 -741.677)" fill="#fff"/>
      <path id="Path_23381" data-name="Path 23381" d="M1166.823,826.478c-.015,1.085-.021,2.493-.874,3.3a4.231,4.231,0,0,1-2.764.749c-2.343.083-6.442-.346-5.667-3.668a6,6,0,0,1,6.354-4.429,3.216,3.216,0,0,1,2.265.619c.771.821.676,2.4.686,3.427a1,1,0,0,0,2,0c-.024-2.329-.331-5.054-2.934-5.794a8.381,8.381,0,0,0-8.052,1.886c-1.914,1.853-3.373,5.116-1.674,7.568,1.686,2.432,5.451,2.62,8.1,2.311,3.367-.393,4.514-2.8,4.558-5.971a1,1,0,0,0-2,0" transform="translate(-1145.096 -739.024)" fill="#221e1f"/>
      <path id="Path_23382" data-name="Path 23382" d="M1134.87,826.481l4.895.015a2.6,2.6,0,1,1,0,5.2h-4.615c-5.621,0-9.9-4.681-9.9-10.457s4.276-10.488,9.9-10.488l4.615-.031a2.6,2.6,0,1,1,0,5.2l-4.895.045,4.895.045a2.6,2.6,0,1,1,0,5.2l-4.895.03,4.895.03a2.6,2.6,0,1,1,0,5.2Z" transform="translate(-1123.554 -732.142)" fill="#fff"/>
      <path id="Path_23383" data-name="Path 23383" d="M1132.449,824.8l4.021.013a2.731,2.731,0,0,1,2,.444c1.273,1.148.129,2.671-1.262,2.757-3.4.21-7.315.292-10.047-2.022a10.064,10.064,0,0,1-1.143-13.729,8.712,8.712,0,0,1,6.319-3.185c1.37-.061,2.75-.024,4.122-.033.9-.006,1.822-.074,2.333.852.762,1.38-.535,2.281-1.762,2.343-1.521.078-3.059.028-4.583.042a1,1,0,0,0,0,2c1.493.014,6.564-.753,6.565,1.644s-5.072,1.62-6.565,1.63a1,1,0,0,0,0,2c1.493.009,6.564-.774,6.565,1.629s-5.072,1.609-6.565,1.614a1,1,0,0,0,0,2c2.923-.009,8.565.848,8.565-3.614s-5.643-3.612-8.565-3.63v2c2.923-.018,8.565.825,8.565-3.63s-5.643-3.618-8.565-3.645v2c1.627-.015,3.271.041,4.9-.045,3.228-.171,5.02-4.129,2.358-6.346-1.6-1.328-4.275-.839-6.2-.826a11.5,11.5,0,0,0-7.237,2.2c-5.2,4-5.848,12.019-1.663,16.984a10.783,10.783,0,0,0,8.124,3.762,40.2,40.2,0,0,0,5.009-.028,3.6,3.6,0,0,0,1-6.893,9,9,0,0,0-3.279-.283l-3.008-.009a1,1,0,0,0,0,2" transform="translate(-1121.133 -729.46)" fill="#221e1f"/>
    </g>
  </g>
</svg>
