<?xml version="1.0" encoding="UTF-8"?>
<svg id="_レイヤー_2" data-name="レイヤー 2" xmlns="http://www.w3.org/2000/svg" viewBox="0 0 445.5 320.47">
  <defs>
    <style>
      .cls-1 {
        fill: #00b496;
      }
    </style>
  </defs>
  <g id="_レイヤー_1-2" data-name="レイヤー 1">
    <g>
      <path class="cls-1" d="M325.96,84.45h-38.45c-11.58,0-21-9.42-21-21V25c0-2.76,2.24-5,5-5s5,2.24,5,5v38.45c0,6.07,4.93,11,11,11h38.45c2.76,0,5,2.24,5,5s-2.24,5-5,5Z"/>
      <path class="cls-1" d="M345.97,130.58c-2.76,0-5-2.24-5-5v-53.95l-66.41-61.63H105.43v115.58c0,2.76-2.24,5-5,5s-5-2.24-5-5V5c0-2.76,2.24-5,5-5h176.08c1.26,0,2.48.48,3.4,1.33l69.45,64.45c1.02.95,1.6,2.27,1.6,3.67v56.13c0,2.76-2.24,5-5,5Z"/>
      <path class="cls-1" d="M345.97,320.47H100.43c-2.76,0-5-2.24-5-5v-80.58c0-2.76,2.24-5,5-5s5,2.24,5,5v75.58h235.53v-75.58c0-2.76,2.24-5,5-5s5,2.24,5,5v80.58c0,2.76-2.24,5-5,5Z"/>
      <g>
        <path class="cls-1" d="M36.27,187.83c1.38,0,2.58.51,3.6,1.53,1.02,1.02,1.53,2.22,1.53,3.6v.54c0,1.38-.51,2.58-1.53,3.6-1.02,1.02-2.22,1.53-3.6,1.53h-1.26c-.54,0-.81.24-.81.72v7.65c0,1.38-.51,2.58-1.53,3.6-1.02,1.02-2.22,1.53-3.6,1.53h-1.89c-1.38,0-2.58-.51-3.6-1.53-1.02-1.02-1.53-2.22-1.53-3.6v-7.65c0-.48-.27-.72-.81-.72H5.13c-1.38,0-2.58-.51-3.6-1.53-1.02-1.02-1.53-2.22-1.53-3.6v-.54c0-3.54.75-6.78,2.25-9.72l16.2-32.22c1.56-3.06,4.02-4.59,7.38-4.59h3.24c1.38,0,2.58.51,3.6,1.53,1.02,1.02,1.53,2.22,1.53,3.6v35.46c0,.54.27.81.81.81h1.26ZM22.05,187.02v-22.05c0-.06-.03-.09-.09-.09s-.09.03-.09.09l-11.43,22.59v.18c0,.06.03.09.09.09h10.71c.54,0,.81-.27.81-.81Z"/>
        <path class="cls-1" d="M55.12,148.46c2.67-1.95,6.19-2.92,10.58-2.92s7.9.97,10.58,2.92c2.67,1.95,4.72,5.43,6.17,10.44,1.44,5.01,2.16,11.81,2.16,20.39s-.72,15.38-2.16,20.38c-1.44,5.01-3.5,8.49-6.17,10.44-2.67,1.95-6.2,2.93-10.58,2.93s-7.91-.97-10.58-2.93c-2.67-1.95-4.72-5.43-6.17-10.44-1.44-5.01-2.16-11.8-2.16-20.38s.72-15.38,2.16-20.39c1.44-5.01,3.49-8.49,6.17-10.44ZM65.7,155.88c-1.68,0-3.02.58-4,1.75-.99,1.17-1.77,3.5-2.34,6.98-.57,3.48-.85,8.37-.85,14.67v3.51c0,.12.06.18.18.18s.21-.03.27-.09l12.06-20.88c.3-.48.36-.96.18-1.44-1.02-3.12-2.85-4.68-5.49-4.68ZM65.7,202.68c1.68,0,3.02-.58,4-1.75.99-1.17,1.77-3.49,2.34-6.97.57-3.48.85-8.37.85-14.67,0-2.46-.03-4.23-.09-5.31,0-.12-.04-.18-.13-.18s-.17.06-.23.18l-12.33,21.33c-.3.48-.39.96-.27,1.44.54,2.22,1.29,3.77,2.25,4.63.96.87,2.16,1.3,3.6,1.3Z"/>
        <path class="cls-1" d="M126.27,187.83c1.38,0,2.58.51,3.6,1.53,1.02,1.02,1.53,2.22,1.53,3.6v.54c0,1.38-.51,2.58-1.53,3.6-1.02,1.02-2.22,1.53-3.6,1.53h-1.26c-.54,0-.81.24-.81.72v7.65c0,1.38-.51,2.58-1.53,3.6-1.02,1.02-2.22,1.53-3.6,1.53h-1.89c-1.38,0-2.58-.51-3.6-1.53-1.02-1.02-1.53-2.22-1.53-3.6v-7.65c0-.48-.27-.72-.81-.72h-16.11c-1.38,0-2.58-.51-3.6-1.53-1.02-1.02-1.53-2.22-1.53-3.6v-.54c0-3.54.75-6.78,2.25-9.72l16.2-32.22c1.56-3.06,4.02-4.59,7.38-4.59h3.24c1.38,0,2.58.51,3.6,1.53,1.02,1.02,1.53,2.22,1.53,3.6v35.46c0,.54.27.81.81.81h1.26ZM112.05,187.02v-22.05c0-.06-.03-.09-.09-.09s-.09.03-.09.09l-11.43,22.59v.18c0,.06.03.09.09.09h10.71c.54,0,.81-.27.81-.81Z"/>
        <path class="cls-1" d="M257.67,146.43c1.38,0,2.58.51,3.6,1.53,1.02,1.02,1.53,2.22,1.53,3.6v.54c0,1.38-.51,2.58-1.53,3.6-1.02,1.02-2.22,1.53-3.6,1.53h-14.76c-.54,0-.81.24-.81.72v13.32c0,.54.27.81.81.81h13.86c1.38,0,2.58.51,3.6,1.53,1.02,1.02,1.53,2.22,1.53,3.6v.09c0,1.38-.51,2.58-1.53,3.6-1.02,1.02-2.22,1.53-3.6,1.53h-13.86c-.54,0-.81.24-.81.72v17.37c0,.54.27.81.81.81h14.76c1.38,0,2.58.51,3.6,1.53,1.02,1.02,1.53,2.22,1.53,3.6v.54c0,1.38-.51,2.58-1.53,3.6-1.02,1.02-2.22,1.53-3.6,1.53h-23.04c-1.38,0-2.58-.51-3.6-1.53-1.02-1.02-1.53-2.22-1.53-3.6v-55.44c0-1.38.51-2.58,1.53-3.6,1.02-1.02,2.22-1.53,3.6-1.53h23.04Z"/>
        <path class="cls-1" d="M306.36,194.67l3.96,12.6c.36,1.2.16,2.31-.58,3.33-.75,1.02-1.76,1.53-3.02,1.53h-2.79c-1.5,0-2.85-.46-4.05-1.39-1.2-.93-2.01-2.12-2.43-3.56l-3.78-13.41c-.72-2.64-1.49-4.38-2.3-5.22-.81-.84-2.09-1.26-3.82-1.26h-1.89c-.54,0-.81.27-.81.81v18.9c0,1.38-.51,2.58-1.53,3.6-1.02,1.02-2.22,1.53-3.6,1.53h-2.34c-1.38,0-2.58-.51-3.6-1.53-1.02-1.02-1.53-2.22-1.53-3.6v-54.99c0-1.5.48-2.8,1.44-3.91.96-1.11,2.16-1.76,3.6-1.94,3.54-.42,7.41-.63,11.61-.63,7.44,0,12.82,1.61,16.15,4.81,3.33,3.21,5,8.41,5,15.62,0,4.8-.72,8.59-2.16,11.38-1.44,2.79-3.63,4.94-6.57,6.44-.06,0-.09.06-.09.18,0,.06.03.12.09.18,1.56,1.26,3.24,4.77,5.04,10.53ZM287.55,176.76c3.84,0,6.51-.73,8.01-2.21,1.5-1.47,2.25-4.33,2.25-8.59,0-3.48-.76-6-2.29-7.56-1.53-1.56-3.89-2.34-7.06-2.34-1.02,0-1.95.09-2.79.27-.54.12-.81.42-.81.9v18.72c0,.54.27.81.81.81h1.89Z"/>
        <path class="cls-1" d="M351.36,194.67l3.96,12.6c.36,1.2.16,2.31-.58,3.33-.75,1.02-1.76,1.53-3.02,1.53h-2.79c-1.5,0-2.85-.46-4.05-1.39-1.2-.93-2.01-2.12-2.43-3.56l-3.78-13.41c-.72-2.64-1.49-4.38-2.3-5.22-.81-.84-2.09-1.26-3.82-1.26h-1.89c-.54,0-.81.27-.81.81v18.9c0,1.38-.51,2.58-1.53,3.6-1.02,1.02-2.22,1.53-3.6,1.53h-2.34c-1.38,0-2.58-.51-3.6-1.53-1.02-1.02-1.53-2.22-1.53-3.6v-54.99c0-1.5.48-2.8,1.44-3.91.96-1.11,2.16-1.76,3.6-1.94,3.54-.42,7.41-.63,11.61-.63,7.44,0,12.82,1.61,16.15,4.81,3.33,3.21,5,8.41,5,15.62,0,4.8-.72,8.59-2.16,11.38-1.44,2.79-3.63,4.94-6.57,6.44-.06,0-.09.06-.09.18,0,.06.03.12.09.18,1.56,1.26,3.24,4.77,5.04,10.53ZM332.55,176.76c3.84,0,6.51-.73,8.01-2.21,1.5-1.47,2.25-4.33,2.25-8.59,0-3.48-.76-6-2.29-7.56-1.53-1.56-3.89-2.34-7.06-2.34-1.02,0-1.95.09-2.79.27-.54.12-.81.42-.81.9v18.72c0,.54.27.81.81.81h1.89Z"/>
        <path class="cls-1" d="M364.91,153.09c3.27-5.04,8.53-7.56,15.79-7.56s12.52,2.52,15.79,7.56c3.27,5.04,4.91,13.77,4.91,26.19s-1.64,21.15-4.91,26.19c-3.27,5.04-8.54,7.56-15.79,7.56s-12.53-2.52-15.79-7.56c-3.27-5.04-4.91-13.77-4.91-26.19s1.63-21.15,4.91-26.19ZM373.95,197.6c1.38,3.21,3.63,4.81,6.75,4.81s5.37-1.6,6.75-4.81c1.38-3.21,2.07-9.31,2.07-18.31s-.69-15.11-2.07-18.32c-1.38-3.21-3.63-4.81-6.75-4.81s-5.37,1.61-6.75,4.81c-1.38,3.21-2.07,9.32-2.07,18.32s.69,15.11,2.07,18.31Z"/>
        <path class="cls-1" d="M441.36,194.67l3.96,12.6c.36,1.2.16,2.31-.58,3.33-.75,1.02-1.76,1.53-3.02,1.53h-2.79c-1.5,0-2.85-.46-4.05-1.39-1.2-.93-2.01-2.12-2.43-3.56l-3.78-13.41c-.72-2.64-1.49-4.38-2.3-5.22-.81-.84-2.09-1.26-3.82-1.26h-1.89c-.54,0-.81.27-.81.81v18.9c0,1.38-.51,2.58-1.53,3.6-1.02,1.02-2.22,1.53-3.6,1.53h-2.34c-1.38,0-2.58-.51-3.6-1.53-1.02-1.02-1.53-2.22-1.53-3.6v-54.99c0-1.5.48-2.8,1.44-3.91.96-1.11,2.16-1.76,3.6-1.94,3.54-.42,7.41-.63,11.61-.63,7.44,0,12.82,1.61,16.15,4.81,3.33,3.21,5,8.41,5,15.62,0,4.8-.72,8.59-2.16,11.38-1.44,2.79-3.63,4.94-6.57,6.44-.06,0-.09.06-.09.18,0,.06.03.12.09.18,1.56,1.26,3.24,4.77,5.04,10.53ZM422.55,176.76c3.84,0,6.51-.73,8.01-2.21,1.5-1.47,2.25-4.33,2.25-8.59,0-3.48-.76-6-2.29-7.56-1.53-1.56-3.89-2.34-7.06-2.34-1.02,0-1.95.09-2.79.27-.54.12-.81.42-.81.9v18.72c0,.54.27.81.81.81h1.89Z"/>
      </g>
      <g>
        <path class="cls-1" d="M181.1,168.55c.5,0,.92.18,1.28.55.36.37.52.8.5,1.3l-.52,12.34c-.02.52-.22.96-.58,1.31-.37.36-.81.53-1.33.53h-.52c-.52,0-.96-.18-1.33-.53-.37-.36-.56-.79-.58-1.31l-.52-12.34c-.02-.5.15-.93.5-1.3.36-.37.78-.55,1.28-.55h1.81ZM180.94,187.34c.5,0,.93.18,1.3.55.37.37.55.8.55,1.3v1.17c0,.5-.18.93-.55,1.3-.37.37-.8.55-1.3.55h-1.49c-.5,0-.93-.18-1.3-.55-.37-.37-.55-.8-.55-1.3v-1.17c0-.5.18-.93.55-1.3.37-.37.8-.55,1.3-.55h1.49Z"/>
        <path class="cls-1" d="M215.22,202.89h-69.99c-.92,0-1.77-.5-2.2-1.32s-.39-1.79.12-2.56l35-53c.46-.7,1.25-1.12,2.09-1.12s1.62.42,2.09,1.12l35,53c.51.77.55,1.75.12,2.56s-1.28,1.32-2.2,1.32ZM149.88,197.89h60.7l-30.35-45.96-30.35,45.96Z"/>
      </g>
    </g>
  </g>
</svg>