<?xml version="1.0" encoding="UTF-8"?>
<svg id="_レイヤー_2" data-name="レイヤー 2" xmlns="http://www.w3.org/2000/svg" viewBox="0 0 400.49 320.47">
  <defs>
    <style>
      .cls-1 {
        fill: #50b482;
      }

      .cls-2 {
        fill: #ffd800;
      }

      .cls-3 {
        fill: #fff;
      }
    </style>
  </defs>
  <g id="_レイヤー_1-2" data-name="レイヤー 1">
    <g>
      <path class="cls-2" d="M221.01,216.67l-58.03-87.89c-2.33-3.53-6.15-3.53-8.49,0l-58.03,87.89c-2.33,3.53-.78,6.43,3.46,6.43h117.64c4.24,0,5.79-2.89,3.46-6.43ZM163.6,204.01c0,.95-.35,1.77-1.05,2.46-.7.7-1.52,1.05-2.46,1.05h-2.83c-.95,0-1.77-.35-2.46-1.05-.7-.7-1.05-1.52-1.05-2.46v-2.22c0-.94.35-1.76,1.05-2.46.7-.7,1.52-1.05,2.46-1.05h2.83c.94,0,1.76.35,2.46,1.05.7.7,1.05,1.52,1.05,2.46v2.22ZM162.8,189.53c-.04.99-.41,1.82-1.11,2.49-.7.68-1.54,1.02-2.53,1.02h-.99c-.99,0-1.83-.34-2.53-1.02-.7-.68-1.07-1.51-1.11-2.49l-.99-23.46c-.04-.94.28-1.76.95-2.46.68-.7,1.49-1.05,2.43-1.05h3.45c.94,0,1.76.35,2.43,1.05.68.7,1,1.52.95,2.46l-.99,23.46Z"/>
      <path class="cls-1" d="M303.46,84.45h-38.45c-11.58,0-21-9.42-21-21V25c0-2.76,2.24-5,5-5s5,2.24,5,5v38.45c0,6.07,4.93,11,11,11h38.45c2.76,0,5,2.24,5,5s-2.24,5-5,5Z"/>
      <path class="cls-1" d="M323.47,130.58c-2.76,0-5-2.24-5-5v-53.95L252.05,10H82.93v115.58c0,2.76-2.24,5-5,5s-5-2.24-5-5V5c0-2.76,2.24-5,5-5h176.08c1.26,0,2.48.48,3.4,1.33l69.45,64.45c1.02.95,1.6,2.27,1.6,3.67v56.13c0,2.76-2.24,5-5,5Z"/>
      <path class="cls-1" d="M323.47,320.47H77.93c-2.76,0-5-2.24-5-5v-80.58c0-2.76,2.24-5,5-5s5,2.24,5,5v75.58h235.53v-75.58c0-2.76,2.24-5,5-5s5,2.24,5,5v80.58c0,2.76-2.24,5-5,5Z"/>
      <g>
        <path class="cls-1" d="M36.27,187.83c1.38,0,2.58.51,3.6,1.53,1.02,1.02,1.53,2.22,1.53,3.6v.54c0,1.38-.51,2.58-1.53,3.6s-2.22,1.53-3.6,1.53h-1.26c-.54,0-.81.24-.81.72v7.65c0,1.38-.51,2.58-1.53,3.6-1.02,1.02-2.22,1.53-3.6,1.53h-1.89c-1.38,0-2.58-.51-3.6-1.53-1.02-1.02-1.53-2.22-1.53-3.6v-7.65c0-.48-.27-.72-.81-.72H5.13c-1.38,0-2.58-.51-3.6-1.53-1.02-1.02-1.53-2.22-1.53-3.6v-.54c0-3.54.75-6.78,2.25-9.72l16.2-32.22c1.56-3.06,4.02-4.59,7.38-4.59h3.24c1.38,0,2.58.51,3.6,1.53,1.02,1.02,1.53,2.22,1.53,3.6v35.46c0,.54.27.81.81.81h1.26ZM22.05,187.02v-22.05c0-.06-.03-.09-.09-.09s-.09.03-.09.09l-11.43,22.59v.18c0,.06.03.09.09.09h10.71c.54,0,.81-.27.81-.81Z"/>
        <path class="cls-1" d="M55.12,148.46c2.67-1.95,6.19-2.92,10.58-2.92s7.9.98,10.58,2.92c2.67,1.95,4.72,5.43,6.17,10.44,1.44,5.01,2.16,11.81,2.16,20.39s-.72,15.38-2.16,20.38c-1.44,5.01-3.5,8.49-6.17,10.44-2.67,1.95-6.2,2.93-10.58,2.93s-7.91-.97-10.58-2.93c-2.67-1.95-4.72-5.43-6.17-10.44-1.44-5.01-2.16-11.8-2.16-20.38s.72-15.38,2.16-20.39c1.44-5.01,3.49-8.49,6.17-10.44ZM65.7,155.88c-1.68,0-3.02.58-4,1.75-.99,1.17-1.77,3.5-2.34,6.98-.57,3.48-.85,8.37-.85,14.67v3.51c0,.12.06.18.18.18s.21-.03.27-.09l12.06-20.88c.3-.48.36-.96.18-1.44-1.02-3.12-2.85-4.68-5.49-4.68ZM65.7,202.68c1.68,0,3.01-.58,4-1.75s1.77-3.49,2.34-6.97c.57-3.48.86-8.37.86-14.67,0-2.46-.03-4.23-.09-5.31,0-.12-.04-.18-.13-.18s-.17.06-.22.18l-12.33,21.33c-.3.48-.39.96-.27,1.44.54,2.22,1.29,3.77,2.25,4.63.96.87,2.16,1.3,3.6,1.3Z"/>
        <g>
          <path class="cls-1" d="M117.18,214.13c-1.93,0-3.61-.71-5.02-2.12-1.4-1.4-2.11-3.09-2.11-5.01v-6.37h-14.92c-1.93,0-3.61-.71-5.02-2.12-1.4-1.4-2.11-3.09-2.11-5.01v-.54c0-3.84.83-7.42,2.47-10.63l16.19-32.21c1.9-3.73,5.07-5.69,9.17-5.69h3.24c1.92,0,3.61.71,5.01,2.12,1.41,1.41,2.12,3.09,2.12,5.01v34.27h.07c1.92,0,3.61.71,5.01,2.11,1.41,1.41,2.12,3.09,2.12,5.02v.54c0,1.92-.71,3.61-2.12,5.01-1.4,1.4-3.09,2.12-5.01,2.12h-.07v6.37c0,1.92-.71,3.61-2.12,5.01-1.4,1.4-3.09,2.12-5.01,2.12h-1.89ZM110.05,185.83v-12.83l-6.49,12.83h6.49Z"/>
          <path class="cls-3" d="M119.07,146.43c1.38,0,2.58.51,3.6,1.53,1.02,1.02,1.53,2.22,1.53,3.6v35.46c0,.54.27.81.81.81h1.26c1.38,0,2.58.51,3.6,1.53,1.02,1.02,1.53,2.22,1.53,3.6v.54c0,1.38-.51,2.58-1.53,3.6s-2.22,1.53-3.6,1.53h-1.26c-.54,0-.81.24-.81.72v7.65c0,1.38-.51,2.58-1.53,3.6-1.02,1.02-2.22,1.53-3.6,1.53h-1.89c-1.38,0-2.58-.51-3.6-1.53-1.02-1.02-1.53-2.22-1.53-3.6v-7.65c0-.48-.27-.72-.81-.72h-16.11c-1.38,0-2.58-.51-3.6-1.53-1.02-1.02-1.53-2.22-1.53-3.6v-.54c0-3.54.75-6.78,2.25-9.72l16.2-32.22c1.56-3.06,4.02-4.59,7.38-4.59h3.24M100.53,187.83h10.71c.54,0,.81-.27.81-.81v-22.05c0-.06-.03-.09-.09-.09s-.09.03-.09.09l-11.43,22.59v.18c0,.06.03.09.09.09M119.07,142.43h-3.24c-4.83,0-8.72,2.41-10.94,6.77l-16.21,32.24c-1.77,3.47-2.68,7.35-2.68,11.52v.54c0,2.44.94,4.66,2.7,6.43,1.76,1.76,3.98,2.7,6.43,2.7h12.92v4.37c0,2.44.94,4.66,2.7,6.43,1.76,1.76,3.98,2.7,6.43,2.7h1.89c2.44,0,4.66-.93,6.43-2.7,1.77-1.77,2.7-3.99,2.7-6.43v-4.57c1.68-.36,3.21-1.21,4.5-2.5,1.77-1.77,2.7-3.99,2.7-6.43v-.54c0-2.44-.93-4.66-2.7-6.43-1.29-1.29-2.82-2.14-4.5-2.5v-32.47c0-2.44-.93-4.66-2.7-6.43-1.77-1.77-3.99-2.7-6.43-2.7h0ZM106.81,183.83l1.24-2.45v2.45h-1.24Z"/>
        </g>
        <g>
          <path class="cls-1" d="M189.63,214.13c-1.93,0-3.61-.71-5.02-2.12-1.4-1.4-2.11-3.09-2.11-5.01v-55.44c0-1.92.71-3.61,2.12-5.01,1.4-1.4,3.09-2.12,5.01-2.12h23.04c1.92,0,3.61.71,5.01,2.12,1.41,1.41,2.12,3.09,2.12,5.01v.54c0,1.92-.71,3.61-2.12,5.01-1.4,1.4-3.09,2.12-5.01,2.12h-13.57v10.85h12.67c1.92,0,3.61.71,5.01,2.11,1.41,1.41,2.12,3.09,2.12,5.02s-.71,3.7-2.12,5.1c-1.4,1.4-3.09,2.12-5.01,2.12h-12.67v14.9h13.57c1.92,0,3.61.71,5.01,2.12,1.41,1.41,2.12,3.09,2.12,5.01v.54c0,1.92-.71,3.61-2.12,5.01-1.4,1.4-3.09,2.12-5.01,2.12h-23.04Z"/>
          <path class="cls-3" d="M212.67,146.43c1.38,0,2.58.51,3.6,1.53,1.02,1.02,1.53,2.22,1.53,3.6v.54c0,1.38-.51,2.58-1.53,3.6s-2.22,1.53-3.6,1.53h-14.76c-.54,0-.81.24-.81.72v13.32c0,.54.27.81.81.81h13.86c1.38,0,2.58.51,3.6,1.53,1.02,1.02,1.53,2.22,1.53,3.6v.09c0,1.38-.51,2.58-1.53,3.6s-2.22,1.53-3.6,1.53h-13.86c-.54,0-.81.24-.81.72v17.37c0,.54.27.81.81.81h14.76c1.38,0,2.58.51,3.6,1.53,1.02,1.02,1.53,2.22,1.53,3.6v.54c0,1.38-.51,2.58-1.53,3.6-1.02,1.02-2.22,1.53-3.6,1.53h-23.04c-1.38,0-2.58-.51-3.6-1.53-1.02-1.02-1.53-2.22-1.53-3.6v-55.44c0-1.38.51-2.58,1.53-3.6,1.02-1.02,2.22-1.53,3.6-1.53h23.04M212.67,142.43h-23.04c-2.44,0-4.66.93-6.43,2.7-1.77,1.77-2.7,3.99-2.7,6.43v55.44c0,2.44.94,4.66,2.7,6.43,1.76,1.76,3.98,2.7,6.43,2.7h23.04c2.44,0,4.66-.93,6.43-2.7,1.77-1.77,2.7-3.99,2.7-6.43v-.54c0-2.44-.93-4.66-2.7-6.43-1.77-1.77-3.99-2.7-6.43-2.7h-11.57v-10.9h10.67c2.44,0,4.66-.93,6.43-2.7,1.77-1.77,2.7-3.99,2.7-6.43v-.09c0-2.44-.93-4.66-2.7-6.43-1.77-1.77-4-2.7-6.43-2.7h-10.67v-6.85h11.57c2.44,0,4.66-.93,6.43-2.7,1.77-1.77,2.7-3.99,2.7-6.43v-.54c0-2.44-.93-4.66-2.7-6.43-1.77-1.77-3.99-2.7-6.43-2.7h0Z"/>
        </g>
        <path class="cls-1" d="M261.36,194.67l3.96,12.6c.36,1.2.16,2.31-.58,3.33-.75,1.02-1.76,1.53-3.02,1.53h-2.79c-1.5,0-2.85-.46-4.05-1.39-1.2-.93-2.01-2.12-2.43-3.56l-3.78-13.41c-.72-2.64-1.49-4.38-2.29-5.22-.81-.84-2.09-1.26-3.83-1.26h-1.89c-.54,0-.81.27-.81.81v18.9c0,1.38-.51,2.58-1.53,3.6s-2.22,1.53-3.6,1.53h-2.34c-1.38,0-2.58-.51-3.6-1.53-1.02-1.02-1.53-2.22-1.53-3.6v-54.99c0-1.5.48-2.8,1.44-3.92.96-1.11,2.16-1.75,3.6-1.93,3.54-.42,7.41-.63,11.61-.63,7.44,0,12.82,1.61,16.15,4.81,3.33,3.21,5,8.42,5,15.62,0,4.8-.72,8.59-2.16,11.38-1.44,2.79-3.63,4.94-6.57,6.44-.06,0-.09.06-.09.18,0,.06.03.12.09.18,1.56,1.26,3.24,4.77,5.04,10.53ZM242.55,176.76c3.84,0,6.51-.73,8.01-2.21,1.5-1.47,2.25-4.33,2.25-8.59,0-3.48-.76-6-2.29-7.56-1.53-1.56-3.88-2.34-7.06-2.34-1.02,0-1.95.09-2.79.27-.54.12-.81.42-.81.9v18.72c0,.54.27.81.81.81h1.89Z"/>
        <path class="cls-1" d="M306.36,194.67l3.96,12.6c.36,1.2.16,2.31-.58,3.33-.75,1.02-1.76,1.53-3.02,1.53h-2.79c-1.5,0-2.85-.46-4.05-1.39-1.2-.93-2.01-2.12-2.43-3.56l-3.78-13.41c-.72-2.64-1.49-4.38-2.29-5.22-.81-.84-2.09-1.26-3.83-1.26h-1.89c-.54,0-.81.27-.81.81v18.9c0,1.38-.51,2.58-1.53,3.6s-2.22,1.53-3.6,1.53h-2.34c-1.38,0-2.58-.51-3.6-1.53-1.02-1.02-1.53-2.22-1.53-3.6v-54.99c0-1.5.48-2.8,1.44-3.92.96-1.11,2.16-1.75,3.6-1.93,3.54-.42,7.41-.63,11.61-.63,7.44,0,12.82,1.61,16.15,4.81,3.33,3.21,5,8.42,5,15.62,0,4.8-.72,8.59-2.16,11.38-1.44,2.79-3.63,4.94-6.57,6.44-.06,0-.09.06-.09.18,0,.06.03.12.09.18,1.56,1.26,3.24,4.77,5.04,10.53ZM287.55,176.76c3.84,0,6.51-.73,8.01-2.21,1.5-1.47,2.25-4.33,2.25-8.59,0-3.48-.76-6-2.29-7.56-1.53-1.56-3.88-2.34-7.06-2.34-1.02,0-1.95.09-2.79.27-.54.12-.81.42-.81.9v18.72c0,.54.27.81.81.81h1.89Z"/>
        <path class="cls-1" d="M319.91,153.09c3.27-5.04,8.53-7.56,15.79-7.56s12.52,2.52,15.79,7.56c3.27,5.04,4.91,13.77,4.91,26.19s-1.64,21.15-4.91,26.19c-3.27,5.04-8.54,7.56-15.79,7.56s-12.53-2.52-15.79-7.56c-3.27-5.04-4.91-13.77-4.91-26.19s1.63-21.15,4.91-26.19ZM328.95,197.6c1.38,3.21,3.63,4.82,6.75,4.82s5.37-1.6,6.75-4.82c1.38-3.21,2.07-9.31,2.07-18.31s-.69-15.1-2.07-18.32c-1.38-3.21-3.63-4.82-6.75-4.82s-5.37,1.61-6.75,4.82c-1.38,3.21-2.07,9.32-2.07,18.32s.69,15.11,2.07,18.31Z"/>
        <path class="cls-1" d="M396.36,194.67l3.96,12.6c.36,1.2.16,2.31-.58,3.33-.75,1.02-1.76,1.53-3.02,1.53h-2.79c-1.5,0-2.85-.46-4.05-1.39-1.2-.93-2.01-2.12-2.43-3.56l-3.78-13.41c-.72-2.64-1.49-4.38-2.29-5.22-.81-.84-2.09-1.26-3.83-1.26h-1.89c-.54,0-.81.27-.81.81v18.9c0,1.38-.51,2.58-1.53,3.6s-2.22,1.53-3.6,1.53h-2.34c-1.38,0-2.58-.51-3.6-1.53-1.02-1.02-1.53-2.22-1.53-3.6v-54.99c0-1.5.48-2.8,1.44-3.92.96-1.11,2.16-1.75,3.6-1.93,3.54-.42,7.41-.63,11.61-.63,7.44,0,12.82,1.61,16.15,4.81,3.33,3.21,5,8.42,5,15.62,0,4.8-.72,8.59-2.16,11.38-1.44,2.79-3.63,4.94-6.57,6.44-.06,0-.09.06-.09.18,0,.06.03.12.09.18,1.56,1.26,3.24,4.77,5.04,10.53ZM377.55,176.76c3.84,0,6.51-.73,8.01-2.21,1.5-1.47,2.25-4.33,2.25-8.59,0-3.48-.76-6-2.29-7.56-1.53-1.56-3.88-2.34-7.06-2.34-1.02,0-1.95.09-2.79.27-.54.12-.81.42-.81.9v18.72c0,.54.27.81.81.81h1.89Z"/>
      </g>
    </g>
  </g>
</svg>