<svg xmlns="http://www.w3.org/2000/svg" width="35" height="34.995" viewBox="0 0 35 34.995">
  <g id="snsb01" transform="translate(251.921 251.921)">
    <g id="グループ_1689" data-name="グループ 1689" transform="translate(-251.921 -251.921)">
      <path id="パス_15854" data-name="パス 15854" d="M17.5,3.152c4.672,0,5.226.018,7.07.1a9.68,9.68,0,0,1,3.249.6,5.42,5.42,0,0,1,2.012,1.312,5.421,5.421,0,0,1,1.312,2.012,9.68,9.68,0,0,1,.6,3.249c.084,1.845.1,2.4.1,7.07s-.018,5.226-.1,7.07a9.68,9.68,0,0,1-.6,3.249,5.8,5.8,0,0,1-3.324,3.318,9.68,9.68,0,0,1-3.249.6c-1.845.084-2.4.1-7.07.1s-5.226-.018-7.07-.1a9.68,9.68,0,0,1-3.249-.6,5.421,5.421,0,0,1-2.012-1.312,5.421,5.421,0,0,1-1.312-2.012,9.68,9.68,0,0,1-.6-3.249c-.084-1.845-.1-2.4-.1-7.07s.018-5.226.1-7.07a9.68,9.68,0,0,1,.6-3.249A5.42,5.42,0,0,1,5.167,5.163,5.42,5.42,0,0,1,7.179,3.85a9.68,9.68,0,0,1,3.249-.6c1.845-.084,2.4-.1,7.07-.1M17.5,0c-4.752,0-5.348.02-7.217.1A12.841,12.841,0,0,0,6.036.918a8.577,8.577,0,0,0-3.1,2.018,8.577,8.577,0,0,0-2.018,3.1A12.841,12.841,0,0,0,.1,10.283C.02,12.15,0,12.746,0,17.5s.02,5.348.1,7.217a12.841,12.841,0,0,0,.814,4.242,8.576,8.576,0,0,0,2.018,3.1,8.577,8.577,0,0,0,3.1,2.018,12.843,12.843,0,0,0,4.247.814c1.867.085,2.462.1,7.217.1s5.348-.02,7.217-.1a12.843,12.843,0,0,0,4.247-.814,8.947,8.947,0,0,0,5.117-5.117,12.843,12.843,0,0,0,.814-4.247c.085-1.867.1-2.462.1-7.217s-.02-5.348-.1-7.217a12.843,12.843,0,0,0-.819-4.242,8.577,8.577,0,0,0-2.018-3.1,8.576,8.576,0,0,0-3.1-2.018A12.841,12.841,0,0,0,24.712.1C22.845.02,22.249,0,17.5,0Z"/>
      <path id="パス_15855" data-name="パス 15855" d="M131.539,122.556a8.988,8.988,0,1,0,8.988,8.988,8.988,8.988,0,0,0-8.988-8.988Zm0,14.817a5.832,5.832,0,1,1,5.832-5.832,5.832,5.832,0,0,1-5.832,5.832Z" transform="translate(-114.042 -114.043)"/>
      <circle id="楕円形_4373" data-name="楕円形 4373" cx="2.099" cy="2.099" r="2.099" transform="translate(24.738 6.058)"/>
    </g>
  </g>
</svg>
