<svg xmlns="http://www.w3.org/2000/svg" xmlns:xlink="http://www.w3.org/1999/xlink" width="89" height="128" viewBox="0 0 89 128">
  <defs>
    <clipPath id="clip-path">
      <rect id="Rectangle_2392" data-name="Rectangle 2392" width="89" height="128" transform="translate(-5587 -14238)" fill="#fff"/>
    </clipPath>
  </defs>
  <g id="Mask_Group_29" data-name="Mask Group 29" transform="translate(5587 14238)" clip-path="url(#clip-path)">
    <g id="Group_373" data-name="Group 373" transform="translate(-5586 -14229)">
      <path id="Path_23329" data-name="Path 23329" d="M219.913,771.695s5.127-.738,7.065,6.978S237.2,785.7,237.2,785.7s-16.859,11.944-25.146-7.144c0,0-1.147-5.148,7.856-6.86" transform="translate(-151.428 -714.024)" fill="#ef5350"/>
      <path id="Path_23330" data-name="Path 23330" d="M217.385,770.118a4.454,4.454,0,0,1,3.15.987c2.757,2.115,2.567,5.863,4.393,8.563a10.971,10.971,0,0,0,9.747,4.454l-.5-1.864a19.7,19.7,0,0,1-9.911,3.53,12.227,12.227,0,0,1-8.416-2.6,16.918,16.918,0,0,1-3.879-4.622,14.874,14.874,0,0,1-1.47-2.862c.029.091-.025.031-.011-.278.16-3.465,4.288-4.767,7.169-5.347,1.261-.254.727-2.182-.531-1.929-3.365.677-7.588,2.237-8.483,6a4.518,4.518,0,0,0-.076,2.071,17.8,17.8,0,0,0,3.553,6.045c4.614,5.677,11.79,6.689,18.367,4.123a22.072,22.072,0,0,0,4.7-2.407c.733-.517.574-1.948-.5-1.864a8.627,8.627,0,0,1-9.209-6.1c-1-3.536-3.572-8.5-8.08-7.9-1.257.167-1.274,2.17,0,2" transform="translate(-148.9 -711.447)" fill="#221e1f"/>
      <path id="Path_23331" data-name="Path 23331" d="M63.8,573.417a48.438,48.438,0,0,0-7.331.857c-15.756,2.875-24.218,15.3-24.218,29.415a27.069,27.069,0,0,0,1.029,7.4c-.182.036-.363.077-.545.129a7.46,7.46,0,0,0,4.1,14.322,6.683,6.683,0,0,0,.752-.266c4.388,8.657,8.65,11.275,17.886,13.434-.3,1.683.122,2.6-1.6,5.067-2.482,3.545-8.133,5.069-12.029,5.839a19.853,19.853,0,0,0-11.421,6.377c-5.244,6.129-6.877,16.111,1.947,19.73A87.385,87.385,0,0,0,63.8,681.889a87.384,87.384,0,0,0,31.432-6.168c8.823-3.619,7.191-13.6,1.947-19.73a19.853,19.853,0,0,0-11.421-6.377c-3.9-.771-9.547-2.294-12.029-5.839-1.724-2.463-1.3-3.384-1.6-5.067,9.236-2.159,13.5-4.776,17.886-13.434a6.678,6.678,0,0,0,.752.266,7.46,7.46,0,0,0,4.1-14.322c-.181-.052-.363-.093-.545-.129a27.069,27.069,0,0,0,1.029-7.4c0-14.119-8.462-26.541-24.218-29.415a48.408,48.408,0,0,0-7.329-.857" transform="translate(-18.654 -572.417)" fill="#fff"/>
      <path id="Path_23332" data-name="Path 23332" d="M80.037,574.668l-7.442.865C44.287,580.073,49.119,610.7,49.119,610.7l.937,1.222s12.321-3.182,14.187-10.115c.3-1.1-1.168,3.056,2.027,1.17,0,0,4.868,3.65,10.961-.368,0,0,1.611,4.274,8.236.368,0,0,5.193-.9,6.485-9.052,0,0,1.821,16.736,17.855,18.6l.7-2.514.755-3.964c.125-8.591-2.178-27.122-23.834-30.53Z" transform="translate(-34.86 -573.311)" fill="#ef5350"/>
      <path id="Path_23333" data-name="Path 23333" d="M97.177,843.552a19.85,19.85,0,0,0-11.421-6.377,40.509,40.509,0,0,1-4.587-1.162c-3.122,3.435-9.842,3.411-17.632,3.411-7.693,0-14.343.084-17.514-3.283a41.855,41.855,0,0,1-4.182,1.034,19.85,19.85,0,0,0-11.421,6.377c-5.244,6.129-6.877,16.111,1.947,19.73A87.391,87.391,0,0,0,63.8,869.45a87.391,87.391,0,0,0,31.432-6.168c8.823-3.619,7.191-13.6,1.947-19.73" transform="translate(-18.654 -759.978)" fill="#ef5350"/>
      <path id="Path_23334" data-name="Path 23334" d="M117.28,635.481c-.383,3.942-2.341,7.477-5.99,9.225-1.16.556-.147,2.281,1.01,1.727,4.3-2.062,6.533-6.341,6.981-10.952.124-1.28-1.877-1.272-2,0" transform="translate(-79.123 -616.063)" fill="#221e1f"/>
      <path id="Path_23335" data-name="Path 23335" d="M143.683,646.432c4.3-2.062,6.533-6.341,6.981-10.952.124-1.28-1.877-1.272-2,0-.383,3.942-2.341,7.477-5.99,9.225-1.16.556-.147,2.281,1.01,1.727" transform="translate(-101.539 -616.063)" fill="#221e1f"/>
      <path id="Path_23336" data-name="Path 23336" d="M175.067,646.432c4.3-2.062,6.533-6.341,6.981-10.952.124-1.28-1.877-1.272-2,0-.382,3.942-2.341,7.477-5.99,9.225-1.16.556-.147,2.281,1.01,1.727" transform="translate(-123.955 -616.063)" fill="#221e1f"/>
      <path id="Path_23337" data-name="Path 23337" d="M195.54,643.854a22.746,22.746,0,0,0,16.713,17.654,1,1,0,0,0,.531-1.929,20.778,20.778,0,0,1-15.316-16.257c-.231-1.264-2.159-.729-1.929.532" transform="translate(-139.651 -621.831)" fill="#221e1f"/>
      <path id="Path_23338" data-name="Path 23338" d="M70.325,660.524a10.466,10.466,0,0,1-3.762,7.241,15.1,15.1,0,0,1-7.355,2.579c-1.261.155-1.277,2.157,0,2a17.31,17.31,0,0,0,8.57-3,12.174,12.174,0,0,0,4.476-8.285c.173-1.259-1.754-1.8-1.929-.532" transform="translate(-41.609 -634.116)" fill="#221e1f"/>
      <path id="Path_23339" data-name="Path 23339" d="M61.29,569.917c-7.089.082-14.67,2.046-20.434,6.246A29.513,29.513,0,0,0,29.5,593.923a31.622,31.622,0,0,0,.3,14.932l.7-1.23a8.418,8.418,0,1,0,4.837,16.114l-1.129-.459a25.943,25.943,0,0,0,7.36,9.422c3.257,2.4,7.239,3.553,11.124,4.471l-.7-1.23a14.661,14.661,0,0,1-.527,3.139,8.348,8.348,0,0,1-2.993,3.629,22.372,22.372,0,0,1-8.054,3.152,27.989,27.989,0,0,0-8.616,3.05,19.526,19.526,0,0,0-6.218,6.018c-2.536,3.87-4.008,9.082-2.149,13.53,2.307,5.519,9.177,7.071,14.366,8.541a85.435,85.435,0,0,0,41.9,1.274,84.3,84.3,0,0,0,10.411-2.985c2.593-.934,5.281-1.889,7.194-3.971,3.3-3.594,3.171-8.808,1.41-13.093A20.3,20.3,0,0,0,84.388,646.34c-3.2-.757-6.424-1.339-9.309-3.01a9.381,9.381,0,0,1-3.548-3.415,10.559,10.559,0,0,1-.95-3.972l-.7,1.23c3.884-.918,7.866-2.073,11.124-4.471a25.944,25.944,0,0,0,7.36-9.422l-1.13.459a8.418,8.418,0,1,0,4.837-16.114l.7,1.23a31.88,31.88,0,0,0-2.919-23.549A29.257,29.257,0,0,0,72.93,571.8a41.577,41.577,0,0,0-11.641-1.886,1,1,0,0,0,0,2,34.364,34.364,0,0,1,18.973,5.653,27.413,27.413,0,0,1,10.846,16.707,29.419,29.419,0,0,1-.265,14.046,1.013,1.013,0,0,0,.7,1.23,6.419,6.419,0,1,1-3.773,12.257,1,1,0,0,0-1.129.46c-1.716,3.352-3.774,6.661-6.891,8.884-3.076,2.194-6.767,3.232-10.4,4.09a1.026,1.026,0,0,0-.7,1.23,19.373,19.373,0,0,0,.417,2.825,9.589,9.589,0,0,0,2.125,3.528,15.913,15.913,0,0,0,6.547,3.87c2.561.9,5.257,1.224,7.834,2.048a18.382,18.382,0,0,1,7.934,4.948c3.093,3.344,5.428,8.53,4.1,13.12a8.351,8.351,0,0,1-4.318,5.045,48.663,48.663,0,0,1-9.53,3.348A83.218,83.218,0,0,1,43.652,676.4a85.08,85.08,0,0,1-9.975-2.8c-2.577-.9-5.39-1.777-7.207-3.942-3.078-3.667-1.9-9.048.3-12.832a17.556,17.556,0,0,1,6.814-6.628c2.962-1.614,6.182-2.017,9.377-2.914a19.432,19.432,0,0,0,7.766-3.818,9.979,9.979,0,0,0,2.535-3.522,14.14,14.14,0,0,0,.667-3.473,1.022,1.022,0,0,0-.7-1.23c-3.63-.858-7.322-1.9-10.4-4.09-3.117-2.223-5.174-5.532-6.891-8.884a1,1,0,0,0-1.13-.46,6.419,6.419,0,1,1-3.773-12.257,1.014,1.014,0,0,0,.7-1.23,29.8,29.8,0,0,1,2.8-22.162,27.284,27.284,0,0,1,16.225-12.606,39.923,39.923,0,0,1,10.525-1.638,1,1,0,0,0,0-2" transform="translate(-16.145 -569.917)" fill="#221e1f"/>
      <path id="Path_23340" data-name="Path 23340" d="M131.159,751.375a7.6,7.6,0,0,0,7.665,7.41,7.276,7.276,0,0,0,7.665-7.41,1.013,1.013,0,0,0-1-1H132.16a1,1,0,0,0,0,2H145.49l-1-1a5.261,5.261,0,0,1-5.665,5.409,5.563,5.563,0,0,1-5.665-5.409,1,1,0,0,0-2,0" transform="translate(-93.681 -698.81)" fill="#221e1f"/>
      <path id="Path_23341" data-name="Path 23341" d="M189.8,714.928a4.914,4.914,0,0,0-7.674,0c-.965,1.189.723,2.9,1.7,1.7a2.5,2.5,0,0,1,4.28,0c.974,1.2,2.663-.508,1.7-1.7" transform="translate(-129.881 -672.175)" fill="#221e1f"/>
      <path id="Path_23342" data-name="Path 23342" d="M113.218,714.928a4.914,4.914,0,0,0-7.674,0c-.965,1.189.723,2.9,1.7,1.7a2.5,2.5,0,0,1,4.28,0c.974,1.2,2.663-.508,1.7-1.7" transform="translate(-75.179 -672.175)" fill="#221e1f"/>
      <path id="Path_23343" data-name="Path 23343" d="M33.284,802.432a2.621,2.621,0,0,0-3.473,1.151l-1.777,2.482a9.175,9.175,0,0,0-.8-.823l.863-8.6a2.62,2.62,0,0,0-1.971-3.082,2.621,2.621,0,0,0-2.566,2.608l-.7,6.849a9.614,9.614,0,0,0-1.287-.182l-3.058-7.466a2.621,2.621,0,0,0-3.187-1.8,2.621,2.621,0,0,0-1.04,3.508l2.68,6.565a9.669,9.669,0,0,0-1.179.625l-3.841-4.92a2.62,2.62,0,0,0-3.554-.867,2.62,2.62,0,0,0-.052,3.658l4.235,5.439c-.079.136-.155.274-.227.414l-4.709-3.277a2.621,2.621,0,0,0-3.658-.077,2.621,2.621,0,0,0,.74,3.583l6.7,5.54a9.235,9.235,0,0,0,.555,1.989,9.521,9.521,0,0,0,18.275-4.157l3.376-5.52a2.62,2.62,0,0,0-.348-3.642" transform="translate(-2.534 -729.566)" fill="#fff"/>
      <path id="Path_23344" data-name="Path 23344" d="M31.254,799.09c-3.16-1.668-5.081,1.845-6.618,3.992l1.571-.2c-.257-.288-.518-.557-.8-.823l.293.707.6-5.946c.217-2.16.849-4.968-1.414-6.325a3.037,3.037,0,0,0-3.968.882,5.534,5.534,0,0,0-.962,3.046q-.31,3.058-.621,6.117l1.266-.964c-.516-.1-1.03-.168-1.553-.218l.964.734-2.3-5.607c-.822-2.007-1.73-4.707-4.423-4.506a3.128,3.128,0,0,0-2.774,3.042,6.178,6.178,0,0,0,.659,2.778l2.3,5.635.459-1.13c-.407.193-.792.4-1.179.625l1.212.156c-1.65-2.114-6.008-9.495-9.213-5.353-1.568,2.026-.03,4.15,1.252,5.8l3.335,4.282L9.184,804.6l-.227.414,1.368-.359-4.1-2.851c-1.628-1.133-3.872-2.134-5.482-.347s-.361,4.068,1.158,5.343c1.461,1.227,2.941,2.433,4.412,3.65a11.838,11.838,0,0,1,1.647,1.362c.282.344.1.038.182.741a7.36,7.36,0,0,0,1.142,2.621,10.418,10.418,0,0,0,6.55,4.659,10.679,10.679,0,0,0,12.83-9.111c.043-.387,0-.822.067-1.2-.027.152-.093.088-.02-.11a6.041,6.041,0,0,1,.575-.94l1.84-3.009c1.157-1.892,2.553-4.452.327-6.214-1-.791-2.423.616-1.414,1.414,1.448,1.146-.208,3.083-.912,4.234a33.819,33.819,0,0,0-2.239,3.661,13.143,13.143,0,0,0-.318,2.684,8.519,8.519,0,0,1-1.67,3.592,8.69,8.69,0,0,1-6.938,3.256,8.485,8.485,0,0,1-6.522-3.292,8.328,8.328,0,0,1-.977-1.664c-.3-.669-.315-1.472-.61-2.114a2.347,2.347,0,0,0-.794-.886c-2.037-1.684-4.24-3.271-6.155-5.092-.493-.469-1.219-1.343-.781-2.1.462-.795,1.526-.464,2.141-.094.481.289.938.667,1.4.987l3.652,2.541a1.009,1.009,0,0,0,1.368-.359l.227-.414a1.045,1.045,0,0,0-.156-1.212l-2.375-3.049c-.695-.892-2.606-2.655-2.251-3.95.675-2.464,3.2.97,3.819,1.767l2.6,3.336a1,1,0,0,0,1.212.156c.388-.229.772-.432,1.179-.625a1,1,0,0,0,.46-1.129l-1.757-4.3c-.28-.685-.573-1.367-.84-2.059-.367-.95-.431-3.215,1.252-2.417,1.29.612,1.848,3.193,2.333,4.378l1.689,4.123a1.065,1.065,0,0,0,.964.734,6.9,6.9,0,0,1,1.021.147,1.02,1.02,0,0,0,1.266-.964q.262-2.578.523-5.155a13.774,13.774,0,0,1,.205-1.846c.217-.894,1.07-1.959,2.013-1.162a2.234,2.234,0,0,1,.483,1.864c-.091,1.778-.357,3.564-.535,5.335-.089.883-.2,1.768-.266,2.653-.073,1,.35,1.3,1.038,2.067a1.013,1.013,0,0,0,1.571-.2c.743-1.038,2.293-4.113,3.881-3.275,1.138.6,2.15-1.125,1.01-1.727" transform="translate(0 -727.088)" fill="#221e1f"/>
      <path id="Path_23345" data-name="Path 23345" d="M70.82,837.633l-1.143,1.6s-7.731,1.563-5.962,5.934" transform="translate(-45.321 -761.134)" fill="#fff"/>
      <path id="Path_23346" data-name="Path 23346" d="M67.53,834.772a8.953,8.953,0,0,0-.934,1.3c-.335.73.035-.531.348-.159-.018-.022-.274.069-.3.07a9.154,9.154,0,0,0-2.879,1.018c-2.4,1.117-4.464,3.252-3.439,6.067.437,1.2,2.371.682,1.929-.532-.881-2.419,1.867-3.659,3.758-4.286.475-.158,1.051-.217,1.506-.417.777-.341,1.262-1.387,1.74-2.056.751-1.048-.984-2.048-1.727-1.01" transform="translate(-42.894 -758.777)" fill="#221e1f"/>
    </g>
  </g>
</svg>
