<svg xmlns="http://www.w3.org/2000/svg" xmlns:xlink="http://www.w3.org/1999/xlink" width="89" height="128" viewBox="0 0 89 128">
  <defs>
    <clipPath id="clip-path">
      <rect id="Rectangle_2395" data-name="Rectangle 2395" width="89" height="128" transform="translate(-5095 -14318)" fill="#fff"/>
    </clipPath>
    <clipPath id="clip-path-2">
      <rect id="Rectangle_1933" data-name="Rectangle 1933" width="87.749" height="114.113" fill="none"/>
    </clipPath>
  </defs>
  <g id="Mask_Group_32" data-name="Mask Group 32" transform="translate(5095 14318)" clip-path="url(#clip-path)">
    <g id="Group_376" data-name="Group 376" transform="translate(-5094 -14311)">
      <g id="Group_232" data-name="Group 232" clip-path="url(#clip-path-2)">
        <path id="Path_23464" data-name="Path 23464" d="M110.35,39.923C106.156,16.313,92.2,3.5,72.757,3.5s-33.4,12.813-37.593,36.423C31.732,59.246,39.976,68.98,47.295,72.506a164.5,164.5,0,0,1,50.925,0c7.319-3.526,15.562-13.261,12.13-32.583" transform="translate(-24.485 -2.494)" fill="#ef5350"/>
        <path id="Path_23465" data-name="Path 23465" d="M98.567,110.534l-.91,14.393c-4.415,8.709-5.579,11.81-14.871,13.982.305,1.693-.123,2.62,1.611,5.1,2.5,3.567,8.182,5.1,12.1,5.874a19.972,19.972,0,0,1,11.489,6.415c5.275,6.166,6.918,16.207-1.958,19.848a87.914,87.914,0,0,1-31.62,6.2,87.911,87.911,0,0,1-31.619-6.2c-8.876-3.64-7.234-13.682-1.959-19.848a19.974,19.974,0,0,1,11.489-6.415c3.919-.775,9.6-2.308,12.1-5.874,1.734-2.477,1.306-3.4,1.611-5.1-9.291-2.172-10.667-4.958-15.081-13.667a82.1,82.1,0,0,1-.2-18.43c4.464.081,6.288-1.021,9.353-3.443,1.235-.976,2.194.1,3.14-1.023a11.276,11.276,0,0,0,7.441-.951,11,11,0,0,0,1.587.712c6.01,2.146,6.039-.7,11.735-5.772l4.277,5.9c5.5,4.529,5.853,3.9,9.438,4.554Z" transform="translate(-26.01 -68.645)" fill="#fff"/>
        <path id="Path_23466" data-name="Path 23466" d="M107.547,284.409a19.969,19.969,0,0,0-11.489-6.415,40.734,40.734,0,0,1-4.615-1.168c-3.14,3.456-9.9,3.431-17.737,3.431-7.739,0-14.429.084-17.618-3.3a42.06,42.06,0,0,1-4.207,1.04,19.97,19.97,0,0,0-11.489,6.415c-5.275,6.166-6.918,16.207,1.958,19.848a87.911,87.911,0,0,0,31.619,6.2,87.914,87.914,0,0,0,31.62-6.2c8.875-3.64,7.234-13.682,1.958-19.848" transform="translate(-25.697 -197.252)" fill="#ef5350"/>
        <path id="Path_23467" data-name="Path 23467" d="M150.638,87.315c4.33-2.074,6.572-6.379,7.022-11.017.125-1.288-1.888-1.279-2.012,0-.385,3.966-2.355,7.521-6.026,9.28-1.167.559-.148,2.295,1.016,1.737" transform="translate(-106.246 -53.68)" fill="#221e1f"/>
        <path id="Path_23468" data-name="Path 23468" d="M177.022,87.315c4.33-2.074,6.572-6.379,7.022-11.017.125-1.288-1.888-1.279-2.012,0-.385,3.966-2.355,7.521-6.026,9.28-1.167.559-.148,2.295,1.016,1.737" transform="translate(-125.046 -53.68)" fill="#221e1f"/>
        <path id="Path_23469" data-name="Path 23469" d="M65.011,76.3c-.405,3.954-3.39,7.322-6.347,9.73-2.992,2.437-6.813,4.564-10.734,4.814a1.029,1.029,0,0,0-.97.738,45.985,45.985,0,0,0-.767,10.289c.178,5.956,1.461,12.366,5.561,16.926,2.935,3.263,6.906,4.622,11.067,5.625l-.7-1.237a14.77,14.77,0,0,1-.531,3.158A8.4,8.4,0,0,1,58.576,130a22.506,22.506,0,0,1-8.1,3.171,28.153,28.153,0,0,0-8.667,3.068,19.646,19.646,0,0,0-6.255,6.054C33,146.181,31.52,151.424,33.39,155.9c2.32,5.552,9.232,7.114,14.452,8.592a85.944,85.944,0,0,0,42.146,1.281,84.824,84.824,0,0,0,10.473-3c2.608-.939,5.312-1.9,7.237-3.995,3.321-3.616,3.19-8.86,1.418-13.171A20.426,20.426,0,0,0,94.7,133.646c-3.215-.761-6.462-1.347-9.365-3.028a9.437,9.437,0,0,1-3.57-3.436,10.617,10.617,0,0,1-.955-4l-.7,1.237c3.85-.916,7.536-2.043,10.462-4.829a19.227,19.227,0,0,0,4.749-7.76,39.132,39.132,0,0,0,1.433-16.4c-.126-1.288-.277-2.586-.53-3.856a1.023,1.023,0,0,0-.97-.738,14.084,14.084,0,0,1-11.817-8.318c-.487-1.18-2.435-.663-1.94.535a16.171,16.171,0,0,0,13.757,9.795l-.97-.739a43.042,43.042,0,0,1,.7,9.068c-.092,5.447-1.08,11.474-4.692,15.773-2.8,3.333-6.6,4.546-10.714,5.525a1.032,1.032,0,0,0-.7,1.238,19.532,19.532,0,0,0,.42,2.842,9.65,9.65,0,0,0,2.138,3.549,16.015,16.015,0,0,0,6.586,3.894c2.577.905,5.289,1.231,7.881,2.06a18.493,18.493,0,0,1,7.981,4.977c3.111,3.365,5.461,8.581,4.127,13.2a8.4,8.4,0,0,1-4.344,5.075,48.953,48.953,0,0,1-9.586,3.367,83.714,83.714,0,0,1-40.351,1.2,85.592,85.592,0,0,1-10.035-2.814c-2.593-.906-5.422-1.788-7.25-3.965-3.1-3.689-1.908-9.1.3-12.909a17.662,17.662,0,0,1,6.855-6.667c2.98-1.624,6.219-2.029,9.432-2.931a19.547,19.547,0,0,0,7.813-3.841,10.043,10.043,0,0,0,2.551-3.543,14.225,14.225,0,0,0,.671-3.494,1.029,1.029,0,0,0-.7-1.238c-3.585-.864-7.057-1.916-9.707-4.606a17.749,17.749,0,0,1-4.171-7.462A39.206,39.206,0,0,1,48.45,95.327c.109-1.073.239-2.15.451-3.209l-.97.739c4.493-.287,8.73-2.6,12.157-5.4s6.472-6.621,6.936-11.153c.132-1.287-1.881-1.278-2.012,0" transform="translate(-23.193 -53.683)" fill="#221e1f"/>
        <path id="Path_23470" data-name="Path 23470" d="M165.963,2.012a35.708,35.708,0,0,1,16.706,3.93,34.108,34.108,0,0,1,12.5,11.706,53.265,53.265,0,0,1,7.168,18.731c1.382,7.031,1.64,14.587-1.066,21.35a21.473,21.473,0,0,1-10.356,11.414c-1.163.569-.145,2.3,1.016,1.738C203.412,65.269,206.458,51.712,204.958,40c-1.708-13.336-7.492-27.268-19.295-34.655A37.253,37.253,0,0,0,165.963,0a1.007,1.007,0,0,0,0,2.012" transform="translate(-117.564 0)" fill="#221e1f"/>
        <path id="Path_23471" data-name="Path 23471" d="M70.723,0A37.91,37.91,0,0,0,53,4.205,36.132,36.132,0,0,0,39.874,16.483,55.213,55.213,0,0,0,32.24,36.72c-1.345,7.326-1.462,15.152,1.471,22.126A23.331,23.331,0,0,0,44.753,70.881c1.159.567,2.18-1.168,1.016-1.738-11.027-5.391-13.542-18.479-11.96-29.632,1.767-12.455,7.18-25.5,18.229-32.424A35.23,35.23,0,0,1,70.723,2.012a1.007,1.007,0,0,0,0-2.012" transform="translate(-22.324 0)" fill="#221e1f"/>
        <path id="Path_23472" data-name="Path 23472" d="M240.738,217.846a24.132,24.132,0,0,0,6.194-6.92,1.007,1.007,0,0,0-1.737-1.016,22.788,22.788,0,0,1-5.879,6.513c-1.021.794.412,2.209,1.423,1.423" transform="translate(-170.274 -149.221)" fill="#221e1f"/>
        <path id="Path_23473" data-name="Path 23473" d="M77.335,216.425a22.794,22.794,0,0,1-5.879-6.513,1.007,1.007,0,0,0-1.737,1.016,24.127,24.127,0,0,0,6.194,6.92c1.01.786,2.444-.628,1.423-1.423" transform="translate(-49.579 -149.223)" fill="#221e1f"/>
        <path id="Path_23474" data-name="Path 23474" d="M141.324,189.438c.124,3.8,4.539,5.206,7.711,5.3,3.389.1,7.6-1.325,7.711-5.3a1.007,1.007,0,0,0-2.012,0c-.079,2.754-3.531,3.349-5.7,3.286-1.939-.057-5.617-.765-5.7-3.286-.042-1.292-2.055-1.3-2.012,0" transform="translate(-100.7 -134.292)" fill="#221e1f"/>
        <path id="Path_23475" data-name="Path 23475" d="M200.018,154.146a4.944,4.944,0,0,0-7.72,0c-.971,1.2.727,2.915,1.707,1.707a2.518,2.518,0,0,1,4.305,0c.98,1.207,2.679-.511,1.707-1.707" transform="translate(-136.815 -108.515)" fill="#221e1f"/>
        <path id="Path_23476" data-name="Path 23476" d="M123.431,154.146a4.944,4.944,0,0,0-7.72,0c-.971,1.2.727,2.915,1.707,1.707a2.518,2.518,0,0,1,4.305,0c.98,1.207,2.679-.511,1.707-1.707" transform="translate(-82.243 -108.515)" fill="#221e1f"/>
        <path id="Path_23477" data-name="Path 23477" d="M44.981,246.307v-4.785a2.692,2.692,0,0,1,2.8-2.566c2.943,0,2.611,1.054,3.055,4.505.9,6.984,4.559,8.843,4.71,13.746.127,4.122-1.913,8.844-7.408,8.844" transform="translate(-32.051 -170.268)" fill="#fff"/>
        <path id="Path_23478" data-name="Path 23478" d="M43.207,243.729v-3.372c0-1.556.067-3.021,2.148-2.968,1.635.041,1.444,1.311,1.6,2.68a22.223,22.223,0,0,0,1.433,6c1.208,2.944,3.368,5.573,3.38,8.883.014,3.955-2.181,7.415-6.407,7.511a1.007,1.007,0,0,0,0,2.012c7.85-.179,10.008-8.9,6.99-14.953a48.913,48.913,0,0,1-2.3-4.683,28.6,28.6,0,0,1-1.259-6.253,3.287,3.287,0,0,0-1.628-2.862,4.731,4.731,0,0,0-4.511.411c-2.189,1.6-1.462,5.239-1.462,7.59a1.007,1.007,0,0,0,2.012,0" transform="translate(-29.271 -167.69)" fill="#221e1f"/>
        <path id="Path_23479" data-name="Path 23479" d="M11.029,279.8l5.277.014a2.523,2.523,0,1,1,0,5H11.331c-6.06,0-7.8-4.5-7.8-10.048s1.735-10.079,7.8-10.079l4.975-.03a2.523,2.523,0,1,1,0,5l-5.277.043,5.277.043a2.523,2.523,0,1,1,0,5l-5.277.029,5.277.029a2.523,2.523,0,1,1,0,5Z" transform="translate(-2.52 -188.575)" fill="#fff"/>
        <path id="Path_23480" data-name="Path 23480" d="M8.509,278.145l4.231.012a6.544,6.544,0,0,1,1.61.073c2.166.577,1.192,2.812-.617,2.914-1.47.083-2.969,0-4.441,0-1.954-.005-3.919-.292-5.3-1.817-1.5-1.664-1.869-4.113-1.955-6.269a14.081,14.081,0,0,1,1.083-6.9c1.92-3.75,6.33-3.128,9.881-3.15,1-.006,2.311,0,2.587,1.215.332,1.467-1.285,1.739-2.341,1.769-1.58.044-3.163.026-4.743.039a1.007,1.007,0,0,0,0,2.012c1.392.012,7.149-.736,7.149,1.535s-5.758,1.513-7.149,1.521a1.007,1.007,0,0,0,0,2.012c1.392.008,7.149-.756,7.149,1.521s-5.758,1.5-7.149,1.507a1.007,1.007,0,0,0,0,2.012c2.874-.008,9.162.958,9.162-3.519s-6.288-3.517-9.162-3.533v2.012c2.874-.016,9.162.936,9.162-3.533s-6.288-3.524-9.162-3.547v2.012c1.749-.014,3.51.033,5.257-.043,3.035-.133,5.4-3.589,2.762-5.978-1.68-1.521-4.513-1.02-6.594-1.007-2.508.015-4.985.238-6.936,2C.854,264.951.2,268,.047,270.769c-.168,2.968.05,6.385,1.727,8.945,1.6,2.438,4.234,3.4,7.059,3.443a37.362,37.362,0,0,0,5.512-.045,3.461,3.461,0,0,0,.337-6.861c-1.952-.411-4.188-.111-6.173-.117a1.007,1.007,0,0,0,0,2.012" transform="translate(0 -185.919)" fill="#221e1f"/>
      </g>
    </g>
  </g>
</svg>
