<svg xmlns="http://www.w3.org/2000/svg" xmlns:xlink="http://www.w3.org/1999/xlink" width="89" height="128" viewBox="0 0 89 128">
  <defs>
    <clipPath id="clip-path">
      <rect id="Rectangle_2394" data-name="Rectangle 2394" width="89" height="128" transform="translate(-5277 -14275)" fill="#fff"/>
    </clipPath>
  </defs>
  <g id="Mask_Group_31" data-name="Mask Group 31" transform="translate(5277 14275)" clip-path="url(#clip-path)">
    <g id="Group_375" data-name="Group 375" transform="translate(-5272 -14275)">
      <path id="Path_23309" data-name="Path 23309" d="M102.011,104.64A19.854,19.854,0,0,0,90.59,98.263c-3.9-.771-9.547-2.294-12.029-5.839-1.724-2.463-1.3-3.385-1.6-5.067C86.2,85.2,90.458,82.58,94.846,73.923a6.768,6.768,0,0,0,.752.266,7.46,7.46,0,0,0,4.1-14.322c-.181-.052-.363-.093-.545-.13a27.069,27.069,0,0,0,1.029-7.4c0-14.119-8.462-26.255-24.218-29.13a10.365,10.365,0,1,0-14.66,0c-15.756,2.874-24.218,15.01-24.218,29.13a27.069,27.069,0,0,0,1.029,7.4c-.182.036-.363.078-.545.13a7.46,7.46,0,0,0,4.1,14.322,6.792,6.792,0,0,0,.752-.266c4.388,8.657,8.65,11.274,17.886,13.433-.3,1.682.122,2.6-1.6,5.067-2.482,3.545-8.133,5.069-12.029,5.839a19.854,19.854,0,0,0-11.421,6.377c-5.244,6.129-6.877,16.111,1.947,19.73a87.391,87.391,0,0,0,31.432,6.168,87.391,87.391,0,0,0,31.432-6.168c8.823-3.619,7.191-13.6,1.947-19.73" transform="translate(-27.518 -3.796)" fill="#fff"/>
      <path id="Path_23310" data-name="Path 23310" d="M102.663,332.126a19.852,19.852,0,0,0-11.421-6.377,40.457,40.457,0,0,1-4.587-1.162C83.533,328.023,76.813,328,69.023,328c-7.693,0-14.343.084-17.514-3.283a41.759,41.759,0,0,1-4.182,1.034,19.852,19.852,0,0,0-11.421,6.377c-5.244,6.129-6.877,16.111,1.947,19.73a87.392,87.392,0,0,0,31.432,6.168,87.392,87.392,0,0,0,31.432-6.168c8.823-3.619,7.191-13.6,1.947-19.73" transform="translate(-27.984 -231.837)" fill="#ef5350"/>
      <path id="Path_23311" data-name="Path 23311" d="M116.749,51.7c.125-8.591-2.178-27.122-23.834-30.53a10.365,10.365,0,1,0-14.834.015C49.773,25.72,54.605,56.351,54.605,56.351l.937,1.222s12.322-3.182,14.187-10.115c.3-1.1-1.168,3.056,2.027,1.17,0,0,4.868,3.65,10.961-.368,0,0,1.611,4.275,8.236.368,0,0,5.193-.9,6.485-9.052,0,0,1.821,16.736,17.855,18.6l.7-2.514Z" transform="translate(-44.19 -2.409)" fill="#ef5350"/>
      <path id="Path_23312" data-name="Path 23312" d="M122.766,124.055c-.383,3.942-2.341,7.477-5.99,9.225-1.16.556-.147,2.281,1.01,1.727,4.3-2.062,6.533-6.341,6.981-10.952.124-1.28-1.877-1.272-2,0" transform="translate(-88.453 -87.923)" fill="#221e1f"/>
      <path id="Path_23313" data-name="Path 23313" d="M149.169,135.006c4.3-2.062,6.533-6.342,6.981-10.952.124-1.28-1.877-1.272-2,0-.383,3.942-2.341,7.477-5.99,9.225-1.16.556-.147,2.281,1.01,1.727" transform="translate(-110.868 -87.923)" fill="#221e1f"/>
      <path id="Path_23314" data-name="Path 23314" d="M180.553,135.006c4.3-2.062,6.533-6.342,6.981-10.952.124-1.28-1.877-1.272-2,0-.382,3.942-2.341,7.477-5.99,9.225-1.16.556-.147,2.281,1.01,1.727" transform="translate(-133.284 -87.923)" fill="#221e1f"/>
      <path id="Path_23315" data-name="Path 23315" d="M201.026,132.428a22.746,22.746,0,0,0,16.713,17.654,1,1,0,0,0,.531-1.929A20.778,20.778,0,0,1,202.954,131.9c-.231-1.264-2.159-.729-1.929.532" transform="translate(-148.98 -93.691)" fill="#221e1f"/>
      <path id="Path_23316" data-name="Path 23316" d="M75.812,149.1a10.47,10.47,0,0,1-3.762,7.242,15.112,15.112,0,0,1-7.355,2.579c-1.261.154-1.277,2.156,0,2a17.309,17.309,0,0,0,8.57-3,12.173,12.173,0,0,0,4.476-8.285c.173-1.259-1.754-1.8-1.929-.532" transform="translate(-50.939 -105.976)" fill="#221e1f"/>
      <path id="Path_23317" data-name="Path 23317" d="M122.4,200.625a2.579,2.579,0,1,1-2.522-3.12,2.869,2.869,0,0,1,2.522,3.12" transform="translate(-89.231 -141.068)" fill="#221e1f"/>
      <path id="Path_23318" data-name="Path 23318" d="M136.644,240.035c.124,3.779,4.512,5.175,7.665,5.267,3.369.1,7.552-1.318,7.665-5.267a1,1,0,0,0-2,0c-.078,2.738-3.51,3.33-5.665,3.267-1.928-.056-5.583-.76-5.665-3.267-.042-1.284-2.043-1.29-2,0" transform="translate(-103.009 -170.756)" fill="#221e1f"/>
      <path id="Path_23319" data-name="Path 23319" d="M106.97,383.492a12.842,12.842,0,0,0-.161-2.245,44.518,44.518,0,0,1-6.866,3.231c-9.833,3.676-20.64,4.8-31.072,4.823a100.421,100.421,0,0,1-25.825-3.157,50.941,50.941,0,0,1-11.334-4.408,12.3,12.3,0,0,0-.077,2.24,60.222,60.222,0,0,0,15.04,5.1,106.07,106.07,0,0,0,22.2,2.222,104.025,104.025,0,0,0,25.454-2.989,53.858,53.858,0,0,0,12.645-4.821" transform="translate(-27.992 -272.307)" fill="#fff"/>
      <path id="Path_23320" data-name="Path 23320" d="M88.186,342.971a80.255,80.255,0,0,0,22.88-3.182,38.119,38.119,0,0,0,6.48-2.557A19.252,19.252,0,0,0,115.514,336c-1.287.584-2.551,1.04-3.539,1.389-7.24,2.559-15.1,3.393-22.731,3.57a83.67,83.67,0,0,1-24.025-2.648,38.461,38.461,0,0,1-5.978-2.137,19.027,19.027,0,0,0-2.077,1.325,41.971,41.971,0,0,0,7.524,2.74,84.371,84.371,0,0,0,23.5,2.735" transform="translate(-46.241 -239.986)" fill="#fff"/>
      <path id="Path_23321" data-name="Path 23321" d="M71.149,373.252a96.867,96.867,0,0,0,25.1-3.08,45.243,45.243,0,0,0,11.932-4.918,18.251,18.251,0,0,0-.825-1.81,43.858,43.858,0,0,1-9.911,4.3,89.774,89.774,0,0,1-26.3,3.51A93.241,93.241,0,0,1,45.709,368,42.963,42.963,0,0,1,35.6,363.819a17.936,17.936,0,0,0-.791,1.847,48.009,48.009,0,0,0,11.244,4.506,94.648,94.648,0,0,0,25.1,3.08" transform="translate(-30.271 -259.591)" fill="#fff"/>
      <path id="Path_23322" data-name="Path 23322" d="M77.493,356.989a89.426,89.426,0,0,0,24.688-3.173,38.541,38.541,0,0,0,9.723-4.108c-.2-.257-.4-.511-.611-.757-.239-.279-.488-.546-.741-.807-.1.061-.2.122-.3.182-4.507,2.688-9.781,4.072-14.891,5.071a94.461,94.461,0,0,1-17.87,1.592A85.781,85.781,0,0,1,52.5,351.634a38.417,38.417,0,0,1-7.573-3.117c-.131.143-.263.286-.391.435-.3.346-.578.705-.85,1.074a38.891,38.891,0,0,0,5.666,2.644c8.856,3.37,18.735,4.3,28.14,4.32" transform="translate(-36.614 -248.663)" fill="#fff"/>
      <path id="Path_23323" data-name="Path 23323" d="M100.765,99.582A19.919,19.919,0,0,0,93.81,94.5,50.458,50.458,0,0,0,86.1,92.308a18.968,18.968,0,0,1-7.109-3.177,7.993,7.993,0,0,1-2.547-3.409,16.3,16.3,0,0,1-.472-2.983l-.7,1.23C79.156,83.052,83.138,81.9,86.4,79.5a25.944,25.944,0,0,0,7.36-9.422l-1.129.459a8.418,8.418,0,1,0,4.837-16.114l.7,1.23C101.621,43,96.5,28.647,85.105,21.867a33.135,33.135,0,0,0-10.83-3.975l.441,1.672c5.131-5.4,4.081-14.512-2.572-18.186A11.453,11.453,0,0,0,55.867,7.9a11.731,11.731,0,0,0,2.774,11.66l.441-1.672A30.951,30.951,0,0,0,42.126,26.76a29.7,29.7,0,0,0-7.592,15.954A31.229,31.229,0,0,0,35.2,55.652l.7-1.23a8.418,8.418,0,1,0,4.837,16.114L39.6,70.077a25.943,25.943,0,0,0,7.36,9.422c3.257,2.4,7.239,3.553,11.124,4.471l-.7-1.23c-.133.835-.125,1.707-.332,2.527a7.269,7.269,0,0,1-1.95,3.208,15.337,15.337,0,0,1-6.351,3.4c-2.266.71-4.633,1.013-6.893,1.735a21.2,21.2,0,0,0-6.685,3.5c-5.89,4.644-10.521,15.167-4.167,21.355a16.347,16.347,0,0,0,5.95,3.286,81.169,81.169,0,0,0,8.394,2.621,89.949,89.949,0,0,0,17.342,2.7,83.951,83.951,0,0,0,34.372-5.57c4.394-1.7,7.777-4.514,8.245-9.463.429-4.54-1.69-9.06-4.545-12.461-.829-.987-2.237.434-1.414,1.414a15.776,15.776,0,0,1,4,10.417c-.173,4.5-3.353,6.854-7.261,8.333a83.03,83.03,0,0,1-31.739,5.4,85.476,85.476,0,0,1-16.286-2.169c-2.65-.607-5.273-1.333-7.854-2.189a25.165,25.165,0,0,1-6.8-2.9c-7.3-5.235-1.731-16.094,4.05-19.978,4.321-2.9,9.5-3,14.189-4.965a13.707,13.707,0,0,0,5.592-3.876A9.442,9.442,0,0,0,58.9,86.1a19.377,19.377,0,0,0,.417-2.825,1.022,1.022,0,0,0-.7-1.23c-3.63-.858-7.322-1.9-10.4-4.09-3.117-2.223-5.174-5.532-6.891-8.884a1,1,0,0,0-1.13-.46,6.419,6.419,0,1,1-3.773-12.257,1.013,1.013,0,0,0,.7-1.23,29.4,29.4,0,0,1,3.631-23.412c4.289-6.564,11.265-10.456,18.859-11.887a1.009,1.009,0,0,0,.441-1.672,9.682,9.682,0,0,1-1.7-11.05,9.319,9.319,0,0,1,16.655,0,9.683,9.683,0,0,1-1.7,11.05,1.009,1.009,0,0,0,.441,1.672c7.594,1.431,14.57,5.322,18.859,11.887a29.4,29.4,0,0,1,3.631,23.412,1.013,1.013,0,0,0,.7,1.23,6.419,6.419,0,1,1-3.773,12.257,1,1,0,0,0-1.129.46c-1.716,3.352-3.774,6.661-6.891,8.884-3.076,2.194-6.767,3.231-10.4,4.09a1.026,1.026,0,0,0-.7,1.23,17.484,17.484,0,0,0,.472,2.982,9.738,9.738,0,0,0,2.07,3.371,16.131,16.131,0,0,0,6.735,3.936c2.572.884,5.282,1.2,7.857,2.052A18.538,18.538,0,0,1,99.351,101c.851.969,2.261-.45,1.414-1.414" transform="translate(-25.378 0)" fill="#221e1f"/>
      <path id="Path_23324" data-name="Path 23324" d="M194.291,205.445a4.915,4.915,0,0,0-7.674,0c-.965,1.189.723,2.9,1.7,1.7a2.5,2.5,0,0,1,4.28,0c.974,1.2,2.663-.508,1.7-1.7" transform="translate(-138.496 -145.423)" fill="#221e1f"/>
      <path id="Path_23325" data-name="Path 23325" d="M63.918,299.306v-4.757A2.676,2.676,0,0,1,66.7,292c2.926,0,2.6,1.048,3.037,4.479.892,6.942,4.532,8.791,4.682,13.664.126,4.1-1.9,8.791-7.364,8.791" transform="translate(-51.065 -208.56)" fill="#fff"/>
      <path id="Path_23326" data-name="Path 23326" d="M62.131,296.721V293.37c0-1.547.067-3,2.135-2.95,1.626.041,1.436,1.3,1.591,2.664a22.091,22.091,0,0,0,1.424,5.967c1.2,2.927,3.348,5.54,3.36,8.831.014,3.932-2.168,7.371-6.369,7.467a1,1,0,0,0,0,2c7.8-.178,9.949-8.843,6.948-14.864a48.623,48.623,0,0,1-2.282-4.656,28.433,28.433,0,0,1-1.252-6.216,3.268,3.268,0,0,0-1.618-2.845,4.7,4.7,0,0,0-4.484.408c-2.176,1.588-1.454,5.208-1.454,7.545a1,1,0,0,0,2,0" transform="translate(-48.278 -205.976)" fill="#221e1f"/>
      <path id="Path_23327" data-name="Path 23327" d="M29.922,332.747l5.246.014a2.508,2.508,0,1,1,0,4.966H30.223c-6.024,0-7.749-4.472-7.749-9.989S24.2,317.72,30.223,317.72l4.945-.03a2.508,2.508,0,1,1,0,4.966l-5.246.043,5.246.043a2.508,2.508,0,1,1,0,4.966l-5.246.029,5.246.029a2.508,2.508,0,1,1,0,4.966Z" transform="translate(-21.463 -226.911)" fill="#fff"/>
      <path id="Path_23328" data-name="Path 23328" d="M27.4,331.084l4.206.011a6.507,6.507,0,0,1,1.6.072c2.153.573,1.185,2.8-.613,2.9-1.461.082-2.951,0-4.415,0-1.942-.005-3.9-.291-5.265-1.806-1.494-1.654-1.858-4.089-1.943-6.232a14,14,0,0,1,1.077-6.864c1.909-3.728,6.292-3.11,9.823-3.131.989-.006,2.3,0,2.572,1.207.33,1.459-1.278,1.729-2.327,1.758-1.57.044-3.144.026-4.715.039a1,1,0,0,0,0,2c1.384.011,7.107-.731,7.107,1.526s-5.724,1.5-7.107,1.512a1,1,0,0,0,0,2c1.383.008,7.107-.752,7.107,1.512s-5.724,1.494-7.107,1.5a1,1,0,0,0,0,2c2.857-.008,9.107.952,9.107-3.5s-6.251-3.5-9.107-3.512v2c2.857-.016,9.107.93,9.107-3.512s-6.251-3.5-9.107-3.526v2c1.739-.014,3.489.033,5.226-.043,3.017-.132,5.367-3.568,2.745-5.942-1.67-1.512-4.487-1.014-6.554-1-2.493.015-4.956.237-6.895,1.99-2.132,1.928-2.778,4.962-2.934,7.711-.167,2.95.05,6.348,1.717,8.892,1.588,2.423,4.208,3.382,7.017,3.422a37.142,37.142,0,0,0,5.48-.045,3.441,3.441,0,0,0,.335-6.82c-1.941-.409-4.163-.111-6.136-.116a1,1,0,0,0,0,2" transform="translate(-18.937 -224.247)" fill="#221e1f"/>
    </g>
  </g>
</svg>
