<svg xmlns="http://www.w3.org/2000/svg" xmlns:xlink="http://www.w3.org/1999/xlink" width="89" height="128" viewBox="0 0 89 128">
  <defs>
    <clipPath id="clip-path">
      <rect id="Rectangle_2391" data-name="Rectangle 2391" width="89" height="128" transform="translate(-5729 -14231)" fill="#fff"/>
    </clipPath>
  </defs>
  <g id="Mask_Group_28" data-name="Mask Group 28" transform="translate(5729 14231)" clip-path="url(#clip-path)">
    <g id="Group_372" data-name="Group 372" transform="translate(-5726 -14224)">
      <path id="Path_23384" data-name="Path 23384" d="M798.464,52.434c-26.343,0-38.427,22.778-33.648,46.44,1.664,8.238,4.62,11.736,5.811,19.652.975,6.482-3.87,12.64-9.163,15.491a102.955,102.955,0,0,0,36.739,6.572,107.806,107.806,0,0,0,37.262-6.572c-5.294-2.85-10.138-9.009-9.163-15.491,1.191-7.916,4.147-11.414,5.811-19.652,4.779-23.662-7.305-46.44-33.648-46.44" transform="translate(-759.778 -51.434)" fill="#ef5350"/>
      <path id="Path_23385" data-name="Path 23385" d="M830.141,190.894a19.852,19.852,0,0,0-11.421-6.377c-3.9-.771-9.547-2.294-12.029-5.84-1.724-2.463-1.3-3.384-1.6-5.067,9.236-2.159,13.5-4.776,17.886-13.434a6.7,6.7,0,0,0,.752.266,7.46,7.46,0,0,0,4.1-14.322c-.035-.01-.071-.016-.107-.025-4.086.782-10.793-2.2-16.732-7.813a39.429,39.429,0,0,1-3.121-3.3,11.208,11.208,0,0,1-7.4-.945,10.982,10.982,0,0,1-1.577.708c-5.975,2.133-12.648-1.26-14.9-7.58-.129-.36-.238-.722-.333-1.085-.917,2.463-1.2,5.762-2.916,8.437-4.148,6.456-10.324,9.9-13.888,10.554.079.31.164.618.258.924h-.864c-.182.036-.364.078-.545.13a7.46,7.46,0,0,0,4.1,14.322,6.736,6.736,0,0,0,.752-.266c4.388,8.657,8.65,11.275,17.886,13.434-.3,1.682.122,2.6-1.6,5.067-2.482,3.545-8.133,5.069-12.029,5.84a19.851,19.851,0,0,0-11.421,6.377c-5.244,6.129-6.877,16.111,1.947,19.73a83.178,83.178,0,0,0,62.864,0c8.823-3.619,7.191-13.6,1.947-19.73" transform="translate(-758.077 -104.033)" fill="#fff"/>
      <path id="Path_23386" data-name="Path 23386" d="M987.762,243.332c-1.836,4.849-4.151,10.4-2.967,15.66,1.137,5.053,5.006,9.294,9.449,11.755,1.127.624,2.137-1.1,1.01-1.727-4.125-2.284-7.742-6.227-8.618-10.982-.867-4.709,1.418-9.852,3.055-14.174.456-1.205-1.476-1.726-1.929-.532" transform="translate(-919.063 -187.3)" fill="#221e1f"/>
      <path id="Path_23387" data-name="Path 23387" d="M888.535,50.934c8.35.039,16.642,2.5,22.865,8.244A34.61,34.61,0,0,1,921.608,78.95a47.19,47.19,0,0,1,.137,14.1c-.169,1.272,1.833,1.26,2,0a44.855,44.855,0,0,0-3.438-24.974,32.708,32.708,0,0,0-16.7-16.25,38.91,38.91,0,0,0-15.072-2.9,1,1,0,0,0,0,2" transform="translate(-849.85 -48.934)" fill="#221e1f"/>
      <path id="Path_23388" data-name="Path 23388" d="M763.787,244.62c1.634,4.314,4.118,8.984,3.333,13.745-.8,4.845-4.473,8.88-8.654,11.195-1.126.624-.119,2.352,1.01,1.727,4.5-2.492,8.427-6.822,9.493-11.966,1.107-5.339-1.413-10.378-3.252-15.233-.452-1.192-2.386-.675-1.929.532" transform="translate(-757.286 -187.841)" fill="#221e1f"/>
      <path id="Path_23389" data-name="Path 23389" d="M801.812,48.934c-8.711.041-17.316,2.605-23.892,8.479A36.177,36.177,0,0,0,766.849,78.2,48.683,48.683,0,0,0,766.6,93c.165,1.258,2.167,1.274,2,0-2.035-15.5,3.468-32.624,18.721-39.252a36.713,36.713,0,0,1,14.5-2.81,1,1,0,0,0,0-2" transform="translate(-763.127 -48.934)" fill="#221e1f"/>
      <path id="Path_23390" data-name="Path 23390" d="M907.456,114.488c.413,4.326,3.163,8.574,5.815,11.861a28.649,28.649,0,0,0,16.8,10.336c1.258.24,1.8-1.687.532-1.929a26.9,26.9,0,0,1-15.711-9.573c-2.364-2.871-5.066-6.863-5.431-10.695-.121-1.27-2.122-1.283-2,0" transform="translate(-864.05 -95.072)" fill="#221e1f"/>
      <path id="Path_23391" data-name="Path 23391" d="M883.49,123.945c-3.739-1.788-5.749-5.417-6.139-9.457-.123-1.27-2.124-1.283-2,0,.454,4.706,2.734,9.081,7.129,11.184,1.156.553,2.172-1.171,1.01-1.727" transform="translate(-841.119 -95.072)" fill="#221e1f"/>
      <path id="Path_23392" data-name="Path 23392" d="M851.386,123.945c-3.739-1.788-5.749-5.417-6.139-9.457-.123-1.27-2.124-1.283-2,0,.454,4.706,2.734,9.082,7.13,11.184,1.156.553,2.172-1.171,1.009-1.727" transform="translate(-818.189 -95.072)" fill="#221e1f"/>
      <path id="Path_23393" data-name="Path 23393" d="M803.263,122.517a21.272,21.272,0,0,1-15.684,16.646,1,1,0,0,0,.532,1.929,23.242,23.242,0,0,0,17.081-18.043c.229-1.258-1.7-1.8-1.929-.532" transform="translate(-777.924 -100.975)" fill="#221e1f"/>
      <path id="Path_23394" data-name="Path 23394" d="M830.141,334.068a19.852,19.852,0,0,0-11.421-6.377,40.486,40.486,0,0,1-4.587-1.162c-3.122,3.435-9.842,3.411-17.632,3.411-7.693,0-14.343.084-17.514-3.283a41.815,41.815,0,0,1-4.182,1.034,19.851,19.851,0,0,0-11.421,6.377c-5.244,6.129-6.877,16.111,1.947,19.73a83.178,83.178,0,0,0,62.864,0c8.823-3.619,7.191-13.6,1.947-19.73" transform="translate(-758.077 -247.207)" fill="#ef5350"/>
      <path id="Path_23395" data-name="Path 23395" d="M849.874,202.568a2.579,2.579,0,1,1-2.522-3.12,2.869,2.869,0,0,1,2.522,3.12" transform="translate(-819.323 -156.439)" fill="#221e1f"/>
      <path id="Path_23396" data-name="Path 23396" d="M924.462,202.568a2.579,2.579,0,1,1-2.522-3.12,2.869,2.869,0,0,1,2.522,3.12" transform="translate(-872.598 -156.439)" fill="#221e1f"/>
      <path id="Path_23397" data-name="Path 23397" d="M864.123,241.892a7.6,7.6,0,0,0,7.665,7.41,7.276,7.276,0,0,0,7.665-7.41,1.013,1.013,0,0,0-1-1H865.124a1,1,0,0,0,0,2h13.331l-1-1a5.261,5.261,0,0,1-5.665,5.41,5.563,5.563,0,0,1-5.665-5.41,1,1,0,0,0-2,0" transform="translate(-833.104 -186.04)" fill="#221e1f"/>
      <path id="Path_23398" data-name="Path 23398" d="M834.448,385.435a12.87,12.87,0,0,0-.161-2.245,44.529,44.529,0,0,1-6.866,3.231c-9.833,3.676-20.64,4.8-31.072,4.824a100.44,100.44,0,0,1-25.825-3.157,50.938,50.938,0,0,1-11.334-4.408,12.308,12.308,0,0,0-.076,2.24,60.241,60.241,0,0,0,15.04,5.1,106.1,106.1,0,0,0,22.2,2.222,104.056,104.056,0,0,0,25.454-2.989,53.859,53.859,0,0,0,12.645-4.821" transform="translate(-758.085 -287.677)" fill="#fff"/>
      <path id="Path_23399" data-name="Path 23399" d="M815.662,344.915a80.263,80.263,0,0,0,22.88-3.182,38.157,38.157,0,0,0,6.48-2.557,19.258,19.258,0,0,0-2.033-1.237c-1.286.584-2.551,1.04-3.538,1.389-7.24,2.559-15.1,3.393-22.731,3.57A83.669,83.669,0,0,1,792.7,340.25a38.5,38.5,0,0,1-5.978-2.137,18.993,18.993,0,0,0-2.078,1.325,41.947,41.947,0,0,0,7.524,2.74,84.373,84.373,0,0,0,23.5,2.736" transform="translate(-776.333 -255.356)" fill="#fff"/>
      <path id="Path_23400" data-name="Path 23400" d="M798.626,375.195a96.87,96.87,0,0,0,25.1-3.079,45.247,45.247,0,0,0,11.932-4.917,18.287,18.287,0,0,0-.825-1.81,43.862,43.862,0,0,1-9.911,4.3,89.791,89.791,0,0,1-26.3,3.509,93.23,93.23,0,0,1-25.44-3.254,42.954,42.954,0,0,1-10.113-4.178,18,18,0,0,0-.791,1.847,48.032,48.032,0,0,0,11.244,4.506,94.653,94.653,0,0,0,25.1,3.079" transform="translate(-760.363 -274.962)" fill="#fff"/>
      <path id="Path_23401" data-name="Path 23401" d="M804.97,358.931a89.4,89.4,0,0,0,24.688-3.173,38.528,38.528,0,0,0,9.723-4.107c-.2-.257-.4-.511-.61-.757-.239-.279-.488-.546-.741-.807-.1.061-.2.122-.3.182-4.507,2.688-9.781,4.073-14.891,5.071a94.511,94.511,0,0,1-17.87,1.591,85.8,85.8,0,0,1-24.993-3.355,38.49,38.49,0,0,1-7.573-3.117c-.131.143-.263.286-.391.435-.3.346-.578.705-.849,1.074a38.8,38.8,0,0,0,5.666,2.644c8.857,3.37,18.735,4.3,28.14,4.32" transform="translate(-766.707 -264.033)" fill="#fff"/>
      <path id="Path_23402" data-name="Path 23402" d="M763.468,192.318a8.418,8.418,0,1,0,4.837,16.114l-1.129-.459a25.944,25.944,0,0,0,7.36,9.422c3.257,2.4,7.239,3.553,11.124,4.471l-.7-1.23a14.677,14.677,0,0,1-.527,3.14,8.353,8.353,0,0,1-2.994,3.63,22.377,22.377,0,0,1-8.054,3.152,28,28,0,0,0-8.616,3.049,19.533,19.533,0,0,0-6.218,6.018c-2.536,3.87-4.008,9.082-2.149,13.53,2.307,5.519,9.177,7.071,14.366,8.541a85.432,85.432,0,0,0,41.9,1.274,84.32,84.32,0,0,0,10.41-2.985c2.593-.934,5.281-1.889,7.194-3.971,3.3-3.594,3.171-8.808,1.41-13.093a20.3,20.3,0,0,0-14.328-11.886c-3.2-.757-6.424-1.339-9.309-3.01a9.385,9.385,0,0,1-3.548-3.416,10.555,10.555,0,0,1-.95-3.972l-.7,1.23c3.885-.918,7.867-2.073,11.124-4.471a25.948,25.948,0,0,0,7.36-9.422l-1.13.459a8.418,8.418,0,1,0,4.837-16.114c-1.251-.3-1.785,1.631-.531,1.929a6.419,6.419,0,1,1-3.773,12.257,1,1,0,0,0-1.13.46c-1.716,3.352-3.774,6.661-6.891,8.884-3.076,2.194-6.767,3.232-10.4,4.09a1.026,1.026,0,0,0-.7,1.23,19.362,19.362,0,0,0,.417,2.825,9.589,9.589,0,0,0,2.125,3.528,15.915,15.915,0,0,0,6.547,3.87c2.562.9,5.257,1.224,7.834,2.048a18.386,18.386,0,0,1,7.934,4.948c3.093,3.344,5.428,8.53,4.1,13.12a8.352,8.352,0,0,1-4.318,5.045,48.665,48.665,0,0,1-9.529,3.348,83.219,83.219,0,0,1-40.112,1.194,85.087,85.087,0,0,1-9.975-2.8c-2.577-.9-5.39-1.777-7.207-3.942-3.078-3.667-1.9-9.048.3-12.832a17.555,17.555,0,0,1,6.814-6.628c2.962-1.614,6.182-2.017,9.377-2.913a19.427,19.427,0,0,0,7.766-3.818,9.983,9.983,0,0,0,2.535-3.522,14.144,14.144,0,0,0,.667-3.473,1.022,1.022,0,0,0-.7-1.23c-3.63-.858-7.322-1.9-10.4-4.09-3.117-2.223-5.174-5.532-6.891-8.884a1,1,0,0,0-1.13-.46A6.419,6.419,0,1,1,764,194.247c1.252-.3.722-2.227-.532-1.929" transform="translate(-755.567 -151.324)" fill="#221e1f"/>
      <path id="Path_23403" data-name="Path 23403" d="M955.055,289.349c-1.406,4.006,0,8.53,2.5,11.747.789,1.016,2.195-.409,1.415-1.414-2.075-2.673-3.138-6.5-1.981-9.8.427-1.217-1.5-1.741-1.929-.532" transform="translate(-897.653 -220.161)" fill="#221e1f"/>
      <path id="Path_23404" data-name="Path 23404" d="M809.572,289.868a11.263,11.263,0,0,1-1.692,9.7c-.73,1.064,1,2.065,1.727,1.01a13.17,13.17,0,0,0,1.893-11.246c-.406-1.215-2.338-.694-1.929.532" transform="translate(-792.806 -220.148)" fill="#221e1f"/>
      <path id="Path_23405" data-name="Path 23405" d="M971.879,306.144c-.747-.747-1.5-1.353-2.245-.685l-6.853,5.134,6.821-5.166a1.7,1.7,0,0,0,0-2.52c-1.328-1.33-2.832-.193-3.673.445l-5.772,4.328,5.723-4.378a1.6,1.6,0,0,0,.141-2.5,2.907,2.907,0,0,0-3.247-.331l-1.949,1.279a17.934,17.934,0,0,1-4.623,2.753c-1.453.5-2.6.77-4.3,1.365l.567-2.305a3.127,3.127,0,0,0-2.01-3.138,2,2,0,0,0-2.811,1.435l-2.3,7.736c-2.051,6.9,2.432,15.273,10.069,15.5,6.271.19,12.152-5.968,15.871-10.416l.62-.74a2.461,2.461,0,0,0-.271-3.262,2.506,2.506,0,0,0-.923-.593l.051-.037,1.2-1.228a1.924,1.924,0,0,0-.087-2.685" transform="translate(-890.767 -228.348)" fill="#fff"/>
      <path id="Path_23406" data-name="Path 23406" d="M970.109,302.925c-1.077-1.028-2.176-1.693-3.544-.776-.726.487-1.408,1.055-2.108,1.579l-4.657,3.49,1.009,1.727,4.847-3.671c1.519-1.151,3.868-2.479,2.749-4.773a3.033,3.033,0,0,0-3.978-1.425,11.1,11.1,0,0,0-2.3,1.514l-4.954,3.715,1.01,1.727,4.371-3.344c1.529-1.169,3.549-2.713,1.939-4.8a3.755,3.755,0,0,0-3.853-1.145,9.448,9.448,0,0,0-2.535,1.466c-1.076.709-2.062,1.554-3.2,2.175a36.012,36.012,0,0,1-5.75,2.015l1.23,1.23c.476-1.937,1.108-3.765-.4-5.476-1.8-2.05-4.933-1.764-5.786.936-.892,2.824-1.893,5.709-2.519,8.606a13.751,13.751,0,0,0,4.82,13.617c4.937,3.767,11.024,2.267,15.658-1.191a44.239,44.239,0,0,0,7.235-7.092,5,5,0,0,0,1.5-2.642,3.626,3.626,0,0,0-2.159-3.667v1.727c1.868-1.354,3.026-3.508,1.363-5.52-.82-.993-2.228.429-1.414,1.414.589.713.144,1.2-.335,1.7-.163.171-.823.821-.624.676-.538.39-.755,1.39,0,1.727,2.67,1.193-.068,3.577-1.155,4.795a39.245,39.245,0,0,1-5.18,4.963c-3.651,2.827-8.415,4.692-12.741,2.157a11.459,11.459,0,0,1-5.279-10.1c.063-2.665,1.19-5.375,1.942-7.9.231-.776.55-3.207,1.446-3.552,1.325-.509,2.312,1.242,2.183,2.3a17.543,17.543,0,0,1-.49,1.994,1.009,1.009,0,0,0,1.23,1.23c2.81-.964,5.55-1.595,7.987-3.378,1.1-.807,2.933-2.587,4.39-2.3,2.569.514-.919,2.611-1.583,3.12l-3.312,2.533c-1.005.769-.025,2.5,1.01,1.727l3.674-2.755c.64-.48,1.278-.962,1.92-1.44.141-.105.28-.215.424-.318.578-.412,2.488-1.36,2.48.162,0,.546-.7.851-1.085,1.146l-2.273,1.722-3.524,2.669c-1.011.766-.024,2.5,1.009,1.727l3.654-2.738,2.334-1.748c.749-.561,1-.979,1.9-.119.931.889,2.347-.523,1.414-1.414" transform="translate(-888.29 -225.836)" fill="#221e1f"/>
      <path id="Path_23407" data-name="Path 23407" d="M1011.458,339.884l2.5-2.485c.9-.89,2.233-2.921,3.61-1.744.974.832,2.4-.577,1.415-1.414-1.949-1.665-3.743-.934-5.34.653l-3.6,3.576a1,1,0,0,0,1.414,1.414" transform="translate(-937.116 -252.039)" fill="#221e1f"/>
      <path id="Path_23408" data-name="Path 23408" d="M964.431,313.577l-1.248,3.326a1.006,1.006,0,0,0,.459,1.129,10.85,10.85,0,0,1,5.166,7.785c.171,1.27,2.1.729,1.929-.531a12.719,12.719,0,0,0-6.085-8.98l.46,1.129,1.248-3.326c.453-1.207-1.48-1.728-1.929-.532" transform="translate(-903.825 -237.472)" fill="#221e1f"/>
    </g>
  </g>
</svg>
