<svg xmlns="http://www.w3.org/2000/svg" width="51.88" height="59.5" viewBox="0 0 51.88 59.5">
  <path id="Path_278" data-name="Path 278" d="M16.337,3.77A4.126,4.126,0,0,1,20.7.5h9.965a4.127,4.127,0,0,1,4.36,3.27l15.57,50.292C51.449,56.71,50.2,58.5,47.4,58.5H40.783A3.957,3.957,0,0,1,36.5,55.153l-2.492-9.965H16.882l-2.491,9.965A3.957,3.957,0,0,1,10.11,58.5H3.959c-2.8,0-4.048-1.79-3.192-4.437ZM31.363,34.444l-1.246-4.9c-1.557-5.761-3.036-12.69-4.593-18.607h-.311c-1.4,6.073-2.959,12.846-4.438,18.607l-1.246,4.9Z" transform="translate(0.26 0.25)" fill="#fff" stroke="#000" stroke-linecap="round" stroke-linejoin="round" stroke-miterlimit="10" stroke-width="1.5"/>
</svg>
