<svg id="コインタイプの円アイコン" xmlns="http://www.w3.org/2000/svg" width="147.511" height="147.51" viewBox="0 0 147.511 147.51">
  <path id="Path_256" data-name="Path 256" d="M222.031,184.62H206.118l-1.711,2.656v6.37h17.624v9.044H204.407v13.649H193.463V202.69H175.844v-9.044h17.619v-6.361l-1.71-2.665H175.844v-7.725h10.939l-9.3-14.473h9.274l12.177,18.948,12.182-18.948h9.273L211.1,176.895h10.935Z" transform="translate(-125.182 -115.627)" fill="#50b482"/>
  <path id="Path_257" data-name="Path 257" d="M73.755,18.439A55.317,55.317,0,1,1,18.439,73.755,55.377,55.377,0,0,1,73.755,18.439M73.755,0a73.755,73.755,0,1,0,73.755,73.755A73.756,73.756,0,0,0,73.755,0Z" fill="#50b482"/>
</svg>
