<svg xmlns="http://www.w3.org/2000/svg" width="171.633" height="134.613" viewBox="0 0 171.633 134.613">
  <g id="かわいい車の線画アイコン" transform="translate(0 -55.219)">
    <path id="Path_249" data-name="Path 249" d="M180.823,405.317l-.005-.005h-.005Z" transform="translate(-120.2 -232.734)" fill="#50b482"/>
    <path id="Path_250" data-name="Path 250" d="M171.633,138.511a30.7,30.7,0,0,0-18.448-28.148l-7.511-27.2a38.072,38.072,0,0,0-36.707-27.944h-46.3A38.071,38.071,0,0,0,25.959,83.168l-7.5,27.195a30.69,30.69,0,0,0,2.21,57.155h-.461v14.048a8.264,8.264,0,0,0,8.276,8.265H43.914a8.268,8.268,0,0,0,8.276-8.265v-12.33h6.139a11.364,11.364,0,0,0,2.289,3.342,11.488,11.488,0,0,0,7.411,3.29l.178.063h34.716l.273-.01V175.9a11.475,11.475,0,0,0,7.825-3.326,11.215,11.215,0,0,0,2.284-3.342h6.139v12.33a8.274,8.274,0,0,0,8.276,8.265h15.441a8.262,8.262,0,0,0,8.265-8.265V167.518h-.461A30.718,30.718,0,0,0,171.633,138.511ZM46.826,181.566a2.907,2.907,0,0,1-2.912,2.9H28.483a2.9,2.9,0,0,1-2.912-2.9v-12.8a30.906,30.906,0,0,0,5.154.471h16.1v12.33Zm99.236,0a2.9,2.9,0,0,1-2.9,2.9H127.719a2.918,2.918,0,0,1-2.912-2.9v-12.33h16.1a30.942,30.942,0,0,0,5.154-.471v12.8Zm-5.154-17.693H109.334l-.5,2.043a6.172,6.172,0,0,1-1.6,2.87,6.1,6.1,0,0,1-4.306,1.781H68.71a6.126,6.126,0,0,1-4.306-1.781v-.005a6.125,6.125,0,0,1-1.6-2.865l-.5-2.043H30.725a25.366,25.366,0,0,1-9.072-49.052l1.267-.487,8.213-29.74a32.7,32.7,0,0,1,31.532-24.01h46.3a32.724,32.724,0,0,1,31.542,24.01l8.208,29.74,1.262.487a25.366,25.366,0,0,1-9.072,49.052Z" transform="translate(0 0)" fill="#50b482"/>
    <path id="Path_251" data-name="Path 251" d="M121.5,181.729v-.01h0Z" transform="translate(-80.771 -84.095)" fill="#50b482"/>
    <path id="Path_252" data-name="Path 252" d="M210.556,129.849a4.671,4.671,0,0,0,.953-2.839,4.576,4.576,0,0,0-.162-1.247L208.2,114.355a22.988,22.988,0,0,0-22.093-16.824H146.4a23,23,0,0,0-22.093,16.824l-3.143,11.4A4.711,4.711,0,0,0,121,127.01a4.621,4.621,0,0,0,.953,2.834v.005a4.7,4.7,0,0,0,3.729,1.844h81.145A4.7,4.7,0,0,0,210.556,129.849Zm-3.205-2.43-.524.251H125.683l-.524-.262-.136-.4.021-.168v-.01l3.148-11.408a18.966,18.966,0,0,1,18.212-13.87h39.7a18.968,18.968,0,0,1,18.217,13.87l3.143,11.408.026.178Z" transform="translate(-80.438 -28.128)" fill="#50b482"/>
    <path id="Path_253" data-name="Path 253" d="M237.846,329.5l-.032-.026a2.915,2.915,0,0,0-2.043-.822H206.461a2.952,2.952,0,0,0-2.043.822l-.032.026-.042.042a2.968,2.968,0,0,0-.817,2.022v13.566a2.929,2.929,0,0,0,.848,2.048l.021.016.01.01a2.944,2.944,0,0,0,2.053.838h29.311a2.959,2.959,0,0,0,2.053-.838l.021-.021a2.932,2.932,0,0,0,.864-2.032V331.546a2.966,2.966,0,0,0-.833-2.006Zm-3.158,14.519H207.551V332.678h27.137Z" transform="translate(-135.3 -181.774)" fill="#50b482"/>
    <path id="Path_254" data-name="Path 254" d="M63.725,261.656A14.084,14.084,0,1,0,77.8,275.746,14.09,14.09,0,0,0,63.725,261.656Zm7.113,21.2a10.066,10.066,0,1,1,2.944-7.108A10.017,10.017,0,0,1,70.838,282.854Z" transform="translate(-33 -137.235)" fill="#50b482"/>
    <path id="Path_255" data-name="Path 255" d="M392.423,261.656a14.084,14.084,0,1,0,14.09,14.09A14.082,14.082,0,0,0,392.423,261.656Zm7.113,21.2a10.04,10.04,0,1,1,2.954-7.108A10.008,10.008,0,0,1,399.536,282.854Z" transform="translate(-251.515 -137.235)" fill="#50b482"/>
  </g>
</svg>
