<svg xmlns="http://www.w3.org/2000/svg" width="101" height="101" viewBox="0 0 101 101">
  <g id="レイヤー_1" data-name="レイヤー 1" transform="translate(19 25)">
    <circle id="Ellipse_35" data-name="Ellipse 35" cx="50.5" cy="50.5" r="50.5" transform="translate(-19 -25)" fill="#50b482"/>
    <g id="Group_129" data-name="Group 129" transform="translate(0 0)">
      <g id="Group_128" data-name="Group 128">
        <path id="Path_207" data-name="Path 207" d="M.418,13.114l3.1-2.2c2.383-1.7,4.968-2.234,6.88.456,1.838,2.585.657,5.14-1.651,6.783l-1.27.9,2.047,2.876a.814.814,0,0,1-.209,1.248L8.165,24a.814.814,0,0,1-1.248-.209L.2,14.369a.814.814,0,0,1,.209-1.248Zm6.731,3.07c1.27-.9,1.457-1.942.7-3-.777-1.1-1.748-.979-3-.082l-1.068.762,2.234,3.145L7.156,16.2Z" transform="translate(0 -2.402)" fill="#fff"/>
        <path id="Path_208" data-name="Path 208" d="M18.908,9.859c-1.113-4.228.65-7.254,4.168-8.18s6.544.852,7.657,5.065-.613,7.4-4.131,8.322-6.581-.971-7.694-5.2Zm6.985,2.532c1.7-.448,2.338-2.323,1.681-4.818s-2.107-3.69-3.8-3.242-2.353,2.2-1.7,4.691S24.2,12.839,25.892,12.391Z" transform="translate(-4.244 -0.364)" fill="#fff"/>
        <path id="Path_209" data-name="Path 209" d="M40.3,0l1.419.022A.811.811,0,0,1,42.6.934L42.4,12.5a.811.811,0,0,1-.911.881l-1.419-.022a.811.811,0,0,1-.881-.911l.2-11.564A.811.811,0,0,1,40.3,0Z" transform="translate(-9.103 0)" fill="#fff"/>
        <path id="Path_210" data-name="Path 210" d="M50.994.862l1.584.471a1.1,1.1,0,0,1,.829.919l1.218,6.365.418,3.2.09.022a45.421,45.421,0,0,1,.986-4.848l1-3.384a.809.809,0,0,1,1.113-.605l1.2.359a.809.809,0,0,1,.605,1.113L56.761,15.563a.809.809,0,0,1-1.113.605L54.065,15.7a1.058,1.058,0,0,1-.814-.911L52.04,8.392l-.426-3.175-.09-.022c-.284,1.464-.545,3.294-1,4.841l-1,3.384a.809.809,0,0,1-1.113.605l-1.2-.359a.809.809,0,0,1-.605-1.113L49.881,1.467A.809.809,0,0,1,50.994.862Z" transform="translate(-10.609 -0.204)" fill="#fff"/>
        <path id="Path_211" data-name="Path 211" d="M68.823,9.333l.515-.71a.816.816,0,0,1,1.255-.194l6.985,5.095a.816.816,0,0,1,.194,1.255l-.515.71A.811.811,0,0,1,76,15.682l-2.2-1.606-5.767,7.911a.811.811,0,0,1-1.255.194l-1.143-.837a.816.816,0,0,1-.194-1.255l5.767-7.911-2.189-1.6a.816.816,0,0,1-.194-1.255Z" transform="translate(-14.893 -2.079)" fill="#fff"/>
      </g>
      <path id="Path_212" data-name="Path 212" d="M27.776,51.879c6.35-5.9,10.57-10.608,10.57-14.455,0-2.54-1.382-3.922-3.623-3.922a5.166,5.166,0,0,0-3.362,1.419,1.76,1.76,0,0,1-2.652-.037l-.971-.971a1.665,1.665,0,0,1,0-2.652A11.1,11.1,0,0,1,35.62,28.31c5.379,0,9.114,3.436,9.114,8.74,0,4.781-4.109,10.047-8.367,14.343a39.389,39.389,0,0,1,4.557-.374h3.212A1.693,1.693,0,0,1,46,52.887v1.868a1.693,1.693,0,0,1-1.868,1.868H28.6a1.693,1.693,0,0,1-1.868-1.868v-.56a2.828,2.828,0,0,1,1.046-2.316Z" transform="translate(-6.001 -5.868)" fill="#fff"/>
    </g>
  </g>
</svg>
