<svg id="ハンドルアイコン3" xmlns="http://www.w3.org/2000/svg" width="159.721" height="159.721" viewBox="0 0 159.721 159.721">
  <path id="Path_258" data-name="Path 258" d="M136.331,23.392a79.86,79.86,0,1,0,23.389,56.467A79.637,79.637,0,0,0,136.331,23.392ZM79.862,93.723A14.276,14.276,0,1,1,94.137,79.447,14.278,14.278,0,0,1,79.862,93.723Zm44.18,30.316A62.222,62.222,0,0,1,87.217,141.9c.616-34.363,21.275-45.986,27.853-49.165a4.989,4.989,0,0,0,2.653-3.857l3.36-22.861a4.919,4.919,0,0,0-.956-3.7c-.8-1.055-1.683-1.949-4.32-2.415,0,0-20.439-4.037-35.946-4.037S43.915,59.9,43.915,59.9c-2.638.465-3.515,1.36-4.321,2.415a4.918,4.918,0,0,0-.955,3.7L42,88.873a4.975,4.975,0,0,0,2.648,3.857c6.578,3.179,27.237,14.8,27.853,49.162A62.43,62.43,0,0,1,17.847,87.4a12.131,12.131,0,0,1,4.195-1.334c5.121-.725,13.655-1.19,13.655-1.19L33.422,67.654S23.3,69.465,18.39,68.7a62.472,62.472,0,0,1,122.941,0c-4.915.761-15.025-1.05-15.025-1.05l-2.279,17.224s8.534.465,13.655,1.19a12.193,12.193,0,0,1,4.192,1.331A62.25,62.25,0,0,1,124.041,124.039Z" transform="translate(0 0)" fill="#50b482"/>
  <path id="Path_259" data-name="Path 259" d="M235.469,224.83a9.312,9.312,0,1,0,6.583,2.727A9.26,9.26,0,0,0,235.469,224.83Z" transform="translate(-155.608 -154.693)" fill="#50b482"/>
</svg>
