<svg xmlns="http://www.w3.org/2000/svg" width="113.718" height="42.981" viewBox="0 0 113.718 42.981">
  <g id="レイヤー_1" data-name="レイヤー 1" transform="translate(0.414 0.007)">
    <g id="Group_104" data-name="Group 104">
      <g id="Group_103" data-name="Group 103">
        <g id="Group_101" data-name="Group 101">
          <path id="Path_158" data-name="Path 158" d="M24.81,31.52a1.059,1.059,0,0,1-1.19-1.23l.03-1.47c.02-.75.44-1.11,1.2-1.19a6.46,6.46,0,0,0,3.35-1.22c1.24-.98,1.45-1.92.86-2.67-.64-.81-1.62-.46-3.23-.01l-2.38.66a5.231,5.231,0,0,1-5.88-1.59c-1.86-2.35-1.25-5.9,1.73-8.26a8.364,8.364,0,0,1,4.84-1.81,1.055,1.055,0,0,1,1.17,1.21v1.13c0,.74-.4,1.12-1.16,1.23a5.429,5.429,0,0,0-2.57,1.12c-1.03.82-1.33,1.73-.75,2.46.63.79,1.73.41,3.36-.09l2.3-.69a4.933,4.933,0,0,1,5.81,1.65c1.85,2.33,1.52,5.93-1.87,8.62a10.1,10.1,0,0,1-5.62,2.15Z" fill="none" stroke="#000" stroke-linecap="round" stroke-linejoin="round" stroke-width="3"/>
          <path id="Path_159" data-name="Path 159" d="M29.48,10.64l-.43-1.09A1.082,1.082,0,0,1,29.73,8L40.51,3.79a1.087,1.087,0,0,1,1.55.68l.43,1.1a1.087,1.087,0,0,1-.68,1.55l-3.4,1.33,4.77,12.21a1.087,1.087,0,0,1-.68,1.55l-1.77.69a1.082,1.082,0,0,1-1.55-.68L34.42,10.01l-3.38,1.32a1.087,1.087,0,0,1-1.55-.68Z" fill="none" stroke="#000" stroke-linecap="round" stroke-linejoin="round" stroke-width="3"/>
          <path id="Path_160" data-name="Path 160" d="M48.71,2.14l8.91-.64A1.086,1.086,0,0,1,58.9,2.61l.08,1.17a1.086,1.086,0,0,1-1.11,1.28l-5.82.42.24,3.3,4.76-.34a1.086,1.086,0,0,1,1.28,1.11l.09,1.2a1.086,1.086,0,0,1-1.11,1.28l-4.76.34.27,3.78,6.08-.43a1.086,1.086,0,0,1,1.28,1.11l.09,1.2a1.086,1.086,0,0,1-1.11,1.28l-9.17.65a1.081,1.081,0,0,1-1.28-1.11L47.61,3.41a1.086,1.086,0,0,1,1.11-1.28Z" fill="none" stroke="#000" stroke-linecap="round" stroke-linejoin="round" stroke-width="3"/>
          <path id="Path_161" data-name="Path 161" d="M67.01,2.16l4.96,1.16c3.81.89,6.64,3.01,5.64,7.31-.97,4.14-4.57,5.22-8.27,4.36l-2.03-.48-1.08,4.61a1.088,1.088,0,0,1-1.44.9l-1.85-.43a1.088,1.088,0,0,1-.9-1.44L65.56,3.07A1.088,1.088,0,0,1,67,2.17Zm2.89,9.47c2.03.48,3.24-.25,3.64-1.96.41-1.75-.57-2.62-2.58-3.09l-1.71-.4-1.17,5.03,1.82.43Z" fill="none" stroke="#000" stroke-linecap="round" stroke-linejoin="round" stroke-width="3"/>
          <path id="Path_162" data-name="Path 162" d="M76.31,20.95a1.656,1.656,0,0,1,1.23-2.17l1.44-.5a1.62,1.62,0,0,1,2.26,1.17,7.089,7.089,0,0,0,2.59,3.54c2.04,1.41,3.97,1.47,5.12-.19s1.11-3.26-2.04-5.79a1.726,1.726,0,0,1-.5-2.57l.57-.83a1.719,1.719,0,0,1,2.55-.47c2.78,1.48,4.36,1.04,5.38-.44,1.04-1.51.73-2.95-.9-4.08a5.821,5.821,0,0,0-3.42-1c-1.19.01-1.85-.49-1.93-1.64L88.54,4.5c-.09-1.2.45-1.92,1.67-1.91a11.705,11.705,0,0,1,6.88,2.08c4.56,3.15,6.08,7.35,3.36,11.29-1.51,2.19-3.88,3.09-6.88,2.43l-.1.15c1.92,2.42,2.5,5.44.54,8.29-2.84,4.12-8.2,3.83-12.59.81a11.99,11.99,0,0,1-5.11-6.67Z" fill="none" stroke="#000" stroke-linecap="round" stroke-linejoin="round" stroke-width="3"/>
        </g>
        <g id="Group_102" data-name="Group 102">
          <path id="Path_163" data-name="Path 163" d="M24.81,31.52a1.059,1.059,0,0,1-1.19-1.23l.03-1.47c.02-.75.44-1.11,1.2-1.19a6.46,6.46,0,0,0,3.35-1.22c1.24-.98,1.45-1.92.86-2.67-.64-.81-1.62-.46-3.23-.01l-2.38.66a5.231,5.231,0,0,1-5.88-1.59c-1.86-2.35-1.25-5.9,1.73-8.26a8.364,8.364,0,0,1,4.84-1.81,1.055,1.055,0,0,1,1.17,1.21v1.13c0,.74-.4,1.12-1.16,1.23a5.429,5.429,0,0,0-2.57,1.12c-1.03.82-1.33,1.73-.75,2.46.63.79,1.73.41,3.36-.09l2.3-.69a4.933,4.933,0,0,1,5.81,1.65c1.85,2.33,1.52,5.93-1.87,8.62a10.1,10.1,0,0,1-5.62,2.15Z" fill="#ffd800"/>
          <path id="Path_164" data-name="Path 164" d="M29.48,10.64l-.43-1.09A1.082,1.082,0,0,1,29.73,8L40.51,3.79a1.087,1.087,0,0,1,1.55.68l.43,1.1a1.087,1.087,0,0,1-.68,1.55l-3.4,1.33,4.77,12.21a1.087,1.087,0,0,1-.68,1.55l-1.77.69a1.082,1.082,0,0,1-1.55-.68L34.42,10.01l-3.38,1.32a1.087,1.087,0,0,1-1.55-.68Z" fill="#ffd800"/>
          <path id="Path_165" data-name="Path 165" d="M48.71,2.14l8.91-.64A1.086,1.086,0,0,1,58.9,2.61l.08,1.17a1.086,1.086,0,0,1-1.11,1.28l-5.82.42.24,3.3,4.76-.34a1.086,1.086,0,0,1,1.28,1.11l.09,1.2a1.086,1.086,0,0,1-1.11,1.28l-4.76.34.27,3.78,6.08-.43a1.086,1.086,0,0,1,1.28,1.11l.09,1.2a1.086,1.086,0,0,1-1.11,1.28l-9.17.65a1.081,1.081,0,0,1-1.28-1.11L47.61,3.41a1.086,1.086,0,0,1,1.11-1.28Z" fill="#ffd800"/>
          <path id="Path_166" data-name="Path 166" d="M67.01,2.16l4.96,1.16c3.81.89,6.64,3.01,5.64,7.31-.97,4.14-4.57,5.22-8.27,4.36l-2.03-.48-1.08,4.61a1.088,1.088,0,0,1-1.44.9l-1.85-.43a1.088,1.088,0,0,1-.9-1.44L65.56,3.07A1.088,1.088,0,0,1,67,2.17Zm2.89,9.47c2.03.48,3.24-.25,3.64-1.96.41-1.75-.57-2.62-2.58-3.09l-1.71-.4-1.17,5.03,1.82.43Z" fill="#ffd800"/>
          <path id="Path_167" data-name="Path 167" d="M76.31,20.95a1.656,1.656,0,0,1,1.23-2.17l1.44-.5a1.62,1.62,0,0,1,2.26,1.17,7.089,7.089,0,0,0,2.59,3.54c2.04,1.41,3.97,1.47,5.12-.19s1.11-3.26-2.04-5.79a1.726,1.726,0,0,1-.5-2.57l.57-.83a1.719,1.719,0,0,1,2.55-.47c2.78,1.48,4.36,1.04,5.38-.44,1.04-1.51.73-2.95-.9-4.08a5.821,5.821,0,0,0-3.42-1c-1.19.01-1.85-.49-1.93-1.64L88.54,4.5c-.09-1.2.45-1.92,1.67-1.91a11.705,11.705,0,0,1,6.88,2.08c4.56,3.15,6.08,7.35,3.36,11.29-1.51,2.19-3.88,3.09-6.88,2.43l-.1.15c1.92,2.42,2.5,5.44.54,8.29-2.84,4.12-8.2,3.83-12.59.81a11.99,11.99,0,0,1-5.11-6.67Z" fill="#ffd800"/>
        </g>
      </g>
      <line id="Line_113" data-name="Line 113" x2="15.62" y2="15.62" transform="translate(1 25.94)" fill="none" stroke="#000" stroke-linecap="round" stroke-miterlimit="10" stroke-width="2"/>
      <line id="Line_114" data-name="Line 114" x1="15.63" y2="15.62" transform="translate(96.26 25.94)" fill="none" stroke="#000" stroke-linecap="round" stroke-miterlimit="10" stroke-width="2"/>
    </g>
  </g>
</svg>
