<svg xmlns="http://www.w3.org/2000/svg" width="113.718" height="42.981" viewBox="0 0 113.718 42.981">
  <g id="レイヤー_1" data-name="レイヤー 1" transform="translate(0.414 0.007)">
    <g id="Group_108" data-name="Group 108">
      <g id="Group_107" data-name="Group 107">
        <g id="Group_105" data-name="Group 105">
          <path id="Path_168" data-name="Path 168" d="M24.81,31.52a1.059,1.059,0,0,1-1.19-1.23l.03-1.47c.02-.75.44-1.11,1.2-1.19a6.46,6.46,0,0,0,3.35-1.22c1.24-.98,1.45-1.92.86-2.67-.64-.81-1.62-.46-3.23-.01l-2.38.66a5.231,5.231,0,0,1-5.88-1.59c-1.86-2.35-1.25-5.9,1.73-8.26a8.364,8.364,0,0,1,4.84-1.81,1.055,1.055,0,0,1,1.17,1.21v1.13c0,.74-.4,1.12-1.16,1.23a5.429,5.429,0,0,0-2.57,1.12c-1.03.82-1.33,1.73-.75,2.46.63.79,1.73.41,3.36-.09l2.3-.69a4.933,4.933,0,0,1,5.81,1.65c1.85,2.33,1.52,5.93-1.87,8.62a10.1,10.1,0,0,1-5.62,2.15Z" fill="none" stroke="#000" stroke-linecap="round" stroke-linejoin="round" stroke-width="3"/>
          <path id="Path_169" data-name="Path 169" d="M29.48,10.64l-.43-1.09A1.082,1.082,0,0,1,29.73,8L40.51,3.79a1.087,1.087,0,0,1,1.55.68l.43,1.1a1.087,1.087,0,0,1-.68,1.55l-3.4,1.33,4.77,12.21a1.087,1.087,0,0,1-.68,1.55l-1.77.69a1.082,1.082,0,0,1-1.55-.68L34.42,10.01l-3.38,1.32a1.087,1.087,0,0,1-1.55-.68Z" fill="none" stroke="#000" stroke-linecap="round" stroke-linejoin="round" stroke-width="3"/>
          <path id="Path_170" data-name="Path 170" d="M48.71,2.14l8.91-.64A1.086,1.086,0,0,1,58.9,2.61l.08,1.17a1.086,1.086,0,0,1-1.11,1.28l-5.82.42.24,3.3,4.76-.34a1.086,1.086,0,0,1,1.28,1.11l.09,1.2a1.086,1.086,0,0,1-1.11,1.28l-4.76.34.27,3.78,6.08-.43a1.086,1.086,0,0,1,1.28,1.11l.09,1.2a1.086,1.086,0,0,1-1.11,1.28l-9.17.65a1.081,1.081,0,0,1-1.28-1.11L47.61,3.41a1.086,1.086,0,0,1,1.11-1.28Z" fill="none" stroke="#000" stroke-linecap="round" stroke-linejoin="round" stroke-width="3"/>
          <path id="Path_171" data-name="Path 171" d="M67.01,2.16l4.96,1.16c3.81.89,6.64,3.01,5.64,7.31-.97,4.14-4.57,5.22-8.27,4.36l-2.03-.48-1.08,4.61a1.088,1.088,0,0,1-1.44.9l-1.85-.43a1.088,1.088,0,0,1-.9-1.44L65.56,3.07A1.088,1.088,0,0,1,67,2.17Zm2.89,9.47c2.03.48,3.24-.25,3.64-1.96.41-1.75-.57-2.62-2.58-3.09l-1.71-.4-1.17,5.03,1.82.43Z" fill="none" stroke="#000" stroke-linecap="round" stroke-linejoin="round" stroke-width="3"/>
          <path id="Path_172" data-name="Path 172" d="M78.11,19.17c8.27-1.21,14.19-2.63,16.3-5.68,1.39-2.02,1.05-3.87-.73-5.09a4.948,4.948,0,0,0-3.44-.71,1.694,1.694,0,0,1-2.08-1.48l-.24-1.3a1.6,1.6,0,0,1,1.45-2.1,10.72,10.72,0,0,1,7.87,1.97c4.27,2.94,5.35,7.72,2.45,11.92-2.62,3.79-8.76,5.72-14.49,6.8a37.5,37.5,0,0,1,3.82,2.2l2.55,1.76a1.629,1.629,0,0,1,.46,2.5l-1.02,1.48a1.629,1.629,0,0,1-2.5.46L76.18,23.39a1.629,1.629,0,0,1-.46-2.5l.31-.44a2.751,2.751,0,0,1,2.1-1.27Z" fill="none" stroke="#000" stroke-linecap="round" stroke-linejoin="round" stroke-width="3"/>
        </g>
        <g id="Group_106" data-name="Group 106">
          <path id="Path_173" data-name="Path 173" d="M24.81,31.52a1.059,1.059,0,0,1-1.19-1.23l.03-1.47c.02-.75.44-1.11,1.2-1.19a6.46,6.46,0,0,0,3.35-1.22c1.24-.98,1.45-1.92.86-2.67-.64-.81-1.62-.46-3.23-.01l-2.38.66a5.231,5.231,0,0,1-5.88-1.59c-1.86-2.35-1.25-5.9,1.73-8.26a8.364,8.364,0,0,1,4.84-1.81,1.055,1.055,0,0,1,1.17,1.21v1.13c0,.74-.4,1.12-1.16,1.23a5.429,5.429,0,0,0-2.57,1.12c-1.03.82-1.33,1.73-.75,2.46.63.79,1.73.41,3.36-.09l2.3-.69a4.933,4.933,0,0,1,5.81,1.65c1.85,2.33,1.52,5.93-1.87,8.62a10.1,10.1,0,0,1-5.62,2.15Z" fill="#ffd800"/>
          <path id="Path_174" data-name="Path 174" d="M29.48,10.64l-.43-1.09A1.082,1.082,0,0,1,29.73,8L40.51,3.79a1.087,1.087,0,0,1,1.55.68l.43,1.1a1.087,1.087,0,0,1-.68,1.55l-3.4,1.33,4.77,12.21a1.087,1.087,0,0,1-.68,1.55l-1.77.69a1.082,1.082,0,0,1-1.55-.68L34.42,10.01l-3.38,1.32a1.087,1.087,0,0,1-1.55-.68Z" fill="#ffd800"/>
          <path id="Path_175" data-name="Path 175" d="M48.71,2.14l8.91-.64A1.086,1.086,0,0,1,58.9,2.61l.08,1.17a1.086,1.086,0,0,1-1.11,1.28l-5.82.42.24,3.3,4.76-.34a1.086,1.086,0,0,1,1.28,1.11l.09,1.2a1.086,1.086,0,0,1-1.11,1.28l-4.76.34.27,3.78,6.08-.43a1.086,1.086,0,0,1,1.28,1.11l.09,1.2a1.086,1.086,0,0,1-1.11,1.28l-9.17.65a1.081,1.081,0,0,1-1.28-1.11L47.61,3.41a1.086,1.086,0,0,1,1.11-1.28Z" fill="#ffd800"/>
          <path id="Path_176" data-name="Path 176" d="M67.01,2.16l4.96,1.16c3.81.89,6.64,3.01,5.64,7.31-.97,4.14-4.57,5.22-8.27,4.36l-2.03-.48-1.08,4.61a1.088,1.088,0,0,1-1.44.9l-1.85-.43a1.088,1.088,0,0,1-.9-1.44L65.56,3.07A1.088,1.088,0,0,1,67,2.17Zm2.89,9.47c2.03.48,3.24-.25,3.64-1.96.41-1.75-.57-2.62-2.58-3.09l-1.71-.4-1.17,5.03,1.82.43Z" fill="#ffd800"/>
          <path id="Path_177" data-name="Path 177" d="M78.11,19.17c8.27-1.21,14.19-2.63,16.3-5.68,1.39-2.02,1.05-3.87-.73-5.09a4.948,4.948,0,0,0-3.44-.71,1.694,1.694,0,0,1-2.08-1.48l-.24-1.3a1.6,1.6,0,0,1,1.45-2.1,10.72,10.72,0,0,1,7.87,1.97c4.27,2.94,5.35,7.72,2.45,11.92-2.62,3.79-8.76,5.72-14.49,6.8a37.5,37.5,0,0,1,3.82,2.2l2.55,1.76a1.629,1.629,0,0,1,.46,2.5l-1.02,1.48a1.629,1.629,0,0,1-2.5.46L76.18,23.39a1.629,1.629,0,0,1-.46-2.5l.31-.44a2.751,2.751,0,0,1,2.1-1.27Z" fill="#ffd800"/>
        </g>
      </g>
      <line id="Line_115" data-name="Line 115" x2="15.62" y2="15.62" transform="translate(1 25.94)" fill="none" stroke="#000" stroke-linecap="round" stroke-miterlimit="10" stroke-width="2"/>
      <line id="Line_116" data-name="Line 116" x1="15.63" y2="15.62" transform="translate(96.26 25.94)" fill="none" stroke="#000" stroke-linecap="round" stroke-miterlimit="10" stroke-width="2"/>
    </g>
  </g>
</svg>
