<svg xmlns="http://www.w3.org/2000/svg" width="100" height="100" viewBox="0 0 100 100">
  <g id="Group_373" data-name="Group 373" transform="translate(-518 -966)">
    <g id="Ellipse_22" data-name="Ellipse 22" transform="translate(518 966)" fill="#fff" stroke="#50b482" stroke-width="5">
      <circle cx="50" cy="50" r="50" stroke="none"/>
      <circle cx="50" cy="50" r="47.5" fill="none"/>
    </g>
    <g id="鉛筆アイコン_4" data-name="鉛筆アイコン　4" transform="translate(540.989 989.02)">
      <path id="Path_107" data-name="Path 107" d="M53.412,9.493l-7.907-7.9a5.419,5.419,0,0,0-7.664,0L32.715,6.712,7.668,31.765a9.96,9.96,0,0,0-2.33,3.673L.262,49.567a4.045,4.045,0,0,0,5.176,5.174l14.128-5.078a9.963,9.963,0,0,0,3.673-2.329L46.948,23.622h0l1.34-1.342,5.123-5.125,0,0A5.422,5.422,0,0,0,53.412,9.493ZM10.348,34.445,35.208,9.581l4.435,4.435L14.4,39.259,9.988,34.848C10.1,34.71,10.22,34.573,10.348,34.445Zm7.935,11.649-9,3.236L5.672,45.721l3.235-9c.023-.066.056-.128.08-.193l9.487,9.486C18.41,46.04,18.348,46.071,18.283,46.094Zm2.274-1.441c-.128.127-.265.244-.4.36L15.74,40.6,40.984,15.356l4.434,4.434ZM50.731,14.477,46.948,18.26l-.19.19L36.549,8.24l3.973-3.973a1.632,1.632,0,0,1,2.3,0l7.906,7.9a1.628,1.628,0,0,1,0,2.306Z" transform="translate(0 0)" fill="#50b482"/>
    </g>
  </g>
</svg>
