<svg xmlns="http://www.w3.org/2000/svg" width="100" height="100" viewBox="0 0 100 100">
  <g id="Group_378" data-name="Group 378" transform="translate(-518 -2826)">
    <g id="Ellipse_27" data-name="Ellipse 27" transform="translate(518 2826)" fill="#fff" stroke="#50b482" stroke-width="5">
      <circle cx="50" cy="50" r="50" stroke="none"/>
      <circle cx="50" cy="50" r="47.5" fill="none"/>
    </g>
    <g id="会員証のアイコン素材_その2" data-name="会員証のアイコン素材 その2" transform="matrix(0.978, -0.208, 0.208, 0.978, 536.929, 2862.506)">
      <path id="Path_97" data-name="Path 97" d="M3.054,80.6H55.328a3.057,3.057,0,0,1,3.054,3.053V117.55a3.058,3.058,0,0,1-3.054,3.054H3.054A3.058,3.058,0,0,1,0,117.55V83.657A3.057,3.057,0,0,1,3.054,80.6Zm40.257,23.168v-.51a2.255,2.255,0,0,1,.155-.818c.021-.028,2.143-2.891,2.143-5.48,0-3.084-1.937-5.323-4.606-5.323S36.4,93.88,36.4,96.964c0,2.589,2.121,5.452,2.169,5.53a2.34,2.34,0,0,1,.129.768v.51a1.817,1.817,0,0,1-1.061,1.648l-3.457,1.412a2.53,2.53,0,0,0-1.432,1.83l-.163,2.1H49.424l-.16-2.081a2.53,2.53,0,0,0-1.427-1.845l-3.471-1.419A1.814,1.814,0,0,1,43.311,103.772ZM9.428,106.35v3.37H27.966v-3.37Zm0-7.252v3.37H27.966V99.1Zm22.559-3.882v-3.37H9.428v3.37Z" transform="translate(0 -80.604)" fill="#50b482"/>
    </g>
  </g>
</svg>
