<svg xmlns="http://www.w3.org/2000/svg" width="113.718" height="42.981" viewBox="0 0 113.718 42.981">
  <g id="レイヤー_1" data-name="レイヤー 1" transform="translate(0.414 0.007)">
    <g id="Group_112" data-name="Group 112">
      <g id="Group_111" data-name="Group 111">
        <g id="Group_109" data-name="Group 109">
          <path id="Path_178" data-name="Path 178" d="M24.81,31.52a1.059,1.059,0,0,1-1.19-1.23l.03-1.47c.02-.75.44-1.11,1.2-1.19a6.46,6.46,0,0,0,3.35-1.22c1.24-.98,1.45-1.92.86-2.67-.64-.81-1.62-.46-3.23-.01l-2.38.66a5.231,5.231,0,0,1-5.88-1.59c-1.86-2.35-1.25-5.9,1.73-8.26a8.364,8.364,0,0,1,4.84-1.81,1.055,1.055,0,0,1,1.17,1.21v1.13c0,.74-.4,1.12-1.16,1.23a5.429,5.429,0,0,0-2.57,1.12c-1.03.82-1.33,1.73-.75,2.46.63.79,1.73.41,3.36-.09l2.3-.69a4.933,4.933,0,0,1,5.81,1.65c1.85,2.33,1.52,5.93-1.87,8.62a10.1,10.1,0,0,1-5.62,2.15Z" fill="none" stroke="#000" stroke-linecap="round" stroke-linejoin="round" stroke-width="3"/>
          <path id="Path_179" data-name="Path 179" d="M29.48,10.64l-.43-1.09A1.082,1.082,0,0,1,29.73,8L40.51,3.79a1.087,1.087,0,0,1,1.55.68l.43,1.1a1.087,1.087,0,0,1-.68,1.55l-3.4,1.33,4.77,12.21a1.087,1.087,0,0,1-.68,1.55l-1.77.69a1.082,1.082,0,0,1-1.55-.68L34.42,10.01l-3.38,1.32a1.087,1.087,0,0,1-1.55-.68Z" fill="none" stroke="#000" stroke-linecap="round" stroke-linejoin="round" stroke-width="3"/>
          <path id="Path_180" data-name="Path 180" d="M48.71,2.14l8.91-.64A1.086,1.086,0,0,1,58.9,2.61l.08,1.17a1.086,1.086,0,0,1-1.11,1.28l-5.82.42.24,3.3,4.76-.34a1.086,1.086,0,0,1,1.28,1.11l.09,1.2a1.086,1.086,0,0,1-1.11,1.28l-4.76.34.27,3.78,6.08-.43a1.086,1.086,0,0,1,1.28,1.11l.09,1.2a1.086,1.086,0,0,1-1.11,1.28l-9.17.65a1.081,1.081,0,0,1-1.28-1.11L47.61,3.41a1.086,1.086,0,0,1,1.11-1.28Z" fill="none" stroke="#000" stroke-linecap="round" stroke-linejoin="round" stroke-width="3"/>
          <path id="Path_181" data-name="Path 181" d="M67.01,2.16l4.96,1.16c3.81.89,6.64,3.01,5.64,7.31-.97,4.14-4.57,5.22-8.27,4.36l-2.03-.48-1.08,4.61a1.088,1.088,0,0,1-1.44.9l-1.85-.43a1.088,1.088,0,0,1-.9-1.44L65.56,3.07A1.088,1.088,0,0,1,67,2.17Zm2.89,9.47c2.03.48,3.24-.25,3.64-1.96.41-1.75-.57-2.62-2.58-3.09l-1.71-.4-1.17,5.03,1.82.43Z" fill="none" stroke="#000" stroke-linecap="round" stroke-linejoin="round" stroke-width="3"/>
          <path id="Path_182" data-name="Path 182" d="M80.18,19.85l3.2,2.21L92.03,9.53,89.45,7.75a1.629,1.629,0,0,1-.46-2.5l.31-.44a1.879,1.879,0,0,1,2.46-.71,16.534,16.534,0,0,0,4.1,1.03,4.1,4.1,0,0,1,2.19.76l1.42.98a1.629,1.629,0,0,1,.46,2.5L88.66,25.7l2.49,1.72a1.629,1.629,0,0,1,.46,2.5l-.9,1.3a1.629,1.629,0,0,1-2.5.46L77.25,24.11a1.629,1.629,0,0,1-.46-2.5l.9-1.3a1.629,1.629,0,0,1,2.5-.46Z" fill="none" stroke="#000" stroke-linecap="round" stroke-linejoin="round" stroke-width="3"/>
        </g>
        <g id="Group_110" data-name="Group 110">
          <path id="Path_183" data-name="Path 183" d="M24.81,31.52a1.059,1.059,0,0,1-1.19-1.23l.03-1.47c.02-.75.44-1.11,1.2-1.19a6.46,6.46,0,0,0,3.35-1.22c1.24-.98,1.45-1.92.86-2.67-.64-.81-1.62-.46-3.23-.01l-2.38.66a5.231,5.231,0,0,1-5.88-1.59c-1.86-2.35-1.25-5.9,1.73-8.26a8.364,8.364,0,0,1,4.84-1.81,1.055,1.055,0,0,1,1.17,1.21v1.13c0,.74-.4,1.12-1.16,1.23a5.429,5.429,0,0,0-2.57,1.12c-1.03.82-1.33,1.73-.75,2.46.63.79,1.73.41,3.36-.09l2.3-.69a4.933,4.933,0,0,1,5.81,1.65c1.85,2.33,1.52,5.93-1.87,8.62a10.1,10.1,0,0,1-5.62,2.15Z" fill="#ffd800"/>
          <path id="Path_184" data-name="Path 184" d="M29.48,10.64l-.43-1.09A1.082,1.082,0,0,1,29.73,8L40.51,3.79a1.087,1.087,0,0,1,1.55.68l.43,1.1a1.087,1.087,0,0,1-.68,1.55l-3.4,1.33,4.77,12.21a1.087,1.087,0,0,1-.68,1.55l-1.77.69a1.082,1.082,0,0,1-1.55-.68L34.42,10.01l-3.38,1.32a1.087,1.087,0,0,1-1.55-.68Z" fill="#ffd800"/>
          <path id="Path_185" data-name="Path 185" d="M48.71,2.14l8.91-.64A1.086,1.086,0,0,1,58.9,2.61l.08,1.17a1.086,1.086,0,0,1-1.11,1.28l-5.82.42.24,3.3,4.76-.34a1.086,1.086,0,0,1,1.28,1.11l.09,1.2a1.086,1.086,0,0,1-1.11,1.28l-4.76.34.27,3.78,6.08-.43a1.086,1.086,0,0,1,1.28,1.11l.09,1.2a1.086,1.086,0,0,1-1.11,1.28l-9.17.65a1.081,1.081,0,0,1-1.28-1.11L47.61,3.41a1.086,1.086,0,0,1,1.11-1.28Z" fill="#ffd800"/>
          <path id="Path_186" data-name="Path 186" d="M67.01,2.16l4.96,1.16c3.81.89,6.64,3.01,5.64,7.31-.97,4.14-4.57,5.22-8.27,4.36l-2.03-.48-1.08,4.61a1.088,1.088,0,0,1-1.44.9l-1.85-.43a1.088,1.088,0,0,1-.9-1.44L65.56,3.07A1.088,1.088,0,0,1,67,2.17Zm2.89,9.47c2.03.48,3.24-.25,3.64-1.96.41-1.75-.57-2.62-2.58-3.09l-1.71-.4-1.17,5.03,1.82.43Z" fill="#ffd800"/>
          <path id="Path_187" data-name="Path 187" d="M80.18,19.85l3.2,2.21L92.03,9.53,89.45,7.75a1.629,1.629,0,0,1-.46-2.5l.31-.44a1.879,1.879,0,0,1,2.46-.71,16.534,16.534,0,0,0,4.1,1.03,4.1,4.1,0,0,1,2.19.76l1.42.98a1.629,1.629,0,0,1,.46,2.5L88.66,25.7l2.49,1.72a1.629,1.629,0,0,1,.46,2.5l-.9,1.3a1.629,1.629,0,0,1-2.5.46L77.25,24.11a1.629,1.629,0,0,1-.46-2.5l.9-1.3a1.629,1.629,0,0,1,2.5-.46Z" fill="#ffd800"/>
        </g>
      </g>
      <line id="Line_117" data-name="Line 117" x2="15.62" y2="15.62" transform="translate(1 25.94)" fill="none" stroke="#000" stroke-linecap="round" stroke-miterlimit="10" stroke-width="2"/>
      <line id="Line_118" data-name="Line 118" x1="15.63" y2="15.62" transform="translate(96.26 25.94)" fill="none" stroke="#000" stroke-linecap="round" stroke-miterlimit="10" stroke-width="2"/>
    </g>
  </g>
</svg>
