<svg xmlns="http://www.w3.org/2000/svg" width="100" height="100" viewBox="0 0 100 100">
  <g id="Group_376" data-name="Group 376" transform="translate(-518 -2082)">
    <g id="Ellipse_25" data-name="Ellipse 25" transform="translate(518 2082)" fill="#fff" stroke="#50b482" stroke-width="5">
      <circle cx="50" cy="50" r="50" stroke="none"/>
      <circle cx="50" cy="50" r="47.5" fill="none"/>
    </g>
    <g id="自動車のアイコン素材_その2" data-name="自動車のアイコン素材 その2" transform="translate(529.533 1987.105)">
      <path id="Path_108" data-name="Path 108" d="M74.4,137.834H70.843l-8.573-14.939H30.456l-11.97,14.939H3.766A3.758,3.758,0,0,0,.052,142.2L2.316,156a.208.208,0,0,0,.2.209h9.675a8.678,8.678,0,0,1,17.244,0H51.6a8.679,8.679,0,0,1,17.244,0H74.4a2.531,2.531,0,0,0,2.533-2.533v-13.31A2.531,2.531,0,0,0,74.4,137.834Zm-25.131-8.979h8.7l5.394,8.979.188.557.04.148H49.269v-9.685Zm-22.244,9.671.282-.692,7.182-8.979h7.966v9.685H31.244Z" transform="translate(0 0)" fill="#50b482"/>
      <path id="Path_109" data-name="Path 109" d="M106.256,313.282a5.7,5.7,0,0,0-5.612,4.708,5.412,5.412,0,0,0-.09.993,5.7,5.7,0,0,0,11.4,0,5.441,5.441,0,0,0-.089-.993A5.7,5.7,0,0,0,106.256,313.282Z" transform="translate(-85.445 -161.78)" fill="#50b482"/>
      <path id="Path_110" data-name="Path 110" d="M368.566,313.282a5.7,5.7,0,0,0-5.612,4.708,5.414,5.414,0,0,0-.09.993,5.7,5.7,0,0,0,11.4,0,5.444,5.444,0,0,0-.089-.993A5.7,5.7,0,0,0,368.566,313.282Z" transform="translate(-308.341 -161.78)" fill="#50b482"/>
    </g>
  </g>
</svg>
