<svg xmlns="http://www.w3.org/2000/svg" width="100" height="100" viewBox="0 0 100 100">
  <g id="Group_372" data-name="Group 372" transform="translate(-518 -594)">
    <g id="Ellipse_21" data-name="Ellipse 21" transform="translate(518 594)" fill="#fff" stroke="#50b482" stroke-width="5">
      <circle cx="50" cy="50" r="50" stroke="none"/>
      <circle cx="50" cy="50" r="47.5" fill="none"/>
    </g>
    <g id="虫眼鏡の無料アイコン8" transform="translate(534.824 612.473)">
      <path id="Path_104" data-name="Path 104" d="M41.151,35.951a22.658,22.658,0,1,0-5.04,5.04l1.752,1.749L42.9,37.7Zm-6.713-1.673a16.446,16.446,0,1,1,0-23.259A16.449,16.449,0,0,1,34.437,34.278Z" transform="translate(0 0)" fill="#50b482"/>
      <path id="Path_105" data-name="Path 105" d="M89.882,116.705a13.005,13.005,0,0,0-.832,14.731.914.914,0,0,0,1.56-.953h0a11.181,11.181,0,0,1,.712-12.657.913.913,0,1,0-1.44-1.122Z" transform="translate(-76.281 -102.024)" fill="#50b482"/>
      <path id="Path_106" data-name="Path 106" d="M338.285,330.377l-17.015-15.2-5.909,5.909,15.2,17.016c1.545,2,4.328,1.705,6.829-.8S340.286,331.922,338.285,330.377Z" transform="translate(-276.383 -276.363)" fill="#50b482"/>
    </g>
  </g>
</svg>
