<svg xmlns="http://www.w3.org/2000/svg" xmlns:xlink="http://www.w3.org/1999/xlink" width="89" height="128" viewBox="0 0 89 128">
  <defs>
    <clipPath id="clip-path">
      <rect id="Rectangle_2396" data-name="Rectangle 2396" width="89" height="128" transform="translate(-4927.5 -14325)" fill="#fff"/>
    </clipPath>
  </defs>
  <g id="Mask_Group_33" data-name="Mask Group 33" transform="translate(4927.5 14325)" clip-path="url(#clip-path)">
    <g id="Group_377" data-name="Group 377" transform="translate(-5927.957 -15825.621)">
      <path id="Path_23443" data-name="Path 23443" d="M47.894,3.5C22.177,3.5,10.38,25.736,15.046,48.835c1.624,8.042,4.51,11.457,5.673,19.184h54.35c1.163-7.728,4.048-11.143,5.673-19.184C85.407,25.736,73.61,3.5,47.894,3.5" transform="translate(994.829 1507.099)" fill="#ef5350"/>
      <path id="Path_23444" data-name="Path 23444" d="M72.884,140.418a19.38,19.38,0,0,0-11.15-6.225c-3.8-.753-9.32-2.24-11.742-5.7-1.683-2.4-1.267-3.3-1.564-4.946,9.017-2.107,13.177-4.663,17.461-13.114a6.546,6.546,0,0,0,.734.259,7.282,7.282,0,0,0,4-13.981c-.035-.01-.069-.016-.1-.025-3.989.763-10.537-2.152-16.334-7.628a38.476,38.476,0,0,1-3.047-3.225,10.944,10.944,0,0,1-7.221-.923,10.713,10.713,0,0,1-1.54.691c-5.833,2.083-12.347-1.23-14.55-7.4-.126-.352-.232-.705-.325-1.059-.9,2.4-1.169,5.625-2.847,8.237-4.05,6.3-10.079,9.667-13.558,10.3.078.3.16.6.252.9h-.843c-.178.035-.355.076-.532.127a7.282,7.282,0,0,0,4,13.981,6.589,6.589,0,0,0,.734-.259c4.284,8.451,8.444,11.007,17.461,13.114-.3,1.642.119,2.542-1.564,4.946-2.423,3.461-7.94,4.948-11.742,5.7a19.379,19.379,0,0,0-11.15,6.225C2.595,146.4,1,156.146,9.615,159.679A85.312,85.312,0,0,0,40.3,165.7a85.309,85.309,0,0,0,30.684-6.021c8.613-3.533,7.02-13.278,1.9-19.261" transform="translate(1002.423 1453.998)" fill="#fff"/>
      <path id="Path_23445" data-name="Path 23445" d="M132.945,1.953c8.152.038,16.246,2.436,22.321,8.048a33.787,33.787,0,0,1,9.965,19.3,46.07,46.07,0,0,1,.133,13.769c-.165,1.242,1.79,1.23,1.953,0a43.789,43.789,0,0,0-3.356-24.38,31.93,31.93,0,0,0-16.3-15.863A37.984,37.984,0,0,0,132.945,0a.977.977,0,0,0,0,1.953" transform="translate(909.777 1509.621)" fill="#221e1f"/>
      <path id="Path_23446" data-name="Path 23446" d="M45.4,0c-8.5.04-16.9,2.543-23.324,8.277A35.316,35.316,0,0,0,11.266,28.571a47.528,47.528,0,0,0-.248,14.443c.161,1.228,2.116,1.244,1.953,0C10.984,27.881,16.356,11.167,31.246,4.7A35.84,35.84,0,0,1,45.4,1.953.977.977,0,0,0,45.4,0" transform="translate(997.325 1509.621)" fill="#221e1f"/>
      <path id="Path_23447" data-name="Path 23447" d="M151.888,65.531c.4,4.223,3.087,8.371,5.677,11.579a27.967,27.967,0,0,0,16.4,10.09c1.228.234,1.754-1.647.519-1.883a26.255,26.255,0,0,1-15.338-9.346c-2.308-2.8-4.945-6.7-5.3-10.441-.118-1.24-2.072-1.252-1.953,0" transform="translate(895.441 1463.045)" fill="#221e1f"/>
      <path id="Path_23448" data-name="Path 23448" d="M127.729,74.763c-3.65-1.746-5.612-5.288-5.993-9.232-.12-1.24-2.074-1.252-1.953,0,.444,4.594,2.669,8.865,6.96,10.918,1.128.54,2.12-1.143.986-1.686" transform="translate(918.59 1463.045)" fill="#221e1f"/>
      <path id="Path_23449" data-name="Path 23449" d="M95.625,74.763c-3.65-1.746-5.612-5.288-5.993-9.232-.12-1.24-2.074-1.252-1.953,0,.444,4.594,2.669,8.866,6.96,10.918,1.128.54,2.12-1.143.986-1.686" transform="translate(941.739 1463.045)" fill="#221e1f"/>
      <path id="Path_23450" data-name="Path 23450" d="M47.306,73.566A20.766,20.766,0,0,1,32,89.816a.977.977,0,0,0,.519,1.883A22.689,22.689,0,0,0,49.189,74.085c.223-1.229-1.658-1.756-1.883-.519" transform="translate(982.387 1457.086)" fill="#221e1f"/>
      <path id="Path_23451" data-name="Path 23451" d="M72.884,284.955a19.38,19.38,0,0,0-11.15-6.225,39.532,39.532,0,0,1-4.478-1.134c-3.047,3.354-9.608,3.33-17.212,3.33-7.51,0-14,.082-17.1-3.2a40.825,40.825,0,0,1-4.083,1.009,19.379,19.379,0,0,0-11.15,6.225c-5.119,5.983-6.713,15.728,1.9,19.261A85.311,85.311,0,0,0,40.3,310.237a85.309,85.309,0,0,0,30.684-6.021c8.613-3.533,7.02-13.278,1.9-19.261" transform="translate(1002.423 1309.462)" fill="#ef5350"/>
      <path id="Path_23452" data-name="Path 23452" d="M94.187,153.56a2.518,2.518,0,1,1-2.462-3.046,2.8,2.8,0,0,1,2.462,3.046" transform="translate(940.594 1401.095)" fill="#221e1f"/>
      <path id="Path_23453" data-name="Path 23453" d="M168.775,153.56a2.518,2.518,0,1,1-2.462-3.046,2.8,2.8,0,0,1,2.462,3.046" transform="translate(886.812 1401.095)" fill="#221e1f"/>
      <path id="Path_23454" data-name="Path 23454" d="M108.556,192.933a7.418,7.418,0,0,0,7.483,7.234,7.1,7.1,0,0,0,7.483-7.234.989.989,0,0,0-.976-.976H109.533a.977.977,0,0,0,0,1.953h13.014l-.976-.976a5.136,5.136,0,0,1-5.53,5.281,5.43,5.43,0,0,1-5.53-5.281.977.977,0,0,0-1.953,0" transform="translate(926.682 1371.212)" fill="#221e1f"/>
      <path id="Path_23455" data-name="Path 23455" d="M77.088,336.447a12.564,12.564,0,0,0-.158-2.191,43.475,43.475,0,0,1-6.7,3.154C60.629,341,50.079,342.1,39.9,342.119a98.049,98.049,0,0,1-25.211-3.082,49.724,49.724,0,0,1-11.064-4.3,12.009,12.009,0,0,0-.074,2.187A58.809,58.809,0,0,0,18.227,341.9,103.582,103.582,0,0,0,39.9,344.072a101.581,101.581,0,0,0,24.849-2.918,52.577,52.577,0,0,0,12.344-4.706" transform="translate(1002.415 1268.607)" fill="#fff"/>
      <path id="Path_23456" data-name="Path 23456" d="M59.357,295.814a78.355,78.355,0,0,0,22.336-3.107,37.251,37.251,0,0,0,6.326-2.5A18.794,18.794,0,0,0,86.035,289c-1.256.57-2.49,1.016-3.454,1.356-7.068,2.5-14.738,3.313-22.19,3.485a81.682,81.682,0,0,1-23.454-2.585,37.56,37.56,0,0,1-5.836-2.086,18.548,18.548,0,0,0-2.029,1.294,40.949,40.949,0,0,0,7.345,2.675,82.366,82.366,0,0,0,22.939,2.671" transform="translate(983.994 1301.236)" fill="#fff"/>
      <path id="Path_23457" data-name="Path 23457" d="M42.2,326.028a94.568,94.568,0,0,0,24.5-3.006,44.164,44.164,0,0,0,11.648-4.8,17.859,17.859,0,0,0-.806-1.767,42.813,42.813,0,0,1-9.675,4.2A87.651,87.651,0,0,1,42.2,324.075,91.01,91.01,0,0,1,17.36,320.9a41.933,41.933,0,0,1-9.873-4.079,17.6,17.6,0,0,0-.772,1.8,46.892,46.892,0,0,0,10.976,4.4,92.406,92.406,0,0,0,24.5,3.006" transform="translate(1000.115 1281.443)" fill="#fff"/>
      <path id="Path_23458" data-name="Path 23458" d="M48.6,309.787a87.277,87.277,0,0,0,24.1-3.1,37.616,37.616,0,0,0,9.492-4.01c-.193-.251-.391-.5-.6-.739-.233-.273-.476-.533-.723-.788q-.146.09-.292.178c-4.4,2.624-9.549,3.976-14.537,4.95A92.265,92.265,0,0,1,48.6,307.834a83.76,83.76,0,0,1-24.4-3.275,37.551,37.551,0,0,1-7.393-3.043c-.128.14-.257.279-.381.424-.289.338-.564.689-.829,1.048a37.843,37.843,0,0,0,5.531,2.581c8.646,3.29,18.289,4.194,27.471,4.217" transform="translate(993.71 1292.477)" fill="#fff"/>
      <path id="Path_23459" data-name="Path 23459" d="M7.713,143.382a8.218,8.218,0,1,0,4.722,15.731l-1.1-.449a25.327,25.327,0,0,0,7.185,9.2c3.18,2.341,7.067,3.468,10.859,4.365l-.682-1.2a14.331,14.331,0,0,1-.515,3.065,8.155,8.155,0,0,1-2.922,3.543,21.845,21.845,0,0,1-7.863,3.077,27.327,27.327,0,0,0-8.411,2.977,19.068,19.068,0,0,0-6.07,5.875C.438,193.342-1,198.43.816,202.772c2.252,5.387,8.959,6.9,14.024,8.338a83.4,83.4,0,0,0,40.9,1.244A82.315,82.315,0,0,0,65.9,209.439c2.531-.911,5.155-1.844,7.023-3.877,3.223-3.509,3.1-8.6,1.376-12.782a19.822,19.822,0,0,0-13.987-11.6c-3.12-.739-6.271-1.307-9.088-2.938a9.161,9.161,0,0,1-3.464-3.334,10.3,10.3,0,0,1-.927-3.878l-.682,1.2c3.792-.9,7.68-2.024,10.859-4.365a25.33,25.33,0,0,0,7.185-9.2l-1.1.449a8.218,8.218,0,1,0,4.722-15.731c-1.222-.29-1.743,1.592-.519,1.883a6.267,6.267,0,1,1-3.684,11.965.978.978,0,0,0-1.1.449c-1.675,3.272-3.684,6.5-6.727,8.673-3,2.142-6.606,3.155-10.151,3.992a1,1,0,0,0-.682,1.2,18.912,18.912,0,0,0,.408,2.758,9.361,9.361,0,0,0,2.075,3.444,15.537,15.537,0,0,0,6.391,3.778c2.5.878,5.132,1.195,7.647,2a17.948,17.948,0,0,1,7.746,4.83c3.019,3.265,5.3,8.327,4,12.808a8.153,8.153,0,0,1-4.216,4.925,47.512,47.512,0,0,1-9.3,3.268,81.239,81.239,0,0,1-39.158,1.166,83.068,83.068,0,0,1-9.738-2.731c-2.516-.879-5.262-1.735-7.035-3.848-3-3.579-1.852-8.833.29-12.527a17.137,17.137,0,0,1,6.652-6.47c2.892-1.576,6.035-1.969,9.154-2.844a18.965,18.965,0,0,0,7.582-3.728,9.746,9.746,0,0,0,2.475-3.438,13.8,13.8,0,0,0,.651-3.39,1,1,0,0,0-.682-1.2c-3.544-.838-7.148-1.851-10.15-3.992-3.043-2.17-5.051-5.4-6.727-8.673a.98.98,0,0,0-1.1-.449,6.267,6.267,0,1,1-3.684-11.965c1.222-.29.7-2.174-.519-1.883" transform="translate(1004.957 1406.258)" fill="#221e1f"/>
      <path id="Path_23460" data-name="Path 23460" d="M189.955,262.008a2.757,2.757,0,0,1,3.85.616l1.5,2.834c.055-.04.109-.082.164-.121L199.59,252.3a2.721,2.721,0,1,1,5.187,1.638l-2.418,7.656c1.494.6,3.186,1.632,5.113,2.525,4.92,2.278,9.535,2.8,7.064,8.141l-2.029,4.381a2.919,2.919,0,0,1-1.926,1.643c-2.352,3.178-6.727,4.063-11.132,2.672-5.4-1.707-8.719-6.458-7.2-11.27,0-.011.008-.022.011-.033l-2.818-3.784a2.758,2.758,0,0,1,.513-3.865" transform="translate(868.767 1329.117)" fill="#fff"/>
      <path id="Path_23461" data-name="Path 23461" d="M187.992,260.254c2.253-1.448,3.215,1.588,4.018,3.1a.981.981,0,0,0,1.336.351c.958-.708,1.148-2.4,1.488-3.475l2.074-6.566a36.61,36.61,0,0,1,1.167-3.7,1.744,1.744,0,1,1,3.295,1.148c-.148.646-.407,1.287-.606,1.919l-1.8,5.709a1,1,0,0,0,.682,1.2c2.36.995,4.556,2.333,6.931,3.309,1.511.621,3.792,1.193,4.811,2.587.864,1.181.158,2.674-.383,3.843-.563,1.217-1.1,2.447-1.692,3.653a3.139,3.139,0,0,1-1.561,1.463c-.89.517-1.457,1.546-2.392,2.1a9.657,9.657,0,0,1-7.225.767c-4.506-1.121-8.659-4.96-7.5-9.946.306-1.323-.7-2.129-1.47-3.156-.975-1.309-2.7-2.979-.968-4.465.955-.82-.431-2.2-1.381-1.381-3.309,2.84.341,6.4,2.153,8.832l-.1-.753c-3.127,9.032,9.1,15.511,16.449,12.306a9.1,9.1,0,0,0,2.459-1.576c.329-.3.6-.744.948-1a11.1,11.1,0,0,0,1.345-.838,10.839,10.839,0,0,0,1.844-3.339c1.1-2.383,2.9-5.372.936-7.789-1.2-1.474-3.176-2.143-4.879-2.836-2.671-1.087-5.152-2.546-7.8-3.664l.682,1.2,1.84-5.825c.714-2.262,1.37-4.916-1.278-6.282-2.533-1.306-4.69.637-5.418,2.942l-2.1,6.658-1.257,3.978c-.128.4-.269.807-.384,1.216-.179.633-.35.414.117.069l1.336.35c-.495-.932-.922-1.957-1.5-2.835a3.778,3.778,0,0,0-5.185-.966c-1.054.677-.076,2.368.986,1.686" transform="translate(871.223 1331.716)" fill="#221e1f"/>
      <path id="Path_23462" data-name="Path 23462" d="M224.847,299.529l2.191-4.629-2.114,4.665a2.462,2.462,0,1,0,4.429,2.051l1.592-3.369-1.54,3.393a2.462,2.462,0,1,0,4.429,2.051l1.579-3.376-1.553,3.388a2.462,2.462,0,1,0,4.428,2.051l2.029-4.381c2.471-5.336-2.145-5.863-7.064-8.141-1.927-.892-3.619-1.923-5.113-2.526" transform="translate(842.986 1300.01)" fill="#fff"/>
      <path id="Path_23463" data-name="Path 23463" d="M223.287,297.382l2.191-4.629-1.686-.986c-1.112,2.454-4,6.577-1.51,9,1.715,1.673,4.342.755,5.421-1.136.643-1.126,1.128-2.365,1.682-3.537l-1.686-.986c-1.107,2.438-3.685,6.689-.033,8.338,3.56,1.608,5.071-2.9,6.186-5.284l-1.686-.986c-.752,1.641-2.127,3.69-1.951,5.555.326,3.454,4.645,3.958,6.333,1.2a40.42,40.42,0,0,0,2.295-4.911c1.15-2.628.883-5.079-1.662-6.672a31.42,31.42,0,0,0-4.612-2.07c-2.246-.943-4.33-2.217-6.573-3.164-1.156-.488-1.661,1.4-.519,1.883,1.921.811,3.7,1.922,5.614,2.757,1.431.625,2.921,1.132,4.314,1.84,1.023.521,2.145,1.184,2.218,2.451a6.28,6.28,0,0,1-.871,2.872c-.548,1.183-1.8,5.472-3.685,4.87-2.172-.693.246-4.453.785-5.629.519-1.132-1.152-2.127-1.686-.986-.575,1.229-1.588,4.824-3.361,4.576-2.5-.35.069-4.533.58-5.66s-1.147-2.128-1.686-.986l-1.276,2.7a4.522,4.522,0,0,1-.794,1.376,1.361,1.361,0,0,1-2.393-.612c-.224-1.019.675-2.368,1.073-3.245l1.169-2.582c.512-1.131-1.145-2.128-1.686-.986L221.6,296.4c-.535,1.13,1.148,2.122,1.686.986" transform="translate(845.39 1302.649)" fill="#221e1f"/>
      <line id="Line_289" data-name="Line 289" x2="2.486" y2="8.378" transform="translate(1013.061 1567.02)" fill="none" stroke="#221e1f" stroke-linecap="round" stroke-linejoin="round" stroke-width="2"/>
      <line id="Line_290" data-name="Line 290" x1="2.486" y2="8.378" transform="translate(1069.4 1567.02)" fill="none" stroke="#221e1f" stroke-linecap="round" stroke-linejoin="round" stroke-width="2"/>
    </g>
  </g>
</svg>
