<svg xmlns="http://www.w3.org/2000/svg" xmlns:xlink="http://www.w3.org/1999/xlink" width="358.536" height="87.88" viewBox="0 0 358.536 87.88">
  <defs>
    <radialGradient id="radial-gradient" cx="0.461" cy="0.43" r="0.307" gradientTransform="translate(-0.563) scale(2.126 1)" gradientUnits="objectBoundingBox">
      <stop offset="0" stop-color="#f6f8af"/>
      <stop offset="0.349" stop-color="#d2e680"/>
      <stop offset="1" stop-color="#8ac220"/>
    </radialGradient>
    <radialGradient id="radial-gradient-2" cx="0.503" cy="0.503" r="0.517" gradientTransform="translate(-0.163) scale(0.943 1)" xlink:href="#radial-gradient"/>
  </defs>
  <g id="Group_5" data-name="Group 5" transform="translate(-68.445 -268.129)">
    <g id="レイヤー_1" data-name="レイヤー 1" transform="translate(187.483 269.46)">
      <g id="Group_4" data-name="Group 4" transform="translate(0)">
        <g id="Group_1" data-name="Group 1" transform="translate(2.615 62.042)">
          <path id="Path_1" data-name="Path 1" d="M21.669,181.05v3.082H16.463v14.324H12.8V184.132H7.57V181.05Z" transform="translate(-7.57 -180.542)"/>
          <path id="Path_2" data-name="Path 2" d="M53.271,194.99q1.337-1.7,4.581-1.7a8.134,8.134,0,0,1,3.755.84,3.217,3.217,0,0,1,1.641,3.165v5.9c0,.408.007.905.024,1.489a1.879,1.879,0,0,0,.2.9,1.209,1.209,0,0,0,.5.39v.5H60.309a3.81,3.81,0,0,1-.214-.732,7.244,7.244,0,0,1-.093-.781,6.879,6.879,0,0,1-1.607,1.289,4.829,4.829,0,0,1-2.456.625,4.221,4.221,0,0,1-2.888-1,3.554,3.554,0,0,1-1.14-2.83,3.675,3.675,0,0,1,1.831-3.438,8.132,8.132,0,0,1,2.95-.826l1.147-.142a5.3,5.3,0,0,0,1.334-.294,1.011,1.011,0,0,0,.719-.957,1.132,1.132,0,0,0-.549-1.092,3.444,3.444,0,0,0-1.613-.3,2.1,2.1,0,0,0-1.689.591,2.466,2.466,0,0,0-.473,1.182H52.318A4.962,4.962,0,0,1,53.261,195Zm2.5,9.045a1.763,1.763,0,0,0,1.157.39,3.419,3.419,0,0,0,2-.639,2.714,2.714,0,0,0,.95-2.325V200.21a3.743,3.743,0,0,1-.643.325,5.579,5.579,0,0,1-.891.231l-.757.142a4.889,4.889,0,0,0-1.524.46,1.549,1.549,0,0,0-.781,1.43,1.484,1.484,0,0,0,.484,1.24Z" transform="translate(-36.591 -188.553)"/>
          <path id="Path_3" data-name="Path 3" d="M105.823,198.56H101.76l-3.082-5.5-1.392,1.451v4.049H93.98V181.21h3.306v9.376l4.191-4.84h4.17l-4.5,4.923,4.678,7.887Z" transform="translate(-64.127 -180.647)"/>
          <path id="Path_4" data-name="Path 4" d="M141.78,205.226c-.031.038-.111.159-.235.356a2.4,2.4,0,0,1-.449.518,4.654,4.654,0,0,1-1.53.967,5.229,5.229,0,0,1-1.731.259q-2.855,0-3.849-2.056a7.863,7.863,0,0,1-.556-3.341v-7.76h3.448v7.76a4.089,4.089,0,0,0,.259,1.655,1.8,1.8,0,0,0,1.807.981,2.361,2.361,0,0,0,2.363-1.392,5.03,5.03,0,0,0,.332-2v-7h3.413v12.873H141.78v-1.817Z" transform="translate(-89.947 -189.129)"/>
          <path id="Path_5" data-name="Path 5" d="M205.607,198.456h-7.5V181.05h7.5a9.236,9.236,0,0,1,2.691.377,5.746,5.746,0,0,1,2.964,2.208,7.8,7.8,0,0,1,1.24,2.809,13.444,13.444,0,0,1,.332,2.881,11.563,11.563,0,0,1-1.392,5.88,6.284,6.284,0,0,1-5.832,3.248Zm2.7-12.966q-.84-1.415-3.317-1.416h-3.355v11.36h3.355a3.621,3.621,0,0,0,3.59-2.539,8.959,8.959,0,0,0,.556-3.317,8.279,8.279,0,0,0-.826-4.087Z" transform="translate(-132.281 -180.542)"/>
          <path id="Path_6" data-name="Path 6" d="M254.969,196.7a2.8,2.8,0,0,0-2.729,1.323,5.161,5.161,0,0,0-.39,2.291v6.153H248.46V193.6h3.213v2.242a7.062,7.062,0,0,1,1.358-1.759,3.688,3.688,0,0,1,2.456-.791,1.074,1.074,0,0,1,.159.007c.041,0,.138.01.29.017v3.448c-.214-.024-.4-.038-.567-.048s-.3-.01-.4-.01Z" transform="translate(-165.236 -188.553)"/>
          <path id="Path_7" data-name="Path 7" d="M280.053,180.74v3.106H276.64V180.74Zm0,4.643v12.873H276.64V185.383Z" transform="translate(-183.68 -180.339)"/>
          <path id="Path_8" data-name="Path 8" d="M293,194.18h3.78l2.681,9.494,2.74-9.494h3.614l-4.64,12.873h-3.555L293,194.18Z" transform="translate(-194.388 -189.136)"/>
          <path id="Path_9" data-name="Path 9" d="M339.833,180.74v3.106H336.42V180.74Zm0,4.643v12.873H336.42V185.383Z" transform="translate(-222.807 -180.339)"/>
          <path id="Path_10" data-name="Path 10" d="M362.536,196.075a2.344,2.344,0,0,0-2.349,1.451,4.969,4.969,0,0,0-.332,1.959v6.968H356.5V193.605h3.248v1.876a5.818,5.818,0,0,1,1.226-1.43,4.276,4.276,0,0,1,2.633-.781,4.98,4.98,0,0,1,3.265,1.043,4.249,4.249,0,0,1,1.268,3.465v8.668h-3.448v-7.829a3.54,3.54,0,0,0-.273-1.558,1.914,1.914,0,0,0-1.89-.992Z" transform="translate(-235.95 -188.54)"/>
          <path id="Path_11" data-name="Path 11" d="M402.029,208.723a2.842,2.842,0,0,0,1.831.46,2.455,2.455,0,0,0,2.432-1.216,6.182,6.182,0,0,0,.4-2.622v-.826a4.124,4.124,0,0,1-1.04,1.24,4.185,4.185,0,0,1-2.608.767,4.939,4.939,0,0,1-3.963-1.741,7.037,7.037,0,0,1-1.482-4.716,7.8,7.8,0,0,1,1.43-4.823,4.725,4.725,0,0,1,4.049-1.955,4.5,4.5,0,0,1,1.689.294,4.045,4.045,0,0,1,1.983,1.866v-1.855h3.272V205.8a6.832,6.832,0,0,1-.84,3.755q-1.441,2.171-5.528,2.173a7.536,7.536,0,0,1-4.028-.967,3.572,3.572,0,0,1-1.724-2.892h3.662a1.515,1.515,0,0,0,.459.85Zm-.567-6.647a2.465,2.465,0,0,0,2.456,1.631,2.606,2.606,0,0,0,2-.891,4.131,4.131,0,0,0,.815-2.84,4.359,4.359,0,0,0-.774-2.788,2.523,2.523,0,0,0-2.073-.957,2.445,2.445,0,0,0-2.446,1.665,5.932,5.932,0,0,0-.356,2.183,4.984,4.984,0,0,0,.377,2Z" transform="translate(-262.85 -188.553)"/>
          <path id="Path_12" data-name="Path 12" d="M469.025,194.978a6.383,6.383,0,0,0,2.09-.283,2.021,2.021,0,0,0,1.524-2.018,1.489,1.489,0,0,0-.757-1.334,8.192,8.192,0,0,0-2.373-.815l-1.841-.415a11.625,11.625,0,0,1-3.755-1.334,4.238,4.238,0,0,1-1.758-3.766,5.038,5.038,0,0,1,1.7-3.887,7.181,7.181,0,0,1,5-1.548,7.607,7.607,0,0,1,4.7,1.458,5.212,5.212,0,0,1,2.038,4.232h-3.5a2.5,2.5,0,0,0-1.368-2.232,4.609,4.609,0,0,0-2.114-.435,3.947,3.947,0,0,0-2.242.567,1.8,1.8,0,0,0-.84,1.582,1.5,1.5,0,0,0,.826,1.392,10.064,10.064,0,0,0,2.266.719l3,.719a7.719,7.719,0,0,1,2.975,1.264,4.254,4.254,0,0,1,1.558,3.555,5.078,5.078,0,0,1-1.824,3.963,7.627,7.627,0,0,1-5.155,1.575,8.438,8.438,0,0,1-5.348-1.555,5.16,5.16,0,0,1-1.949-4.27h3.472a3.593,3.593,0,0,0,.65,1.783,3.741,3.741,0,0,0,3.033,1.074Z" transform="translate(-304.916 -179.58)"/>
          <path id="Path_13" data-name="Path 13" d="M520.637,198.207H517.19a2.991,2.991,0,0,0-.484-1.3,2.031,2.031,0,0,0-1.759-.781,2.314,2.314,0,0,0-2.325,1.689,7.029,7.029,0,0,0-.332,2.384,6.312,6.312,0,0,0,.332,2.28,2.245,2.245,0,0,0,2.266,1.607,1.994,1.994,0,0,0,1.676-.639,3.184,3.184,0,0,0,.6-1.655H520.6a5.659,5.659,0,0,1-1.109,2.906,5.4,5.4,0,0,1-4.688,2.208,5.494,5.494,0,0,1-4.571-1.841,7.442,7.442,0,0,1-1.465-4.782,7.575,7.575,0,0,1,1.617-5.162,5.625,5.625,0,0,1,4.464-1.841,6.738,6.738,0,0,1,3.963,1.085,5.064,5.064,0,0,1,1.824,3.838Z" transform="translate(-335.612 -188.547)"/>
          <path id="Path_14" data-name="Path 14" d="M562.192,191.024v7.559h-3.438v-7.829a3.417,3.417,0,0,0-.356-1.676,1.783,1.783,0,0,0-1.748-.9,2.445,2.445,0,0,0-2.025.891,4.091,4.091,0,0,0-.691,2.546v6.968H550.58V181.24h3.355v6.153a4.12,4.12,0,0,1,1.7-1.565,4.814,4.814,0,0,1,2.025-.442,5.479,5.479,0,0,1,2.166.415,3.8,3.8,0,0,1,1.6,1.264,3.347,3.347,0,0,1,.649,1.482,18.17,18.17,0,0,1,.117,2.488Z" transform="translate(-362.978 -180.666)"/>
          <path id="Path_15" data-name="Path 15" d="M603.215,195.022a7.994,7.994,0,0,1,0,9.677,7.083,7.083,0,0,1-9.895,0,7.994,7.994,0,0,1,0-9.677,7.015,7.015,0,0,1,9.895,0Zm-4.958.8a2.694,2.694,0,0,0-2.273,1.043,5.982,5.982,0,0,0,0,5.97,2.978,2.978,0,0,0,4.54,0,6.027,6.027,0,0,0,0-5.97A2.668,2.668,0,0,0,598.258,195.827Z" transform="translate(-389.885 -188.35)"/>
          <path id="Path_16" data-name="Path 16" d="M646.675,195.022a7.994,7.994,0,0,1,0,9.677,7.083,7.083,0,0,1-9.895,0,7.994,7.994,0,0,1,0-9.677,7.015,7.015,0,0,1,9.895,0Zm-4.958.8a2.694,2.694,0,0,0-2.273,1.043,5.982,5.982,0,0,0,0,5.97,2.978,2.978,0,0,0,4.54,0,6.027,6.027,0,0,0,0-5.97A2.668,2.668,0,0,0,641.718,195.827Z" transform="translate(-418.33 -188.35)"/>
          <path id="Path_17" data-name="Path 17" d="M681.1,181.05h3.365v17.406H681.1Z" transform="translate(-448.405 -180.542)"/>
        </g>
        <g id="公安委員会指定_実技試験免除" data-name="公安委員会指定 実技試験免除" transform="translate(2.84)" style="isolation: isolate">
          <g id="Group_2" data-name="Group 2" style="isolation: isolate">
            <path id="Path_18" data-name="Path 18" d="M12.552,1.35l2.367.656A20.476,20.476,0,0,1,13.6,4.684,24.658,24.658,0,0,1,11.965,7.13,16,16,0,0,1,10.22,9.089a3.9,3.9,0,0,0-.577-.525c-.249-.19-.5-.38-.76-.57s-.48-.342-.663-.459A11.643,11.643,0,0,0,9.937,5.841a15.762,15.762,0,0,0,1.5-2.142A15.669,15.669,0,0,0,12.556,1.35ZM8.994,14.375c.8-.035,1.717-.073,2.729-.111s2.083-.086,3.213-.138,2.277-.107,3.448-.162,2.322-.114,3.462-.173l-.069,2.038q-2.213.14-4.474.276t-4.329.252c-1.375.076-2.619.145-3.721.214l-.259-2.194Zm5.39-7.1,2.47.6c-.276.667-.58,1.354-.905,2.056s-.667,1.392-1.012,2.073-.688,1.327-1.026,1.942-.67,1.171-.995,1.669l-1.935-.6c.311-.529.629-1.116.95-1.755s.636-1.3.94-1.987.587-1.372.846-2.056.48-1.334.663-1.942Zm5.13-5.891a16.466,16.466,0,0,0,.905,1.572,19.036,19.036,0,0,0,1.157,1.6q.632.788,1.268,1.486c.425.466.836.884,1.226,1.251a6.21,6.21,0,0,0-.6.529c-.218.214-.432.432-.639.656a5.021,5.021,0,0,0-.5.629q-.622-.658-1.278-1.475c-.439-.546-.871-1.123-1.3-1.727S18.9,4.68,18.5,4.059s-.757-1.233-1.078-1.831l2.09-.846Zm-1.779,9.691,2-.916c.508.622,1.012,1.289,1.52,2s.974,1.413,1.406,2.1a20.9,20.9,0,0,1,1.064,1.873l-2.159,1.14a15.538,15.538,0,0,0-.985-1.928c-.425-.719-.888-1.454-1.382-2.2s-.985-1.441-1.468-2.073Z" transform="translate(-8.22 -0.884)"/>
            <path id="Path_19" data-name="Path 19" d="M59.71,6.611H75.136V8.563H59.71Zm.363-4.889h14.77V5.816H72.614V3.639H62.18V5.816H60.073ZM70.005,8.01l2.332.294a10.992,10.992,0,0,1-1.527,3.4,9.094,9.094,0,0,1-2.349,2.322,12.04,12.04,0,0,1-3.168,1.5,26.39,26.39,0,0,1-4.025.891,3.536,3.536,0,0,0-.294-.615c-.138-.235-.287-.47-.439-.7a4.645,4.645,0,0,0-.442-.57,22.052,22.052,0,0,0,4.878-.967,7.969,7.969,0,0,0,3.31-2.021,7.178,7.178,0,0,0,1.727-3.524Zm-4.37-3.956,2.194.449c-.335.7-.688,1.43-1.064,2.187s-.75,1.506-1.133,2.256-.75,1.458-1.112,2.132-.7,1.282-1.009,1.821l-2.194-.587c.335-.529.688-1.133,1.064-1.807s.753-1.382,1.14-2.125.76-1.486,1.123-2.228.694-1.441,1-2.1Zm-3.023,7.894,1.5-1.451q1.259.347,2.684.829t2.833,1.047c.94.377,1.824.757,2.66,1.15a19.046,19.046,0,0,1,2.149,1.157l-1.658,1.693a19.567,19.567,0,0,0-2-1.168Q69.587,14.595,68.188,14t-2.833-1.133c-.957-.356-1.873-.663-2.747-.916ZM66.257.15h2.211V3.311H66.257Z" transform="translate(-41.921 -0.098)"/>
            <path id="Path_20" data-name="Path 20" d="M115.628,4.137l1.658.674a11.492,11.492,0,0,1-1.34,1.392,12.928,12.928,0,0,1-1.634,1.226,15.463,15.463,0,0,1-1.838,1,16.063,16.063,0,0,1-1.962.753,8.289,8.289,0,0,0-.57-.846,4.664,4.664,0,0,0-.691-.76A14.212,14.212,0,0,0,111.14,7a15.517,15.517,0,0,0,1.769-.8,11.807,11.807,0,0,0,1.537-.967,7.179,7.179,0,0,0,1.175-1.088Zm-6.063,5.39H125.37v1.71H109.564V9.526Zm.173-5.839h15.357V5.363H109.737V3.688Zm10.3,6.547,2.038.5a8.114,8.114,0,0,1-1.631,2.539,7.877,7.877,0,0,1-2.384,1.658,14.272,14.272,0,0,1-3.241.995,41.659,41.659,0,0,1-4.2.56,4.768,4.768,0,0,0-.339-.967,5.517,5.517,0,0,0-.477-.846,32.79,32.79,0,0,0,4.878-.553,8.882,8.882,0,0,0,3.351-1.34,5.709,5.709,0,0,0,2-2.55ZM122.123.25l1.5,1.434q-1.259.275-2.747.466t-3.1.311c-1.078.079-2.156.142-3.241.18s-2.125.066-3.127.079a5.059,5.059,0,0,0-.166-.812,6.068,6.068,0,0,0-.266-.777c.992-.01,2-.038,3.03-.076s2.045-.1,3.04-.173,1.928-.162,2.8-.269,1.627-.225,2.273-.363Zm-6.875,7.67,2.038.536q-.555.9-1.192,1.883t-1.261,1.89q-.622.907-1.157,1.617l-1.987-.622c.356-.459.75-.995,1.175-1.607s.85-1.237,1.268-1.883.791-1.251,1.112-1.814Zm-2.332,5.459,1.071-1.52q1.985.4,3.99.888t3.783,1.019q1.778.529,3.058.995l-1.261,1.71c-.829-.335-1.81-.684-2.944-1.054s-2.36-.729-3.669-1.078-2.653-.67-4.025-.96Zm3.489-11.626h2.038V8.369h-2.038Zm2.764,2.384a8.108,8.108,0,0,0,1.676,1.375,13.118,13.118,0,0,0,2.246,1.13,17.794,17.794,0,0,0,2.5.777,6.885,6.885,0,0,0-.484.5,6.231,6.231,0,0,0-.477.615c-.145.214-.266.4-.37.577a16.216,16.216,0,0,1-1.942-.719,14.266,14.266,0,0,1-1.841-.985,13.051,13.051,0,0,1-1.634-1.22,11.442,11.442,0,0,1-1.34-1.382l1.658-.674Z" transform="translate(-74.346 -0.164)"/>
            <path id="Path_21" data-name="Path 21" d="M165.673,14.1l1.831,1.3a13.711,13.711,0,0,1-1.613.812c-.615.266-1.251.511-1.9.732s-1.268.4-1.859.546c-.2-.218-.446-.473-.75-.76s-.577-.529-.822-.726c.612-.138,1.237-.311,1.883-.518s1.254-.432,1.831-.674A8.98,8.98,0,0,0,165.673,14.1Zm-3.351-7.307h12.7v7.67h-12.7ZM163.1,1.8h11.3V6.136H163.1Zm1.278,6.409v.726h8.482V8.209Zm0,2.038v.743h8.482v-.743Zm0,2.056v.743h8.482V12.3Zm.812-8.9V4.529H172.2V3.407ZM169.456,15.5l1.831-1.3c.612.149,1.254.335,1.935.56s1.34.449,1.976.674,1.2.428,1.669.612l-1.831,1.468q-.674-.311-1.634-.681t-1.987-.719c-.684-.231-1.34-.439-1.959-.622Z" transform="translate(-107.929 -1.178)"/>
            <path id="Path_22" data-name="Path 22" d="M219.448,2.293a13.458,13.458,0,0,1-1.779,2.014,19.947,19.947,0,0,1-2.418,1.942,20.535,20.535,0,0,1-2.764,1.607,3.187,3.187,0,0,0-.318-.577c-.145-.214-.294-.421-.449-.622a5.145,5.145,0,0,0-.46-.525A15.888,15.888,0,0,0,214.11,4.5a18.661,18.661,0,0,0,2.446-2.073A12.791,12.791,0,0,0,218.273.31h2.177a15.093,15.093,0,0,0,1.537,1.8,16.212,16.212,0,0,0,1.8,1.548A16.376,16.376,0,0,0,225.743,4.9a15.572,15.572,0,0,0,2.045.922,5.952,5.952,0,0,0-.726.9q-.347.518-.622.985a20.587,20.587,0,0,1-2.626-1.486,21.727,21.727,0,0,1-2.477-1.9,13.616,13.616,0,0,1-1.89-2.021Zm-7.1,6.53H226.7v1.935H212.348Zm.086,5.13q1.539-.052,3.569-.111t4.267-.149q2.239-.088,4.412-.173l-.069,1.9q-2.109.119-4.277.214t-4.118.19q-1.954.093-3.524.162l-.259-2.038Zm4.129-3.869,2.367.639q-.4.814-.84,1.651t-.864,1.6c-.283.5-.549.957-.8,1.347l-1.814-.6q.347-.637.726-1.441t.7-1.641c.214-.56.387-1.074.525-1.544Zm-1.14-4.595h8.1v1.9h-8.1v-1.9Zm5.441,6.374,1.814-.967q.777.674,1.537,1.451t1.4,1.562a13.329,13.329,0,0,1,1.036,1.444l-1.935,1.175a10.469,10.469,0,0,0-.978-1.475q-.632-.819-1.382-1.669a19.559,19.559,0,0,0-1.5-1.52Z" transform="translate(-141.113 -0.203)"/>
            <path id="Path_23" data-name="Path 23" d="M262.06,9.027c.542-.114,1.154-.252,1.841-.415s1.406-.335,2.159-.525,1.506-.383,2.253-.577l.259,1.9q-1.555.43-3.134.846t-2.878.76l-.5-1.987Zm.276-5.562h5.96V5.382h-5.96ZM264.5.2h2.021V14.192a3.475,3.475,0,0,1-.155,1.175,1.3,1.3,0,0,1-.6.674,3.022,3.022,0,0,1-1.071.294,15.078,15.078,0,0,1-1.555.069,6.543,6.543,0,0,0-.214-.95,6.965,6.965,0,0,0-.352-.95c.335.01.656.021.967.024s.525.01.639.01a.451.451,0,0,0,.252-.086.312.312,0,0,0,.076-.242V.2Zm4.647,8.309h8.447v7.843h-2.056V10.2h-4.422v6.219h-1.969Zm.035-8.292h2.073v4.7c0,.321.073.525.214.6a2.381,2.381,0,0,0,.96.121h3.023a1.219,1.219,0,0,0,.65-.138.863.863,0,0,0,.311-.57,9.192,9.192,0,0,0,.145-1.278,4.428,4.428,0,0,0,.9.442,6.769,6.769,0,0,0,.985.3,6.521,6.521,0,0,1-.415,1.907,1.728,1.728,0,0,1-.864.943,3.883,3.883,0,0,1-1.572.259h-3.351a6.139,6.139,0,0,1-1.873-.225,1.478,1.478,0,0,1-.926-.795,3.826,3.826,0,0,1-.259-1.555Zm6.685.743,1.537,1.5q-.948.378-2.09.719t-2.322.615c-.788.187-1.551.345-2.287.484a4.243,4.243,0,0,0-.259-.777c-.128-.3-.242-.553-.346-.76q1.037-.223,2.1-.508t2.021-.622q.959-.337,1.651-.65ZM270.11,14.019h6.115v1.658H270.11Zm.069-2.747h6.046v1.607h-6.046Z" transform="translate(-174.362 -0.131)"/>
            <path id="Path_24" data-name="Path 24" d="M316.15,8.419l2.159.225a18.711,18.711,0,0,1-1.175,4.664,8.536,8.536,0,0,1-2.315,3.3,5.939,5.939,0,0,0-.484-.466c-.207-.183-.421-.363-.65-.536s-.418-.311-.577-.415a6.336,6.336,0,0,0,2.107-2.792,14.372,14.372,0,0,0,.933-3.983Zm-2.194-6.374H328.8V6.381H326.67V4H315.995V6.381h-2.038V2.045Zm3.869,8.551a5.5,5.5,0,0,0,1.043,1.907,4.245,4.245,0,0,0,1.5,1.106,6.946,6.946,0,0,0,1.872.508,15.905,15.905,0,0,0,2.159.138h1.8c.387,0,.781,0,1.185-.01s.777-.01,1.123-.017.632-.014.864-.028a4.541,4.541,0,0,0-.3.632c-.1.249-.187.5-.269.77a5.692,5.692,0,0,0-.173.726H324.3a17.076,17.076,0,0,1-2.764-.207,7.192,7.192,0,0,1-2.273-.753,5.7,5.7,0,0,1-1.8-1.562,9.056,9.056,0,0,1-1.34-2.66l1.693-.553Zm-1.244-5.113h9.553V7.469h-9.553V5.482ZM320.244.3h2.211V3.444h-2.211Zm.035,6.34h2.159v8.343l-2.159-.259Zm1.088,2.988h5.821V11.58h-5.821V9.628Z" transform="translate(-207.775 -0.196)"/>
            <path id="Path_25" data-name="Path 25" d="M371.315,17.3a2.061,2.061,0,0,1,1.112.3,2.362,2.362,0,0,1,.795.795,2.092,2.092,0,0,1,.3,1.112,2.054,2.054,0,0,1-.3,1.106,2.393,2.393,0,0,1-.795.8,2.175,2.175,0,0,1-2.218,0,2.362,2.362,0,0,1-.8-.8,2.175,2.175,0,0,1,0-2.218,2.333,2.333,0,0,1,.8-.795A2.111,2.111,0,0,1,371.315,17.3Z" transform="translate(-244.421 -11.323)"/>
            <path id="Path_26" data-name="Path 26" d="M397.947,4h2.09V8.8a8.807,8.807,0,0,1-.183,1.8,5.8,5.8,0,0,1-.656,1.734,6.312,6.312,0,0,1-1.33,1.6,9.707,9.707,0,0,1-2.166,1.41,18.186,18.186,0,0,1-3.2,1.168,4.033,4.033,0,0,0-.339-.546c-.145-.2-.3-.4-.466-.612a3.989,3.989,0,0,0-.491-.518,18.174,18.174,0,0,0,3.013-.933,8.058,8.058,0,0,0,1.952-1.123,4.666,4.666,0,0,0,1.112-1.268,4.557,4.557,0,0,0,.518-1.347,6.922,6.922,0,0,0,.138-1.392V4Zm-6.409,6.443h15.184v1.8H391.538v-1.8Zm.138-8.654h14.8V5.5h-2.142V3.6H393.732V5.5h-2.056Zm1.555,3.2H405.1V6.657H393.231Zm.276,2.712h11.228V9.352H393.507ZM398,.3h2.142V3.047H398Zm2.107,10.5a5.785,5.785,0,0,0,2.47,2.678,11.092,11.092,0,0,0,4.388,1.244,6.315,6.315,0,0,0-.663.864,8.763,8.763,0,0,0-.56.95,12.915,12.915,0,0,1-3.4-.974,7.55,7.55,0,0,1-2.425-1.745,9.11,9.11,0,0,1-1.651-2.615l1.848-.4Z" transform="translate(-258.892 -0.196)"/>
            <path id="Path_27" data-name="Path 27" d="M441.36,8.975c.508-.1,1.081-.228,1.727-.373s1.323-.3,2.031-.484,1.41-.352,2.1-.525l.259,1.9c-.943.266-1.911.525-2.9.784s-1.879.487-2.688.684Zm.225-5.476h5.752V5.417h-5.752Zm2-3.3h2.038V14.14a3.31,3.31,0,0,1-.166,1.168,1.285,1.285,0,0,1-.612.667,3.022,3.022,0,0,1-1.071.294,15.3,15.3,0,0,1-1.572.069,5.759,5.759,0,0,0-.225-.943,6.889,6.889,0,0,0-.363-.94c.345.01.677.017.995.017h.65c.218,0,.328-.114.328-.345V.2Zm11.436,6.461h.4l.345-.069,1.33.536a13.778,13.778,0,0,1-1.406,3.42,11.593,11.593,0,0,1-2.107,2.626,12.9,12.9,0,0,1-2.712,1.917,17.093,17.093,0,0,1-3.206,1.3,5.848,5.848,0,0,0-.294-.612c-.128-.235-.263-.466-.4-.691a5.165,5.165,0,0,0-.408-.56,14.249,14.249,0,0,0,2.93-1.019,11.22,11.22,0,0,0,2.477-1.607,9.762,9.762,0,0,0,1.89-2.183,9.456,9.456,0,0,0,1.168-2.722V6.664Zm-7.462-3.99h9.656V4.588h-9.656V2.67Zm.294,3.99h7.393V8.526h-7.393ZM450.1,8.146a10.494,10.494,0,0,0,2.9,4.1,11.332,11.332,0,0,0,4.889,2.408c-.149.149-.311.328-.484.536a6.265,6.265,0,0,0-.477.65q-.218.337-.373.612a12.062,12.062,0,0,1-5.124-2.885,14.266,14.266,0,0,1-3.2-4.889l1.866-.536ZM451.275.2h2.056V7.68h-2.056Z" transform="translate(-291.716 -0.131)"/>
            <path id="Path_28" data-name="Path 28" d="M492.51,3.1H498.8V4.741H492.51Zm.743,7.186h1.71v5.942h-1.71Zm.035-4.75H498.4V7.108h-5.113Zm0,2.367H498.4V9.457h-5.113Zm.069-7.117h4.958V2.34h-4.958Zm.829,9.5h4.2v5.269h-4.2V13.914h2.47V11.927h-2.47Zm4.526,3.3q1.052-.171,2.5-.415t2.954-.5l.138,1.71q-1.347.3-2.7.57t-2.481.518Zm.328-6.305h4.733V9.06H499.04Zm.017-3.766h9.5V5.4h-9.5Zm1.434,4.457h1.917v5.8l-1.917.363ZM504,.25h1.987q-.036,2.265,0,4.291c.024,1.354.066,2.6.131,3.731s.145,2.118.242,2.954a11.809,11.809,0,0,0,.352,1.942q.207.689.466.726c.114,0,.207-.183.276-.553a12.489,12.489,0,0,0,.155-1.555,2.225,2.225,0,0,0,.439.484c.19.162.38.311.57.449s.335.242.439.311a8.767,8.767,0,0,1-.56,2.177,2.429,2.429,0,0,1-.708,1,1.241,1.241,0,0,1-.7.259,1.645,1.645,0,0,1-1.33-.75,6.035,6.035,0,0,1-.871-2.114,24.4,24.4,0,0,1-.529-3.351c-.128-1.313-.214-2.809-.269-4.491S504.008,2.243,504,.25Zm1.952.9,1.417-.726a11.064,11.064,0,0,1,.864,1.064,6.039,6.039,0,0,1,.639,1.064l-1.5.812a6.6,6.6,0,0,0-.6-1.088,11.68,11.68,0,0,0-.822-1.123Z" transform="translate(-325.195 -0.164)"/>
            <path id="Path_29" data-name="Path 29" d="M543.834,11.085l1.14.225c-.024.529-.066,1.054-.131,1.572a8.7,8.7,0,0,1-.294,1.441,3.859,3.859,0,0,1-.546,1.15l-1.054-.57a3.559,3.559,0,0,0,.484-1.047,9.443,9.443,0,0,0,.269-1.313C543.765,12.066,543.81,11.579,543.834,11.085ZM543.973.876h6.374V2.552h-4.664v7.29h-1.71Zm0,7.86H549.9v1.607h-5.925Zm.985-5.251H550V5.056h-5.044Zm0,2.626H550V7.665h-5.044Zm.155,5.338.9-.086a11.827,11.827,0,0,1,.173,1.651c.024.594.028,1.1.017,1.527l-.95.138a12.689,12.689,0,0,0,.01-1.555c-.028-.6-.079-1.157-.145-1.676Zm1.192-.086.881-.155a11.456,11.456,0,0,1,.38,1.441,10.668,10.668,0,0,1,.19,1.34l-.916.19a11.109,11.109,0,0,0-.183-1.358,12.175,12.175,0,0,0-.356-1.458Zm.553-9.518H548.5V9.617h-1.641ZM549,8.736h1.693c0,.345-.007.577-.017.691q-.067,2.088-.173,3.386a18.321,18.321,0,0,1-.242,1.993,2.39,2.39,0,0,1-.345.96,1.315,1.315,0,0,1-.449.421,1.813,1.813,0,0,1-.57.183,3.709,3.709,0,0,1-.663.059c-.269,0-.556,0-.853-.007a3.913,3.913,0,0,0-.138-.829,3.091,3.091,0,0,0-.311-.777q.347.036.622.052c.183.01.335.017.449.017a.531.531,0,0,0,.242-.052.706.706,0,0,0,.207-.173,1.774,1.774,0,0,0,.231-.743c.062-.38.121-.96.173-1.745s.1-1.831.149-3.144V8.736Zm-1.572,2.384.812-.259a10.5,10.5,0,0,1,.491,1.123,6.493,6.493,0,0,1,.318,1.071l-.846.311a8.5,8.5,0,0,0-.3-1.088,9.352,9.352,0,0,0-.477-1.157Zm7.324-9.086a10.384,10.384,0,0,1-.985,1.451,13,13,0,0,1-1.354,1.451,10.853,10.853,0,0,1-1.582,1.209,6.384,6.384,0,0,0-.415-.874,5.5,5.5,0,0,0-.535-.8,8.157,8.157,0,0,0,1.582-1.175,11.861,11.861,0,0,0,1.354-1.513A9.447,9.447,0,0,0,553.784.23H555.6a14.644,14.644,0,0,0,1.157,1.548,11.224,11.224,0,0,0,1.4,1.382,8.075,8.075,0,0,0,1.5.995,6.2,6.2,0,0,0-.56.853c-.19.339-.349.65-.477.922a10.05,10.05,0,0,1-1.468-1.1,14.828,14.828,0,0,1-1.347-1.372,10.9,10.9,0,0,1-1.054-1.434Zm-.812,3.161h1.831V8.58a15.839,15.839,0,0,1-.145,2.114A7.536,7.536,0,0,1,555,12.82a6.923,6.923,0,0,1-1.392,1.98,9.011,9.011,0,0,1-2.453,1.693A4.736,4.736,0,0,0,550.8,16c-.145-.18-.3-.356-.459-.536a3.24,3.24,0,0,0-.449-.421,8.071,8.071,0,0,0,2.17-1.41,5.537,5.537,0,0,0,1.209-1.624,6.155,6.155,0,0,0,.536-1.738,11.883,11.883,0,0,0,.131-1.727V5.195Zm-2.954,1.814h7.877V11.6h-7.877V7.008Zm1.192-2.522h5.338V6.093h-5.338V4.486Zm.5,4.025V10.1H557.1V8.511Zm3.265,2.194a7.626,7.626,0,0,0,1.392,2.446,5.839,5.839,0,0,0,2.253,1.651,5.148,5.148,0,0,0-.477.477c-.169.19-.325.387-.477.594s-.276.4-.38.57a6.591,6.591,0,0,1-2.391-2.177,12.13,12.13,0,0,1-1.5-3.161l1.572-.4Z" transform="translate(-358.208 -0.151)"/>
            <path id="Path_30" data-name="Path 30" d="M599.059,10.019h2.228a13.469,13.469,0,0,1-.449,2.107,5,5,0,0,1-.94,1.752,5.871,5.871,0,0,1-1.769,1.392,12.263,12.263,0,0,1-2.9,1.036,6.22,6.22,0,0,0-.294-.615,6.681,6.681,0,0,0-.422-.674,6.363,6.363,0,0,0-.442-.546,12.042,12.042,0,0,0,2.494-.732,4.307,4.307,0,0,0,1.444-.978,3.386,3.386,0,0,0,.726-1.244,8.284,8.284,0,0,0,.328-1.5ZM598.973,0l2.246.449a19.359,19.359,0,0,1-1.451,2.1,16.665,16.665,0,0,1-1.848,1.969,16.057,16.057,0,0,1-2.349,1.755,4.921,4.921,0,0,0-.4-.56c-.162-.2-.335-.4-.518-.587a5.086,5.086,0,0,0-.5-.459,13.357,13.357,0,0,0,2.1-1.441,13.335,13.335,0,0,0,1.607-1.613A10.941,10.941,0,0,0,598.976.007Zm-2.954,4.284h13.008v5.942H596.019Zm2.09,1.831V8.4h8.724V6.115Zm1.054-4.906h5.148V2.9h-6.167l1.019-1.693Zm2.125,3.818h2.021v4.18h-2.021V5.027Zm2.4-3.818h.466l.345-.086,1.451.933a12.482,12.482,0,0,1-.8,1.278q-.477.674-.985,1.313t-.995,1.14c-.207-.162-.466-.342-.777-.546s-.587-.366-.829-.491a10.575,10.575,0,0,0,.846-1.009c.276-.373.529-.753.76-1.14a8.576,8.576,0,0,0,.518-.978V1.209Zm-.466,8.516h2.159v3.939a.779.779,0,0,0,.121.529.916.916,0,0,0,.57.114h1.693a.526.526,0,0,0,.4-.155,1.248,1.248,0,0,0,.214-.639,12.607,12.607,0,0,0,.086-1.434,3.028,3.028,0,0,0,.57.335,7.451,7.451,0,0,0,.708.294,6.735,6.735,0,0,0,.656.2,8.269,8.269,0,0,1-.363,2.038,1.788,1.788,0,0,1-.75,1.009,2.673,2.673,0,0,1-1.341.287h-2.194A4.007,4.007,0,0,1,604.179,16a1.365,1.365,0,0,1-.753-.795,4.411,4.411,0,0,1-.207-1.5V9.729Z" transform="translate(-391.667)"/>
            <path id="Path_31" data-name="Path 31" d="M647.56,1.008h4.077V2.874h-2.263V16.5H647.56Zm3.455,0h.328l.294-.069,1.347.777c-.138.484-.294,1.009-.466,1.572s-.349,1.116-.525,1.658-.349,1.036-.511,1.486A5.314,5.314,0,0,1,652.518,8.3a6.169,6.169,0,0,1,.242,1.641,4.5,4.5,0,0,1-.18,1.382,1.62,1.62,0,0,1-.6.846,1.959,1.959,0,0,1-.46.225,3.54,3.54,0,0,1-.525.138,8.907,8.907,0,0,1-1.14.035,5.293,5.293,0,0,0-.131-.881,3.128,3.128,0,0,0-.321-.881c.162.01.3.017.425.017h.335a.814.814,0,0,0,.484-.155.623.623,0,0,0,.214-.37,2.61,2.61,0,0,0,.059-.615A4.865,4.865,0,0,0,650.69,8.3a4.765,4.765,0,0,0-.96-1.641c.114-.39.232-.822.356-1.285s.242-.936.363-1.41.231-.912.328-1.323.176-.75.231-1.026v-.6Zm2.919,9.933,1.814.432A12.3,12.3,0,0,1,654.66,13.7a9.615,9.615,0,0,1-1.416,1.866c-.1-.1-.245-.231-.425-.38s-.359-.3-.542-.449a3.3,3.3,0,0,0-.5-.345,6.892,6.892,0,0,0,1.268-1.555A9.4,9.4,0,0,0,653.934,10.941Zm3.679-8.81A11.528,11.528,0,0,1,656.432,3.7a16.315,16.315,0,0,1-1.572,1.555,12.6,12.6,0,0,1-1.786,1.3,5.662,5.662,0,0,0-.46-.864,7.264,7.264,0,0,0-.56-.795,9.914,9.914,0,0,0,1.824-1.3,15.87,15.87,0,0,0,1.6-1.641A11.334,11.334,0,0,0,656.65.3h1.814a15.281,15.281,0,0,0,1.416,1.745A15.879,15.879,0,0,0,661.566,3.6a9.658,9.658,0,0,0,1.769,1.14,9.675,9.675,0,0,0-.587.836,9.316,9.316,0,0,0-.518.922,13.113,13.113,0,0,1-1.721-1.237A16.8,16.8,0,0,1,658.9,3.706a16.911,16.911,0,0,1-1.278-1.579ZM653.278,8.54h9.034v1.745h-9.034Zm1.036-3.282h6.737v1.71h-6.737Zm2.367.9h1.952v8.205a3.668,3.668,0,0,1-.138,1.116,1.144,1.144,0,0,1-.587.663,2.778,2.778,0,0,1-1,.294,12.079,12.079,0,0,1-1.365.069,6.388,6.388,0,0,0-.259-.96,6.7,6.7,0,0,0-.4-.957c.335.01.646.017.933.017h.587a.387.387,0,0,0,.214-.069.236.236,0,0,0,.062-.19V6.156ZM659.2,11.6l1.589-.743q.451.586.891,1.261t.795,1.34a7.727,7.727,0,0,1,.529,1.2l-1.71.846a6.159,6.159,0,0,0-.484-1.192q-.347-.674-.76-1.392t-.846-1.323Z" transform="translate(-426.677 -0.196)"/>
          </g>
        </g>
        <g id="多久自動車学校" transform="translate(0 23.552)" style="isolation: isolate">
          <g id="Group_3" data-name="Group 3" style="isolation: isolate">
            <path id="Path_32" data-name="Path 32" d="M22.077,71.1h.76l.691-.207,2.66,1.589a21.36,21.36,0,0,1-4.249,5.545,29.2,29.2,0,0,1-5.821,4.232,43.132,43.132,0,0,1-6.858,3.058A57.477,57.477,0,0,1,1.9,87.337a15.225,15.225,0,0,0-.812-1.848A9.119,9.119,0,0,0,0,83.779a49.124,49.124,0,0,0,6.875-1.607A40.067,40.067,0,0,0,13.232,79.6a25.951,25.951,0,0,0,5.251-3.507,15.865,15.865,0,0,0,3.593-4.4V71.1ZM13.059,68.37l4.526.967a34.3,34.3,0,0,1-6.2,5.459A42.469,42.469,0,0,1,3.04,79.184c-.207-.321-.466-.681-.777-1.071s-.646-.77-1-1.14a6.826,6.826,0,0,0-.985-.864A34.454,34.454,0,0,0,5.77,73.863a29.325,29.325,0,0,0,4.284-2.678A18.526,18.526,0,0,0,13.059,68.37ZM26.43,83.675h.829l.726-.173,2.729,1.416a21.706,21.706,0,0,1-4.163,6.633,23.642,23.642,0,0,1-5.977,4.63,35.543,35.543,0,0,1-7.428,3.006,63.129,63.129,0,0,1-8.482,1.762,13.837,13.837,0,0,0-.76-1.935,11.829,11.829,0,0,0-1.036-1.831,55.135,55.135,0,0,0,7.843-1.347,33.917,33.917,0,0,0,6.841-2.47,20.172,20.172,0,0,0,5.372-3.8,15.945,15.945,0,0,0,3.507-5.3Zm-7.773-3.351,4.526,1.036a32.939,32.939,0,0,1-6.962,6.167,45,45,0,0,1-9.864,4.82A5.233,5.233,0,0,0,5.7,91.224q-.451-.606-.933-1.192a5.924,5.924,0,0,0-.933-.933,43.374,43.374,0,0,0,6.478-2.5,29.188,29.188,0,0,0,4.94-3.006,19.333,19.333,0,0,0,3.4-3.265ZM6.5,77.076l2.764-2.315c.715.321,1.461.7,2.246,1.14s1.527.888,2.228,1.347a12.409,12.409,0,0,1,1.71,1.313l-2.9,2.557a12.532,12.532,0,0,0-1.658-1.347q-1.036-.726-2.177-1.451A21.792,21.792,0,0,0,6.5,77.076Zm4.63-5.977H23.009v3.386H11.125V71.1Zm.069,19.071L14.2,87.821c.715.39,1.461.829,2.246,1.313s1.531.985,2.246,1.5a14.47,14.47,0,0,1,1.727,1.434l-3.213,2.557A12.13,12.13,0,0,0,15.6,93.176c-.681-.529-1.406-1.061-2.177-1.589s-1.513-1-2.228-1.416Zm5.044-6.5h11.3V87.13h-11.3V83.675Z" transform="translate(0 -68.301)"/>
            <path id="Path_33" data-name="Path 33" d="M106.988,68.67l4.526,1.071a51,51,0,0,1-2.833,7.065,43.622,43.622,0,0,1-3.7,6.2,28.885,28.885,0,0,1-4.353,4.871,9.744,9.744,0,0,0-1.054-1.036q-.674-.586-1.4-1.157A15.053,15.053,0,0,0,96.9,84.77a22.079,22.079,0,0,0,4.267-4.267,32.384,32.384,0,0,0,3.386-5.51A39.915,39.915,0,0,0,106.988,68.67Zm9.259,5.251h.829l.76-.207,3.04,1.382a43.5,43.5,0,0,1-4.63,11.677,35.947,35.947,0,0,1-7.031,8.706,34.177,34.177,0,0,1-8.689,5.7,10.287,10.287,0,0,0-.881-1.278q-.57-.726-1.209-1.4a8.808,8.808,0,0,0-1.157-1.054,32.1,32.1,0,0,0,8.4-4.992,30.4,30.4,0,0,0,6.53-7.532,33.148,33.148,0,0,0,4.042-10.071Zm-9.363,0H117.8V78.1H104.846Zm10.192,9.224a26.873,26.873,0,0,0,2.954,5.8,24.445,24.445,0,0,0,4.353,4.923,20.736,20.736,0,0,0,5.545,3.438,11.531,11.531,0,0,0-1.071,1.071c-.39.439-.76.891-1.106,1.365s-.632.905-.864,1.3a23.618,23.618,0,0,1-5.873-4.094,28.527,28.527,0,0,1-4.578-5.683,38.92,38.92,0,0,1-3.368-6.944Z" transform="translate(-63.422 -68.497)"/>
            <path id="Path_34" data-name="Path 34" d="M209.1,73.1h25.082v27.881h-4.388V77.069H213.28v23.977H209.1Zm2.8,7.532h18.794v3.835H211.9V80.627Zm0,7.393h18.794v3.835H211.9V88.021Zm0,7.428h18.794v3.835H211.9V95.449Zm7.013-26.879,5.01.553q-.622,1.695-1.313,3.317c-.459,1.081-.888,2.014-1.278,2.8l-3.8-.691c.183-.577.37-1.216.553-1.917s.352-1.406.5-2.107S218.843,69.168,218.912,68.57Z" transform="translate(-136.859 -68.432)"/>
            <path id="Path_35" data-name="Path 35" d="M297.7,96.909q2.177-.14,4.975-.345T308.6,96.1q3.125-.259,6.236-.535l.035,3.144q-2.938.311-5.925.622t-5.735.57q-2.747.259-5.027.5l-.484-3.489Zm.207-21.938h17.274v3.006H297.907Zm15.063-5.7,1.8,3.075q-2.177.451-4.889.777t-5.545.518q-2.835.192-5.424.259a11.092,11.092,0,0,0-.363-1.5,9.6,9.6,0,0,0-.57-1.468q1.933-.1,3.973-.259t4.025-.363q1.985-.207,3.766-.466T312.97,69.27Zm-14.3,22.146H314.8v2.937H298.667Zm.138-12.092h15.823V90.068H298.806Zm3.282,2.591v1.555h9.121V81.915Zm0,4.008v1.555h9.121V85.922Zm2.66-13.37h3.766V97.323h-3.766Zm13.716-2.9h3.973q0,4.42-.086,8.4t-.449,7.48a38.409,38.409,0,0,1-1.209,6.5,21.236,21.236,0,0,1-2.367,5.441,16.5,16.5,0,0,1-3.9,4.319,8.187,8.187,0,0,0-.812-1.106c-.335-.39-.681-.767-1.036-1.123a6.879,6.879,0,0,0-1.054-.881,14.317,14.317,0,0,0,3.524-3.818,18.042,18.042,0,0,0,2.073-4.8,32.6,32.6,0,0,0,1-5.8q.275-3.161.311-6.806T318.464,69.65Zm-3.317,7.255h11.988v3.8H315.147Zm10.3,0h3.973v1.831q-.14,5.322-.276,9.034t-.294,6.115a26.448,26.448,0,0,1-.449,3.749,5.574,5.574,0,0,1-.708,1.935,3.854,3.854,0,0,1-1.226,1.226,5.065,5.065,0,0,1-1.5.536,12.769,12.769,0,0,1-1.935.155c-.76.01-1.555.007-2.384-.017a9.847,9.847,0,0,0-1.175-3.973c.736.069,1.417.117,2.038.138s1.1.035,1.417.035a1.52,1.52,0,0,0,.691-.138,1.584,1.584,0,0,0,.518-.449,4.69,4.69,0,0,0,.484-1.607q.207-1.192.363-3.42t.276-5.752q.119-3.524.19-8.534v-.864Z" transform="translate(-194.849 -68.89)"/>
            <path id="Path_36" data-name="Path 36" d="M399.2,92.816h31.577v3.766H399.2Zm.864-21.213h29.677v3.731H400.064Zm2.591,5.39H427.15V90.985H402.655V76.993Zm4.008,3.351v2.073h16.307V80.344Zm0,5.182v2.107h16.307V85.526Zm5.977-16.756h4.284v32.476h-4.284Z" transform="translate(-261.282 -68.563)"/>
            <path id="Path_37" data-name="Path 37" d="M500.1,87.932h30.921v3.8H500.1Zm.449-14.1h30.092V82.3h-4.077V77.5H504.419v4.8h-3.869V73.836Zm2.315-3.559,3.524-1.589a25.808,25.808,0,0,1,1.831,2.3,11.872,11.872,0,0,1,1.313,2.263L505.8,75.011a13.971,13.971,0,0,0-1.226-2.3Q503.729,71.381,502.864,70.277Zm3.42,9.881h15.927v3.593H506.284Zm7.117,5.528h4.249V96.362a5.637,5.637,0,0,1-.449,2.487,2.868,2.868,0,0,1-1.693,1.347,10.441,10.441,0,0,1-2.9.553q-1.658.1-3.869.1a12.087,12.087,0,0,0-.708-2.056,19.364,19.364,0,0,0-.985-1.987c.736.024,1.486.045,2.246.069s1.434.035,2.021.035.995-.01,1.227-.035a1.178,1.178,0,0,0,.691-.138.591.591,0,0,0,.173-.484V85.686Zm-1.866-16.169L515.2,68.17a21.215,21.215,0,0,1,1.607,2.522,14.732,14.732,0,0,1,1.123,2.488l-3.9,1.52a14.774,14.774,0,0,0-.985-2.5A23.682,23.682,0,0,0,511.536,69.517ZM520.9,80.158h1l.9-.207,2.591,2a25.958,25.958,0,0,1-2.66,2.557,38.1,38.1,0,0,1-3.178,2.4,27.531,27.531,0,0,1-3.351,1.952,10.565,10.565,0,0,0-1.054-1.261c-.449-.473-.822-.857-1.123-1.157a20.175,20.175,0,0,0,2.677-1.658,26.812,26.812,0,0,0,2.436-1.987,16.711,16.711,0,0,0,1.762-1.848v-.795Zm3.558-11.574,4.491,1.313q-1.176,1.726-2.453,3.386t-2.315,2.8l-3.42-1.244q.689-.9,1.365-1.969c.449-.715.881-1.444,1.3-2.194a23.275,23.275,0,0,0,1.036-2.09Z" transform="translate(-327.322 -68.17)"/>
            <path id="Path_38" data-name="Path 38" d="M601.982,78.482l2.349.795q-.378,2.073-.95,4.284t-1.3,4.336q-.726,2.125-1.572,3.973a17.653,17.653,0,0,1-1.814,3.161,12.61,12.61,0,0,0-.846-1.9c-.38-.715-.732-1.323-1.054-1.831a17.851,17.851,0,0,0,1.641-2.66q.777-1.518,1.468-3.23t1.209-3.489Q601.637,80.142,601.982,78.482Zm-4.353-2.66h11.988v3.835H597.629Zm4.388-7.152h3.835v32.441h-3.835Zm3.7,12.541q.311.378.933,1.3c.415.612.864,1.271,1.347,1.987s.926,1.382,1.33,2,.684,1.061.846,1.313l-2.246,3.075q-.311-.793-.829-1.866t-1.123-2.228c-.4-.77-.788-1.492-1.157-2.159s-.681-1.22-.933-1.658Zm15.892,2.66,4.18.829a30.741,30.741,0,0,1-3.161,6.944,22.7,22.7,0,0,1-4.958,5.649,24.172,24.172,0,0,1-7.152,3.956,9.127,9.127,0,0,0-.587-1.106c-.252-.415-.511-.819-.777-1.209s-.511-.726-.743-1a20.681,20.681,0,0,0,6.426-3.351,18.416,18.416,0,0,0,4.336-4.854,20.616,20.616,0,0,0,2.436-5.856Zm-7.566-6.253,3.731,1.555a28.32,28.32,0,0,1-2.729,4.336,21.544,21.544,0,0,1-3.282,3.507,10.694,10.694,0,0,0-1.313-1.365c-.577-.518-1.081-.95-1.52-1.3a15.391,15.391,0,0,0,2.919-3.058A20.521,20.521,0,0,0,614.04,77.618Zm-4.008-4.111h19.174v3.8H610.032ZM616.6,84.079a24.723,24.723,0,0,0,3.023,5.683,21.533,21.533,0,0,0,4.474,4.63,20.91,20.91,0,0,0,5.839,3.127c-.3.3-.639.667-1.019,1.106s-.736.888-1.071,1.347a12.628,12.628,0,0,0-.812,1.244,21.305,21.305,0,0,1-6.081-3.783,25.557,25.557,0,0,1-4.63-5.493A35.314,35.314,0,0,1,613,85.081l3.593-1Zm.9-15.409h4.077V75.2h-4.077Zm3.731,10.641,3.213-1.831q1.036,1.1,2.09,2.384t1.935,2.539a14.56,14.56,0,0,1,1.365,2.332l-3.489,2a13.764,13.764,0,0,0-1.244-2.315c-.553-.85-1.168-1.734-1.848-2.643s-1.354-1.734-2.021-2.47Z" transform="translate(-390.614 -68.497)"/>
          </g>
        </g>
      </g>
    </g>
    <g id="Group_189" data-name="Group 189" transform="translate(69 268.652)">
      <path id="Path_596" data-name="Path 596" d="M570.328,384.136s27.749-17.266,38.984-16.524c0,0,13.971-.5,5.959,19.559,0,0-17.57,42.658-27.929,44.549l-6.3,2.587s3.977,1.079,2.4,4.63c0,0-.641,3.15-3.418,3.9,0,0,1.228,2.863.322,2.81,0,0-1.75-1.755-3.592-1.408,0,0-7.1,4.589-9.063,3.107l-5.621-4.136-3.1-1.55,4.873-51.627,5.485-.359Z" transform="translate(-503.328 -367.414)" fill="#f6f8b2" stroke="#000" stroke-linecap="round" stroke-linejoin="round" stroke-width="1.042"/>
      <path id="Path_597" data-name="Path 597" d="M584.09,434.368l5.587-2.061c8.51-2.429,26.4-42.005,26.4-42.005,6.92-16.639-3.86-17.837-3.86-17.837-10.35-1.8-35.33,14.2-35.33,14.2l-3.36,7.8-5.045.612-3.763,44.406Z" transform="translate(-506.292 -369.858)" fill="#0c3d1b" stroke="#000" stroke-linecap="round" stroke-linejoin="round" stroke-width="1.042"/>
      <path id="Path_598" data-name="Path 598" d="M562.516,535.939l-3.352,4.09-2.5-1.385,2.955-4.866Z" transform="translate(-502.136 -453.193)" fill="#807c88" stroke="#000" stroke-linecap="round" stroke-linejoin="round" stroke-width="1.042"/>
      <path id="Path_599" data-name="Path 599" d="M587.962,452.874s-5.965,5.455-11.422,6.9l-.682,1.364s8.864-3.154,12.616-7.245C588.475,453.9,589.155,452.831,587.962,452.874Z" transform="translate(-512.041 -411.434)" fill="#807c88" stroke="#000" stroke-linecap="round" stroke-linejoin="round" stroke-width="1.042"/>
      <path id="Path_600" data-name="Path 600" d="M490.858,384.976s-25.408-19.162-37.7-17.665c0,0-14.884,1.284-6.784,19.889,0,0,17.805,42.444,28.163,44.341l6.3,2.587s-3.977,1.079-2.4,4.63c0,0,.642,3.15,3.417,3.9,0,0-1.227,2.862-.321,2.81,0,0,1.749-1.754,3.591-1.408,0,0,7.1,4.589,9.064,3.107l5.621-4.136,3.1-1.55-4.873-51.627-5.485-.359Z" transform="translate(-443.961 -367.228)" fill="#f6f8b2" stroke="#000" stroke-linecap="round" stroke-linejoin="round" stroke-width="1.042"/>
      <path id="Path_601" data-name="Path 601" d="M483.567,434.29l-5.587-2.061c-8.511-2.429-26.4-42.005-26.4-42.005-6.928-16.55,4.935-17.951,4.935-17.951,8.583-1.511,34.076,14.658,34.076,14.658l3.539,7.459,5.046.612,3.762,44.406Z" transform="translate(-446.774 -369.781)" fill="#f7f619" stroke="#000" stroke-linecap="round" stroke-linejoin="round" stroke-width="1.042"/>
      <path id="Path_602" data-name="Path 602" d="M581.2,521.541a2.067,2.067,0,1,0-2.1,2.4A2.283,2.283,0,0,0,581.2,521.541Z" transform="translate(-512.709 -445.555)"/>
      <path id="Path_603" data-name="Path 603" d="M583.643,502.758a2.853,2.853,0,1,0-3.655,2.469,3.147,3.147,0,0,0,3.655-2.469Z" transform="translate(-513.205 -435.015)"/>
      <path id="Path_604" data-name="Path 604" d="M584.635,475.789c-.75-2.552-3.058-4.122-5.154-3.507s-3.188,3.184-2.438,5.736,3.056,4.123,5.153,3.508S585.385,478.343,584.635,475.789Z" transform="translate(-512.53 -421.384)"/>
      <path id="Path_605" data-name="Path 605" d="M534.554,464.358c-5.454-1.449-11.422-6.9-11.422-6.9-1.193-.043-.511,1.022-.511,1.022a34.751,34.751,0,0,0,11.352,6.974S535.306,465.509,534.554,464.358Z" transform="translate(-484.464 -413.798)" fill="#807c88" stroke="#000" stroke-linecap="round" stroke-linejoin="round" stroke-width="1.042"/>
      <path id="Path_606" data-name="Path 606" d="M544.861,456.629a15.291,15.291,0,0,0,1.44,9.6c2.522,4.562,3.182,8.706,2.282,14.949s.3,10.626,5.283,11.707,8.974-5.553,9.214-11.857.3-12.322,1.711-15.939c1.681-4.323,1.08-10.086-1.02-13.088S545.161,443,544.861,456.629Z" transform="translate(-495.924 -408.956)" fill="url(#radial-gradient)"/>
      <path id="Path_607" data-name="Path 607" d="M601.833,426.326s2.786,2.955-1.874,2.841c0,0-4.63-.113-6.59-3.1,0,0-2.132-2.3.171-3.154a2.358,2.358,0,0,1,1.7,0s-4.091-7.415,1.449-7.5h.427s-1.45-13.893,3.835-12.274c0,0,5.71.937.17,12.018,0,0,4.349-9.2,5.8-9.035,0,0,5.455-.511,2.388,4.006,0,0-2.217,4.432-4.774,6.221,0,0,4.433,1.621,2.728,3.92,0,0,.255,1.79-.852,2.132C606.407,422.4,607.117,426.836,601.833,426.326Z" transform="translate(-520.615 -385.697)" fill="#f9f97d" stroke="#000" stroke-linecap="round" stroke-linejoin="round" stroke-width="1.042"/>
      <path id="Path_608" data-name="Path 608" d="M598.654,428.824s5.71,2.77,5.243,4.6c0,0,.255,2.984-4.261,1.066l-1.874-1.107" transform="translate(-523.346 -399.021)" fill="none" stroke="#000" stroke-linecap="round" stroke-linejoin="round" stroke-width="1.042"/>
      <path id="Path_609" data-name="Path 609" d="M615.457,441.638s-2.387,1.364-3.5.256a1.718,1.718,0,0,1-.34-1.362s-1.237.468-1.62-.257" transform="translate(-529.665 -404.931)" fill="none" stroke="#000" stroke-linecap="round" stroke-linejoin="round" stroke-width="1.042"/>
      <path id="Path_610" data-name="Path 610" d="M613.491,430.585s-3.58.511-3.665,2.643" transform="translate(-529.574 -399.93)" fill="none" stroke="#000" stroke-linecap="round" stroke-linejoin="round" stroke-width="1.042"/>
      <path id="Path_611" data-name="Path 611" d="M526.089,432.7" transform="translate(-486.353 -401.021)" fill="none" stroke="#000" stroke-width="0.447"/>
      <g id="Group_150" data-name="Group 150" transform="translate(52.842 68.564)">
        <path id="Path_612" data-name="Path 612" d="M553.353,508.935l-.179,2.521a16.507,16.507,0,0,0,14.348-.24v-2.161C558.671,513.009,553.409,508.971,553.353,508.935Z" transform="translate(-553.174 -508.935)" fill="#4d7a2b"/>
      </g>
      <g id="Group_151" data-name="Group 151" transform="translate(52.48 61.543)">
        <path id="Path_613" data-name="Path 613" d="M552.428,495.232l.451,2.342a17.278,17.278,0,0,0,14.589-.722l.208-2.43a21.308,21.308,0,0,1-15.248.811Z" transform="translate(-552.428 -494.421)" fill="#4d7a2b"/>
      </g>
      <g id="Group_152" data-name="Group 152" transform="translate(49.418 52.611)">
        <path id="Path_614" data-name="Path 614" d="M546.1,477.329l1.26,3.421a23.36,23.36,0,0,0,18.19-.99l.854-3.8C557.445,481.741,546.157,477.365,546.1,477.329Z" transform="translate(-546.1 -475.963)" fill="#4d7a2b"/>
      </g>
      <g id="Group_153" data-name="Group 153" transform="translate(52.435 74.489)">
        <path id="Path_615" data-name="Path 615" d="M552.409,521.18l-.074,1.926c.248.158,5.538,4.757,13.955.52l.36-2.071C557.963,525.971,552.466,521.216,552.409,521.18Z" transform="translate(-552.335 -521.18)" fill="#4d7a2b"/>
      </g>
      <path id="Path_616" data-name="Path 616" d="M544.861,456.629a15.291,15.291,0,0,0,1.44,9.6c2.522,4.562,3.182,8.706,2.282,14.949s.3,10.626,5.283,11.707,8.974-5.553,9.214-11.857.3-12.322,1.711-15.939c1.681-4.323,1.08-10.086-1.02-13.088S545.161,443,544.861,456.629Z" transform="translate(-495.924 -408.956)" fill="none" stroke="#000" stroke-linecap="round" stroke-linejoin="round" stroke-width="1.042"/>
      <g id="Group_154" data-name="Group 154" transform="translate(39.356 41.703)">
        <path id="Path_617" data-name="Path 617" d="M553.352,453.418s.951.181.839.857c0,0,.843-.549,1.378.115,0,0-1.545.312-1.9,1.275,0,0,1.223.956-2.628,3.206l-1.38.823s-.782,3.554-2.935,5.12l-.952.754s-3.079-3.123-4.621-3.278c0,0-3.306-.833-3.539-1.539,0,0-3.539-.833-2.706-1.8l-.01-.812s-.1-1.036-.565-.625a2.423,2.423,0,0,1-2.914,1.549s-1.586.243-1.7.45c0,0-.188-1.806.847-2.186,0,0-4.96-.552-5.261-1.214,0,0,1.467-2.56,4.126-2.415,0,0,2.524-.24,2.977.52a3.42,3.42,0,0,1,1.887-.05S546.212,459.409,553.352,453.418Z" transform="translate(-525.302 -453.418)" fill="#dc4620" stroke="#000" stroke-linecap="round" stroke-linejoin="round" stroke-width="1.042"/>
        <path id="Path_618" data-name="Path 618" d="M542.047,458.246s-.338.3-.9-1.428c0,0-.737-.684-.585-.822a.651.651,0,0,1-.644-.926" transform="translate(-532.819 -454.271)" fill="none" stroke="#000" stroke-linecap="round" stroke-linejoin="round" stroke-width="1.042"/>
        <path id="Path_619" data-name="Path 619" d="M536.174,459.844c.652-1.769,1.775-1.457,1.775-1.457A4.522,4.522,0,0,1,539,458.3" transform="translate(-530.914 -455.933)" fill="none" stroke="#000" stroke-width="1.042"/>
        <path id="Path_620" data-name="Path 620" d="M533.99,457.015s-3.4-.375-3.112.4c0,0,.359,1.156,1.29.688" transform="translate(-528.171 -455.227)" fill="none" stroke="#000" stroke-linecap="round" stroke-linejoin="round" stroke-width="1.042"/>
        <path id="Path_621" data-name="Path 621" d="M567.148,466.389s-.221.416-3.352,1.438c0,0-2.116,2.339-4.608,1.3" transform="translate(-542.792 -460.113)" fill="none" stroke="#000" stroke-linecap="round" stroke-linejoin="round" stroke-width="1.042"/>
        <path id="Path_622" data-name="Path 622" d="M544.734,461.776s3.51,1.883,5.082,1.457c0,0,1.613-.119.8-.616" transform="translate(-535.333 -457.732)" fill="none" stroke="#000" stroke-linecap="round" stroke-linejoin="round" stroke-width="1.042"/>
        <path id="Path_623" data-name="Path 623" d="M538.094,461.1s-2.3.625-2.082,1.291" transform="translate(-530.823 -457.381)" fill="none" stroke="#000" stroke-linecap="round" stroke-linejoin="round" stroke-width="1.042"/>
      </g>
      <g id="Group_155" data-name="Group 155" transform="translate(38.76 2.601)">
        <path id="Path_624" data-name="Path 624" d="M524.07,405.251c0,9.624,8.275,17.427,18.483,17.427s18.484-7.807,18.484-17.427-8.276-17.427-18.484-17.427S524.07,395.627,524.07,405.251Z" transform="translate(-524.07 -380.461)" stroke="#000" stroke-width="1.042" fill="url(#radial-gradient-2)"/>
        <path id="Path_625" data-name="Path 625" d="M554.081,380.5s-5.778-4.363-6.245-6.132a2.394,2.394,0,0,0-.708,2.713s-3.772-2.241-3.065-4.481c0,0-2.83,1.532-1.179,5.543,0,0-2.123-.944-2.123-2.83a3.2,3.2,0,0,0,.118,3.184s-1.65-.472-1.77-1.179a2.037,2.037,0,0,0,.234,2.122,2.985,2.985,0,0,0-2.593.708,5.722,5.722,0,0,1,1.3.119,4.445,4.445,0,0,0-1.12,2.682,5.567,5.567,0,0,0,3.006,5.453,7.868,7.868,0,0,1-1.886-4.008s2,2.829,3.419,3.3c0,0-1.769-1.77-1.65-2.595,0,0,1.769,3.774,3.772,4.129a5.107,5.107,0,0,0,2.595.234s-2.95-1.061-3.185-2.947c0,0,4.481,3.656,5.779,3.42a6.942,6.942,0,0,1-2.948-4.128s2.948,3.539,4.6,3.655a6.566,6.566,0,0,1-1.77-3.655,5.439,5.439,0,0,0,3.539,2.24s-1.414-1.532-1.414-2.476c0,0,.118,2.476,3.539,3.3,0,0-1.887-4.362-1.533-5.778,0,0,1.886,1.887,1.769,3.654C554.548,386.756,557.142,384.275,554.081,380.5Z" transform="translate(-530.611 -372.604)" fill="#f87f11" stroke="#000" stroke-linecap="round" stroke-linejoin="round" stroke-width="1.042"/>
        <path id="Path_626" data-name="Path 626" d="M543.671,416.7c-.423,2.935,1.041,5.576,3.271,5.9s4.38-1.8,4.8-4.735-1.041-5.577-3.273-5.9S544.092,413.763,543.671,416.7Z" transform="translate(-534.149 -392.903)" fill="#fff" stroke="#000" stroke-width="1.042"/>
        <path id="Path_627" data-name="Path 627" d="M549.19,417.789c-.41,1.482-.018,2.885.875,3.133s1.954-.754,2.364-2.238.018-2.884-.876-3.132S549.6,416.308,549.19,417.789Z" transform="translate(-536.952 -394.755)"/>
        <path id="Path_628" data-name="Path 628" d="M571.2,415.041c.711,2.88-.487,5.652-2.675,6.191s-4.535-1.353-5.247-4.236.488-5.653,2.675-6.192S570.491,412.162,571.2,415.041Z" transform="translate(-544.202 -392.274)" fill="#fff" stroke="#000" stroke-width="1.042"/>
        <path id="Path_629" data-name="Path 629" d="M570.468,416.454c.554,1.436.3,2.871-.563,3.206s-2.017-.558-2.573-1.992-.3-2.87.563-3.2S569.913,415.025,570.468,416.454Z" transform="translate(-546.248 -394.174)"/>
        <path id="Path_630" data-name="Path 630" d="M548.491,438.994s-9.547-.17-12.36-4.006a14.007,14.007,0,0,0,24.719,0C558.037,438.825,548.491,438.994,548.491,438.994Z" transform="translate(-530.295 -404.804)" fill="#fff" stroke="#000" stroke-width="1.042"/>
        <path id="Path_631" data-name="Path 631" d="M585.984,434.109s1.194.171,1.194,1.194" transform="translate(-556.027 -404.351)" fill="none" stroke="#000" stroke-width="1.042"/>
        <path id="Path_632" data-name="Path 632" d="M536.091,434.109s-1.193.171-1.193,1.194" transform="translate(-529.659 -404.351)" fill="none" stroke="#000" stroke-width="1.042"/>
      </g>
      <path id="Path_633" data-name="Path 633" d="M503.9,430.9s-2.784,2.955,1.874,2.841c0,0,4.632-.113,6.593-3.1,0,0,2.132-2.3-.171-3.154a2.362,2.362,0,0,0-1.7,0s4.093-7.414-1.45-7.5h-.423s1.45-13.895-3.835-12.274c0,0-5.711.937-.172,12.018,0,0-4.828-9.929-6.276-9.759,0,0-4.974.208-1.907,4.731,0,0,2.216,4.432,4.773,6.222,0,0-4.431,1.621-2.727,3.92,0,0-.255,1.79.852,2.132C499.324,426.985,498.614,431.416,503.9,430.9Z" transform="translate(-470.526 -388.061)" fill="#f9f97d" stroke="#000" stroke-linecap="round" stroke-linejoin="round" stroke-width="1.042"/>
      <path id="Path_634" data-name="Path 634" d="M519.529,433.406s-5.71,2.769-5.242,4.6c0,0-.256,2.983,4.262,1.065l1.874-1.109" transform="translate(-480.247 -401.387)" fill="none" stroke="#000" stroke-linecap="round" stroke-linejoin="round" stroke-width="1.042"/>
      <path id="Path_635" data-name="Path 635" d="M503.482,446.219s2.387,1.365,3.5.255a1.72,1.72,0,0,0,.341-1.364s1.236.468,1.62-.255" transform="translate(-474.684 -407.295)" fill="none" stroke="#000" stroke-linecap="round" stroke-linejoin="round" stroke-width="1.042"/>
      <path id="Path_636" data-name="Path 636" d="M507.357,435.167s3.581.511,3.666,2.642" transform="translate(-476.684 -402.295)" fill="none" stroke="#000" stroke-linecap="round" stroke-linejoin="round" stroke-width="1.042"/>
      <g id="Group_156" data-name="Group 156" transform="translate(50.241 74.417)">
        <path id="Path_637" data-name="Path 637" d="M552.435,521.964a2.3,2.3,0,1,0-2.34,2.679A2.54,2.54,0,0,0,552.435,521.964Z" transform="translate(-547.863 -520.041)"/>
        <path id="Path_638" data-name="Path 638" d="M550.937,522.926c-.172-.881-.772-1.507-1.343-1.395s-.894.915-.723,1.8.771,1.505,1.342,1.395S551.107,523.807,550.937,522.926Z" transform="translate(-548.329 -521.283)" fill="#fff" stroke="#000" stroke-width="0.313"/>
        <path id="Path_639" data-name="Path 639" d="M551.19,526.521l-.416-1.243-.05-.1L550.9,525l.746,1.237S551.353,526.52,551.19,526.521Z" transform="translate(-549.306 -523.081)" fill="#807c88" stroke="#000" stroke-width="0.313"/>
        <path id="Path_640" data-name="Path 640" d="M552.193,525.1a1.932,1.932,0,0,0-.025-.54l-.021-.127-.976.076.029.246.987.328" transform="translate(-549.539 -522.785)" fill="#807c88" stroke="#000" stroke-width="0.313"/>
        <path id="Path_641" data-name="Path 641" d="M550.871,523.128l.746-.766a3.011,3.011,0,0,0-.408-.44,5.8,5.8,0,0,0-.5,1.084Z" transform="translate(-549.299 -521.491)" fill="#807c88" stroke="#000" stroke-width="0.313"/>
        <path id="Path_642" data-name="Path 642" d="M549.781,522.969l-.239-1.264s-.348,0-.521.643l.534.658Z" transform="translate(-548.431 -521.379)" fill="#807c88" stroke="#000" stroke-width="0.313"/>
        <path id="Path_643" data-name="Path 643" d="M550.03,525.3l-.164,1.145a2.128,2.128,0,0,1-.354-.416l.436-.729Z" transform="translate(-548.684 -523.237)" fill="#807c88" stroke="#000" stroke-width="0.313"/>
        <path id="Path_644" data-name="Path 644" d="M548.919,524.992l.581-.217-.052-.16-.579-.111Z" transform="translate(-548.352 -522.823)" fill="#807c88" stroke="#000" stroke-width="0.313"/>
        <path id="Path_645" data-name="Path 645" d="M550.314,524.661s.382-.442-.112-.7l-.559.167.174.533Z" transform="translate(-548.751 -522.545)" fill="#fff" stroke="#000" stroke-width="0.313"/>
        <path id="Path_646" data-name="Path 646" d="M549.859,524.511a.23.23,0,1,0-.162.312.254.254,0,0,0,.162-.312Z" transform="translate(-548.631 -522.71)" fill="#fff" stroke="#000" stroke-width="0.313"/>
      </g>
      <g id="Group_157" data-name="Group 157" transform="translate(48.877 64.265)">
        <path id="Path_647" data-name="Path 647" d="M551.114,503.593c-.126-2.059-1.6-3.643-3.29-3.539s-2.959,1.856-2.831,3.914,1.6,3.643,3.288,3.539S551.239,505.652,551.114,503.593Z" transform="translate(-544.983 -500.049)"/>
        <path id="Path_648" data-name="Path 648" d="M549.018,505.224c-.34-1.17-1.232-1.94-1.989-1.719s-1.1,1.348-.754,2.519,1.23,1.939,1.987,1.718S549.359,506.4,549.018,505.224Z" transform="translate(-545.582 -501.814)" fill="#fff" stroke="#000" stroke-width="0.344"/>
        <path id="Path_649" data-name="Path 649" d="M548.024,508.607l-.078,1.572a2.892,2.892,0,0,1-.531-.511l.5-1.041Z" transform="translate(-546.238 -504.467)" fill="#807c88" stroke="#000" stroke-width="0.344"/>
        <path id="Path_650" data-name="Path 650" d="M546.383,508.392l.762-.365-.092-.208-.8-.079Z" transform="translate(-545.639 -504.017)" fill="#807c88" stroke="#000" stroke-width="0.344"/>
        <path id="Path_651" data-name="Path 651" d="M549.669,510.153l-.723-1.628-.08-.13.221-.257,1.164,1.581S549.888,510.13,549.669,510.153Z" transform="translate(-546.987 -504.224)" fill="#807c88" stroke="#000" stroke-width="0.344"/>
        <path id="Path_652" data-name="Path 652" d="M550.834,507.992a2.559,2.559,0,0,0-.1-.722l-.044-.172-1.312.226.072.329,1.375.321" transform="translate(-547.251 -503.687)" fill="#807c88" stroke="#000" stroke-width="0.344"/>
        <path id="Path_653" data-name="Path 653" d="M548.935,505.566l.915-1.128a4.06,4.06,0,0,0-.606-.544,7.877,7.877,0,0,0-.546,1.528Z" transform="translate(-546.901 -502.031)" fill="#807c88" stroke="#000" stroke-width="0.344"/>
        <path id="Path_654" data-name="Path 654" d="M547.384,505.482,546.9,503.8s-.469.04-.624.937l.8.822Z" transform="translate(-545.653 -501.988)" fill="#807c88" stroke="#000" stroke-width="0.344"/>
        <path id="Path_655" data-name="Path 655" d="M548.25,507.7s.459-.646-.239-.937l-.738.3.3.7Z" transform="translate(-546.165 -503.517)" fill="#fff" stroke="#000" stroke-width="0.344"/>
        <path id="Path_656" data-name="Path 656" d="M547.623,507.6a.312.312,0,1,0-.18.45A.346.346,0,0,0,547.623,507.6Z" transform="translate(-546.035 -503.8)" fill="#fff" stroke="#000" stroke-width="0.344"/>
      </g>
      <g id="Group_158" data-name="Group 158" transform="translate(46.179 51.81)">
        <path id="Path_657" data-name="Path 657" d="M547.831,478.227c-.808-2.748-3.29-4.438-5.548-3.776s-3.435,3.429-2.624,6.175,3.291,4.438,5.548,3.776S548.636,480.975,547.831,478.227Z" transform="translate(-539.403 -474.307)"/>
        <path id="Path_658" data-name="Path 658" d="M544.91,481.749c-.823-1.479-2.267-2.245-3.227-1.712s-1.066,2.166-.241,3.643,2.267,2.244,3.227,1.71S545.734,483.232,544.91,481.749Z" transform="translate(-540.172 -477.176)" fill="#fff" stroke="#000" stroke-width="0.344"/>
        <path id="Path_659" data-name="Path 659" d="M547.855,484.921a3.572,3.572,0,0,0-.364-.948l-.111-.216-1.706.71.2.425,1.96.007" transform="translate(-542.64 -479.185)" fill="#807c88" stroke="#000" stroke-width="0.344"/>
        <path id="Path_660" data-name="Path 660" d="M544.96,482.473l.889-1.812a5.594,5.594,0,0,0-.99-.55,11.019,11.019,0,0,0-.268,2.237Z" transform="translate(-542.082 -477.303)" fill="#807c88" stroke="#000" stroke-width="0.344"/>
        <path id="Path_661" data-name="Path 661" d="M542.632,482.816l-1.171-2.121s-.625.2-.553,1.457l1.344.863Z" transform="translate(-540.178 -477.605)" fill="#807c88" stroke="#000" stroke-width="0.344"/>
        <path id="Path_662" data-name="Path 662" d="M541.875,487.124l.917-.729-.188-.256-1.1.141Z" transform="translate(-540.486 -480.412)" fill="#807c88" stroke="#000" stroke-width="0.344"/>
        <path id="Path_663" data-name="Path 663" d="M546.954,488.565l-1.483-1.978-.15-.151.22-.416,2.063,1.78S547.244,488.469,546.954,488.565Z" transform="translate(-542.458 -480.351)" fill="#807c88" stroke="#000" stroke-width="0.344"/>
        <path id="Path_664" data-name="Path 664" d="M544.52,486.853l.379,2.154a4.071,4.071,0,0,1-.876-.528l.351-1.57Z" transform="translate(-541.786 -480.783)" fill="#807c88" stroke="#000" stroke-width="0.344"/>
        <path id="Path_665" data-name="Path 665" d="M544.29,485.509s.422-1.017-.613-1.189l-.9.632.625.854Z" transform="translate(-541.143 -479.475)" fill="#fff" stroke="#000" stroke-width="0.344"/>
        <path id="Path_666" data-name="Path 666" d="M543.406,485.706a.433.433,0,1,0-.1.663.479.479,0,0,0,.1-.663Z" transform="translate(-541.046 -480.043)" fill="#fff" stroke="#000" stroke-width="0.344"/>
      </g>
    </g>
  </g>
</svg>
