<svg xmlns="http://www.w3.org/2000/svg" xmlns:xlink="http://www.w3.org/1999/xlink" width="107.124" height="25.847" viewBox="0 0 107.124 25.847">
  <defs>
    <radialGradient id="radial-gradient" cx="0.461" cy="0.43" r="0.307" gradientTransform="translate(-0.563) scale(2.126 1)" gradientUnits="objectBoundingBox">
      <stop offset="0" stop-color="#f6f8af"/>
      <stop offset="0.349" stop-color="#d2e680"/>
      <stop offset="1" stop-color="#8ac220"/>
    </radialGradient>
    <radialGradient id="radial-gradient-2" cx="0.503" cy="0.503" r="0.517" gradientTransform="translate(-0.163) scale(0.943 1)" xlink:href="#radial-gradient"/>
  </defs>
  <g id="Group_306" data-name="Group 306" transform="translate(-7.456 -12.077)">
    <g id="レイヤー_1" data-name="レイヤー 1" transform="translate(41.943 12.077)">
      <g id="Group_4" data-name="Group 4" transform="translate(0)">
        <g id="Group_1" data-name="Group 1" transform="translate(0.793 18.817)">
          <path id="Path_1" data-name="Path 1" d="M11.846,181.05v.935H10.267v4.344H9.156v-4.344H7.57v-.935Z" transform="translate(-7.57 -180.896)"/>
          <path id="Path_2" data-name="Path 2" d="M52.323,193.806a1.668,1.668,0,0,1,1.389-.516,2.467,2.467,0,0,1,1.139.255.976.976,0,0,1,.5.96V196.3c0,.124,0,.275.007.452a.57.57,0,0,0,.061.272.367.367,0,0,0,.151.118v.151H54.457a1.155,1.155,0,0,1-.065-.222,2.2,2.2,0,0,1-.028-.237,2.087,2.087,0,0,1-.487.391,1.465,1.465,0,0,1-.745.19,1.28,1.28,0,0,1-.876-.3,1.078,1.078,0,0,1-.346-.858,1.114,1.114,0,0,1,.555-1.043,2.466,2.466,0,0,1,.895-.25l.348-.043a1.608,1.608,0,0,0,.4-.089.307.307,0,0,0,.218-.29.343.343,0,0,0-.167-.331,1.044,1.044,0,0,0-.489-.091.638.638,0,0,0-.512.179.748.748,0,0,0-.144.358h-.985a1.5,1.5,0,0,1,.286-.841Zm.76,2.743a.535.535,0,0,0,.351.118,1.037,1.037,0,0,0,.607-.194.823.823,0,0,0,.288-.705v-.379a1.135,1.135,0,0,1-.195.1,1.691,1.691,0,0,1-.27.07l-.229.043a1.483,1.483,0,0,0-.462.139.47.47,0,0,0-.237.434.45.45,0,0,0,.147.376Z" transform="translate(-47.264 -191.853)"/>
          <path id="Path_3" data-name="Path 3" d="M97.572,186.472H96.34l-.935-1.669-.422.44v1.228h-1V181.21h1v2.844l1.271-1.468h1.265l-1.364,1.493,1.419,2.392Z" transform="translate(-84.926 -181.039)"/>
          <path id="Path_4" data-name="Path 4" d="M135.963,197.523c-.009.012-.034.048-.071.108a.728.728,0,0,1-.136.157,1.411,1.411,0,0,1-.464.293,1.586,1.586,0,0,1-.525.079,1.169,1.169,0,0,1-1.167-.623,2.385,2.385,0,0,1-.169-1.013V194.17h1.046v2.353a1.24,1.24,0,0,0,.079.5.546.546,0,0,0,.548.3.716.716,0,0,0,.717-.422,1.526,1.526,0,0,0,.1-.606v-2.124h1.035v3.9h-.992v-.551Z" transform="translate(-120.242 -192.641)"/>
          <path id="Path_5" data-name="Path 5" d="M200.384,186.329H198.11V181.05h2.274a2.8,2.8,0,0,1,.816.114,1.743,1.743,0,0,1,.9.67,2.367,2.367,0,0,1,.376.852,4.077,4.077,0,0,1,.1.874,3.507,3.507,0,0,1-.422,1.783,1.906,1.906,0,0,1-1.769.985Zm.819-3.932a1.073,1.073,0,0,0-1.006-.43H199.18v3.445H200.2a1.1,1.1,0,0,0,1.089-.77,2.717,2.717,0,0,0,.169-1.006,2.511,2.511,0,0,0-.25-1.24Z" transform="translate(-178.145 -180.896)"/>
          <path id="Path_6" data-name="Path 6" d="M250.434,194.325a.848.848,0,0,0-.828.4,1.565,1.565,0,0,0-.118.695v1.866H248.46v-3.9h.974v.68a2.142,2.142,0,0,1,.412-.533,1.118,1.118,0,0,1,.745-.24.329.329,0,0,1,.048,0l.088.005v1.046c-.065-.007-.122-.012-.172-.015s-.091,0-.122,0Z" transform="translate(-223.219 -191.853)"/>
          <path id="Path_7" data-name="Path 7" d="M277.675,180.74v.942H276.64v-.942Zm0,1.408v3.9H276.64v-3.9Z" transform="translate(-248.446 -180.618)"/>
          <path id="Path_8" data-name="Path 8" d="M293,194.18h1.146l.813,2.879.831-2.879h1.1l-1.407,3.9H294.4l-1.4-3.9Z" transform="translate(-263.092 -192.65)"/>
          <path id="Path_9" data-name="Path 9" d="M337.455,180.74v.942H336.42v-.942Zm0,1.408v3.9H336.42v-3.9Z" transform="translate(-301.962 -180.618)"/>
          <path id="Path_10" data-name="Path 10" d="M358.331,194.121a.711.711,0,0,0-.713.44,1.507,1.507,0,0,0-.1.594v2.113H356.5v-3.9h.985v.569a1.764,1.764,0,0,1,.372-.434,1.3,1.3,0,0,1,.8-.237,1.51,1.51,0,0,1,.99.316,1.289,1.289,0,0,1,.385,1.051v2.629h-1.046v-2.374a1.074,1.074,0,0,0-.083-.473.58.58,0,0,0-.573-.3Z" transform="translate(-319.938 -191.836)"/>
          <path id="Path_11" data-name="Path 11" d="M398.943,197.971a.862.862,0,0,0,.555.139.744.744,0,0,0,.738-.369,1.875,1.875,0,0,0,.122-.8v-.25a1.25,1.25,0,0,1-.315.376,1.269,1.269,0,0,1-.791.233,1.5,1.5,0,0,1-1.2-.528,2.134,2.134,0,0,1-.449-1.43,2.366,2.366,0,0,1,.434-1.463,1.433,1.433,0,0,1,1.228-.593,1.365,1.365,0,0,1,.512.089,1.226,1.226,0,0,1,.6.566v-.563h.992v3.7a2.072,2.072,0,0,1-.255,1.139,1.872,1.872,0,0,1-1.677.659,2.286,2.286,0,0,1-1.222-.293,1.083,1.083,0,0,1-.523-.877H398.8a.46.46,0,0,0,.139.258Zm-.172-2.016a.748.748,0,0,0,.745.495.79.79,0,0,0,.606-.27,1.253,1.253,0,0,0,.247-.861,1.322,1.322,0,0,0-.235-.846.765.765,0,0,0-.629-.29.742.742,0,0,0-.742.505,1.8,1.8,0,0,0-.108.662,1.511,1.511,0,0,0,.114.606Z" transform="translate(-356.732 -191.853)"/>
          <path id="Path_12" data-name="Path 12" d="M464.04,184.25a1.936,1.936,0,0,0,.634-.086.613.613,0,0,0,.462-.612.452.452,0,0,0-.229-.4,2.484,2.484,0,0,0-.72-.247l-.559-.126a3.525,3.525,0,0,1-1.139-.4,1.285,1.285,0,0,1-.533-1.142,1.528,1.528,0,0,1,.516-1.179,2.178,2.178,0,0,1,1.515-.469,2.307,2.307,0,0,1,1.424.442,1.581,1.581,0,0,1,.618,1.284h-1.06a.757.757,0,0,0-.415-.677,1.4,1.4,0,0,0-.641-.132,1.2,1.2,0,0,0-.68.172.547.547,0,0,0-.255.48.455.455,0,0,0,.25.422,3.052,3.052,0,0,0,.687.218l.909.218a2.342,2.342,0,0,1,.9.383,1.29,1.29,0,0,1,.473,1.078,1.54,1.54,0,0,1-.553,1.2,2.313,2.313,0,0,1-1.563.478,2.559,2.559,0,0,1-1.622-.472,1.565,1.565,0,0,1-.591-1.3h1.053a1.09,1.09,0,0,0,.2.541,1.135,1.135,0,0,0,.92.326Z" transform="translate(-414.268 -179.58)"/>
          <path id="Path_13" data-name="Path 13" d="M512.369,194.774h-1.046a.907.907,0,0,0-.147-.394.616.616,0,0,0-.533-.237.7.7,0,0,0-.705.512,2.132,2.132,0,0,0-.1.723,1.914,1.914,0,0,0,.1.692.681.681,0,0,0,.687.487.6.6,0,0,0,.508-.194.965.965,0,0,0,.182-.5h1.043a1.717,1.717,0,0,1-.336.881,1.637,1.637,0,0,1-1.422.67,1.666,1.666,0,0,1-1.386-.559,2.257,2.257,0,0,1-.444-1.45,2.3,2.3,0,0,1,.49-1.565,1.706,1.706,0,0,1,1.354-.558,2.044,2.044,0,0,1,1.2.329,1.536,1.536,0,0,1,.553,1.164Z" transform="translate(-456.253 -191.844)"/>
          <path id="Path_14" data-name="Path 14" d="M554.1,184.207V186.5h-1.043v-2.374a1.036,1.036,0,0,0-.108-.508.541.541,0,0,0-.53-.272.742.742,0,0,0-.614.27,1.24,1.24,0,0,0-.21.772V186.5H550.58V181.24H551.6v1.866a1.249,1.249,0,0,1,.514-.475,1.46,1.46,0,0,1,.614-.134,1.661,1.661,0,0,1,.657.126,1.154,1.154,0,0,1,.485.383,1.016,1.016,0,0,1,.2.45,5.509,5.509,0,0,1,.036.754Z" transform="translate(-493.682 -181.066)"/>
          <path id="Path_15" data-name="Path 15" d="M595.186,193.6a2.424,2.424,0,0,1,0,2.935,2.148,2.148,0,0,1-3,0,2.424,2.424,0,0,1,0-2.935,2.127,2.127,0,0,1,3,0Zm-1.5.244a.817.817,0,0,0-.689.316,1.814,1.814,0,0,0,0,1.811.9.9,0,0,0,1.377,0,1.828,1.828,0,0,0,0-1.811A.809.809,0,0,0,593.682,193.843Z" transform="translate(-530.485 -191.576)"/>
          <path id="Path_16" data-name="Path 16" d="M638.646,193.6a2.424,2.424,0,0,1,0,2.935,2.148,2.148,0,0,1-3,0,2.424,2.424,0,0,1,0-2.935,2.127,2.127,0,0,1,3,0Zm-1.5.244a.817.817,0,0,0-.689.316,1.814,1.814,0,0,0,0,1.811.9.9,0,0,0,1.377,0,1.828,1.828,0,0,0,0-1.811A.809.809,0,0,0,637.142,193.843Z" transform="translate(-569.391 -191.576)"/>
          <path id="Path_17" data-name="Path 17" d="M681.1,181.05h1.021v5.279H681.1Z" transform="translate(-610.526 -180.896)"/>
        </g>
        <g id="公安委員会指定_実技試験免除" data-name="公安委員会指定 実技試験免除" transform="translate(0.861)" style="isolation: isolate">
          <g id="Group_2" data-name="Group 2" style="isolation: isolate">
            <path id="Path_18" data-name="Path 18" d="M9.534,1.35l.718.2a6.21,6.21,0,0,1-.4.812,7.478,7.478,0,0,1-.495.742,4.854,4.854,0,0,1-.529.594,1.184,1.184,0,0,0-.175-.159c-.075-.058-.152-.115-.231-.173s-.146-.1-.2-.139a3.531,3.531,0,0,0,.521-.513,4.78,4.78,0,0,0,.454-.65,4.752,4.752,0,0,0,.341-.713ZM8.455,5.3l.828-.034.974-.042L11.3,5.176l1.05-.052-.021.618-1.357.084q-.687.042-1.313.076c-.417.023-.794.044-1.129.065L8.455,5.3Zm1.635-2.153.749.183c-.084.2-.176.411-.275.623s-.2.422-.307.629-.209.4-.311.589-.2.355-.3.506l-.587-.183c.094-.16.191-.338.288-.532s.193-.4.285-.6.178-.416.257-.623.146-.4.2-.589ZM11.645,1.36a4.994,4.994,0,0,0,.275.477,5.774,5.774,0,0,0,.351.484q.192.239.385.451c.129.141.254.268.372.379a1.883,1.883,0,0,0-.183.16c-.066.065-.131.131-.194.2A1.523,1.523,0,0,0,12.5,3.7q-.189-.2-.388-.447c-.133-.166-.264-.341-.4-.524s-.257-.37-.377-.558-.229-.374-.327-.555l.634-.257ZM11.106,4.3l.608-.278c.154.189.307.391.461.608s.3.429.426.637a6.339,6.339,0,0,1,.323.568l-.655.346a4.712,4.712,0,0,0-.3-.585c-.129-.218-.269-.441-.419-.669s-.3-.437-.445-.629Z" transform="translate(-8.22 -1.209)"/>
            <path id="Path_19" data-name="Path 19" d="M59.71,2.109h4.679V2.7H59.71ZM59.82.627H64.3V1.868h-.676v-.66H60.459v.66H59.82Zm3.012,1.907.707.089a3.334,3.334,0,0,1-.463,1.03,2.758,2.758,0,0,1-.713.7,3.652,3.652,0,0,1-.961.454,8,8,0,0,1-1.221.27,1.072,1.072,0,0,0-.089-.187c-.042-.071-.087-.143-.133-.212a1.409,1.409,0,0,0-.134-.173,6.688,6.688,0,0,0,1.48-.293,2.417,2.417,0,0,0,1-.613,2.177,2.177,0,0,0,.524-1.069Zm-1.325-1.2.665.136c-.1.213-.209.434-.323.663s-.227.457-.344.684-.227.442-.337.647-.213.389-.306.552L60.2,3.838c.1-.16.209-.344.323-.548s.228-.419.346-.644.231-.451.341-.676.211-.437.3-.637ZM60.59,3.728l.456-.44q.382.105.814.251t.859.317c.285.114.553.229.807.349a5.777,5.777,0,0,1,.652.351l-.5.513a5.935,5.935,0,0,0-.608-.354q-.362-.185-.786-.367t-.859-.344c-.29-.108-.568-.2-.833-.278ZM61.7.15h.671v.959H61.7Z" transform="translate(-54.315 -0.134)"/>
            <path id="Path_20" data-name="Path 20" d="M111.184,1.429l.5.2a3.485,3.485,0,0,1-.407.422,3.921,3.921,0,0,1-.5.372,4.689,4.689,0,0,1-.557.3,4.872,4.872,0,0,1-.6.228,2.514,2.514,0,0,0-.173-.257,1.415,1.415,0,0,0-.21-.231,4.311,4.311,0,0,0,.573-.175,4.705,4.705,0,0,0,.536-.244,3.58,3.58,0,0,0,.466-.293,2.177,2.177,0,0,0,.356-.33Zm-1.839,1.635h4.794v.519h-4.794V3.063Zm.052-1.771h4.658V1.8H109.4Zm3.122,1.986.618.152a2.461,2.461,0,0,1-.495.77,2.389,2.389,0,0,1-.723.5,4.329,4.329,0,0,1-.983.3,12.634,12.634,0,0,1-1.273.17,1.447,1.447,0,0,0-.1-.293,1.673,1.673,0,0,0-.145-.257,9.945,9.945,0,0,0,1.48-.168,2.694,2.694,0,0,0,1.016-.407,1.732,1.732,0,0,0,.606-.773ZM113.154.25l.456.435q-.382.083-.833.141t-.94.094c-.327.024-.654.043-.983.054s-.644.02-.948.024a1.533,1.533,0,0,0-.05-.246,1.84,1.84,0,0,0-.081-.236c.3,0,.607-.012.919-.023s.62-.029.922-.052.585-.049.849-.082.494-.068.689-.11Zm-2.085,2.326.618.162q-.168.272-.361.571t-.382.573q-.189.275-.351.49l-.6-.189c.108-.139.227-.3.356-.487s.258-.375.385-.571.24-.379.337-.55Zm-.707,1.656.325-.461q.6.121,1.21.269t1.147.309q.539.16.927.3l-.382.519c-.251-.1-.549-.207-.893-.32s-.716-.221-1.113-.327-.8-.2-1.221-.291ZM111.42.706h.618V2.712h-.618Zm.838.723a2.459,2.459,0,0,0,.508.417,3.979,3.979,0,0,0,.681.343,5.4,5.4,0,0,0,.76.236,2.091,2.091,0,0,0-.147.152,1.89,1.89,0,0,0-.145.187c-.044.065-.081.123-.112.175a4.918,4.918,0,0,1-.589-.218,4.327,4.327,0,0,1-.558-.3,3.958,3.958,0,0,1-.5-.37,3.47,3.47,0,0,1-.407-.419l.5-.2Z" transform="translate(-98.664 -0.224)"/>
            <path id="Path_21" data-name="Path 21" d="M162.111,5.53l.555.393a4.158,4.158,0,0,1-.489.246c-.187.081-.379.155-.576.222s-.385.123-.564.166c-.06-.066-.135-.144-.227-.231s-.175-.16-.249-.22c.185-.042.375-.094.571-.157s.38-.131.555-.2A2.724,2.724,0,0,0,162.111,5.53Zm-1.016-2.216h3.851V5.64h-3.851ZM161.33,1.8h3.426V3.115H161.33Zm.388,1.944v.22h2.572v-.22Zm0,.618v.225h2.572V4.362Zm0,.623v.225h2.572V4.985Zm.246-2.7v.341h2.127V2.287Zm1.294,3.667.555-.393c.185.045.38.1.587.17s.407.136.6.2.363.13.506.185l-.555.445q-.2-.094-.5-.206t-.6-.218c-.207-.07-.407-.133-.594-.189Z" transform="translate(-144.598 -1.611)"/>
            <path id="Path_22" data-name="Path 22" d="M213.743.911a4.082,4.082,0,0,1-.54.611,6.05,6.05,0,0,1-.733.589,6.227,6.227,0,0,1-.838.487.967.967,0,0,0-.1-.175c-.044-.065-.089-.128-.136-.189a1.559,1.559,0,0,0-.139-.159,4.819,4.819,0,0,0,.864-.5,5.659,5.659,0,0,0,.742-.629,3.88,3.88,0,0,0,.521-.641h.66a4.579,4.579,0,0,0,.466.545,4.919,4.919,0,0,0,.545.469,4.968,4.968,0,0,0,.594.377,4.723,4.723,0,0,0,.62.28,1.805,1.805,0,0,0-.22.272q-.105.157-.189.3a6.243,6.243,0,0,1-.8-.451,6.59,6.59,0,0,1-.751-.576,4.13,4.13,0,0,1-.573-.613Zm-2.153,1.98h4.354v.587H211.59Zm.026,1.556q.467-.016,1.082-.034t1.294-.045l1.338-.052-.021.576q-.64.036-1.3.065t-1.249.058q-.593.028-1.069.049l-.079-.618Zm1.252-1.174.718.194q-.121.247-.255.5t-.262.484c-.086.153-.167.29-.243.409l-.55-.183q.105-.193.22-.437t.213-.5c.065-.17.117-.326.159-.468Zm-.346-1.394h2.457v.576h-2.457V1.881Zm1.65,1.933.55-.293q.236.2.466.44t.424.474a4.043,4.043,0,0,1,.314.438l-.587.356a3.175,3.175,0,0,0-.3-.447q-.192-.248-.419-.506a5.936,5.936,0,0,0-.454-.461Z" transform="translate(-189.985 -0.278)"/>
            <path id="Path_23" data-name="Path 23" d="M262.06,2.877c.165-.035.35-.076.559-.126s.426-.1.655-.159l.683-.175.079.576q-.471.13-.95.257t-.873.231l-.152-.6Zm.084-1.687h1.807v.582h-1.807ZM262.8.2h.613V4.444a1.054,1.054,0,0,1-.047.356.4.4,0,0,1-.183.2.917.917,0,0,1-.325.089,4.574,4.574,0,0,1-.472.021,1.985,1.985,0,0,0-.065-.288,2.113,2.113,0,0,0-.107-.288c.1,0,.2.006.293.007l.194,0a.137.137,0,0,0,.076-.026.1.1,0,0,0,.023-.073V.2Zm1.409,2.52h2.562V5.1h-.623V3.233h-1.341V5.12h-.6Zm.01-2.515h.629V1.63c0,.1.022.159.065.183a.722.722,0,0,0,.291.037h.917a.37.37,0,0,0,.2-.042.262.262,0,0,0,.094-.173,2.789,2.789,0,0,0,.044-.388,1.343,1.343,0,0,0,.272.134,2.054,2.054,0,0,0,.3.092,1.976,1.976,0,0,1-.126.578.524.524,0,0,1-.262.286,1.178,1.178,0,0,1-.477.079h-1.016a1.862,1.862,0,0,1-.568-.068.448.448,0,0,1-.281-.241,1.16,1.16,0,0,1-.079-.472Zm2.028.225.466.456q-.288.115-.634.218t-.7.187c-.239.057-.47.1-.694.147A1.288,1.288,0,0,0,264.6,1.2c-.039-.091-.073-.168-.1-.231q.314-.068.637-.154t.613-.189q.291-.1.5-.2ZM264.5,4.391h1.855v.5H264.5Zm.021-.833h1.834v.487h-1.834Z" transform="translate(-235.462 -0.179)"/>
            <path id="Path_24" data-name="Path 24" d="M314.032,2.762l.655.068a5.674,5.674,0,0,1-.356,1.415,2.589,2.589,0,0,1-.7,1,1.8,1.8,0,0,0-.147-.141c-.063-.056-.128-.11-.2-.162s-.127-.094-.175-.126a1.921,1.921,0,0,0,.639-.847,4.36,4.36,0,0,0,.283-1.208ZM313.367.829h4.5V2.144h-.644V1.421h-3.238v.723h-.618Zm1.174,2.593a1.669,1.669,0,0,0,.316.578,1.287,1.287,0,0,0,.456.335,2.107,2.107,0,0,0,.568.154,4.824,4.824,0,0,0,.655.042h.547c.117,0,.237,0,.359,0l.341-.005c.1,0,.192,0,.262-.008a1.38,1.38,0,0,0-.092.192c-.029.075-.057.153-.082.234a1.724,1.724,0,0,0-.052.22H316.5a5.179,5.179,0,0,1-.838-.063,2.181,2.181,0,0,1-.689-.228,1.729,1.729,0,0,1-.545-.474,2.747,2.747,0,0,1-.407-.807l.513-.168Zm-.377-1.551h2.9v.6h-2.9v-.6ZM315.274.3h.671v.954h-.671Zm.01,1.923h.655v2.53l-.655-.079Zm.33.906h1.766v.592h-1.766V3.129Z" transform="translate(-281.163 -0.269)"/>
            <path id="Path_25" data-name="Path 25" d="M369.772,17.3a.625.625,0,0,1,.337.092.716.716,0,0,1,.241.241.634.634,0,0,1,.092.337.623.623,0,0,1-.092.335.726.726,0,0,1-.241.244.66.66,0,0,1-.673,0,.716.716,0,0,1-.244-.244.66.66,0,0,1,0-.673.708.708,0,0,1,.244-.241A.64.64,0,0,1,369.772,17.3Z" transform="translate(-331.286 -15.487)"/>
            <path id="Path_26" data-name="Path 26" d="M393.253,1.421h.634V2.878a2.672,2.672,0,0,1-.056.545,1.76,1.76,0,0,1-.2.526,1.914,1.914,0,0,1-.4.484,2.945,2.945,0,0,1-.657.428,5.516,5.516,0,0,1-.969.354,1.224,1.224,0,0,0-.1-.166c-.044-.062-.091-.123-.141-.185a1.209,1.209,0,0,0-.149-.157,5.512,5.512,0,0,0,.914-.283,2.445,2.445,0,0,0,.592-.341,1.415,1.415,0,0,0,.337-.385,1.382,1.382,0,0,0,.157-.409,2.1,2.1,0,0,0,.042-.422V1.421ZM391.31,3.375h4.605V3.92H391.31V3.375Zm.042-2.625h4.49V1.877h-.65V1.3h-3.217v.576h-.623Zm.471.969h3.6v.508h-3.6Zm.084.823h3.405v.5h-3.405ZM393.269.3h.65v.833h-.65Zm.639,3.185a1.755,1.755,0,0,0,.749.812,3.364,3.364,0,0,0,1.331.377,1.918,1.918,0,0,0-.2.262,2.661,2.661,0,0,0-.17.288,3.917,3.917,0,0,1-1.032-.3,2.29,2.29,0,0,1-.736-.529,2.763,2.763,0,0,1-.5-.793l.561-.12Z" transform="translate(-351.08 -0.269)"/>
            <path id="Path_27" data-name="Path 27" d="M441.36,2.861c.154-.031.328-.069.524-.113s.4-.092.616-.147l.637-.159.079.576c-.286.081-.579.159-.878.238s-.57.148-.815.207Zm.068-1.661h1.745v.582h-1.745Zm.608-1h.618V4.428a1,1,0,0,1-.05.354.39.39,0,0,1-.185.2.917.917,0,0,1-.325.089,4.64,4.64,0,0,1-.477.021,1.745,1.745,0,0,0-.068-.286,2.09,2.09,0,0,0-.11-.285c.1,0,.205.005.3.005h.2c.066,0,.1-.035.1-.1V.2ZM445.5,2.159h.121l.1-.021.4.162a4.18,4.18,0,0,1-.426,1.037,3.515,3.515,0,0,1-.639.8,3.913,3.913,0,0,1-.823.582,5.183,5.183,0,0,1-.972.393,1.773,1.773,0,0,0-.089-.185c-.039-.071-.08-.141-.123-.21a1.572,1.572,0,0,0-.124-.17,4.322,4.322,0,0,0,.889-.309,3.4,3.4,0,0,0,.751-.487,2.961,2.961,0,0,0,.573-.662,2.868,2.868,0,0,0,.354-.826v-.1ZM443.241.949h2.929v.582h-2.929V.949Zm.089,1.21h2.242v.566H443.33Zm.681.451a3.182,3.182,0,0,0,.88,1.245,3.437,3.437,0,0,0,1.483.73c-.045.045-.094.1-.147.162a1.9,1.9,0,0,0-.145.2q-.066.1-.113.185a3.658,3.658,0,0,1-1.554-.875,4.327,4.327,0,0,1-.971-1.483l.566-.162ZM444.367.2h.623V2.469h-.623Z" transform="translate(-395.975 -0.179)"/>
            <path id="Path_28" data-name="Path 28" d="M492.51,1.114h1.907v.5H492.51Zm.225,2.179h.519V5.1h-.519Zm.01-1.441H494.3V2.33h-1.551Zm0,.718H494.3v.472h-1.551Zm.021-2.159h1.5V.884h-1.5Zm.251,2.881h1.273v1.6h-1.273v-.5h.749v-.6h-.749Zm1.373,1,.76-.126.9-.152.042.519q-.409.09-.819.173t-.752.157Zm.1-1.912h1.435v.54H494.49ZM494.5,1.24h2.882v.571H494.5Zm.435,1.352h.582v1.76l-.582.11ZM495.994.25h.6q-.011.687,0,1.3c.007.411.02.788.04,1.132s.044.642.073.9a3.581,3.581,0,0,0,.107.589q.063.209.141.22c.035,0,.063-.056.084-.168a3.79,3.79,0,0,0,.047-.472.675.675,0,0,0,.133.147c.058.049.115.094.173.136s.1.073.133.094a2.658,2.658,0,0,1-.17.66.737.737,0,0,1-.215.3.376.376,0,0,1-.212.079.5.5,0,0,1-.4-.227,1.829,1.829,0,0,1-.264-.641,7.4,7.4,0,0,1-.16-1.016c-.039-.4-.065-.852-.082-1.362S496,.855,495.994.25Zm.592.272.43-.22a3.353,3.353,0,0,1,.262.323,1.831,1.831,0,0,1,.194.323l-.456.246a2,2,0,0,0-.181-.33,3.545,3.545,0,0,0-.249-.341Z" transform="translate(-441.765 -0.224)"/>
            <path id="Path_29" data-name="Path 29" d="M543.218,3.522l.346.068c-.007.16-.02.32-.04.477a2.641,2.641,0,0,1-.089.437,1.171,1.171,0,0,1-.166.349l-.32-.173a1.079,1.079,0,0,0,.147-.317,2.859,2.859,0,0,0,.082-.4C543.2,3.82,543.211,3.672,543.218,3.522Zm.042-3.1h1.933V.934h-1.415V3.145h-.519Zm0,2.384h1.8V3.3h-1.8Zm.3-1.593h1.53v.477h-1.53Zm0,.8h1.53v.472h-1.53Zm.047,1.619.272-.026a3.59,3.59,0,0,1,.052.5c.007.18.008.334.005.463l-.288.042a3.858,3.858,0,0,0,0-.472c-.008-.181-.024-.351-.044-.508Zm.361-.026.267-.047A3.466,3.466,0,0,1,544.35,4a3.235,3.235,0,0,1,.058.407l-.278.058a3.367,3.367,0,0,0-.055-.412,3.7,3.7,0,0,0-.108-.442Zm.168-2.887h.5V3.077h-.5Zm.65,2.09h.513c0,.1,0,.175-.005.21q-.021.633-.052,1.027a5.543,5.543,0,0,1-.073.6.725.725,0,0,1-.1.291.4.4,0,0,1-.136.128.55.55,0,0,1-.173.056,1.124,1.124,0,0,1-.2.018c-.082,0-.169,0-.259,0a1.188,1.188,0,0,0-.042-.251.939.939,0,0,0-.094-.236q.105.011.189.016c.056,0,.1.005.136.005a.161.161,0,0,0,.073-.016.215.215,0,0,0,.063-.052.538.538,0,0,0,.07-.225c.019-.115.037-.291.052-.529s.03-.555.045-.954V2.81Zm-.477.723.246-.079a3.181,3.181,0,0,1,.149.341,1.969,1.969,0,0,1,.1.325l-.257.094a2.569,2.569,0,0,0-.092-.33,2.831,2.831,0,0,0-.145-.351ZM546.529.777a3.145,3.145,0,0,1-.3.44,3.938,3.938,0,0,1-.411.44,3.29,3.29,0,0,1-.48.367,1.939,1.939,0,0,0-.126-.265,1.669,1.669,0,0,0-.162-.244,2.475,2.475,0,0,0,.48-.356A3.6,3.6,0,0,0,545.943.7a2.868,2.868,0,0,0,.293-.469h.55a4.441,4.441,0,0,0,.351.469,3.4,3.4,0,0,0,.424.419,2.449,2.449,0,0,0,.456.3,1.873,1.873,0,0,0-.17.259c-.058.1-.106.2-.145.28a3.05,3.05,0,0,1-.445-.332,4.5,4.5,0,0,1-.409-.416,3.307,3.307,0,0,1-.32-.435Zm-.246.959h.555V2.763a4.8,4.8,0,0,1-.044.641,2.282,2.282,0,0,1-.189.644,2.1,2.1,0,0,1-.422.6,2.733,2.733,0,0,1-.744.513,1.434,1.434,0,0,0-.108-.149c-.044-.054-.09-.108-.139-.162a.988.988,0,0,0-.136-.128,2.448,2.448,0,0,0,.658-.428,1.679,1.679,0,0,0,.367-.492,1.866,1.866,0,0,0,.162-.527,3.6,3.6,0,0,0,.04-.524V1.736Zm-.9.55h2.389V3.679h-2.389V2.286Zm.362-.765h1.619v.487h-1.619V1.521Zm.152,1.221v.482h1.341V2.742Zm.99.665a2.313,2.313,0,0,0,.422.742,1.771,1.771,0,0,0,.683.5,1.563,1.563,0,0,0-.145.145c-.051.058-.1.117-.145.18s-.084.12-.115.173a2,2,0,0,1-.725-.66,3.678,3.678,0,0,1-.454-.959l.477-.12Z" transform="translate(-486.92 -0.206)"/>
            <path id="Path_30" data-name="Path 30" d="M595.583,3.039h.676a4.081,4.081,0,0,1-.136.639,1.519,1.519,0,0,1-.285.531,1.781,1.781,0,0,1-.536.422,3.719,3.719,0,0,1-.88.314,1.882,1.882,0,0,0-.089-.187,2.02,2.02,0,0,0-.128-.2,1.924,1.924,0,0,0-.134-.166,3.652,3.652,0,0,0,.757-.222,1.306,1.306,0,0,0,.438-.3,1.027,1.027,0,0,0,.22-.377,2.512,2.512,0,0,0,.1-.456ZM595.557,0l.681.136a5.867,5.867,0,0,1-.44.637,5.049,5.049,0,0,1-.561.6,4.869,4.869,0,0,1-.712.532,1.489,1.489,0,0,0-.121-.17c-.049-.061-.1-.12-.157-.178a1.545,1.545,0,0,0-.152-.139,4.054,4.054,0,0,0,.637-.437,4.043,4.043,0,0,0,.487-.489A3.316,3.316,0,0,0,595.558,0Zm-.9,1.3h3.945V3.1h-3.945Zm.634.555v.692h2.646V1.855Zm.32-1.488h1.561V.88h-1.87l.309-.513Zm.644,1.158h.613V2.792h-.613V1.525Zm.728-1.158h.141l.1-.026.44.283a3.787,3.787,0,0,1-.244.388q-.145.2-.3.4t-.3.346c-.063-.049-.141-.1-.236-.166s-.178-.111-.252-.149a3.2,3.2,0,0,0,.257-.306c.084-.113.16-.228.231-.346a2.6,2.6,0,0,0,.157-.3V.367Zm-.141,2.583h.655V4.144a.236.236,0,0,0,.037.16.278.278,0,0,0,.173.035h.513a.159.159,0,0,0,.123-.047.378.378,0,0,0,.065-.194,3.834,3.834,0,0,0,.026-.435.918.918,0,0,0,.173.1,2.258,2.258,0,0,0,.215.089,2.043,2.043,0,0,0,.2.061,2.511,2.511,0,0,1-.11.618.542.542,0,0,1-.227.306.811.811,0,0,1-.407.087h-.665a1.215,1.215,0,0,1-.479-.073.414.414,0,0,1-.228-.241,1.337,1.337,0,0,1-.063-.456v-1.2Z" transform="translate(-532.684)"/>
            <path id="Path_31" data-name="Path 31" d="M647.56.515H648.8v.566h-.686V5.214h-.55Zm1.048,0h.1L648.8.494l.409.236c-.042.147-.089.306-.141.477s-.106.338-.159.5-.106.314-.155.451a1.613,1.613,0,0,1,.314.566,1.873,1.873,0,0,1,.073.5,1.365,1.365,0,0,1-.055.419.491.491,0,0,1-.181.257.594.594,0,0,1-.139.068,1.074,1.074,0,0,1-.159.042,2.7,2.7,0,0,1-.346.01,1.606,1.606,0,0,0-.04-.267.95.95,0,0,0-.1-.267c.049,0,.092.005.129.005h.1a.247.247,0,0,0,.147-.047.189.189,0,0,0,.065-.112.792.792,0,0,0,.018-.187,1.477,1.477,0,0,0-.07-.419,1.446,1.446,0,0,0-.291-.5c.035-.118.07-.249.108-.39s.073-.284.11-.428.07-.277.1-.4.053-.227.07-.311V.515Zm.885,3.012.55.131a3.733,3.733,0,0,1-.33.707,2.916,2.916,0,0,1-.43.566c-.031-.031-.074-.07-.129-.115l-.164-.136a1,1,0,0,0-.152-.1,2.09,2.09,0,0,0,.385-.472A2.845,2.845,0,0,0,649.493,3.527ZM650.609.855a3.5,3.5,0,0,1-.358.477,4.944,4.944,0,0,1-.477.472,3.821,3.821,0,0,1-.542.393,1.719,1.719,0,0,0-.139-.262,2.2,2.2,0,0,0-.17-.241,3.008,3.008,0,0,0,.553-.393,4.814,4.814,0,0,0,.484-.5,3.439,3.439,0,0,0,.356-.5h.55a4.632,4.632,0,0,0,.43.529,4.806,4.806,0,0,0,.511.472,2.927,2.927,0,0,0,.536.346,2.932,2.932,0,0,0-.178.254,2.832,2.832,0,0,0-.157.28,3.974,3.974,0,0,1-.522-.375A5.1,5.1,0,0,1,651,1.333a5.122,5.122,0,0,1-.388-.479ZM649.294,2.8h2.74v.529h-2.74Zm.314-1h2.043v.519h-2.043Zm.718.272h.592V4.565a1.114,1.114,0,0,1-.042.338.347.347,0,0,1-.178.2.843.843,0,0,1-.3.089,3.664,3.664,0,0,1-.414.021,1.936,1.936,0,0,0-.079-.291,2.032,2.032,0,0,0-.121-.29c.1,0,.2.005.283.005h.178a.118.118,0,0,0,.065-.021.072.072,0,0,0,.019-.058V2.076Zm.765,1.65.482-.225q.137.178.27.382c.089.136.17.271.241.407a2.343,2.343,0,0,1,.16.365l-.519.257a1.868,1.868,0,0,0-.147-.361c-.07-.136-.147-.277-.231-.422s-.17-.279-.257-.4Z" transform="translate(-580.569 -0.269)"/>
          </g>
        </g>
        <g id="多久自動車学校" transform="translate(0 7.143)" style="isolation: isolate">
          <g id="Group_3" data-name="Group 3" style="isolation: isolate">
            <path id="Path_32" data-name="Path 32" d="M6.7,69.2h.231l.21-.063.807.482A6.478,6.478,0,0,1,6.654,71.3a8.855,8.855,0,0,1-1.766,1.284,13.082,13.082,0,0,1-2.08.927,17.432,17.432,0,0,1-2.232.613,4.618,4.618,0,0,0-.246-.561A2.766,2.766,0,0,0,0,73.043a14.9,14.9,0,0,0,2.085-.487,12.152,12.152,0,0,0,1.928-.781,7.871,7.871,0,0,0,1.593-1.064A4.812,4.812,0,0,0,6.7,69.376V69.2ZM3.961,68.37l1.373.293a10.4,10.4,0,0,1-1.881,1.656A12.881,12.881,0,0,1,.922,71.65c-.063-.1-.141-.206-.236-.325s-.2-.234-.3-.346a2.07,2.07,0,0,0-.3-.262,10.45,10.45,0,0,0,1.666-.681,8.894,8.894,0,0,0,1.3-.812A5.619,5.619,0,0,0,3.961,68.37Zm4.055,4.642h.251l.22-.052.828.43A6.583,6.583,0,0,1,8.052,75.4,7.17,7.17,0,0,1,6.24,76.8a10.78,10.78,0,0,1-2.253.912,19.147,19.147,0,0,1-2.572.534,4.2,4.2,0,0,0-.231-.587,3.588,3.588,0,0,0-.314-.555A16.721,16.721,0,0,0,3.248,76.7a10.286,10.286,0,0,0,2.075-.749A6.118,6.118,0,0,0,6.952,74.8,4.836,4.836,0,0,0,8.016,73.19ZM5.658,72l1.373.314A9.99,9.99,0,0,1,4.92,74.18a13.647,13.647,0,0,1-2.992,1.462,1.587,1.587,0,0,0-.2-.341q-.137-.184-.283-.361a1.8,1.8,0,0,0-.283-.283,13.155,13.155,0,0,0,1.965-.76,8.852,8.852,0,0,0,1.5-.912A5.863,5.863,0,0,0,5.658,72ZM1.97,71.011l.838-.7c.217.1.443.213.681.346s.463.269.676.409a3.763,3.763,0,0,1,.519.4l-.88.775a3.8,3.8,0,0,0-.5-.409q-.314-.22-.66-.44a6.61,6.61,0,0,0-.671-.377Zm1.4-1.813h3.6v1.027h-3.6V69.2Zm.021,5.784.912-.713c.217.118.443.251.681.4s.464.3.681.456a4.389,4.389,0,0,1,.524.435l-.974.775a3.679,3.679,0,0,0-.487-.44c-.206-.16-.426-.322-.66-.482S3.612,75.107,3.395,74.982Zm1.53-1.97H8.351V74.06H4.925V73.012Z" transform="translate(0 -68.349)"/>
            <path id="Path_33" data-name="Path 33" d="M99.96,68.67l1.373.325a15.468,15.468,0,0,1-.859,2.143,13.229,13.229,0,0,1-1.121,1.881,8.76,8.76,0,0,1-1.32,1.477,2.955,2.955,0,0,0-.32-.314q-.2-.178-.424-.351a4.567,4.567,0,0,0-.388-.278,6.7,6.7,0,0,0,1.294-1.294,9.822,9.822,0,0,0,1.027-1.671A12.106,12.106,0,0,0,99.96,68.67Zm2.808,1.593h.251l.231-.063.922.419a13.2,13.2,0,0,1-1.4,3.542,10.9,10.9,0,0,1-2.132,2.64A10.366,10.366,0,0,1,98,78.53a3.119,3.119,0,0,0-.267-.388q-.173-.22-.367-.424a2.671,2.671,0,0,0-.351-.32,9.736,9.736,0,0,0,2.546-1.514,9.22,9.22,0,0,0,1.98-2.284,10.054,10.054,0,0,0,1.226-3.054Zm-2.84,0h3.311v1.268H99.31Zm3.091,2.8a8.15,8.15,0,0,0,.9,1.76,7.414,7.414,0,0,0,1.32,1.493,6.289,6.289,0,0,0,1.682,1.043,3.5,3.5,0,0,0-.325.325c-.118.133-.231.27-.335.414s-.192.275-.262.393a7.163,7.163,0,0,1-1.781-1.242,8.651,8.651,0,0,1-1.388-1.724,11.8,11.8,0,0,1-1.022-2.106Z" transform="translate(-86.747 -68.618)"/>
            <path id="Path_34" data-name="Path 34" d="M209.1,69.943h7.607V78.4h-1.331V71.148h-5.009v7.272H209.1Zm.849,2.284h5.7V73.39h-5.7V72.227Zm0,2.242h5.7v1.163h-5.7V74.469Zm0,2.253h5.7v1.163h-5.7V76.722Zm2.127-8.152,1.519.168q-.189.514-.4,1.006c-.139.328-.269.611-.388.849l-1.153-.21c.056-.175.112-.369.168-.582s.107-.426.152-.639S212.055,68.751,212.076,68.57Z" transform="translate(-187.19 -68.528)"/>
            <path id="Path_35" data-name="Path 35" d="M297.7,77.653q.66-.042,1.509-.1t1.8-.141q.948-.079,1.891-.162l.01.954-1.8.189q-.907.094-1.739.173t-1.525.152ZM297.763,71H303v.912h-5.239Zm4.568-1.729.545.933q-.66.137-1.483.236t-1.682.157q-.86.058-1.645.079a3.369,3.369,0,0,0-.11-.456,2.91,2.91,0,0,0-.173-.445q.586-.031,1.2-.079t1.221-.11q.6-.063,1.142-.141T302.331,69.27Zm-4.338,6.717h4.893v.891h-4.893Zm.042-3.667h4.8v3.259h-4.8Zm1,.786v.472H301.8v-.472Zm0,1.215v.472H301.8V74.32Zm.807-4.055h1.142v7.513h-1.142Zm4.16-.88h1.2q0,1.341-.026,2.546T305.04,74.2a11.647,11.647,0,0,1-.367,1.97,6.441,6.441,0,0,1-.718,1.65,5.006,5.006,0,0,1-1.184,1.31,2.482,2.482,0,0,0-.246-.335c-.1-.118-.206-.233-.314-.341a2.086,2.086,0,0,0-.32-.267,4.343,4.343,0,0,0,1.069-1.158,5.472,5.472,0,0,0,.629-1.456,9.888,9.888,0,0,0,.3-1.76q.083-.959.094-2.064T304,69.385Zm-1.006,2.2h3.636v1.153h-3.636Zm3.122,0h1.2v.555q-.042,1.614-.084,2.74t-.089,1.855a8.019,8.019,0,0,1-.136,1.137,1.691,1.691,0,0,1-.215.587,1.169,1.169,0,0,1-.372.372,1.536,1.536,0,0,1-.456.162,3.874,3.874,0,0,1-.587.047c-.23,0-.471,0-.723-.005a2.986,2.986,0,0,0-.356-1.2c.223.021.43.036.618.042s.332.01.43.01a.461.461,0,0,0,.21-.042.48.48,0,0,0,.157-.136,1.422,1.422,0,0,0,.147-.487q.063-.361.11-1.037t.084-1.745q.036-1.069.058-2.588v-.262Z" transform="translate(-266.506 -69.155)"/>
            <path id="Path_36" data-name="Path 36" d="M399.2,76.063h9.577V77.2H399.2Zm.262-6.434h9v1.132h-9Zm.786,1.635h7.429v4.244h-7.429Zm1.215,1.016v.629h4.946V72.28Zm0,1.572v.639h4.946v-.639Zm1.813-5.082h1.3v9.849h-1.3Z" transform="translate(-357.371 -68.707)"/>
            <path id="Path_37" data-name="Path 37" d="M500.1,74.164h9.378v1.153H500.1Zm.136-4.275h9.126v2.567h-1.236V71H501.41v1.456h-1.174V69.888Zm.7-1.079,1.069-.482a7.827,7.827,0,0,1,.555.7,3.6,3.6,0,0,1,.4.686l-1.132.534a4.238,4.238,0,0,0-.372-.7Q501.2,69.144,500.938,68.809Zm1.037,3h4.83V72.9h-4.83Zm2.158,1.677h1.289V76.72a1.71,1.71,0,0,1-.136.754.87.87,0,0,1-.513.409,3.167,3.167,0,0,1-.88.168q-.5.031-1.174.031a3.666,3.666,0,0,0-.215-.623,5.866,5.866,0,0,0-.3-.6l.681.021c.23.007.435.01.613.01s.3,0,.372-.01a.357.357,0,0,0,.21-.042.179.179,0,0,0,.052-.147Zm-.566-4.9,1.111-.409a6.437,6.437,0,0,1,.487.765,4.467,4.467,0,0,1,.341.754l-1.184.461a4.482,4.482,0,0,0-.3-.76A7.177,7.177,0,0,0,503.568,68.579Zm2.84,3.227h.3l.272-.063.786.608a7.872,7.872,0,0,1-.807.775,11.56,11.56,0,0,1-.964.728,8.348,8.348,0,0,1-1.016.592,3.2,3.2,0,0,0-.32-.382c-.136-.144-.249-.26-.341-.351a6.12,6.12,0,0,0,.812-.5,8.131,8.131,0,0,0,.739-.6,5.07,5.07,0,0,0,.534-.561Zm1.079-3.51,1.362.4q-.357.523-.744,1.027t-.7.849l-1.037-.377q.209-.272.414-.6c.136-.217.267-.438.393-.665a7.059,7.059,0,0,0,.314-.634Z" transform="translate(-447.699 -68.17)"/>
            <path id="Path_38" data-name="Path 38" d="M598.372,71.646l.713.241q-.115.629-.288,1.3T598.4,74.5q-.22.644-.477,1.2a5.35,5.35,0,0,1-.55.959,3.821,3.821,0,0,0-.257-.576c-.115-.217-.222-.4-.32-.555a5.414,5.414,0,0,0,.5-.807q.236-.461.445-.98t.367-1.058Q598.267,72.149,598.372,71.646Zm-1.32-.807h3.636V72h-3.636Zm1.331-2.169h1.163v9.839h-1.163Zm1.121,3.8q.094.115.283.393l.409.6q.22.325.4.608c.123.189.207.322.257.4l-.681.933q-.094-.24-.251-.566t-.341-.676c-.123-.234-.239-.453-.351-.655s-.206-.37-.283-.5Zm4.82.807,1.268.251a9.323,9.323,0,0,1-.959,2.106,6.885,6.885,0,0,1-1.5,1.713,7.331,7.331,0,0,1-2.169,1.2,2.773,2.773,0,0,0-.178-.335c-.076-.126-.155-.248-.236-.367s-.155-.22-.225-.3a6.272,6.272,0,0,0,1.949-1.016,5.585,5.585,0,0,0,1.315-1.472A6.251,6.251,0,0,0,604.323,73.28Zm-2.295-1.9,1.132.472a8.591,8.591,0,0,1-.828,1.315,6.535,6.535,0,0,1-1,1.064,3.238,3.238,0,0,0-.4-.414c-.175-.157-.328-.288-.461-.393a4.668,4.668,0,0,0,.885-.927A6.225,6.225,0,0,0,602.029,71.384Zm-1.216-1.247h5.815V71.29h-5.815Zm1.991,3.206a7.5,7.5,0,0,0,.917,1.724,6.531,6.531,0,0,0,1.357,1.4,6.342,6.342,0,0,0,1.771.948c-.091.091-.194.2-.309.335s-.223.269-.325.409a3.836,3.836,0,0,0-.246.377,6.461,6.461,0,0,1-1.844-1.147,7.752,7.752,0,0,1-1.4-1.666,10.714,10.714,0,0,1-1.006-2.08l1.09-.3Zm.272-4.673h1.236v1.98h-1.236Zm1.132,3.227.974-.555q.314.335.634.723t.587.77a4.419,4.419,0,0,1,.414.707l-1.058.608a4.172,4.172,0,0,0-.377-.7c-.168-.258-.354-.526-.561-.8S604.41,72.12,604.208,71.9Z" transform="translate(-534.266 -68.618)"/>
          </g>
        </g>
      </g>
    </g>
    <g id="Group_305" data-name="Group 305" transform="translate(23053 2772.766)">
      <path id="Path_596" data-name="Path 596" d="M562.141,372.2s7.74-4.816,10.873-4.609c0,0,3.9-.14,1.662,5.455,0,0-4.9,11.9-7.79,12.426l-1.757.721s1.109.3.67,1.291a1.483,1.483,0,0,1-.953,1.087s.343.8.09.784a1.321,1.321,0,0,0-1-.393s-1.981,1.28-2.528.867l-1.568-1.154-.863-.432,1.359-14.4,1.53-.1Z" transform="translate(-23588.848 -3128.08)" fill="#f6f8b2"/>
      <path id="Path_596_-_アウトライン" data-name="Path 596 - アウトライン" d="M572.439,367.068c.071,0,.14,0,.207.006h.022a2.526,2.526,0,0,1,2.038,1.017c.664.98.575,2.542-.263,4.643h0c-.012.03-1.246,3.016-2.817,6.027a34.832,34.832,0,0,1-2.554,4.265,10.182,10.182,0,0,1-1.292,1.5,2.691,2.691,0,0,1-1.222.719l-1.42.583a1.122,1.122,0,0,1,.457.47,1.011,1.011,0,0,1-.025.863,1.657,1.657,0,0,1-.9,1.131c.02.054.042.118.063.185.087.281.095.453.026.557a.222.222,0,0,1-.189.1h-.016a.149.149,0,0,1-.1-.044,1.291,1.291,0,0,0-.759-.362.6.6,0,0,0-.083.006,6.14,6.14,0,0,1-2.28.956.637.637,0,0,1-.391-.112l-1.557-1.146-.852-.427a.149.149,0,0,1-.082-.147l1.359-14.4a.149.149,0,0,1,.139-.135l1.414-.093.257-1.429a.149.149,0,0,1,.068-.1c.019-.012,1.886-1.17,4.126-2.314a35.071,35.071,0,0,1,3.531-1.593A9.48,9.48,0,0,1,572.439,367.068Zm.2.3h-.01c-.062,0-.127-.006-.194-.006-1.65,0-4.438,1.246-6.487,2.291-2.013,1.027-3.721,2.066-4.048,2.267l-.265,1.478a.149.149,0,0,1-.137.122l-1.4.092-1.338,14.172.772.387.022.013,1.568,1.154h0a.354.354,0,0,0,.212.052,6.245,6.245,0,0,0,2.145-.925.149.149,0,0,1,.053-.021.894.894,0,0,1,.165-.015,1.4,1.4,0,0,1,.793.3,2.78,2.78,0,0,0-.156-.471.149.149,0,0,1,.1-.2,1.343,1.343,0,0,0,.846-.973.157.157,0,0,1,.01-.03.736.736,0,0,0,.035-.626,1.055,1.055,0,0,0-.608-.461.149.149,0,0,1-.017-.281l1.757-.721a.149.149,0,0,1,.03-.009c.791-.144,2.278-1.36,4.872-6.331,1.558-2.986,2.783-5.947,2.806-6a8.3,8.3,0,0,0,.68-2.819,2.628,2.628,0,0,0-.387-1.545,1.953,1.953,0,0,0-1.044-.76,2.533,2.533,0,0,0-.747-.126h-.025Z" transform="translate(-23588.477 -3127.708)"/>
      <path id="Path_597" data-name="Path 597" d="M570.121,389.629l1.558-.575c2.374-.678,7.363-11.716,7.363-11.716,1.93-4.641-1.076-4.975-1.076-4.975-2.887-.5-9.854,3.961-9.854,3.961l-.937,2.177-1.407.171-1.049,12.386Z" transform="translate(-23593.816 -3132.177)" fill="#0c3d1b"/>
      <path id="Path_597_-_アウトライン" data-name="Path 597 - アウトライン" d="M564.346,390.834a.149.149,0,0,1-.148-.162l1.049-12.386a.149.149,0,0,1,.131-.135l1.322-.16.9-2.1a.149.149,0,0,1,.057-.067c.016-.01,1.59-1.015,3.525-2.007a28.135,28.135,0,0,1,3.088-1.382,8.7,8.7,0,0,1,2.828-.634,3.061,3.061,0,0,1,.515.041,2.147,2.147,0,0,1,1.5,1.018,2.856,2.856,0,0,1,.345,1.569,7.64,7.64,0,0,1-.655,2.592l0,0c-.012.028-1.267,2.8-2.8,5.614a40.747,40.747,0,0,1-2.429,4.011c-.916,1.292-1.645,2-2.227,2.172l-1.553.573-.013,0-5.4,1.428A.148.148,0,0,1,564.346,390.834Zm1.188-12.4-1.021,12.054,5.192-1.372,1.552-.572.011,0a2.417,2.417,0,0,0,.933-.66,11.371,11.371,0,0,0,1.138-1.4,40.454,40.454,0,0,0,2.41-3.981c1.506-2.775,2.745-5.5,2.786-5.592a7.352,7.352,0,0,0,.632-2.486,2.567,2.567,0,0,0-.3-1.408,1.864,1.864,0,0,0-1.285-.874h-.009a2.757,2.757,0,0,0-.468-.037c-1.25,0-3.248.686-5.778,1.983-1.756.9-3.212,1.811-3.464,1.97l-.919,2.135a.149.149,0,0,1-.119.089Z" transform="translate(-23593.443 -3131.804)"/>
      <path id="Path_598" data-name="Path 598" d="M558.3,534.38l-.935,1.141-.7-.386.824-1.357Z" transform="translate(-23586.852 -3271.841)" fill="#807c88"/>
      <path id="Path_598_-_アウトライン" data-name="Path 598 - アウトライン" d="M557.118,533.256a.149.149,0,0,1,.089.03l.807.6a.149.149,0,0,1,.026.214l-.935,1.141a.149.149,0,0,1-.187.036l-.7-.386a.149.149,0,0,1-.055-.208l.824-1.357a.149.149,0,0,1,.1-.069Zm.593.778-.551-.412-.659,1.085.453.251Z" transform="translate(-23586.479 -3271.469)"/>
      <path id="Path_599" data-name="Path 599" d="M579.235,452.873a9.593,9.593,0,0,1-3.186,1.926l-.19.38a10.947,10.947,0,0,0,3.519-2.021S579.567,452.861,579.235,452.873Z" transform="translate(-23603.453 -3201.855)" fill="#807c88"/>
      <path id="Path_599_-_アウトライン" data-name="Path 599 - アウトライン" d="M578.882,452.352c.241,0,.327.141.327.273a.425.425,0,0,1-.039.169.334.334,0,0,1-.054.092h0a7.393,7.393,0,0,1-2.2,1.472c-.748.362-1.376.587-1.382.589a.149.149,0,0,1-.183-.207l.19-.38a.149.149,0,0,1,.1-.077,9.492,9.492,0,0,0,3.123-1.892.149.149,0,0,1,.1-.039Zm0,.345a.289.289,0,0,0,.013-.028c-.14.123-.5.427-.972.765q-.183.13-.361.247A5.752,5.752,0,0,0,578.886,452.7Z" transform="translate(-23603.082 -3201.483)"/>
      <path id="Path_600" data-name="Path 600" d="M457.042,372.178s-7.087-5.345-10.515-4.927c0,0-4.151.358-1.892,5.547,0,0,4.966,11.838,7.855,12.368l1.757.721s-1.109.3-.67,1.291a1.483,1.483,0,0,0,.953,1.087s-.342.8-.089.784a1.321,1.321,0,0,1,1-.393s1.981,1.28,2.528.867l1.568-1.154.863-.432-1.359-14.4-1.53-.1Z" transform="translate(-23489.355 -3127.768)" fill="#f6f8b2"/>
      <path id="Path_600_-_アウトライン" data-name="Path 600 - アウトライン" d="M446.553,366.707a8.586,8.586,0,0,1,3.135.785,27.011,27.011,0,0,1,3.329,1.711c2.068,1.228,3.723,2.472,3.739,2.484a.149.149,0,0,1,.05.067l.437,1.169,1.434.094a.149.149,0,0,1,.139.135l1.359,14.4a.149.149,0,0,1-.082.147l-.852.427-1.557,1.146a.637.637,0,0,1-.391.112,6.142,6.142,0,0,1-2.28-.956.61.61,0,0,0-.083-.006,1.262,1.262,0,0,0-.759.362.149.149,0,0,1-.1.044h-.015a.222.222,0,0,1-.189-.1c-.069-.1-.061-.277.025-.557.021-.067.043-.131.063-.185a1.657,1.657,0,0,1-.9-1.131,1.012,1.012,0,0,1-.025-.863,1.123,1.123,0,0,1,.457-.47l-1.42-.583a2.717,2.717,0,0,1-1.224-.717,10.26,10.26,0,0,1-1.3-1.494,34.972,34.972,0,0,1-2.576-4.245c-1.576-2.976-2.82-5.926-2.849-6-.807-1.853-.9-3.319-.285-4.356a2.861,2.861,0,0,1,1.434-1.175,3.391,3.391,0,0,1,.865-.223A3.486,3.486,0,0,1,446.553,366.707Zm9.989,5.192c-.247-.184-1.79-1.32-3.68-2.441a26.7,26.7,0,0,0-3.29-1.691,8.305,8.305,0,0,0-3.019-.762h0a3.186,3.186,0,0,0-.383.022h-.005a3.137,3.137,0,0,0-.793.207,2.529,2.529,0,0,0-1.28,1.049,2.826,2.826,0,0,0-.355,1.548,7.051,7.051,0,0,0,.659,2.535v0c.012.03,1.258,2.99,2.839,5.975,2.621,4.948,4.114,6.159,4.905,6.3a.151.151,0,0,1,.03.009l1.757.721a.149.149,0,0,1-.018.282,1.055,1.055,0,0,0-.608.461.737.737,0,0,0,.035.627.147.147,0,0,1,.01.031,1.344,1.344,0,0,0,.846.973.149.149,0,0,1,.1.2,2.78,2.78,0,0,0-.155.472,1.4,1.4,0,0,1,.793-.3.894.894,0,0,1,.165.015.148.148,0,0,1,.053.021,6.247,6.247,0,0,0,2.145.925.353.353,0,0,0,.212-.052h0l1.568-1.154.022-.013.772-.387-1.338-14.172-1.4-.092a.149.149,0,0,1-.13-.1Z" transform="translate(-23488.98 -3127.396)"/>
      <path id="Path_601" data-name="Path 601" d="M458.936,389.5l-1.558-.575c-2.374-.678-7.363-11.716-7.363-11.716-1.932-4.616,1.376-5.007,1.376-5.007,2.394-.422,9.5,4.088,9.5,4.088l.987,2.08,1.407.171,1.049,12.386Z" transform="translate(-23494.068 -3132.047)" fill="#f7f619"/>
      <path id="Path_601_-_アウトライン" data-name="Path 601 - アウトライン" d="M463.963,390.7a.15.15,0,0,1-.038,0l-5.4-1.427-.014,0-1.553-.573c-.582-.169-1.311-.88-2.227-2.172a40.754,40.754,0,0,1-2.429-4.011c-1.529-2.817-2.784-5.586-2.8-5.614l0,0c-.726-1.734-.813-3.094-.26-4.043a2.511,2.511,0,0,1,1.751-1.169,2.177,2.177,0,0,1,.37-.029c1.13,0,3.03.7,5.648,2.075,1.939,1.02,3.572,2.054,3.589,2.064a.149.149,0,0,1,.055.062l.952,2.006,1.326.161a.149.149,0,0,1,.131.135l1.049,12.385a.149.149,0,0,1-.148.162Zm-5.358-1.718,5.191,1.371L462.776,378.3l-1.287-.156a.149.149,0,0,1-.117-.084l-.969-2.041c-.251-.157-1.764-1.1-3.533-2.03s-4.16-2.04-5.507-2.04a1.871,1.871,0,0,0-.322.026h-.008a2.211,2.211,0,0,0-.577.178,2.071,2.071,0,0,0-.959.85,2.623,2.623,0,0,0-.313,1.406,6.783,6.783,0,0,0,.592,2.366c.039.086,1.279,2.817,2.786,5.594a40.452,40.452,0,0,0,2.41,3.98,11.359,11.359,0,0,0,1.138,1.4,2.417,2.417,0,0,0,.933.659l.011,0Z" transform="translate(-23493.691 -3131.675)"/>
      <path id="Path_602" data-name="Path 602" d="M578.242,520.294a.577.577,0,1,0-.586.671A.637.637,0,0,0,578.242,520.294Z" transform="translate(-23604.533 -3259.641)"/>
      <path id="Path_603" data-name="Path 603" d="M579.537,500.508a.8.8,0,1,0-1.019.689.878.878,0,0,0,1.019-.689Z" transform="translate(-23605.285 -3242.154)"/>
      <path id="Path_604" data-name="Path 604" d="M578.989,473.164a1.125,1.125,0,1,0-.68,1.6A1.242,1.242,0,0,0,578.989,473.164Z" transform="translate(-23604.271 -3218.53)"/>
      <path id="Path_605" data-name="Path 605" d="M525.81,459.379a9.6,9.6,0,0,1-3.186-1.926c-.333-.012-.143.285-.143.285a9.693,9.693,0,0,0,3.166,1.945S526.019,459.7,525.81,459.379Z" transform="translate(-23557.232 -3205.817)" fill="#807c88"/>
      <path id="Path_605_-_アウトライン" data-name="Path 605 - アウトライン" d="M525.285,459.461h-.016a.157.157,0,0,1-.046-.009,9.8,9.8,0,0,1-3.215-1.975.147.147,0,0,1-.025-.029.4.4,0,0,1-.046-.372.3.3,0,0,1,.295-.143h.024a.149.149,0,0,1,.1.039,9.509,9.509,0,0,0,3.123,1.892.149.149,0,0,1,.086.063.358.358,0,0,1,.057.375A.375.375,0,0,1,525.285,459.461Zm-3.058-2.189a9.5,9.5,0,0,0,3.075,1.89.24.24,0,0,0,.046-.007.207.207,0,0,0-.009-.02,7.312,7.312,0,0,1-2.151-1.12c-.475-.338-.831-.641-.972-.765Z" transform="translate(-23556.861 -3205.445)"/>
      <path id="Path_606" data-name="Path 606" d="M544.694,450.458a4.265,4.265,0,0,0,.4,2.679,6.018,6.018,0,0,1,.636,4.17c-.251,1.741.084,2.964,1.474,3.265s2.5-1.549,2.57-3.307a16.356,16.356,0,0,1,.477-4.446,4.327,4.327,0,0,0-.284-3.651C549.383,448.331,544.778,446.657,544.694,450.458Z" transform="translate(-23576.439 -3197.701)" fill="url(#radial-gradient)"/>
      <path id="Path_607" data-name="Path 607" d="M595.082,409.513s.777.824-.523.792a2.5,2.5,0,0,1-1.838-.864s-.595-.642.048-.88a.657.657,0,0,1,.475,0s-1.141-2.068.4-2.092h.119s-.4-3.875,1.069-3.423c0,0,1.593.261.047,3.352,0,0,1.213-2.567,1.617-2.52,0,0,1.522-.143.666,1.117a5.649,5.649,0,0,1-1.332,1.735s1.236.452.761,1.093c0,0,.071.5-.238.595C596.358,408.419,596.556,409.655,595.082,409.513Z" transform="translate(-23617.822 -3158.721)" fill="#f9f97d"/>
      <path id="Path_607_-_アウトライン" data-name="Path 607 - アウトライン" d="M594.259,410.083h-.075a3.3,3.3,0,0,1-.751-.126,2.09,2.09,0,0,1-1.2-.8.942.942,0,0,1-.268-.733.545.545,0,0,1,.381-.378.8.8,0,0,1,.268-.054,4.308,4.308,0,0,1-.163-.422,1.527,1.527,0,0,1-.012-1.223.886.886,0,0,1,.8-.4c-.018-.235-.047-.695-.034-1.206a3.267,3.267,0,0,1,.492-2,.715.715,0,0,1,.547-.253.921.921,0,0,1,.263.041,1.026,1.026,0,0,1,.671.536,1.863,1.863,0,0,1,.133,1.152c.46-.753.662-.86.812-.86h.01c.022,0,.069,0,.132,0,.257,0,.714.048.883.368.129.243.055.572-.219.979a6.3,6.3,0,0,1-1.174,1.622,1.333,1.333,0,0,1,.709.674.584.584,0,0,1-.08.5.705.705,0,0,1-.235.646A1.061,1.061,0,0,1,595,409.3a.544.544,0,0,1,.053.464c-.093.214-.353.319-.8.319Zm-1.624-1.789a.506.506,0,0,0-.184.034h0c-.171.063-.19.142-.2.168-.036.149.123.381.206.471a.147.147,0,0,1,.015.019,2.365,2.365,0,0,0,1.717.8h.068c.431,0,.51-.106.524-.139.044-.1-.1-.313-.182-.4a.149.149,0,0,1,.123-.25c.074.007.145.011.212.011a.786.786,0,0,0,.9-.935.149.149,0,0,1,.1-.164c.156-.048.145-.352.134-.431a.149.149,0,0,1,.028-.11.3.3,0,0,0,.068-.282c-.084-.279-.59-.52-.76-.583a.149.149,0,0,1-.034-.262,5.535,5.535,0,0,0,1.284-1.68l.01-.017c.206-.3.28-.545.208-.68s-.3-.209-.62-.209c-.07,0-.117,0-.117,0h-.022c-.03.01-.2.1-.651.866-.283.481-.562,1.034-.7,1.322-.038.081-.079.165-.121.249a.149.149,0,0,1-.268-.13s.046-.1.12-.248c.671-1.432.6-2.152.414-2.5a.722.722,0,0,0-.473-.39l-.018,0a.631.631,0,0,0-.183-.03.423.423,0,0,0-.326.154c-.512.568-.44,2.46-.369,3.141a.149.149,0,0,1-.148.164h-.118a.624.624,0,0,0-.583.254c-.246.423.139,1.311.308,1.617a.149.149,0,0,1-.184.211A.506.506,0,0,0,592.635,408.295Z" transform="translate(-23617.451 -3158.349)"/>
      <path id="Path_608" data-name="Path 608" d="M598.617,430.361a2.026,2.026,0,0,1-.763-.191l-.018-.009-.523-.309a.149.149,0,1,1,.152-.256l.514.3c.555.234.78.166.865.1a.315.315,0,0,0,.107-.256.151.151,0,0,1,0-.05c.027-.105-.122-.337-.619-.672a7.194,7.194,0,0,0-.764-.441.149.149,0,1,1,.13-.268,7.37,7.37,0,0,1,.8.461c.557.375.8.693.749.971a.606.606,0,0,1-.23.5A.67.67,0,0,1,598.617,430.361Z" transform="translate(-23622.027 -3180.68)"/>
      <path id="Path_609" data-name="Path 609" d="M610.51,440.623a.6.6,0,0,1-.439-.164l-.012-.013a.629.629,0,0,1-.126-.285.409.409,0,0,1-.436-.189.149.149,0,0,1,.263-.139c.031.059.193.029.268,0a.149.149,0,0,1,.2.166.331.331,0,0,0,.06.255c.191.176.644-.018.789-.1a.149.149,0,1,1,.148.259,1.953,1.953,0,0,1-.406.166A1.168,1.168,0,0,1,610.51,440.623Z" transform="translate(-23632.617 -3190.584)"/>
      <path id="Path_610" data-name="Path 610" d="M609.454,431.1h-.006a.149.149,0,0,1-.143-.155c.028-.71,1.1-.872,1.15-.879a.149.149,0,0,1,.042.295c-.015,0-.876.141-.894.6A.149.149,0,0,1,609.454,431.1Z" transform="translate(-23632.465 -3182.203)"/>
      <path id="Path_612" data-name="Path 612" d="M553.224,508.935l-.05.7a4.6,4.6,0,0,0,4-.067v-.6C554.707,510.071,553.24,508.945,553.224,508.935Z" transform="translate(-23583.83 -3250.352)" fill="#4d7a2b"/>
      <path id="Path_613" data-name="Path 613" d="M552.428,494.647l.126.653a4.819,4.819,0,0,0,4.069-.2l.058-.678a5.943,5.943,0,0,1-4.253.226Z" transform="translate(-23583.184 -3237.796)" fill="#4d7a2b"/>
      <path id="Path_614" data-name="Path 614" d="M546.1,476.344l.352.954a6.515,6.515,0,0,0,5.073-.276l.238-1.059C549.265,477.575,546.116,476.354,546.1,476.344Z" transform="translate(-23577.711 -3221.829)" fill="#4d7a2b"/>
      <path id="Path_615" data-name="Path 615" d="M552.356,521.18l-.021.537a3.5,3.5,0,0,0,3.892.145l.1-.578A3.581,3.581,0,0,1,552.356,521.18Z" transform="translate(-23583.104 -3260.944)" fill="#4d7a2b"/>
      <path id="Path_616" data-name="Path 616" d="M546.621,447.55h0a5.261,5.261,0,0,1,1.908.4,2.851,2.851,0,0,1,1.189.765,3.674,3.674,0,0,1,.564,1.76,4.624,4.624,0,0,1-.263,2.03,13.777,13.777,0,0,0-.448,3.857q-.01.268-.02.54a4.827,4.827,0,0,1-.714,2.356,2.107,2.107,0,0,1-1.706,1.127,1.565,1.565,0,0,1-.33-.036,1.907,1.907,0,0,1-1.459-1.183,4.4,4.4,0,0,1-.131-2.25,7.434,7.434,0,0,0,.04-2.217,5.48,5.48,0,0,0-.659-1.86l0,0a4.413,4.413,0,0,1-.418-2.761,2.584,2.584,0,0,1,.774-1.975A2.468,2.468,0,0,1,546.621,447.55Zm.511,12.533a1.826,1.826,0,0,0,1.455-.99,4.521,4.521,0,0,0,.668-2.206q.01-.271.02-.539a13.9,13.9,0,0,1,.468-3.955,4.319,4.319,0,0,0,.244-1.9,3.425,3.425,0,0,0-.511-1.614,2.676,2.676,0,0,0-1.056-.659,4.956,4.956,0,0,0-1.8-.375h0a2.182,2.182,0,0,0-1.479.473,2.309,2.309,0,0,0-.672,1.769.148.148,0,0,1,0,.023,4.142,4.142,0,0,0,.387,2.583,6.174,6.174,0,0,1,.652,4.261,4.123,4.123,0,0,0,.112,2.1,1.6,1.6,0,0,0,1.245,1A1.264,1.264,0,0,0,547.132,460.083Z" transform="translate(-23576.066 -3197.329)"/>
      <path id="Path_617" data-name="Path 617" d="M533.126,453.418s.265.051.234.239c0,0,.235-.153.384.032,0,0-.431.087-.531.356,0,0,.341.267-.733.894l-.385.23a2.758,2.758,0,0,1-.819,1.428l-.266.21s-.859-.871-1.289-.914c0,0-.922-.232-.987-.429,0,0-.987-.232-.755-.5l0-.226s-.029-.289-.158-.174a.676.676,0,0,1-.813.432s-.442.068-.473.125c0,0-.052-.5.236-.61,0,0-1.383-.154-1.467-.339a1.368,1.368,0,0,1,1.151-.674s.7-.067.83.145a.953.953,0,0,1,.526-.014S531.134,455.089,533.126,453.418Z" transform="translate(-23559.719 -3202.327)" fill="#dc4620"/>
      <path id="Path_617_-_アウトライン" data-name="Path 617 - アウトライン" d="M532.754,452.9l.028,0a.475.475,0,0,1,.308.187.462.462,0,0,1,.094-.01.38.38,0,0,1,.3.147.149.149,0,0,1-.086.24.772.772,0,0,0-.387.2.341.341,0,0,1,.026.158c-.018.26-.3.545-.858.872l-.33.2a2.788,2.788,0,0,1-.858,1.451l-.263.208a.149.149,0,0,1-.2-.012,3.44,3.44,0,0,0-1.2-.871l-.021,0c-.01,0-.24-.061-.482-.144a1.273,1.273,0,0,1-.565-.3c-.071-.019-.194-.054-.322-.1-.3-.111-.464-.228-.509-.367a.255.255,0,0,1,.022-.209v-.067a.824.824,0,0,1-.829.3,2.325,2.325,0,0,0-.364.082.149.149,0,0,1-.25-.093,1.033,1.033,0,0,1,.074-.514c-.121-.017-.268-.038-.417-.064-.729-.126-.832-.229-.875-.324a.149.149,0,0,1,.006-.136,1.526,1.526,0,0,1,1.22-.75h.058c.032,0,.127-.01.245-.01a1.076,1.076,0,0,1,.634.138,1.107,1.107,0,0,1,.518.008h0l.022.008a7.757,7.757,0,0,0,2.778.579,3.6,3.6,0,0,0,2.383-.766A.149.149,0,0,1,532.754,452.9Zm.123.487a.149.149,0,0,1-.036-.124c0-.017-.025-.035-.055-.048a3.919,3.919,0,0,1-2.51.784,8.092,8.092,0,0,1-2.886-.6.809.809,0,0,0-.433.014.149.149,0,0,1-.173-.066c-.014-.021-.13-.082-.46-.082-.127,0-.227.009-.228.009h-.074a1.166,1.166,0,0,0-.879.484,3.939,3.939,0,0,0,.634.143c.328.055.636.089.639.089a.149.149,0,0,1,.035.288c-.084.031-.12.145-.135.253.076-.018.173-.037.3-.056a.15.15,0,0,1,.061,0,.526.526,0,0,0,.634-.337.149.149,0,0,1,.042-.062.231.231,0,0,1,.155-.065c.135,0,.229.125.25.335,0,0,0,.009,0,.013l0,.226a.149.149,0,0,1-.026.086.9.9,0,0,0,.329.171,3.45,3.45,0,0,0,.337.1.149.149,0,0,1,.1.09,2.74,2.74,0,0,0,.876.338,3.334,3.334,0,0,1,1.273.862l.162-.128,0,0a2.615,2.615,0,0,0,.761-1.34.149.149,0,0,1,.069-.1l.385-.23c.615-.359.7-.566.71-.621a.054.054,0,0,0,0-.035.149.149,0,0,1-.039-.162A.565.565,0,0,1,532.877,453.384Z" transform="translate(-23559.348 -3201.955)"/>
      <path id="Path_618" data-name="Path 618" d="M540.078,455.737a.2.2,0,0,1-.052-.007c-.119-.033-.213-.172-.311-.463a.911.911,0,0,1-.151-.178.33.33,0,0,1-.2-.456.149.149,0,1,1,.269.128.032.032,0,0,0,0,.032.033.033,0,0,0,.03.014.149.149,0,0,1,.162.145,1.129,1.129,0,0,0,.116.124.148.148,0,0,1,.04.063,1.186,1.186,0,0,0,.127.3.149.149,0,0,1,.08.26A.175.175,0,0,1,540.078,455.737Z" transform="translate(-23571.939 -3203.383)"/>
      <path id="Path_619" data-name="Path 619" d="M535.965,458.408l-.28-.1c.167-.454.468-.531.635-.507a1.414,1.414,0,0,1,.3-.021l-.01.3a1.115,1.115,0,0,0-.258.021l-.04.008-.028-.01C536.253,458.09,536.087,458.077,535.965,458.408Z" transform="translate(-23568.775 -3206.175)"/>
      <path id="Path_620" data-name="Path 620" d="M530.735,457.061a.339.339,0,0,1-.133-.027.5.5,0,0,1-.25-.3.206.206,0,0,1,.031-.2c.08-.1.25-.141.59-.134.206,0,.4.025.4.026a.149.149,0,0,1-.033.3,3.052,3.052,0,0,0-.673-.01.127.127,0,0,0,.047.045c.006,0,.024.01.067-.012a.149.149,0,1,1,.134.266A.408.408,0,0,1,530.735,457.061Z" transform="translate(-23564.154 -3204.987)"/>
      <path id="Path_621" data-name="Path 621" d="M559.182,467a1.092,1.092,0,0,1-.424-.086.149.149,0,0,1,.115-.275,1.092,1.092,0,0,0,1.117-.325.148.148,0,0,1,.064-.042,3.324,3.324,0,0,0,.866-.354.149.149,0,0,1,.247.164c-.022.041-.088.166-.985.461a1.772,1.772,0,0,1-.392.291A1.275,1.275,0,0,1,559.182,467Z" transform="translate(-23588.66 -3213.175)"/>
      <path id="Path_622" data-name="Path 622" d="M545.634,461.976a3.671,3.671,0,0,1-1.342-.441.149.149,0,0,1,.141-.263h0a2.7,2.7,0,0,0,1.308.394l.028,0c.028,0,.058-.006.086-.01a.149.149,0,0,1,.226-.14c.143.087.143.189.13.241s-.042.175-.407.205A.728.728,0,0,1,545.634,461.976Z" transform="translate(-23576.156 -3209.185)"/>
      <path id="Path_623" data-name="Path 623" d="M535.63,461.237a.149.149,0,0,1-.142-.1.234.234,0,0,1,.02-.187.736.736,0,0,1,.394-.271,2.813,2.813,0,0,1,.27-.091.149.149,0,1,1,.078.287,1.418,1.418,0,0,0-.471.206.149.149,0,0,1-.149.159Z" transform="translate(-23568.6 -3208.599)"/>
      <path id="Path_624" data-name="Path 624" d="M524.07,392.685a5.164,5.164,0,1,0,5.155-4.861A5.015,5.015,0,0,0,524.07,392.685Z" transform="translate(-23558.654 -3145.585)" fill="url(#radial-gradient-2)"/>
      <path id="Path_624_-_アウトライン" data-name="Path 624 - アウトライン" d="M528.853,387.3a5.539,5.539,0,0,1,2.062.393,5.315,5.315,0,0,1,1.686,1.072,4.989,4.989,0,0,1,1.139,1.592,4.768,4.768,0,0,1,0,3.905,4.989,4.989,0,0,1-1.139,1.592,5.315,5.315,0,0,1-1.686,1.072,5.609,5.609,0,0,1-4.124,0,5.314,5.314,0,0,1-1.686-1.072,4.989,4.989,0,0,1-1.138-1.593,4.769,4.769,0,0,1,0-3.906,4.989,4.989,0,0,1,1.138-1.592,5.315,5.315,0,0,1,1.686-1.072A5.54,5.54,0,0,1,528.853,387.3Zm0,9.722a5.134,5.134,0,0,0,3.543-1.384,4.517,4.517,0,0,0,0-6.657,5.229,5.229,0,0,0-7.086,0,4.518,4.518,0,0,0,0,6.657A5.134,5.134,0,0,0,528.853,397.025Z" transform="translate(-23558.281 -3145.213)"/>
      <path id="Path_625" data-name="Path 625" d="M541.583,374.808s-1.612-1.217-1.742-1.71a.668.668,0,0,0-.2.757s-1.052-.625-.855-1.25c0,0-.789.427-.329,1.546,0,0-.592-.263-.592-.789a.893.893,0,0,0,.033.888s-.46-.132-.494-.329a.568.568,0,0,0,.065.592.833.833,0,0,0-.723.2,1.6,1.6,0,0,1,.362.033,1.24,1.24,0,0,0-.312.748,1.553,1.553,0,0,0,.838,1.521,2.2,2.2,0,0,1-.526-1.118s.559.789.954.921c0,0-.493-.494-.46-.724,0,0,.494,1.053,1.052,1.152a1.423,1.423,0,0,0,.724.065s-.823-.3-.888-.822c0,0,1.25,1.02,1.612.954a1.936,1.936,0,0,1-.822-1.151s.822.987,1.282,1.019a1.832,1.832,0,0,1-.494-1.019,1.517,1.517,0,0,0,.987.625s-.394-.427-.394-.691c0,0,.033.691.987.921a4.63,4.63,0,0,1-.428-1.612,1.663,1.663,0,0,1,.493,1.019S542.437,375.859,541.583,374.808Z" transform="translate(-23569.619 -3132.419)" fill="#f87f11"/>
      <path id="Path_625_-_アウトライン" data-name="Path 625 - アウトライン" d="M538.417,372.083a.149.149,0,0,1,.142.194c-.1.31.234.664.522.891a.815.815,0,0,1,.294-.557.149.149,0,0,1,.239.077c.021.079.148.333.874.966.41.358.81.66.814.663a.148.148,0,0,1,.026.025,1.662,1.662,0,0,1,.423,1.359,1.238,1.238,0,0,1-.3.578l-.016.016a.149.149,0,0,1-.088.034h-.014a.148.148,0,0,1-.089-.035c.057.154.115.3.167.419a.149.149,0,0,1-.172.2,1.806,1.806,0,0,1-.552-.226.152.152,0,0,1-.031,0,1.67,1.67,0,0,1-.649-.261,1.683,1.683,0,0,0,.288.405.149.149,0,0,1-.118.252.827.827,0,0,1-.341-.118.149.149,0,0,1-.082.248.354.354,0,0,1-.063.005,1.315,1.315,0,0,1-.56-.207.149.149,0,0,1-.1.07,1.573,1.573,0,0,1-.788-.068,1.215,1.215,0,0,1-.647-.449,1.582,1.582,0,0,1-.441-.321,2.047,2.047,0,0,0,.218.3.149.149,0,0,1-.179.231,1.7,1.7,0,0,1-.919-1.665,1.4,1.4,0,0,1,.192-.62h-.089a.149.149,0,0,1-.1-.26.98.98,0,0,1,.578-.249.714.714,0,0,1,.045-.493.149.149,0,0,1,.282.039c.005.019.035.046.081.076a1.045,1.045,0,0,1,.1-.68.149.149,0,0,1,.281.069.61.61,0,0,0,.177.414,1.306,1.306,0,0,1,.129-.89,1.117,1.117,0,0,1,.4-.411A.149.149,0,0,1,538.417,372.083Zm.855,1.548a.149.149,0,0,1-.076-.021,3.108,3.108,0,0,1-.53-.412,1.418,1.418,0,0,1-.4-.627,1.122,1.122,0,0,0-.04,1.151.149.149,0,0,1-.2.193,1.412,1.412,0,0,1-.47-.362.742.742,0,0,0,.1.246.149.149,0,0,1-.167.222,1.53,1.53,0,0,1-.351-.148.419.419,0,0,0,.081.176.149.149,0,0,1-.147.238.689.689,0,0,0-.216-.009.149.149,0,0,1,0,.193,1.1,1.1,0,0,0-.275.658s0,0,0,0a1.414,1.414,0,0,0,.016.374.149.149,0,0,1,.27-.071c.048.067.127.172.222.286,0-.008,0-.016,0-.024a.149.149,0,0,1,.282-.042,3.809,3.809,0,0,0,.418.669l.013.013a.148.148,0,0,1,.024.032.945.945,0,0,0,.489.355l.025.007.024.008a.962.962,0,0,1-.387-.606.149.149,0,0,1,.242-.134,10.074,10.074,0,0,0,.85.62,2.084,2.084,0,0,1-.3-.666.149.149,0,0,1,.259-.132,5.6,5.6,0,0,0,.7.7,1.976,1.976,0,0,1-.176-.587.149.149,0,0,1,.27-.106,1.372,1.372,0,0,0,.438.4,1.087,1.087,0,0,1-.082-.2.563.563,0,0,1-.034-.183.149.149,0,0,1,.3-.007h0a.542.542,0,0,0,.02.1,1.454,1.454,0,0,0,.218.359,1.133,1.133,0,0,0,.341.228c-.041-.106-.088-.233-.133-.367a2.175,2.175,0,0,1-.18-1.038.149.149,0,0,1,.25-.069,2.256,2.256,0,0,1,.466.712.954.954,0,0,0,.036-.127,1.318,1.318,0,0,0-.352-1.1c-.077-.059-.442-.34-.815-.666a5.028,5.028,0,0,1-.854-.883.518.518,0,0,0-.027.434.149.149,0,0,1-.139.2Zm1.925,2.518a.968.968,0,0,0-.146-.476C541.088,375.822,541.14,375.987,541.2,376.149Z" transform="translate(-23569.248 -3132.047)"/>
      <path id="Path_626" data-name="Path 626" d="M543.618,413.261a1.355,1.355,0,0,0,.912,1.645c.622.089,1.222-.5,1.34-1.321a1.356,1.356,0,0,0-.913-1.645C544.335,411.851,543.736,412.442,543.618,413.261Z" transform="translate(-23575.547 -3166.439)" fill="#fff"/>
      <path id="Path_626_-_アウトライン" data-name="Path 626 - アウトライン" d="M544.46,411.41h0a1.033,1.033,0,0,1,.146.01,1.159,1.159,0,0,1,.843.624,1.905,1.905,0,0,1,.2,1.189,1.553,1.553,0,0,1-1.362,1.457,1.034,1.034,0,0,1-.146-.01,1.159,1.159,0,0,1-.843-.624,1.9,1.9,0,0,1-.2-1.189A1.553,1.553,0,0,1,544.46,411.41Zm-.177,2.983a.929.929,0,0,0,.672-.33,1.637,1.637,0,0,0,.395-.872,1.606,1.606,0,0,0-.162-1,.869.869,0,0,0-.625-.474.73.73,0,0,0-.1-.007h0a.929.929,0,0,0-.672.33,1.637,1.637,0,0,0-.395.872,1.606,1.606,0,0,0,.162,1,.869.869,0,0,0,.625.474A.734.734,0,0,0,544.284,414.394Z" transform="translate(-23575.174 -3166.067)"/>
      <path id="Path_627" data-name="Path 627" d="M549.073,416.149c-.114.413,0,.8.244.874s.545-.21.659-.624.005-.8-.244-.874S549.188,415.736,549.073,416.149Z" transform="translate(-23580.242 -3169.539)"/>
      <path id="Path_628" data-name="Path 628" d="M565.34,411.92a1.355,1.355,0,0,1-.746,1.727c-.61.15-1.265-.377-1.463-1.182a1.355,1.355,0,0,1,.746-1.727C564.486,410.587,565.142,411.116,565.34,411.92Z" transform="translate(-23592.393 -3165.384)" fill="#fff"/>
      <path id="Path_628_-_アウトライン" data-name="Path 628 - アウトライン" d="M563.714,410.191a1.6,1.6,0,0,1,1.4,1.321,1.9,1.9,0,0,1-.078,1.2,1.16,1.16,0,0,1-.777.7,1.033,1.033,0,0,1-.247.03,1.6,1.6,0,0,1-1.4-1.32,1.9,1.9,0,0,1,.078-1.2,1.16,1.16,0,0,1,.777-.7A1.028,1.028,0,0,1,563.714,410.191Zm.3,2.96a.734.734,0,0,0,.175-.021.87.87,0,0,0,.575-.533,1.6,1.6,0,0,0,.062-1.013,1.655,1.655,0,0,0-.446-.8.979.979,0,0,0-.662-.3.732.732,0,0,0-.175.021.87.87,0,0,0-.575.533,1.6,1.6,0,0,0-.062,1.014A1.3,1.3,0,0,0,564.01,413.151Z" transform="translate(-23592.021 -3165.012)"/>
      <path id="Path_629" data-name="Path 629" d="M567.994,414.969c.154.4.084.8-.157.894s-.563-.156-.718-.556-.084-.8.157-.894S567.839,414.57,567.994,414.969Z" transform="translate(-23595.822 -3168.569)"/>
      <path id="Path_630" data-name="Path 630" d="M539.579,436.105s-2.663-.047-3.448-1.117a3.907,3.907,0,0,0,6.894,0C542.241,436.058,539.579,436.105,539.579,436.105Z" transform="translate(-23569.086 -3186.384)" fill="#fff"/>
      <path id="Path_630_-_アウトライン" data-name="Path 630 - アウトライン" d="M539.25,436.985a4.048,4.048,0,0,1-3.579-2.147l.252-.158a3.26,3.26,0,0,0,1.922.9,6.43,6.43,0,0,0,2.811,0,3.258,3.258,0,0,0,1.921-.9l.252.158A4.048,4.048,0,0,1,539.25,436.985Zm-2.771-1.516a3.76,3.76,0,0,0,5.541,0,7.838,7.838,0,0,1-2.767.565h-.005A7.837,7.837,0,0,1,536.479,435.469Z" transform="translate(-23568.758 -3186.164)"/>
      <path id="Path_631" data-name="Path 631" d="M586.411,434.074h-.3c0-.149-.185-.182-.206-.186l.043-.295A.509.509,0,0,1,586.411,434.074Z" transform="translate(-23612.158 -3185.255)"/>
      <path id="Path_633" data-name="Path 633" d="M497.791,414.092s-.777.824.523.792a2.5,2.5,0,0,0,1.839-.864s.595-.642-.048-.88a.659.659,0,0,0-.475,0s1.142-2.068-.4-2.092h-.118s.4-3.875-1.069-3.423c0,0-1.593.261-.048,3.352,0,0-1.346-2.769-1.751-2.722,0,0-1.387.058-.532,1.32a5.65,5.65,0,0,0,1.331,1.735s-1.236.452-.761,1.093c0,0-.071.5.238.595C496.515,413,496.317,414.234,497.791,414.092Z" transform="translate(-23533.877 -3162.682)" fill="#f9f97d"/>
      <path id="Path_633_-_アウトライン" data-name="Path 633 - アウトライン" d="M497.87,414.662c-.444,0-.7-.1-.8-.319a.544.544,0,0,1,.053-.464,1.207,1.207,0,0,1-.832-.305,1.037,1.037,0,0,1-.292-.592,1.4,1.4,0,0,1-.015-.265h0a.705.705,0,0,1-.235-.645.585.585,0,0,1-.08-.5,1.333,1.333,0,0,1,.708-.674,6.3,6.3,0,0,1-1.174-1.623,1.085,1.085,0,0,1-.23-1.081,1.1,1.1,0,0,1,.88-.462h.022c.16,0,.387.134.95,1.08a1.883,1.883,0,0,1,.127-1.162,1.028,1.028,0,0,1,.675-.543.922.922,0,0,1,.263-.041.714.714,0,0,1,.547.253,3.268,3.268,0,0,1,.492,2c.013.511-.015.971-.034,1.206a.886.886,0,0,1,.795.4,1.527,1.527,0,0,1-.012,1.223,4.326,4.326,0,0,1-.163.422.8.8,0,0,1,.268.054.546.546,0,0,1,.381.378.941.941,0,0,1-.269.732,2.092,2.092,0,0,1-1.2.8,3.3,3.3,0,0,1-.752.126Zm-.451-1.091a.149.149,0,0,1,.108.251c-.1.1-.224.306-.182.4.014.033.094.139.524.139h.068a2.367,2.367,0,0,0,1.718-.8.151.151,0,0,1,.015-.019c.065-.071.244-.311.206-.471-.006-.026-.025-.1-.2-.168h0a.512.512,0,0,0-.368,0,.149.149,0,0,1-.184-.211c.169-.306.553-1.194.308-1.617a.625.625,0,0,0-.583-.255h-.117a.149.149,0,0,1-.148-.164c.071-.681.143-2.574-.369-3.141a.423.423,0,0,0-.326-.154.629.629,0,0,0-.183.03l-.02,0a.724.724,0,0,0-.475.4c-.186.367-.253,1.121.481,2.631l.056.113a.149.149,0,0,1-.267.132l-.056-.114c-.12-.241-.436-.867-.768-1.44-.555-.958-.753-1.072-.787-1.085-.137.006-.517.073-.631.3s.056.551.217.787l.01.017a5.535,5.535,0,0,0,1.284,1.68.149.149,0,0,1-.034.262c-.183.067-.677.3-.76.583a.3.3,0,0,0,.068.282.149.149,0,0,1,.028.11s-.043.376.134.431a.149.149,0,0,1,.105.141.147.147,0,0,1,0,.028.784.784,0,0,0,.9.929h0c.067,0,.138,0,.212-.011Z" transform="translate(-23533.506 -3162.311)"/>
      <path id="Path_634" data-name="Path 634" d="M514.379,434.942a.67.67,0,0,1-.4-.115.606.606,0,0,1-.23-.5c-.054-.278.191-.6.748-.971a7.337,7.337,0,0,1,.8-.461.149.149,0,0,1,.13.268,7.192,7.192,0,0,0-.764.441c-.5.335-.645.567-.619.672a.149.149,0,0,1,0,.05.318.318,0,0,0,.109.257c.085.061.311.127.864-.106l.514-.3a.149.149,0,0,1,.152.256l-.523.309-.018.009A2.028,2.028,0,0,1,514.379,434.942Z" transform="translate(-23549.795 -3184.644)"/>
      <path id="Path_635" data-name="Path 635" d="M503.751,445.2a1.167,1.167,0,0,1-.309-.046,1.953,1.953,0,0,1-.406-.166.149.149,0,0,1,.148-.259c.146.083.6.277.789.1a.331.331,0,0,0,.06-.255.149.149,0,0,1,.2-.165c.08.029.236.054.266,0a.149.149,0,0,1,.263.14.387.387,0,0,1-.4.19l-.035,0a.629.629,0,0,1-.126.286l-.012.013A.6.6,0,0,1,503.751,445.2Z" transform="translate(-23540.473 -3194.547)"/>
      <path id="Path_636" data-name="Path 636" d="M508.008,435.681a.149.149,0,0,1-.149-.143c-.018-.456-.886-.594-.895-.6a.149.149,0,0,1,.042-.295c.046.007,1.122.168,1.15.878a.149.149,0,0,1-.143.155Z" transform="translate(-23543.824 -3186.167)"/>
      <path id="Path_637" data-name="Path 637" d="M549.138,520.577a.642.642,0,1,0-.653.747A.708.708,0,0,0,549.138,520.577Z" transform="translate(-23579.244 -3259.825)"/>
      <path id="Path_638" data-name="Path 638" d="M549.414,521.911c-.048-.246-.215-.42-.374-.389s-.249.255-.2.5.215.42.374.389S549.462,522.157,549.414,521.911Z" transform="translate(-23580.068 -3261.237)" fill="#fff"/>
      <path id="Path_638_-_アウトライン" data-name="Path 638 - アウトライン" d="M548.965,521.362c.172,0,.333.18.381.429.053.274-.051.517-.238.553a.238.238,0,0,1-.045,0c-.173,0-.333-.18-.381-.429-.053-.274.051-.517.237-.553A.232.232,0,0,1,548.965,521.362Zm.1.9.028,0c.132-.026.209-.231.167-.448-.039-.2-.168-.356-.293-.356l-.029,0c-.132.026-.208.231-.166.448C548.808,522.1,548.937,522.259,549.063,522.259Z" transform="translate(-23579.955 -3261.125)"/>
      <path id="Path_639" data-name="Path 639" d="M550.854,525.424l-.116-.347-.014-.029.05-.048.208.345S550.9,525.424,550.854,525.424Z" transform="translate(-23581.711 -3264.249)" fill="#807c88"/>
      <path id="Path_639_-_アウトライン" data-name="Path 639 - アウトライン" d="M550.686,525.291l-.126-.375-.027-.056.114-.11.256.424-.026.025a.313.313,0,0,1-.159.092Zm-.016-.33.076.227a.412.412,0,0,0,.042-.031Z" transform="translate(-23581.574 -3264.071)"/>
      <path id="Path_640" data-name="Path 640" d="M551.456,524.614a.536.536,0,0,0-.007-.151l-.006-.035-.272.021.008.068.275.092" transform="translate(-23582.098 -3263.754)" fill="#807c88"/>
      <path id="Path_640_-_アウトライン" data-name="Path 640 - アウトライン" d="M551.316,524.532l-.3-.1-.017-.143.36-.028.012.076a.58.58,0,0,1,.007.162l-.048,0Z" transform="translate(-23581.973 -3263.635)"/>
      <path id="Path_641" data-name="Path 641" d="M550.751,522.259l.208-.214a.841.841,0,0,0-.114-.123,1.613,1.613,0,0,0-.141.3Z" transform="translate(-23581.695 -3261.586)" fill="#807c88"/>
      <path id="Path_641_-_アウトライン" data-name="Path 641 - アウトライン" d="M550.624,522.145l-.1-.077.011-.031a1.663,1.663,0,0,1,.144-.311l.028-.046.04.036a.888.888,0,0,1,.12.129l.023.031Zm.1-.324a1.579,1.579,0,0,0-.085.18l.128-.132Q550.747,521.844,550.724,521.821Z" transform="translate(-23581.561 -3261.413)"/>
      <path id="Path_642" data-name="Path 642" d="M549.233,522.058l-.067-.352s-.1,0-.145.179l.149.184Z" transform="translate(-23580.238 -3261.398)" fill="#807c88"/>
      <path id="Path_642_-_アウトライン" data-name="Path 642 - アウトライン" d="M549.029,522l-.18-.221.006-.022c.055-.207.175-.213.188-.213h.037l.082.434Zm-.081-.242.107.132-.045-.238A.226.226,0,0,0,548.948,521.763Z" transform="translate(-23580.115 -3261.287)"/>
      <path id="Path_643" data-name="Path 643" d="M549.657,525.3l-.046.319a.592.592,0,0,1-.1-.116l.122-.2Z" transform="translate(-23580.662 -3264.509)" fill="#807c88"/>
      <path id="Path_643_-_アウトライン" data-name="Path 643 - アウトライン" d="M549.477,525.144h.1l-.065.454-.062-.057a.64.64,0,0,1-.106-.125l-.015-.023Z" transform="translate(-23580.529 -3264.397)"/>
      <path id="Path_644" data-name="Path 644" d="M548.883,524.64l.162-.061-.015-.045-.161-.031Z" transform="translate(-23580.105 -3263.819)" fill="#807c88"/>
      <path id="Path_644_-_アウトライン" data-name="Path 644 - アウトライン" d="M548.718,524.564l-.026-.254.246.047.036.111Z" transform="translate(-23579.98 -3263.681)"/>
      <path id="Path_645" data-name="Path 645" d="M549.83,524.158s.107-.123-.031-.195l-.156.047.049.149Z" transform="translate(-23580.775 -3263.352)" fill="#fff"/>
      <path id="Path_645_-_アウトライン" data-name="Path 645 - アウトライン" d="M549.517,524.083l-.073-.223.217-.065.016.008a.159.159,0,0,1,.092.111.2.2,0,0,1-.048.153l-.013.016Z" transform="translate(-23580.633 -3263.232)"/>
      <path id="Path_646" data-name="Path 646" d="M549.54,524.408a.064.064,0,1,0-.045.087A.071.071,0,0,0,549.54,524.408Z" transform="translate(-23580.578 -3263.69)" fill="#fff"/>
      <path id="Path_646_-_アウトライン" data-name="Path 646 - アウトライン" d="M549.369,524.212h0a.108.108,0,0,1,.1.067l0,0a.115.115,0,0,1-.074.142h0l-.024,0a.109.109,0,1,1,0-.218Z" transform="translate(-23580.467 -3263.578)"/>
      <path id="Path_647" data-name="Path 647" d="M546.693,501.038a.872.872,0,1,0-.79,1.092A.962.962,0,0,0,546.693,501.038Z" transform="translate(-23576.746 -3242.665)"/>
      <path id="Path_648" data-name="Path 648" d="M546.944,503.957c-.095-.326-.344-.541-.555-.479s-.306.376-.21.7.343.541.554.479S547.039,504.284,546.944,503.957Z" transform="translate(-23577.746 -3245.622)" fill="#fff"/>
      <path id="Path_648_-_アウトライン" data-name="Path 648 - アウトライン" d="M546.342,503.3c.217,0,.439.221.528.525.1.352-.007.694-.244.763a.314.314,0,0,1-.088.013c-.216,0-.438-.221-.527-.525-.1-.352.006-.694.244-.764A.314.314,0,0,1,546.342,503.3Zm.2,1.2a.214.214,0,0,0,.061-.009c.185-.054.265-.342.177-.642-.075-.259-.262-.454-.433-.454a.215.215,0,0,0-.061.009c-.185.054-.264.342-.177.642C546.182,504.307,546.364,504.5,546.537,504.5Z" transform="translate(-23577.627 -3245.5)"/>
      <path id="Path_649" data-name="Path 649" d="M547.585,508.607l-.022.438a.808.808,0,0,1-.148-.143l.139-.29Z" transform="translate(-23578.848 -3250.068)" fill="#807c88"/>
      <path id="Path_649_-_アウトライン" data-name="Path 649 - アウトライン" d="M547.493,508.4l-.029.592-.074-.055a.857.857,0,0,1-.157-.151l-.019-.024.163-.341Zm-.118.4.008-.161-.054.113Q547.351,508.773,547.375,508.8Z" transform="translate(-23578.705 -3249.92)"/>
      <path id="Path_650" data-name="Path 650" d="M546.291,507.921l.212-.1-.026-.058-.222-.022Z" transform="translate(-23577.846 -3249.317)" fill="#807c88"/>
      <path id="Path_650_-_アウトライン" data-name="Path 650 - アウトライン" d="M546.1,507.854l-.06-.309.317.031.056.128Z" transform="translate(-23577.693 -3249.178)"/>
      <path id="Path_651" data-name="Path 651" d="M549.089,508.7l-.2-.454-.022-.036.062-.072.325.441S549.15,508.694,549.089,508.7Z" transform="translate(-23580.104 -3249.662)" fill="#807c88"/>
      <path id="Path_651_-_アウトライン" data-name="Path 651 - アウトライン" d="M548.907,508.556l-.215-.484-.039-.064.125-.146.385.523-.026.03c-.027.03-.119.13-.194.138Zm-.123-.52.179.4a.528.528,0,0,0,.073-.061Z" transform="translate(-23579.951 -3249.465)"/>
      <path id="Path_652" data-name="Path 652" d="M549.782,507.347a.715.715,0,0,0-.029-.2l-.012-.048-.366.063.02.092.383.089" transform="translate(-23580.545 -3248.762)" fill="#807c88"/>
      <path id="Path_652_-_アウトライン" data-name="Path 652 - アウトライン" d="M549.62,507.25l-.414-.1-.038-.172.461-.079.023.091a.76.76,0,0,1,.031.214h-.054Zm-.331-.178.293.068a.66.66,0,0,0-.024-.12l0-.006-.27.047Z" transform="translate(-23580.396 -3248.622)"/>
      <path id="Path_653" data-name="Path 653" d="M548.765,504.36l.255-.315a1.134,1.134,0,0,0-.169-.152,2.2,2.2,0,0,0-.152.426Z" transform="translate(-23579.959 -3245.99)" fill="#807c88"/>
      <path id="Path_653_-_アウトライン" data-name="Path 653 - アウトライン" d="M548.635,504.238l-.133-.082.009-.035a2.248,2.248,0,0,1,.156-.436l.026-.053.048.035a1.183,1.183,0,0,1,.176.158l.028.031Zm.094-.454a2.16,2.16,0,0,0-.113.322l.2-.244A1.1,1.1,0,0,0,548.729,503.783Z" transform="translate(-23579.818 -3245.803)"/>
      <path id="Path_654" data-name="Path 654" d="M546.586,504.272l-.134-.468s-.131.011-.174.261l.224.229Z" transform="translate(-23577.863 -3245.913)" fill="#807c88"/>
      <path id="Path_654_-_アウトライン" data-name="Path 654 - アウトライン" d="M546.355,504.219l-.262-.268,0-.025c.049-.284.212-.3.219-.3l.04,0,.159.555Zm-.156-.3.186.19.008,0-.105-.366A.292.292,0,0,0,546.2,503.918Z" transform="translate(-23577.732 -3245.782)"/>
      <path id="Path_655" data-name="Path 655" d="M547.546,507.023s.128-.18-.067-.261l-.206.083.084.2Z" transform="translate(-23578.727 -3248.473)" fill="#fff"/>
      <path id="Path_655_-_アウトライン" data-name="Path 655 - アウトライン" d="M547.164,506.96l-.119-.274.271-.109.019.008a.207.207,0,0,1,.131.132.26.26,0,0,1-.043.2l-.013.018Zm.012-.221.05.116.128-.011a.148.148,0,0,0,.018-.1.1.1,0,0,0-.057-.06Z" transform="translate(-23578.563 -3248.34)"/>
      <path id="Path_656" data-name="Path 656" d="M547.2,507.48a.087.087,0,1,0-.05.125A.1.1,0,0,0,547.2,507.48Z" transform="translate(-23578.52 -3249.037)" fill="#fff"/>
      <path id="Path_656_-_アウトライン" data-name="Path 656 - アウトライン" d="M547,507.264a.136.136,0,0,1,.119.07l0,0a.146.146,0,0,1-.076.19l-.005,0a.135.135,0,0,1-.041.006.136.136,0,0,1,0-.273Z" transform="translate(-23578.398 -3248.914)"/>
      <path id="Path_657" data-name="Path 657" d="M541.754,475.4a1.211,1.211,0,1,0-.732,1.722A1.337,1.337,0,0,0,541.754,475.4Z" transform="translate(-23571.916 -3220.397)"/>
      <path id="Path_658" data-name="Path 658" d="M542.009,480.392c-.23-.413-.632-.626-.9-.478s-.3.6-.067,1.016.632.626.9.477S542.239,480.806,542.009,480.392Z" transform="translate(-23573.201 -3225.207)" fill="#fff"/>
      <path id="Path_658_-_アウトライン" data-name="Path 658 - アウトライン" d="M541.175,479.7h0a.971.971,0,0,1,.754.55,1.176,1.176,0,0,1,.159.634.524.524,0,0,1-.245.448.432.432,0,0,1-.213.054.972.972,0,0,1-.754-.55,1.078,1.078,0,0,1-.133-.788.472.472,0,0,1,.219-.295A.433.433,0,0,1,541.175,479.7Zm.455,1.588a.335.335,0,0,0,.165-.041c.242-.135.264-.56.048-.949a.874.874,0,0,0-.668-.5h0a.335.335,0,0,0-.165.041.377.377,0,0,0-.173.236.979.979,0,0,0,.124.713A.874.874,0,0,0,541.63,481.283Z" transform="translate(-23573.078 -3225.084)"/>
      <path id="Path_659" data-name="Path 659" d="M546.282,484.081a.994.994,0,0,0-.1-.264l-.031-.06-.476.2.056.118.547,0" transform="translate(-23577.342 -3228.571)" fill="#807c88"/>
      <path id="Path_659_-_アウトライン" data-name="Path 659 - アウトライン" d="M546.109,483.967l-.578,0-.091-.193.565-.235.051.1a1.04,1.04,0,0,1,.106.277l-.054.012Zm-.515-.1.456,0a.943.943,0,0,0-.079-.185h0l-.01-.02-.386.161Z" transform="translate(-23577.174 -3228.414)"/>
      <path id="Path_660" data-name="Path 660" d="M544.694,480.77l.248-.505a1.56,1.56,0,0,0-.276-.153,3.079,3.079,0,0,0-.075.624Z" transform="translate(-23576.406 -3225.417)" fill="#807c88"/>
      <path id="Path_660_-_アウトライン" data-name="Path 660 - アウトライン" d="M544.595,480.659l-.178-.06v-.036a3.132,3.132,0,0,1,.076-.634l.013-.058.054.023a1.611,1.611,0,0,1,.285.158l.035.024Zm-.078-.13.028.009.21-.428a1.5,1.5,0,0,0-.178-.1A3.043,3.043,0,0,0,544.517,480.529Z" transform="translate(-23576.281 -3225.246)"/>
      <path id="Path_661" data-name="Path 661" d="M541.385,481.287l-.327-.592s-.174.055-.154.406l.375.241Z" transform="translate(-23573.215 -3225.923)" fill="#807c88"/>
      <path id="Path_661_-_アウトライン" data-name="Path 661 - アウトライン" d="M541.154,481.252l-.42-.27v-.025c-.022-.385.18-.453.189-.456l.038-.012.37.671Zm-.324-.325.329.211.036-.019-.277-.5A.383.383,0,0,0,540.829,480.927Z" transform="translate(-23573.092 -3225.776)"/>
      <path id="Path_662" data-name="Path 662" d="M541.6,486.414l.256-.2-.053-.071-.308.039Z" transform="translate(-23573.732 -3230.632)" fill="#807c88"/>
      <path id="Path_662_-_アウトライン" data-name="Path 662 - アウトライン" d="M541.406,486.361l-.157-.354.4-.051.1.133Zm-.014-.273.052.117.169-.134-.007-.01Z" transform="translate(-23573.551 -3230.5)"/>
      <path id="Path_663" data-name="Path 663" d="M545.777,486.73l-.414-.552-.042-.042.061-.116.575.5S545.857,486.7,545.777,486.73Z" transform="translate(-23577.037 -3230.529)" fill="#807c88"/>
      <path id="Path_663_-_アウトライン" data-name="Path 663 - アウトライン" d="M545.608,486.594l-.433-.577-.065-.065.107-.2.652.563-.019.035c-.018.034-.115.205-.209.237Zm-.377-.661.021.022.387.516a.662.662,0,0,0,.105-.138l-.5-.43Z" transform="translate(-23576.885 -3230.335)"/>
      <path id="Path_664" data-name="Path 664" d="M544.161,486.853l.106.6a1.131,1.131,0,0,1-.245-.147l.1-.438Z" transform="translate(-23575.912 -3231.25)" fill="#807c88"/>
      <path id="Path_664_-_アウトライン" data-name="Path 664 - アウトライン" d="M544.062,486.618l.132.75-.084-.037a1.18,1.18,0,0,1-.255-.154l-.024-.019.11-.494Zm0,.581-.063-.356-.062.276A1.086,1.086,0,0,0,544.065,487.2Z" transform="translate(-23575.775 -3231.082)"/>
      <path id="Path_665" data-name="Path 665" d="M543.2,484.652s.118-.284-.171-.332l-.252.176.174.238Z" transform="translate(-23574.832 -3229.058)" fill="#fff"/>
      <path id="Path_665_-_アウトライン" data-name="Path 665 - アウトライン" d="M542.754,484.663l-.225-.308.31-.217.02,0a.269.269,0,0,1,.205.127.347.347,0,0,1,0,.272l-.009.021Zm-.086-.284.123.169.192-.064a.229.229,0,0,0-.005-.167.166.166,0,0,0-.116-.074Z" transform="translate(-23574.658 -3228.929)"/>
      <path id="Path_666" data-name="Path 666" d="M542.861,485.6a.121.121,0,1,0-.029.185A.133.133,0,0,0,542.861,485.6Z" transform="translate(-23574.717 -3230.112)" fill="#fff"/>
      <path id="Path_666_-_アウトライン" data-name="Path 666 - アウトライン" d="M542.649,485.39a.17.17,0,0,1,.127.056l0,0a.184.184,0,0,1-.04.253l0,0a.17.17,0,1,1-.086-.317Zm.052.12a.072.072,0,0,0-.052-.022.071.071,0,0,0-.044.015.072.072,0,0,0,.078.12A.085.085,0,0,0,542.7,485.51Z" transform="translate(-23574.596 -3229.99)"/>
    </g>
  </g>
</svg>
