<svg xmlns="http://www.w3.org/2000/svg" width="113.718" height="41.478" viewBox="0 0 113.718 41.478">
  <g id="レイヤー_1" data-name="レイヤー 1" transform="translate(0.414 0.004)">
    <g id="Group_84" data-name="Group 84">
      <g id="Group_83" data-name="Group 83">
        <path id="Path_113" data-name="Path 113" d="M24.81,30.02a1.059,1.059,0,0,1-1.19-1.23l.03-1.47c.02-.75.44-1.11,1.2-1.19a6.46,6.46,0,0,0,3.35-1.22c1.24-.98,1.45-1.92.86-2.67-.64-.81-1.62-.46-3.23-.01l-2.38.66a5.231,5.231,0,0,1-5.88-1.59c-1.86-2.35-1.25-5.9,1.73-8.26a8.364,8.364,0,0,1,4.84-1.81,1.055,1.055,0,0,1,1.17,1.21v1.13c0,.74-.4,1.12-1.16,1.23a5.429,5.429,0,0,0-2.57,1.12c-1.03.82-1.33,1.73-.75,2.46.63.79,1.73.41,3.36-.09l2.3-.69a4.933,4.933,0,0,1,5.81,1.65c1.85,2.33,1.52,5.93-1.87,8.62a10.1,10.1,0,0,1-5.62,2.15Z" fill="#ef5350"/>
        <path id="Path_114" data-name="Path 114" d="M29.48,9.14l-.43-1.09a1.082,1.082,0,0,1,.68-1.55L40.51,2.29a1.087,1.087,0,0,1,1.55.68l.43,1.1a1.087,1.087,0,0,1-.68,1.55l-3.4,1.33,4.77,12.21a1.087,1.087,0,0,1-.68,1.55l-1.77.69a1.082,1.082,0,0,1-1.55-.68L34.42,8.51,31.04,9.83a1.087,1.087,0,0,1-1.55-.68Z" fill="#ef5350"/>
        <path id="Path_115" data-name="Path 115" d="M48.71.64,57.61,0a1.086,1.086,0,0,1,1.28,1.11l.08,1.17a1.086,1.086,0,0,1-1.11,1.28l-5.82.42.24,3.3,4.76-.34a1.086,1.086,0,0,1,1.28,1.11l.09,1.2a1.086,1.086,0,0,1-1.11,1.28l-4.76.34.27,3.78,6.08-.43a1.086,1.086,0,0,1,1.28,1.11l.09,1.2a1.086,1.086,0,0,1-1.11,1.28l-9.17.65a1.081,1.081,0,0,1-1.28-1.11L47.6,1.91A1.086,1.086,0,0,1,48.71.63Z" fill="#ef5350"/>
        <path id="Path_116" data-name="Path 116" d="M67.01.66l4.96,1.16c3.81.89,6.64,3.01,5.64,7.31-.97,4.14-4.57,5.22-8.27,4.36l-2.03-.48-1.08,4.61a1.088,1.088,0,0,1-1.44.9l-1.85-.43a1.088,1.088,0,0,1-.9-1.44L65.56,1.57A1.088,1.088,0,0,1,67,.67Zm2.89,9.47c2.03.48,3.24-.25,3.64-1.96.41-1.75-.57-2.62-2.58-3.09l-1.71-.4L68.08,9.71l1.82.43Z" fill="#ef5350"/>
        <path id="Path_117" data-name="Path 117" d="M76.43,19.53a1.67,1.67,0,0,1,1.19-2.24l1.34-.48c1.11-.41,1.82.03,2.26,1.16a6.9,6.9,0,0,0,2.55,3.47c2.13,1.47,4.26,1.24,5.84-1.05,1.53-2.22,1.02-4.33-.88-5.64a5.266,5.266,0,0,0-2.35-.97,2.22,2.22,0,0,1-2.05-1.46l-.18-.43a2.292,2.292,0,0,1,.35-2.47l6.14-8.01a1.709,1.709,0,0,1,2.54-.39l9.45,6.52a1.629,1.629,0,0,1,.46,2.5l-1,1.45a1.629,1.629,0,0,1-2.5.46l-6.37-4.4-2.9,3.51a6.869,6.869,0,0,1,2.59,1.13c3.73,2.58,5.36,6.94,2.07,11.71-3.41,4.95-9.13,5.25-13.37,2.32a12.9,12.9,0,0,1-5.17-6.71Z" fill="#ef5350"/>
      </g>
      <line id="Line_103" data-name="Line 103" x2="15.62" y2="15.62" transform="translate(1 24.44)" fill="none" stroke="#ee534f" stroke-linecap="round" stroke-miterlimit="10" stroke-width="2"/>
      <path id="Path_188" data-name="Path 188" d="M15.63,0,0,15.62" transform="translate(96.26 24.44)" fill="none" stroke="#ee534f" stroke-linecap="round" stroke-width="2"/>
    </g>
  </g>
</svg>
