<svg xmlns="http://www.w3.org/2000/svg" width="100" height="100" viewBox="0 0 100 100">
  <g id="Group_375" data-name="Group 375" transform="translate(-518 -1710)">
    <g id="Ellipse_24" data-name="Ellipse 24" transform="translate(518 1710)" fill="#fff" stroke="#50b482" stroke-width="5">
      <circle cx="50" cy="50" r="50" stroke="none"/>
      <circle cx="50" cy="50" r="47.5" fill="none"/>
    </g>
    <g id="乗用車のアイコン素材1" transform="translate(534.058 1673.109)">
      <path id="Path_92" data-name="Path 92" d="M4.616,160.713c.309-.677.9-1.789,1.94-3.742.477-.9,1.011-1.892,1.558-2.909H3.326a3.326,3.326,0,0,0,0,6.651Z" transform="translate(0 -80.636)" fill="#50b482"/>
      <path id="Path_93" data-name="Path 93" d="M456.476,154.063h-4.789c.549,1.018,1.081,2.01,1.558,2.909,1.039,1.953,1.629,3.065,1.94,3.742h1.291a3.326,3.326,0,1,0,0-6.651Z" transform="translate(-390.917 -80.637)" fill="#50b482"/>
      <path id="Path_94" data-name="Path 94" d="M39.391,390.505a4.483,4.483,0,1,0,8.966,0v-4.24H39.391Z" transform="translate(-34.091 -281.598)" fill="#50b482"/>
      <path id="Path_95" data-name="Path 95" d="M405.938,390.505a4.485,4.485,0,0,0,8.97,0v-4.24h-8.97Z" transform="translate(-351.323 -281.598)" fill="#50b482"/>
      <path id="Path_96" data-name="Path 96" d="M75.109,80.91c.227.067-8.3-15.582-8.707-16.427a7.051,7.051,0,0,0-6.332-3.593H33.134A7.054,7.054,0,0,0,26.8,64.484c-.408.845-8.93,16.494-8.705,16.427,0,0-2.758,2.752-2.968,2.973a4.182,4.182,0,0,0-1.076,3.406V99.742c0,2.323.414,3.595,3.153,3.595H76c2.739,0,3.155-1.272,3.155-3.595V87.288a4.175,4.175,0,0,0-1.083-3.406C77.871,83.662,75.109,80.91,75.109,80.91Zm-49.956-4.8s5.476-9.864,5.8-10.509a4.268,4.268,0,0,1,3.742-1.9H58.512a4.266,4.266,0,0,1,3.742,1.9c.326.645,5.8,10.509,5.8,10.509a1.751,1.751,0,0,1-1.436,2.6H26.586A1.75,1.75,0,0,1,25.152,76.111Zm-.732,21.936a5.032,5.032,0,1,1,5.031-5.031A5.031,5.031,0,0,1,24.421,98.047Zm29.822,1.36a.666.666,0,0,1-.664.666H39.63a.667.667,0,0,1-.666-.666V93.263a.664.664,0,0,1,.666-.66H53.578a.663.663,0,0,1,.664.66v6.145Zm14.543-1.36a5.032,5.032,0,1,1,5.033-5.031A5.033,5.033,0,0,1,68.785,98.047Z" transform="translate(-12.161)" fill="#50b482"/>
    </g>
  </g>
</svg>
