<svg xmlns="http://www.w3.org/2000/svg" width="101" height="101" viewBox="0 0 101 101">
  <g id="レイヤー_1" data-name="レイヤー 1" transform="translate(19 22.352)">
    <circle id="Ellipse_34" data-name="Ellipse 34" cx="50.5" cy="50.5" r="50.5" transform="translate(-19 -22.352)" fill="#50b482"/>
    <g id="Group_123" data-name="Group 123" transform="translate(0.001 0)">
      <g id="Group_122" data-name="Group 122">
        <path id="Path_189" data-name="Path 189" d="M.429,13.209,3.61,10.947c2.445-1.74,5.1-2.292,7.06.468,1.886,2.652.675,5.274-1.694,6.96l-1.3.928,2.1,2.951a.835.835,0,0,1-.215,1.28l-1.18.843a.835.835,0,0,1-1.28-.215L.207,14.5a.835.835,0,0,1,.215-1.28Zm6.906,3.15c1.3-.928,1.495-1.993.721-3.081-.8-1.127-1.794-1-3.081-.084l-1.1.782L6.171,17.2l1.173-.828Z" transform="translate(0 -2.216)" fill="#fff"/>
        <path id="Path_190" data-name="Path 190" d="M18.916,10.079c-1.142-4.339.667-7.443,4.277-8.394s6.715.874,7.857,5.2c1.142,4.339-.629,7.589-4.239,8.539s-6.753-1-7.9-5.335Zm7.167,2.6c1.74-.46,2.4-2.384,1.725-4.944s-2.162-3.787-3.9-3.327S21.492,6.66,22.166,9.22,24.343,13.137,26.083,12.677Z" transform="translate(-4.337 -0.336)" fill="#fff"/>
        <path id="Path_191" data-name="Path 191" d="M40.332,0l1.456.023a.832.832,0,0,1,.9.935l-.207,11.866a.832.832,0,0,1-.935.9l-1.456-.023a.832.832,0,0,1-.9-.935L39.4.9a.832.832,0,0,1,.935-.9Z" transform="translate(-9.149 0)" fill="#fff"/>
        <path id="Path_192" data-name="Path 192" d="M51.11.863l1.625.483a1.129,1.129,0,0,1,.851.943L54.836,8.82l.429,3.288.092.023a46.6,46.6,0,0,1,1.012-4.975L57.4,3.684a.83.83,0,0,1,1.142-.621l1.234.368a.83.83,0,0,1,.621,1.142L57.028,15.949a.83.83,0,0,1-1.142.621l-1.625-.483a1.086,1.086,0,0,1-.836-.935L52.184,8.59l-.437-3.258-.092-.023c-.291,1.5-.56,3.38-1.027,4.967L49.6,13.749a.83.83,0,0,1-1.142.621L47.224,14a.83.83,0,0,1-.621-1.142L49.968,1.484A.83.83,0,0,1,51.11.863Z" transform="translate(-10.867 -0.189)" fill="#fff"/>
        <path id="Path_193" data-name="Path 193" d="M68.917,9.362l.529-.728a.837.837,0,0,1,1.288-.2L77.9,13.662a.837.837,0,0,1,.2,1.288l-.529.728a.833.833,0,0,1-1.288.2l-2.261-1.648L68.1,22.347a.833.833,0,0,1-1.288.2l-1.173-.859a.837.837,0,0,1-.2-1.288l5.918-8.118-2.246-1.64a.837.837,0,0,1-.2-1.288Z" transform="translate(-15.229 -1.919)" fill="#fff"/>
      </g>
      <path id="Path_194" data-name="Path 194" d="M30.446,51.994h4.139V35.782H31.251a1.737,1.737,0,0,1-1.916-1.916v-.575a2,2,0,0,1,1.725-2.108,17.554,17.554,0,0,0,4.216-1.571,4.359,4.359,0,0,1,2.376-.652h1.84a1.737,1.737,0,0,1,1.916,1.916V51.994h3.219a1.737,1.737,0,0,1,1.916,1.916V55.6a1.737,1.737,0,0,1-1.916,1.916H30.446A1.737,1.737,0,0,1,28.53,55.6V53.911a1.737,1.737,0,0,1,1.916-1.916Z" transform="translate(-6.661 -6.761)" fill="#fff"/>
    </g>
  </g>
</svg>
