<svg xmlns="http://www.w3.org/2000/svg" width="101" height="101" viewBox="0 0 101 101">
  <g id="レイヤー_1" data-name="レイヤー 1" transform="translate(18 25.523)">
    <circle id="Ellipse_36" data-name="Ellipse 36" cx="50.5" cy="50.5" r="50.5" transform="translate(-18 -25.523)" fill="#50b482"/>
    <g id="Group_131" data-name="Group 131" transform="translate(0 0)">
      <g id="Group_130" data-name="Group 130">
        <path id="Path_213" data-name="Path 213" d="M.439,13.292,3.691,10.98c2.5-1.779,5.212-2.343,7.218.478,1.928,2.712.69,5.392-1.732,7.116l-1.332.948,2.147,3.017a.854.854,0,0,1-.219,1.309l-1.207.862a.854.854,0,0,1-1.309-.219L.212,14.608A.854.854,0,0,1,.431,13.3ZM7.5,16.513c1.332-.948,1.528-2.038.737-3.15-.815-1.152-1.834-1.027-3.15-.086l-1.121.8,2.343,3.3,1.2-.846Z" transform="translate(0 -2.053)" fill="#fff"/>
        <path id="Path_214" data-name="Path 214" d="M18.924,10.272c-1.168-4.436.682-7.61,4.373-8.582S30.162,2.584,31.33,7c1.168,4.436-.643,7.759-4.334,8.73s-6.9-1.019-8.072-5.455Zm7.328,2.657c1.779-.47,2.453-2.437,1.763-5.055S25.8,4,24.026,4.473s-2.469,2.3-1.779,4.922S24.473,13.4,26.252,12.929Z" transform="translate(-4.018 -0.311)" fill="#fff"/>
        <path id="Path_215" data-name="Path 215" d="M40.358,0l1.489.024a.851.851,0,0,1,.925.956L42.56,13.111a.851.851,0,0,1-.956.925l-1.489-.024a.851.851,0,0,1-.925-.956L39.4.925A.851.851,0,0,1,40.358,0Z" transform="translate(-8.476 0)" fill="#fff"/>
        <path id="Path_216" data-name="Path 216" d="M51.213.864l1.661.494a1.154,1.154,0,0,1,.87.964L55.021,9l.439,3.362.094.024A47.648,47.648,0,0,1,56.589,7.3l1.05-3.55a.849.849,0,0,1,1.168-.635l1.262.376A.849.849,0,0,1,60.7,4.658l-3.44,11.63a.849.849,0,0,1-1.168.635l-1.661-.494a1.11,1.11,0,0,1-.854-.956L52.31,8.764l-.447-3.331-.094-.024c-.3,1.536-.572,3.456-1.05,5.078l-1.05,3.55a.849.849,0,0,1-1.168.635L47.239,14.3a.849.849,0,0,1-.635-1.168L50.045,1.5A.849.849,0,0,1,51.213.864Z" transform="translate(-10.068 -0.175)" fill="#fff"/>
        <path id="Path_217" data-name="Path 217" d="M69,9.387l.541-.745a.856.856,0,0,1,1.317-.2l7.328,5.345a.856.856,0,0,1,.2,1.317l-.541.745a.851.851,0,0,1-1.317.2l-2.312-1.685-6.05,8.3a.851.851,0,0,1-1.317.2l-1.2-.878a.856.856,0,0,1-.2-1.317l6.05-8.3L69.2,10.7A.856.856,0,0,1,69,9.379Z" transform="translate(-14.108 -1.777)" fill="#fff"/>
      </g>
      <path id="Path_218" data-name="Path 218" d="M27.276,55.74a1.793,1.793,0,0,1-.235-2.7l.98-1.332a1.76,1.76,0,0,1,2.743-.353,7.663,7.663,0,0,0,4.506,1.567c2.7,0,4.467-1.136,4.467-3.331s-1.019-3.605-5.408-3.919c-1.332-.118-2.038-.745-2.038-2v-1.1c0-1.254.705-1.881,2-2,3.409-.392,4.545-1.763,4.545-3.723s-1.176-3.1-3.331-3.1a6.374,6.374,0,0,0-3.683,1.215,1.779,1.779,0,0,1-2.743-.274L28.06,33.443a1.674,1.674,0,0,1,.313-2.743,12.864,12.864,0,0,1,7.445-2.39c6.035,0,9.992,2.821,9.992,8.033,0,2.9-1.567,5.172-4.663,6.426v.2c3.213.98,5.6,3.331,5.6,7.093,0,5.447-4.977,8.5-10.776,8.5a13.011,13.011,0,0,1-8.7-2.821Z" transform="translate(-5.74 -6.123)" fill="#fff"/>
    </g>
  </g>
</svg>
